<svg width="1281" height="1365" viewBox="0 0 1281 1365" fill="none" xmlns="http://www.w3.org/2000/svg">
<path d="M260.963 466.755L34.2207 603.173H1245.89L1041.31 466.755H260.963Z" fill="#68686D"/>
<path d="M1257.88 1185.81V615.791C1257.88 608.271 1250.54 602.173 1241.48 602.173H38.6309C29.5723 602.173 22.2324 608.271 22.2324 615.791V1340.54C22.2304 1347.17 22.2294 1353.55 22.2295 1359.58L1258.87 1365C1258.79 1280.51 1257.88 1279.15 1257.88 1185.81Z" fill="#68686D"/>
<path d="M1243.85 611.755H29.7754L34.6035 609.755L1239.67 609.951L1243.85 611.755Z" fill="white"/>
<path d="M753.447 612.064C755.354 616.556 757.467 620.599 760.19 623.298C762.025 625.115 764.748 625.697 767.154 624.771L813.088 608.673L753.447 612.064ZM925.506 573.185L947.6 573.951L935.522 582.666L792.713 607.892L925.506 573.185Z" fill="#13102D"/>
<path d="M936.576 555.564C936.365 555.411 936.178 555.251 936.037 555.091C935.127 554.021 930.889 550.884 929.787 550.4C929.018 550.064 928.08 549.767 927.291 549.9C923.979 550.45 758.658 580.997 755.842 581.446C749.885 582.4 745.729 587.583 746.291 593.579C746.67 597.63 750.768 613.595 753.811 616.575C756.518 619.236 759.943 620.146 763.709 619.259C768.291 618.181 929.627 583.814 935.522 582.665C937.498 582.282 938.9 580.505 938.791 578.505C938.736 577.54 938.705 576.571 938.643 575.607C938.607 575.056 938.721 574.653 939.037 574.388C939.432 568.173 938.225 558.935 936.576 555.564Z" fill="#FF0000"/>
<path d="M971.287 563.525C970.322 565.201 968.182 565.771 966.51 564.806C964.838 563.841 964.264 561.701 965.229 560.029C966.193 558.357 968.334 557.783 970.006 558.747C971.682 559.716 972.252 561.853 971.287 563.525ZM950.869 567.763C949.904 569.439 947.764 570.009 946.092 569.044C944.42 568.079 943.846 565.939 944.811 564.267C945.775 562.595 947.916 562.021 949.588 562.986C951.264 563.951 951.834 566.091 950.869 567.763ZM938.541 557.99C948.189 556.259 957.678 554.552 967.174 552.869C967.752 552.767 968.373 552.888 969.334 552.915C966.596 554.165 939.686 558.619 938.541 557.99ZM1018.85 567.9C1012.76 568.869 1006.67 569.915 1000.56 570.853C994.67 571.759 988.756 572.537 982.857 573.439C981.893 573.583 981.639 573.247 981.619 572.423C981.588 571.037 981.502 569.65 981.553 568.271C981.564 568.005 982.08 567.579 982.404 567.537C986.986 566.947 991.58 566.415 996.17 565.861C996.877 565.775 997.58 565.634 998.283 565.537C1000.46 565.24 1000.65 565.052 1000.56 562.794C1000.47 560.306 1000.33 551.63 1000.17 548.583C1000.13 547.642 999.291 546.943 998.357 547.056C995.314 547.419 968.721 550.451 967.896 550.525C967.568 550.556 967.15 550.369 966.885 550.15C964.611 548.302 963.729 545.74 964.408 543.064C964.869 541.255 966.131 539.517 967.412 538.087C969.064 536.247 971.443 535.99 973.83 536.275C974.314 536.333 974.768 536.615 975.252 536.755C976.205 537.029 977.182 536.982 977.732 536.099C978.291 535.201 978.127 534.31 977.279 533.501C972.045 528.497 963.674 527.701 957.643 531.388C955.553 532.622 951.99 538.251 950.35 542.302C949.557 544.263 949.307 546.439 948.701 548.486C947.846 551.376 945.779 553.326 943.295 554.826C942.197 555.486 940.936 555.884 939.729 556.357C938.846 556.701 937.463 556.212 936.576 555.564C938.225 558.935 939.432 568.173 939.037 574.388C939.229 574.22 939.502 574.107 939.861 574.037C943.779 573.302 968.514 569.216 970.252 568.954C970.447 568.923 970.662 568.997 970.869 569.025C970.873 569.122 970.877 569.216 970.877 569.314C968.525 569.658 959.654 571.29 957.561 571.732C954.439 572.392 951.311 573.021 948.186 573.673C948.033 573.704 947.9 573.806 947.596 573.951C948.131 574.388 948.639 574.681 948.99 575.107C950.268 576.642 951.709 578.099 952.697 579.81C954.385 582.728 956.686 585.037 959.35 586.939C966.139 591.79 973.807 593.521 981.967 592.095C988.963 590.869 995.553 588.326 1001.74 584.72C1007.71 581.24 1012.89 576.822 1017.78 572.017C1018.55 571.259 1019.28 570.435 1019.91 569.556C1020.18 569.177 1020.14 568.583 1020.25 568.087C1019.78 568.021 1019.3 567.829 1018.85 567.9Z" fill="#13102D"/>
<path d="M967.17 552.868C957.678 554.552 948.19 556.259 938.541 557.993C939.686 558.618 966.596 554.165 969.334 552.915C968.373 552.888 967.752 552.767 967.17 552.868ZM927.342 551.704C917.986 553.364 769.928 581.794 756.404 584.279C756.205 584.318 757.123 584.646 756.982 584.669C758.127 585.298 927.26 553.841 929.998 552.591C928.955 552.302 927.924 551.603 927.342 551.704ZM949.588 562.986C947.916 562.021 945.775 562.591 944.811 564.267C943.846 565.939 944.42 568.079 946.092 569.044C947.764 570.009 949.904 569.435 950.869 567.763C951.834 566.091 951.264 563.95 949.588 562.986ZM970.006 558.747C968.334 557.782 966.193 558.357 965.229 560.029C964.264 561.7 964.838 563.841 966.51 564.806C968.182 565.771 970.322 565.2 971.287 563.525C972.252 561.853 971.682 559.712 970.006 558.747Z" fill="white"/>
<path d="M1043.74 501.527L1087.27 458H968L1046.89 484.328C1048.04 484.715 1048.96 485.594 1049.39 486.727C1049.78 487.758 1049.73 488.902 1049.26 489.898L1043.74 501.527Z" fill="#13102D"/>
<path d="M1175.65 372.322C1163.31 372.482 1151.15 373.615 1139.08 375.255C1124.9 377.181 1111 379.665 1097.59 383.244C1080.59 387.775 1064.27 393.076 1050.13 400.837C1044.57 403.884 1039.6 407.251 1036.57 411.642C1033.67 415.841 1035.04 419.654 1040.69 422.439C1046.42 425.271 1053.26 426.005 1060.16 426.47C1073.45 427.361 1086.58 426.302 1099.59 424.681C1115.48 422.697 1130.98 419.775 1145.87 415.599C1160.9 411.384 1175.49 406.634 1188.79 400.365C1194.82 397.521 1200.49 394.411 1204.62 390.322C1207.64 387.341 1209.22 384.13 1207.19 380.603C1205.22 377.169 1200.98 375.283 1195.88 374.115C1189.33 372.622 1182.54 372.259 1175.65 372.322ZM1024.55 414.572C1021.63 413.63 1002.12 409.423 990.377 407.939C969.533 405.306 948.49 404.474 927.35 405.283C916.381 405.701 905.408 406.517 894.564 407.665C880.189 409.185 866.15 411.681 853.225 416.193C848.787 417.744 844.518 419.615 840.658 421.716C833.912 425.384 829.643 433.232 832.025 438.997C833.248 442.681 836.537 444.419 838.951 445.681C838.268 445.517 837.189 448.978 836.623 448.744C824.162 443.587 827.49 431.786 831.287 426.724C834.287 422.435 839.49 419.478 845.396 416.974C855.041 412.884 865.721 410.349 876.752 408.357C886.998 406.505 897.443 405.353 907.982 404.454C923.877 403.099 939.842 402.872 955.791 403.392C977.264 404.091 998.436 406.142 1018.71 411.079C1021.46 411.747 1024.17 412.478 1026.82 413.279C1028.1 413.669 1028.96 413.54 1029.61 412.798C1031.59 410.536 1033.49 408.24 1035.53 405.994C1036.13 405.329 1036.9 404.638 1037.87 404.216C1041.72 402.533 1045.25 400.74 1047.99 398.193C1049.32 396.954 1052.13 396.4 1054.22 395.49C1056.63 394.431 1059.21 393.478 1061.31 392.197C1063.75 390.708 1066.56 389.79 1069.52 388.88C1073.27 387.732 1076.8 386.298 1080.49 385.06C1083.29 384.119 1086.17 383.251 1089.07 382.423C1092.99 381.298 1096.94 380.22 1100.9 379.169C1103.95 378.361 1107.02 377.568 1110.13 376.869C1114.48 375.888 1118.94 375.091 1123.25 374.052C1126.19 373.349 1129 372.544 1132.22 372.462C1137.56 372.326 1142.51 371.079 1147.55 370.06C1149.38 369.689 1151.37 369.427 1153.27 369.47C1158.22 369.579 1162.96 368.978 1167.74 368.263C1169.94 367.935 1172.36 368.236 1174.68 368.263C1177.2 368.29 1179.75 368.525 1182.22 368.322C1185.88 368.021 1189.28 367.806 1192.81 369.025C1194.53 369.622 1197 369.451 1199.12 369.396C1201.7 369.329 1203.82 369.548 1205.14 371.228C1205.49 371.665 1206.53 371.939 1207.34 372.134C1208.25 372.357 1209.25 372.4 1210.21 372.525C1213.12 372.904 1213.21 372.904 1213.26 374.794C1213.29 375.958 1214.59 376.247 1215.77 376.654C1218.28 377.525 1218.46 377.622 1217.06 379.228C1216 380.443 1216 381.431 1217.47 382.415C1218.48 383.091 1218.2 383.665 1217.27 384.263C1216.54 384.736 1215.94 385.302 1215.2 385.779C1213.87 386.634 1213.15 387.611 1213.42 388.845C1213.63 389.779 1213.03 390.466 1211.85 390.994C1208.49 392.49 1205.37 394.103 1203.99 396.759C1203.76 397.208 1202.9 397.587 1202.21 397.865C1197.69 399.634 1193.21 401.376 1189.9 404.189C1188.9 405.048 1186.89 405.474 1185.24 405.951C1181.24 407.111 1177.62 408.607 1174.11 410.333C1171.58 411.576 1168.41 412.283 1165.52 413.212C1162.03 414.333 1158.39 415.286 1155.08 416.595C1151.9 417.849 1148.49 418.536 1145.01 419.259C1141.06 420.087 1137.26 421.185 1133.35 422.111C1130.44 422.798 1127.54 423.65 1124.52 423.978C1119.33 424.54 1114.45 425.63 1109.55 426.798C1107.44 427.302 1105.15 427.716 1102.93 427.732C1097.96 427.767 1093.29 428.564 1088.58 429.439C1086.56 429.81 1084.33 430.017 1082.25 429.884C1077.77 429.587 1073.4 429.865 1069.08 430.529C1066.64 430.904 1064.37 430.771 1061.99 430.318C1059.83 429.904 1057.54 429.79 1055.31 429.544C1053.47 429.341 1052.76 429.775 1052.86 431.048C1055.97 441.208 1049.96 447.138 1044.78 449.658C1044.99 449.079 1045.5 445.404 1045.59 445.165C1048.19 443.189 1048.72 442.958 1050.43 438.904C1051.42 436.419 1051.29 432.591 1049.9 430.579C1048.51 428.568 1027.48 415.513 1024.55 414.572Z" fill="#68686D"/>
<path d="M1038.41 494.552C1040.46 493.826 1040.7 492.884 1040.7 491.822C1040.68 478.744 1040.68 465.669 1040.68 452.591C1040.68 452.298 1040.7 451.998 1040.62 451.708C1040.43 450.951 1039.62 450.849 1039.04 451.376C1038.5 451.873 1038.16 452.583 1038.15 453.201C1038.11 466.447 1038.12 479.689 1038.13 492.935C1038.13 493.412 1038.29 493.884 1038.41 494.552ZM863.553 458.607C863.561 457.673 863.107 457.181 861.705 456.822C858.139 455.904 854.639 454.873 851.143 453.845C848.764 453.146 848.443 453.236 848.439 454.912C848.416 468.501 848.416 482.095 848.357 495.685C848.354 496.779 848.877 497.607 850.275 498.134C853.365 499.294 856.428 500.494 859.643 501.49C862.357 502.326 862.818 502.072 862.826 500.138C862.854 493.302 863.514 465.615 863.553 458.607ZM1046.1 445.892C1046.15 446.654 1045.97 446.662 1045.97 447.232C1045.98 460.107 1045.74 472.99 1046.1 485.861C1046.25 491.423 1042.57 495.384 1036.34 498.701C1027.84 503.236 1017.87 505.919 1007.53 508.08C996.463 510.388 985.107 511.798 973.588 512.814C957.951 514.197 942.256 514.314 926.564 513.857C909.865 513.373 893.381 511.736 877.342 508.58C867.084 506.56 857.17 503.994 848.439 499.837C843.924 497.685 839.846 495.224 837.861 491.74C837.002 490.232 836.568 488.537 836.557 486.927C836.498 473.505 836.58 460.08 836.631 446.654C836.631 446.287 836.736 445.919 836.834 445.287C838.275 445.982 839.436 446.552 840.615 447.107C849.596 451.306 859.639 454.083 870.131 456.212C887.385 459.712 905.088 461.611 923.131 462.103C932.697 462.365 942.287 462.646 951.846 462.447C960.873 462.255 969.881 461.498 978.881 460.892C989.342 460.189 999.701 459.173 1009.77 457.228C1035.09 452.048 1045.38 446.169 1046.1 445.892Z" fill="#FF0000"/>
<path d="M1049.49 489.501C1050.57 491.884 1050.72 494.232 1049.39 496.537C1047.12 500.494 1042.72 503.349 1037.61 505.775C1028.94 509.892 1019.16 512.533 1008.97 514.595C992.529 517.927 975.643 519.626 958.475 520.294C943.217 520.888 927.971 520.802 912.787 519.716C894.459 518.404 876.482 516.068 859.514 511.177C852.338 509.107 845.514 506.63 839.881 503.009C834.959 499.845 831.506 496.208 832.092 491.466C832.174 490.81 832.447 490.166 833.076 489.49C833.373 490.142 833.639 490.794 833.963 491.439C836.107 495.681 840.643 498.728 845.967 501.337C855.471 505.99 866.35 508.794 877.67 510.923C899.057 514.939 920.951 516.404 943.162 516.33C958.592 516.279 973.881 515.388 989.006 513.443C1002.41 511.716 1015.46 509.259 1027.57 505.044C1034.28 502.708 1040.58 499.958 1045.01 495.861C1049.05 492.228 1049.28 489.841 1049.49 489.501Z" fill="#13102D"/>
<path d="M1172.32 373.611C1167.59 373.853 1162.85 374.056 1158.12 374.349C1146.22 375.079 1134.59 376.724 1123.04 378.63C1112.23 380.415 1101.77 382.88 1091.57 385.802C1076.74 390.048 1062.53 394.974 1050.2 401.896C1044.7 404.986 1039.72 408.368 1037.27 412.966C1035.43 416.419 1036.87 419.505 1041.35 421.743C1044.9 423.513 1049.06 424.404 1053.36 424.943C1065.4 426.462 1077.5 425.978 1089.53 424.9C1101.22 423.853 1112.67 422.048 1123.97 419.868C1135.37 417.673 1146.29 414.712 1156.95 411.337C1169.08 407.493 1180.89 403.29 1191.37 397.697C1196.42 395.001 1201.08 392.068 1203.97 388.158C1206.91 384.181 1205.85 380.482 1200.77 377.978C1199.03 377.122 1197.03 376.427 1195 375.892C1187.74 373.966 1180.06 373.74 1172.32 373.611ZM1175.65 372.322C1182.54 372.259 1189.33 372.622 1195.87 374.115C1200.98 375.283 1205.22 377.169 1207.19 380.603C1209.22 384.13 1207.64 387.341 1204.62 390.322C1200.48 394.411 1194.82 397.521 1188.79 400.365C1175.49 406.634 1160.9 411.384 1145.87 415.599C1130.98 419.775 1115.48 422.697 1099.59 424.681C1086.58 426.302 1073.45 427.361 1060.16 426.47C1053.26 426.005 1046.42 425.271 1040.69 422.439C1035.04 419.654 1033.67 415.841 1036.57 411.642C1039.6 407.251 1044.57 403.884 1050.13 400.837C1064.27 393.075 1080.59 387.775 1097.59 383.243C1111 379.665 1124.9 377.181 1139.08 375.255C1151.15 373.615 1163.31 372.482 1175.65 372.322ZM862.826 500.138C862.822 502.072 862.357 502.325 859.643 501.486C856.428 500.493 853.365 499.294 850.275 498.134C848.877 497.607 848.354 496.779 848.357 495.685C848.416 482.095 848.416 468.501 848.439 454.911C848.443 453.236 848.764 453.146 851.143 453.845C854.639 454.872 858.139 455.904 861.705 456.822C863.107 457.181 863.561 457.673 863.557 458.607C863.514 465.615 862.854 493.302 862.826 500.138ZM1038.41 494.552C1038.29 493.884 1038.13 493.411 1038.13 492.935C1038.12 479.689 1038.11 466.447 1038.15 453.2C1038.16 452.583 1038.5 451.872 1039.04 451.376C1039.62 450.849 1040.43 450.95 1040.62 451.708C1040.7 451.997 1040.68 452.298 1040.68 452.591C1040.68 465.669 1040.68 478.743 1040.7 491.822C1040.7 492.884 1040.46 493.825 1038.41 494.552Z" fill="white"/>
<path d="M1172.32 373.611C1180.06 373.74 1187.74 373.966 1195 375.892C1197.03 376.427 1199.03 377.123 1200.77 377.978C1205.85 380.482 1206.91 384.181 1203.97 388.158C1201.08 392.068 1196.42 395.001 1191.37 397.697C1180.89 403.291 1169.08 407.494 1156.95 411.337C1146.29 414.712 1135.37 417.673 1123.97 419.869C1112.67 422.048 1101.22 423.853 1089.53 424.9C1077.5 425.978 1065.4 426.462 1053.36 424.943C1049.06 424.404 1044.9 423.513 1041.35 421.744C1036.87 419.505 1035.43 416.419 1037.27 412.966C1039.72 408.369 1044.7 404.986 1050.2 401.896C1062.53 394.974 1076.74 390.048 1091.57 385.802C1101.77 382.88 1112.23 380.416 1123.04 378.63C1134.59 376.724 1146.22 375.08 1158.12 374.349C1162.85 374.056 1167.59 373.853 1172.32 373.611ZM941.584 465.326C898.932 465.326 855.564 459.833 834.592 447.619L835.65 443.916C854.873 455.115 898.299 461.916 947.451 461.251C993.775 460.634 1033.82 454.08 1046.38 444.556L1048.46 447.291C1033.47 458.662 987.877 465.326 941.584 465.326Z" fill="#68686D"/>
<path d="M-2 0.5H1280V187.5H-2V0.5Z" fill="#13102D"/>
<path d="M1661.37 391.017C1660.07 390.446 1658.76 389.888 1657.47 389.31C1644.03 383.345 1630.78 377.165 1617.13 371.458C1592.51 361.15 1567.81 350.919 1542.85 341.028C1513.26 329.302 1483.24 318.138 1451.79 309.052C1447.74 307.88 1445.25 308.349 1441.75 310.165C1430.61 315.95 1419.01 321.282 1407.58 326.782C1407.11 327.013 1406.54 327.15 1406.04 327.353C1401.74 329.071 1397.92 329.193 1393.52 326.927C1382.65 321.329 1371.27 316.232 1360.31 310.728C1338.21 299.634 1316.23 288.423 1294.24 277.224C1270.67 265.228 1247.1 253.232 1223.61 241.157C1210.64 234.493 1197.8 227.708 1184.65 220.817C1182.14 219.505 1179.09 219.81 1176.9 221.607C1176.12 222.251 1175.33 222.888 1174.5 223.509C1165.78 230.118 1157.02 236.712 1148.23 243.282C1144.75 245.884 1141.22 246.689 1136.38 244.431C1124.53 238.896 1111.99 234.075 1100.4 228.29C1076.6 216.415 1053.24 204.095 1029.71 191.946C1029.69 191.942 1029.68 191.935 1029.67 191.927C1027.31 190.712 1024.49 190.841 1022.32 192.357C1021.31 193.06 1020.33 193.763 1019.38 194.493C1004.56 205.915 989.861 217.415 974.963 228.786C960.396 239.903 945.811 251.017 930.916 261.907C918.986 270.63 906.631 279.06 894.342 287.528C891.795 289.282 888.682 290.614 885.861 292.169C883.963 293.216 882.088 293.255 879.955 292.466C867.795 287.974 855.561 283.583 843.455 279.017C841.17 278.157 839.822 278.025 837.752 279.368C821.744 289.743 805.588 299.997 789.502 310.31C789.115 310.556 788.729 310.806 788.342 311.052C786.158 312.458 783.377 312.556 781.107 311.29C776.15 308.521 771.252 305.7 766.521 302.743C746.037 289.958 725.982 276.818 705.732 263.841C689.646 253.528 673.486 243.275 657.482 232.9C655.408 231.56 654.061 231.689 651.775 232.552C639.67 237.114 627.436 241.509 615.275 245.997C613.143 246.786 611.268 246.747 609.369 245.7C606.549 244.146 603.436 242.814 600.889 241.06C588.6 232.591 576.244 224.161 564.314 215.439C549.42 204.548 534.834 193.435 520.268 182.317C505.373 170.946 490.67 159.446 475.854 148.025C474.904 147.294 473.92 146.591 472.916 145.892C470.744 144.376 467.916 144.243 465.564 145.462C465.553 145.466 465.541 145.474 465.525 145.478C441.994 157.626 418.631 169.942 394.834 181.821C383.24 187.607 370.705 192.431 358.846 197.962C354.01 200.22 350.479 199.415 347.002 196.814C338.213 190.243 329.459 183.65 320.729 177.04C319.908 176.419 319.111 175.778 318.326 175.138C316.143 173.345 313.092 173.036 310.588 174.349C297.428 181.239 284.588 188.025 271.623 194.689C248.135 206.763 224.564 218.759 200.998 230.755C179.002 241.954 157.025 253.169 134.928 264.259C123.959 269.767 112.588 274.86 101.713 280.458C97.3066 282.724 93.4902 282.603 89.1934 280.884C88.6895 280.681 88.127 280.544 87.6504 280.314C76.2207 274.814 64.6191 269.482 53.4824 263.696C49.9863 261.88 47.4863 261.415 43.4395 262.583C11.9902 271.669 -18.0254 282.833 -47.6191 294.56C-72.5801 304.45 -97.2793 314.681 -121.904 324.989C-135.545 330.696 -148.803 336.876 -162.232 342.845" stroke="#68686D" stroke-width="2.66667" stroke-miterlimit="10"/>
</svg>
