<svg width="392" height="153" viewBox="0 0 392 153" fill="none" xmlns="http://www.w3.org/2000/svg">
<path d="M216.738 133.527L260.27 90H141L219.891 116.328C221.043 116.715 221.961 117.594 222.391 118.727C222.781 119.758 222.734 120.902 222.262 121.898L216.738 133.527Z" fill="#13102D"/>
<path d="M348.654 4.32165C336.307 4.48181 324.154 5.61462 312.08 7.25524C297.904 9.18102 283.998 11.6654 270.588 15.2435C253.592 19.7748 237.271 25.0756 223.131 32.8373C217.572 35.8842 212.604 39.2513 209.568 43.642C206.666 47.8412 208.041 51.6537 213.689 54.4388C219.42 57.2709 226.264 58.0052 233.158 58.4701C246.447 59.3607 259.58 58.3021 272.588 56.681C288.482 54.6967 303.979 51.7748 318.865 47.599C333.9 43.3842 348.494 38.6342 361.791 32.3646C367.818 29.5209 373.486 26.4115 377.623 22.3216C380.639 19.3412 382.217 16.1302 380.193 12.6029C378.225 9.16931 373.982 7.28259 368.877 6.11462C362.334 4.62243 355.537 4.25915 348.654 4.32165ZM197.553 46.5717C194.627 45.6302 175.119 41.4232 163.377 39.9388C142.533 37.306 121.49 36.474 100.35 37.2826C89.3808 37.7006 78.4082 38.517 67.5644 39.6654C53.1894 41.1849 39.1504 43.681 26.2246 48.1927C21.7871 49.7435 17.5176 51.6146 13.6582 53.7162C6.91209 57.3842 2.64255 65.2318 5.02537 70.9974C6.24802 74.681 9.53709 76.4193 11.9511 77.681C11.2676 77.517 10.1894 80.9779 9.62302 80.7435C-2.83792 75.5873 0.49021 63.7865 4.28709 58.724C7.28709 54.4349 12.4902 51.4779 18.3965 48.974C28.041 44.8842 38.7207 42.349 49.7519 40.3568C59.998 38.5052 70.4433 37.3529 80.9824 36.4545C96.8769 35.099 112.842 34.8724 128.791 35.392C150.264 36.0912 171.436 38.142 191.713 43.0795C194.455 43.7474 197.166 44.4779 199.818 45.2787C201.1 45.6693 201.955 45.5404 202.607 44.7982C204.592 42.5365 206.49 40.2396 208.525 37.9935C209.127 37.3295 209.904 36.6381 210.869 36.2162C214.717 34.5326 218.252 32.7396 220.986 30.1927C222.318 28.9545 225.131 28.3998 227.221 27.4896C229.631 26.431 232.209 25.4779 234.311 24.1967C236.752 22.7084 239.564 21.7904 242.521 20.8802C246.268 19.7318 249.799 18.2982 253.486 17.0599C256.295 16.1185 259.17 15.2513 262.068 14.4232C265.986 13.2982 269.936 12.2201 273.9 11.1693C276.951 10.3607 280.018 9.56774 283.131 8.86852C287.482 7.88806 291.936 7.09118 296.252 6.05212C299.186 5.34899 302.002 4.54431 305.217 4.46227C310.561 4.32556 315.514 3.07946 320.553 2.05993C322.381 1.68884 324.373 1.42712 326.271 1.47009C331.225 1.57946 335.959 0.977897 340.744 0.263054C342.939 -0.0650717 345.361 0.23571 347.682 0.263054C350.197 0.290397 352.752 0.524773 355.221 0.321648C358.881 0.020867 362.283 -0.193977 365.807 1.02477C367.529 1.62243 369.998 1.45055 372.115 1.39587C374.701 1.32946 376.822 1.54821 378.143 3.2279C378.486 3.6654 379.533 3.93884 380.342 4.13415C381.248 4.35681 382.252 4.39977 383.209 4.52477C386.115 4.90368 386.213 4.90368 386.264 6.79431C386.295 7.95837 387.588 8.24743 388.768 8.65368C391.275 9.52477 391.459 9.62243 390.061 11.2279C389.002 12.4427 389.002 13.431 390.475 14.4154C391.479 15.0912 391.201 15.6654 390.272 16.2631C389.537 16.7357 388.939 17.3021 388.201 17.7787C386.873 18.6341 386.154 19.6107 386.424 20.8451C386.627 21.7787 386.033 22.4662 384.85 22.9935C381.494 24.4896 378.373 26.1029 376.99 28.7592C376.756 29.2084 375.904 29.5873 375.209 29.8646C370.693 31.6342 366.213 33.3763 362.904 36.1888C361.896 37.0482 359.893 37.474 358.244 37.9506C354.24 39.1107 350.615 40.6068 347.107 42.3334C344.576 43.5756 341.412 44.2826 338.521 45.2123C335.033 46.3334 331.389 47.2865 328.076 48.5951C324.9 49.849 321.486 50.5365 318.014 51.2592C314.064 52.0873 310.256 53.1849 306.35 54.1107C303.439 54.7982 300.541 55.6498 297.521 55.9779C292.33 56.5404 287.447 57.6302 282.549 58.7982C280.443 59.3021 278.15 59.7162 275.932 59.7318C270.963 59.767 266.291 60.5638 261.58 61.4388C259.561 61.8099 257.326 62.017 255.252 61.8842C250.771 61.5873 246.404 61.8646 242.08 62.5287C239.639 62.9037 237.373 62.7709 234.99 62.3177C232.834 61.9037 230.545 61.7904 228.314 61.5443C226.471 61.3412 225.764 61.7748 225.861 63.0482C228.975 73.2084 222.963 79.1381 217.779 81.6576C217.99 81.0795 218.498 77.4037 218.588 77.1654C221.193 75.1888 221.725 74.9584 223.432 70.9037C224.424 68.4193 224.287 64.5912 222.9 62.5795C221.51 60.5677 200.479 47.5131 197.553 46.5717Z" fill="#68686D"/>
<path d="M211.412 126.552C213.455 125.826 213.701 124.884 213.697 123.822C213.678 110.744 213.682 97.6694 213.678 84.5913C213.678 84.2983 213.697 83.9976 213.623 83.7085C213.432 82.9507 212.619 82.8491 212.045 83.3765C211.498 83.8726 211.158 84.5835 211.154 85.2007C211.107 98.4468 211.119 111.689 211.131 124.935C211.131 125.412 211.291 125.884 211.412 126.552ZM36.5527 90.6069C36.5606 89.6733 36.1074 89.1812 34.7051 88.8218C31.1387 87.9038 27.6387 86.8726 24.1426 85.8452C21.7637 85.146 21.4434 85.2358 21.4395 86.9116C21.416 100.501 21.416 114.095 21.3574 127.685C21.3535 128.779 21.877 129.607 23.2754 130.134C26.3652 131.294 29.4277 132.494 32.6426 133.49C35.3574 134.326 35.8184 134.072 35.8262 132.138C35.8535 125.302 36.5137 97.6147 36.5527 90.6069ZM219.1 77.8921C219.154 78.6538 218.975 78.6616 218.975 79.2319C218.982 92.1069 218.736 104.99 219.096 117.861C219.252 123.423 215.568 127.384 209.342 130.701C200.842 135.236 190.873 137.919 180.529 140.08C169.463 142.388 158.107 143.798 146.588 144.814C130.951 146.197 115.256 146.314 99.5645 145.857C82.8652 145.373 66.3809 143.736 50.3418 140.58C40.084 138.56 30.1699 135.994 21.4395 131.837C16.9238 129.685 12.8457 127.224 10.8613 123.74C10.002 122.232 9.56837 120.537 9.55665 118.927C9.49805 105.505 9.58009 92.0796 9.63087 78.6538C9.63087 78.2866 9.73634 77.9194 9.83399 77.2866C11.2754 77.9819 12.4356 78.5522 13.6152 79.1069C22.5957 83.3062 32.6387 86.0835 43.1309 88.2124C60.3848 91.7124 78.0879 93.6108 96.1309 94.103C105.697 94.3647 115.287 94.646 124.846 94.4468C133.873 94.2554 142.881 93.4976 151.881 92.8921C162.342 92.189 172.701 91.1733 182.768 89.228C208.092 84.0483 218.377 78.1694 219.1 77.8921Z" fill="#FF0000"/>
<path d="M222.486 121.501C223.572 123.884 223.717 126.232 222.393 128.537C220.119 132.494 215.721 135.349 210.611 137.775C201.943 141.892 192.162 144.533 181.975 146.595C165.529 149.927 148.643 151.626 131.475 152.294C116.217 152.888 100.971 152.802 85.7871 151.716C67.459 150.404 49.4824 148.068 32.5137 143.177C25.3379 141.107 18.5137 138.63 12.8809 135.009C7.95899 131.845 4.50587 128.208 5.09181 123.466C5.17384 122.81 5.44727 122.166 6.07618 121.49C6.37306 122.142 6.63868 122.794 6.9629 123.439C9.10743 127.681 13.6426 130.728 18.9668 133.337C28.4707 137.99 39.3496 140.794 50.6699 142.923C72.0566 146.939 93.9512 148.404 116.162 148.33C131.592 148.279 146.881 147.388 162.006 145.443C175.408 143.716 188.459 141.259 200.572 137.044C207.283 134.708 213.58 131.958 218.014 127.861C222.053 124.228 222.283 121.841 222.486 121.501Z" fill="#13102D"/>
<path d="M345.322 5.61063C340.588 5.85282 335.846 6.05594 331.115 6.34891C319.225 7.07938 307.592 8.72391 296.045 10.6302C285.229 12.4153 274.772 14.8802 264.572 17.802C249.744 22.0481 235.529 26.9739 223.197 33.8958C217.697 36.9856 212.717 40.3684 210.272 44.9661C208.432 48.4192 209.869 51.5052 214.354 53.7435C217.9 55.513 222.064 56.4036 226.357 56.9427C238.404 58.4622 250.498 57.9778 262.533 56.8997C274.221 55.8528 285.666 54.0481 296.975 51.8684C308.365 49.6731 319.291 46.7122 329.951 43.3372C342.084 39.4934 353.893 35.2903 364.369 29.6966C369.42 27.0013 374.076 24.0677 376.967 20.1575C379.912 16.1809 378.854 12.4817 373.768 9.97782C372.029 9.12235 370.025 8.42704 367.998 7.89188C360.736 5.9661 353.057 5.73954 345.322 5.61063ZM348.654 4.32157C355.537 4.25907 362.334 4.62235 368.873 6.11454C373.982 7.2825 378.225 9.16922 380.193 12.6028C382.217 16.1302 380.639 19.3411 377.623 22.3216C373.482 26.4114 367.818 29.5208 361.791 32.3645C348.494 38.6341 333.9 43.3841 318.865 47.5989C303.979 51.7747 288.482 54.6966 272.588 56.681C259.58 58.302 246.447 59.3606 233.158 58.47C226.264 58.0052 219.42 57.2708 213.689 54.4388C208.041 51.6536 206.666 47.8411 209.568 43.6419C212.604 39.2513 217.572 35.8841 223.131 32.8372C237.272 25.0755 253.592 19.7747 270.588 15.2434C283.998 11.6653 297.904 9.18094 312.08 7.25516C324.154 5.61454 336.307 4.48172 348.654 4.32157ZM35.8262 132.138C35.8223 134.072 35.3574 134.325 32.6426 133.486C29.4278 132.493 26.3653 131.294 23.2754 130.134C21.877 129.607 21.3535 128.779 21.3574 127.685C21.416 114.095 21.416 100.501 21.4395 86.9114C21.4434 85.2356 21.7637 85.1458 24.1426 85.845C27.6387 86.8724 31.1387 87.9036 34.7051 88.8216C36.1074 89.1809 36.5606 89.6731 36.5567 90.6067C36.5137 97.6145 35.8535 125.302 35.8262 132.138ZM211.412 126.552C211.291 125.884 211.131 125.411 211.131 124.935C211.119 111.689 211.107 98.4466 211.154 85.2005C211.158 84.5833 211.498 83.8724 212.045 83.3763C212.619 82.8489 213.432 82.9505 213.623 83.7083C213.697 83.9974 213.678 84.2981 213.678 84.5911C213.682 97.6692 213.678 110.743 213.697 123.822C213.701 124.884 213.455 125.825 211.412 126.552Z" fill="white"/>
<path d="M345.322 5.61084C353.057 5.73975 360.736 5.96631 367.998 7.89209C370.025 8.42725 372.029 9.12256 373.768 9.97803C378.854 12.4819 379.912 16.1812 376.967 20.1577C374.076 24.0679 369.42 27.0015 364.369 29.6968C353.893 35.2905 342.084 39.4937 329.951 43.3374C319.291 46.7124 308.365 49.6733 296.975 51.8687C285.666 54.0483 274.221 55.853 262.533 56.8999C250.498 57.978 238.404 58.4624 226.357 56.9429C222.064 56.4038 217.9 55.5132 214.354 53.7437C209.869 51.5054 208.432 48.4194 210.271 44.9663C212.717 40.3687 217.697 36.9858 223.197 33.896C235.529 26.9741 249.744 22.0483 264.572 17.8022C274.771 14.8804 285.229 12.4155 296.045 10.6304C307.592 8.72412 319.225 7.07959 331.115 6.34912C335.846 6.05615 340.588 5.85303 345.322 5.61084ZM114.584 97.3257C71.9316 97.3257 28.5645 91.8335 7.5918 79.6187L8.65039 75.9155C27.873 87.1147 71.2988 93.9155 120.451 93.2515C166.775 92.6343 206.822 86.0796 219.381 76.5562L221.455 79.2905C206.467 90.6616 160.877 97.3257 114.584 97.3257Z" fill="#68686D"/>
</svg>
