<svg width="340" height="442" viewBox="0 0 340 442" fill="none" xmlns="http://www.w3.org/2000/svg">
<path d="M296.143 415.755L339.67 370.325H220.404L296.143 415.755Z" fill="#13102D"/>
<path d="M11.4043 32.7437C12.7325 33.4937 11.4356 36.2827 6.8809 33.0054C6.21684 32.4898 4.80278 31.2085 4.08793 30.4898C2.29887 28.7007 0.962931 25.8921 0.720744 24.732C0.056681 21.5366 3.03324 18.8335 8.10746 16.4585C16.2598 12.6382 26.9161 10.2437 38.2129 8.25149C52.9512 5.65383 68.4043 4.02102 84.1895 2.79445C111.279 0.692891 138.643 0.0991413 166.127 0.513204C188.436 0.853047 210.564 1.97414 232.221 4.21242C247.275 5.77102 261.936 7.79055 275.365 11.0093C283.529 12.9663 290.939 15.271 295.822 18.6265C302.377 23.1343 298.772 32.4116 289.553 36.0991C289.897 35.7749 291.545 30.732 291.861 30.4038C294.846 28.0523 295.932 25.7046 295.518 23.189C295.022 20.189 290.744 17.9116 285.447 15.9155C277.139 12.7827 267.174 10.7398 256.717 9.04055C237.936 5.99367 218.314 4.27883 198.275 3.20852C175.076 1.96633 151.814 1.68117 128.451 2.2007C111.033 2.58742 93.7715 3.43117 76.7637 4.9507C59.9004 6.46242 43.4434 8.47805 28.3457 11.939C20.1778 13.814 12.6075 15.9859 7.75199 19.3335C4.82231 21.3491 3.26371 24.4155 4.72074 26.7593C5.97074 29.5952 9.94731 31.9155 11.4043 32.7437Z" fill="#68686D"/>
<path d="M147.389 43.9077C157.174 43.6851 166.291 43.646 175.295 43.2319C187.701 42.6577 200.072 41.9077 212.373 41.0366C224.627 40.1694 236.592 38.8022 247.963 36.7437C255.193 35.4312 262.068 33.8804 266.881 31.2476C270.9 29.0444 271.865 26.6616 269.295 24.0757C267.072 21.8374 262.912 20.2983 258.061 19.0132C246.404 15.9312 233.19 14.4585 219.725 13.3452C210.76 12.6069 201.686 11.9858 192.584 11.6304C178.779 11.0952 164.912 10.5444 151.068 10.5405C138.26 10.5327 125.428 11.146 112.643 11.6499C98.1036 12.2202 83.9121 13.5288 70.0996 15.4351C59.7598 16.8647 49.8848 18.646 41.6348 21.6304C31.8535 25.1655 31.502 29.8491 41.4707 33.2554C46.1621 34.8569 51.5528 36.2437 57.1348 37.3022C75.3106 40.7515 94.8965 42.1733 114.721 43.0249C125.783 43.5015 136.936 43.6343 147.389 43.9077ZM147.084 4.82568C167.068 4.8335 183.936 5.23193 200.662 6.22412C221.838 7.48193 242.607 9.39209 262.061 13.1265C268.893 14.439 275.295 16.0093 280.889 18.0718C292.932 22.5093 293.4 27.6655 283.475 32.7554C277.658 35.7319 269.736 37.6655 261.275 39.2515C246.885 41.9507 231.619 43.4663 216.033 44.564C190.154 46.3882 164.037 46.9312 137.865 46.4312C122.486 46.1382 107.139 45.3491 91.8614 44.5405C74.8145 43.6382 58.1934 41.9546 42.3301 39.2515C32.1739 37.521 22.4825 35.4585 15.4707 31.9038C7.1348 27.6733 7.91214 22.6733 17.3223 18.8101C24.1387 16.0093 32.4668 14.1265 41.2481 12.5288C55.6075 9.91553 70.7559 8.3335 86.2012 7.13428C107.326 5.49756 128.678 4.8999 147.084 4.82568ZM296.635 415.009C299.533 417.314 299.057 419.634 296.674 421.916C293.611 424.849 288.186 427.025 281.955 428.896C270.572 432.318 257.615 434.466 244.174 436.193C226.24 438.498 207.799 439.822 189.084 440.611C166.834 441.548 144.553 441.607 122.287 440.88C99.6739 440.142 77.3965 438.587 55.8965 435.599C43.2989 433.845 31.1934 431.673 20.7207 428.287C14.4981 426.275 9.10355 423.966 7.08402 420.783C6.17386 419.341 6.29105 417.794 6.4473 416.252C8.41605 419.38 12.7207 421.892 18.3731 424.048C24.4278 426.361 31.4785 428.123 38.9668 429.603C53.0371 432.38 67.9239 434.166 83.2246 435.505C105.361 437.443 127.779 438.216 150.377 438.267C168.064 438.302 185.701 437.88 203.182 436.779C222.369 435.568 241.17 433.748 258.986 430.572C268.1 428.947 276.717 426.982 284.107 424.252C290.502 421.888 295.295 419.169 296.295 415.603C296.354 415.404 296.518 415.209 296.635 415.009Z" fill="#13102D"/>
<path d="M149.24 43.0092C164.322 43.2475 179.908 42.5287 195.439 41.5951C211.1 40.6537 226.553 39.353 241.377 37.0795C249.83 35.7826 258.096 34.2944 264.221 31.4936C270.846 28.4662 270.947 25.8178 264.752 22.6772C259.428 19.978 252.065 18.4155 244.338 17.1537C220.393 13.2319 195.072 11.9584 169.537 11.2826C143.561 10.5912 117.799 11.3764 92.3223 13.5405C79.2207 14.6576 66.4356 16.1694 54.5176 18.6655C48.3575 19.9545 42.6426 21.4975 38.5723 23.8295C34.4043 26.2162 34.1934 28.4467 38.1387 30.8842C42.2285 33.4076 48.42 34.9272 54.9512 36.2436C67.4082 38.7475 80.7715 40.1928 94.3809 41.1811C112.264 42.4819 130.342 43.1655 149.24 43.0092ZM149.615 38.7944C160.65 38.9701 172.049 38.4428 183.412 37.7592C194.865 37.0717 206.17 36.1186 217.018 34.4584C223.201 33.5092 229.244 32.4194 233.725 30.3725C238.572 28.1576 238.647 26.2162 234.115 23.9233C230.221 21.9467 224.834 20.8061 219.182 19.8803C201.666 17.0131 183.143 16.0834 164.463 15.5834C145.463 15.0795 126.615 15.6537 107.979 17.2397C98.3926 18.0561 89.0411 19.1616 80.3223 20.9858C75.8145 21.9311 71.6387 23.06 68.6582 24.7631C65.6075 26.5092 65.4551 28.1459 68.3418 29.9233C71.334 31.7709 75.8614 32.8842 80.6387 33.8451C89.752 35.6811 99.5293 36.7358 109.482 37.4584C122.564 38.4076 135.791 38.9076 149.615 38.7944ZM141.514 43.6967C121.549 43.5444 101.846 42.5834 82.4434 40.7162C69.1114 39.435 56.1739 37.6967 44.9746 34.4116C38.416 32.4897 33.334 30.1655 34.252 26.5678C34.8496 24.2319 38.3301 22.5834 42.459 21.1381C51.4317 17.9975 62.2403 16.2123 73.4278 14.8139C99.8145 11.5014 127.01 10.2826 154.537 10.353C172.92 10.3998 191.217 11.1108 209.365 12.4076C224.104 13.4584 238.662 14.728 251.998 17.5287C256.529 18.4819 260.873 19.7397 264.49 21.1811C272.412 24.3373 272.354 28.6459 264.885 31.9975C258.537 34.8491 250.08 36.3998 241.428 37.7084C224.264 40.3139 206.354 41.7162 188.162 42.5483C178.182 43.0053 168.17 43.3881 158.147 43.6655C152.627 43.8217 147.061 43.6967 141.514 43.6967Z" fill="white"/>
<path d="M150.201 43.1108C154.713 43.0405 162.123 43.0874 169.436 42.7671C181.178 42.2593 192.885 41.5913 204.545 40.8374C218.795 39.9155 232.721 38.4702 245.912 36.0718C253.147 34.7553 259.986 33.1694 264.49 30.4311C267.971 28.3139 268.58 26.0757 264.924 23.8882C263.275 22.9077 261.299 21.9702 259.088 21.185C252.443 18.8257 244.443 17.4038 236.162 16.2358C222.521 14.3178 208.416 13.228 194.111 12.4624C180.674 11.7436 167.201 11.2475 153.635 11.2241C136.201 11.1968 118.877 11.7593 101.705 12.9663C88.5137 13.896 75.5488 15.1694 63.1387 17.2358C55.6582 18.478 48.5137 19.9624 42.5918 22.2046C33.6738 25.5796 33.709 29.6147 42.5527 32.81C44.1387 33.3843 45.8145 33.9272 47.5762 34.4077C58.2949 37.3335 70.4512 38.9038 82.8691 40.1382C104.018 42.2436 125.588 43.0093 150.201 43.1108Z" fill="white"/>
<path d="M144.486 39.5093C148.6 39.5093 152.729 39.603 156.822 39.4897C164.256 39.2827 171.678 38.9975 179.08 38.6616C192.572 38.0444 205.854 37.0014 218.58 35.0718C224.998 34.0991 231.268 32.9468 235.975 30.8335C241.514 28.3491 241.561 25.1538 235.686 22.8139C233.002 21.7436 229.783 20.81 226.42 20.1069C216.533 18.0288 205.736 17.0874 194.803 16.3061C181.346 15.3452 167.779 14.8178 154.146 14.7827C133.732 14.7319 113.564 15.6382 93.9981 18.0913C85.7012 19.1303 77.6856 20.4546 71.0332 22.7827C67.9707 23.853 65.3887 25.0757 64.9473 26.81C64.2637 29.478 68.0332 31.2007 72.9004 32.6264C81.2051 35.0639 90.7949 36.3491 100.682 37.2983C115.072 38.685 129.682 39.3999 144.486 39.5093ZM150.201 43.1108C125.588 43.0132 104.018 42.2397 82.8691 40.1421C70.4512 38.9038 58.2949 37.3335 47.5762 34.4077C45.8145 33.9272 44.1387 33.3843 42.5527 32.81C33.709 29.6147 33.6738 25.5796 42.5918 22.2046C48.5137 19.9624 55.6582 18.478 63.1387 17.2358C75.5488 15.1694 88.5137 13.8999 101.705 12.9663C118.877 11.7593 136.201 11.1968 153.635 11.2241C167.201 11.2475 180.674 11.7436 194.111 12.4624C208.416 13.228 222.521 14.3178 236.162 16.2358C244.447 17.4038 252.443 18.8257 259.088 21.185C261.299 21.9702 263.275 22.9077 264.924 23.8882C268.58 26.0717 267.971 28.3178 264.49 30.4311C259.986 33.1694 253.147 34.7553 245.912 36.0718C232.721 38.4702 218.795 39.9155 204.545 40.8374C192.885 41.5913 181.178 42.2593 169.439 42.7671C162.123 43.0874 154.713 43.0405 150.201 43.1108Z" fill="#13102D"/>
<path d="M151.764 19.9583C138.654 20.0716 124.912 20.6029 112.053 22.9232C109.053 23.4622 106.221 24.2943 103.85 25.2122C100.643 26.4505 100.6 27.8489 103.498 29.1732C105.182 29.9388 107.244 30.7318 109.553 31.0911C115.486 32.0208 121.537 32.9271 127.748 33.4583C139.264 34.4427 151.033 34.7396 162.729 34.0989C171.475 33.6224 180.186 32.9271 188.725 32.0443C192.674 31.6341 196.521 30.72 199.791 29.7161C204.682 28.2122 204.525 26.0091 200.057 24.3138C196.729 23.0482 192.6 22.3763 188.303 21.8411C176.666 20.3958 164.654 20.0911 151.764 19.9583ZM149.615 38.7943C135.791 38.9075 122.568 38.4075 109.49 37.4583C99.5332 36.7318 89.7598 35.6771 80.6504 33.845C75.873 32.8841 71.3457 31.7708 68.3535 29.9232C65.4668 28.1458 65.6191 26.5091 68.6699 24.763C71.6465 23.0599 75.8262 21.931 80.3301 20.9857C89.0527 19.1614 98.4004 18.056 107.986 17.2396C126.619 15.6536 145.463 15.0833 164.459 15.5872C183.139 16.0833 201.658 17.013 219.174 19.8802C224.826 20.806 230.209 21.9466 234.107 23.9232C238.639 26.22 238.561 28.1575 233.717 30.3724C229.236 32.4193 223.189 33.5091 217.01 34.4583C206.162 36.1185 194.861 37.0716 183.408 37.7591C172.045 38.4427 160.65 38.9661 149.615 38.7943Z" fill="#13102D"/>
<path d="M149.979 33.8804C162.951 34.0483 175.385 33.3179 187.447 31.7437C191.373 31.2319 195.225 30.4468 198.604 29.4976C203.272 28.1929 203.248 26.2397 198.936 24.7319C197.283 24.1538 195.354 23.6577 193.357 23.2866C181.135 21.0366 167.943 20.4155 154.787 20.2202C142.455 20.0405 130.123 20.6851 118.248 22.2007C113.35 22.8257 108.525 23.5718 104.791 25.0874C101.022 26.6108 101.029 28.5562 105.428 29.7476C109.131 30.7515 113.248 31.6187 117.486 32.1772C128.08 33.564 139.088 33.9937 149.979 33.8804ZM151.764 19.8413C164.861 19.9741 177.068 20.2866 188.897 21.7554C193.264 22.2983 197.463 22.9819 200.842 24.2671C205.385 25.9937 205.541 28.228 200.576 29.7593C197.252 30.7788 193.338 31.7085 189.326 32.1226C180.647 33.0249 171.791 33.728 162.908 34.2124C151.018 34.8608 139.061 34.564 127.354 33.564C121.041 33.0249 114.893 32.0991 108.861 31.1538C106.518 30.7866 104.42 29.9819 102.709 29.2046C99.7637 27.8608 99.8067 26.439 103.064 25.1812C105.479 24.2476 108.354 23.4038 111.404 22.853C124.471 20.4976 138.439 19.9546 151.764 19.8413Z" fill="white"/>
<path d="M150.033 33.7006C139.424 33.8139 128.701 33.3959 118.381 32.0444C114.252 31.5014 110.24 30.6537 106.635 29.6772C102.354 28.517 102.342 26.6264 106.014 25.1381C109.65 23.6616 114.354 22.935 119.123 22.3256C130.689 20.8491 142.701 20.2201 154.717 20.3959C167.533 20.5873 180.385 21.1928 192.291 23.3881C194.236 23.7436 196.115 24.228 197.721 24.7944C201.924 26.2631 201.947 28.1616 197.4 29.435C194.107 30.3569 190.357 31.1264 186.533 31.6225C174.783 33.1537 162.666 33.8686 150.033 33.7006Z" fill="#13102D"/>
<path d="M151.74 52.5171C93.2168 51.6421 23.498 47.2124 6.88086 33.0054L8.30664 30.8296C24.0176 42.603 92.541 49.103 159.76 48.4429C223.115 47.8257 276.205 42.5601 292.885 29.6538L299.092 25.7163C296.186 46.6108 215.045 52.5171 151.74 52.5171Z" fill="#68686D"/>
<path d="M45.9551 75.1538C45.9786 65.6147 46.0059 56.0718 46.1543 46.5327C46.1739 45.3687 45.3965 44.7671 42.4707 44.3687C37.9473 43.7476 33.6309 42.8882 29.2637 42.0952C26.4864 41.5913 25.9395 41.6968 25.8262 42.8843C25.8106 43.0562 25.8184 43.228 25.8184 43.3999C25.7442 58.5483 25.6543 73.6968 25.6075 88.8452C25.5684 100.509 25.5918 112.169 25.584 123.83C25.5762 136.892 27.0762 407.884 26.9942 420.947C26.9864 422.017 27.7207 422.841 29.9864 423.373C33.7481 424.252 37.459 425.189 41.42 425.896C46.2403 426.755 46.4942 426.627 46.4942 424.49C46.4981 404.517 45.9317 85.6538 45.9551 75.1538ZM290.283 34.978C290.365 35.5835 290.447 35.9116 290.447 36.2437C290.455 76.1538 291.908 373.994 291.979 413.908C291.982 418.142 286.6 421.134 278.975 423.685C268.205 427.283 255.518 429.435 242.385 431.209C227.967 433.154 213.119 434.365 198.064 435.216C175.127 436.513 152.076 436.763 129.002 436.181C102.451 435.513 76.3536 433.787 51.459 429.861C40.002 428.052 29.1036 425.834 20.2793 422.275C14.2793 419.853 11.2676 417.076 11.2832 413.56C11.4434 373.923 9.89652 76.3569 9.90043 36.7163C9.90043 36.2827 9.92777 34.0679 9.92777 34.0679C9.92777 34.0679 11.4942 35.4585 11.9043 35.5874C25.2481 39.8608 40.7403 42.3921 56.8887 44.3882C78.1387 47.0132 99.9786 48.3413 122.092 48.978C144.893 49.6343 167.678 49.4819 190.439 48.5171C208.482 47.7554 226.248 46.4663 243.592 44.3452C258.584 42.5171 272.975 40.1421 285.682 36.3804C287.041 35.9741 288.377 35.5601 290.283 34.978Z" fill="#FF0000"/>
<path d="M46.4941 424.489C46.4941 426.626 46.2402 426.755 41.4199 425.896C37.459 425.189 33.748 424.251 29.9902 423.372C27.7168 422.841 26.9863 422.017 26.9941 420.946C27.0762 407.884 25.5762 136.892 25.584 123.829C25.5879 112.169 25.5683 100.509 25.6074 88.8448C25.6543 73.6964 25.7441 58.548 25.8183 43.3995C25.8183 43.2276 25.8144 43.0558 25.8301 42.8839C25.9394 41.6964 26.4863 41.5909 29.2637 42.0948C33.6308 42.8878 37.9512 43.7472 42.4707 44.3683C45.3965 44.7667 46.1738 45.3683 46.1543 46.5323C46.0019 56.0714 45.9785 65.6144 45.9551 75.1534C45.9316 85.6534 46.498 404.517 46.4941 424.489Z" fill="white"/>
<path d="M125.253 254.601C148.055 255.257 170.844 255.105 193.607 254.14C211.65 253.378 229.412 252.09 246.76 249.969C261.753 248.141 276.14 245.766 288.848 242.001C289.668 241.759 291.246 241.275 292 241.044L291.324 79C291.324 79 288.855 79.7577 287.754 80.0858C275.046 83.8508 260.655 86.2215 245.663 88.0532C228.319 90.1701 210.552 91.4629 192.509 92.2245C169.747 93.1852 146.961 93.3415 124.159 92.6853C102.046 92.0448 80.2012 90.7169 58.9545 88.0923C42.8056 86.0965 10 79 10 79C10 79 10.3594 190.545 10.1563 241.572C19.7698 243.376 46.8995 248.383 60.0522 250.008C81.2988 252.636 103.143 253.964 125.253 254.601Z" fill="white"/>
</svg>
