<svg width="322" height="286" viewBox="0 0 322 286" fill="none" xmlns="http://www.w3.org/2000/svg">
<path d="M307.127 256.712L321.022 237.521V33.5795C300.178 27.9623 272.111 25.2592 255.955 33.5795L302.83 250.63C303.904 252.033 307.189 255.798 307.127 256.712Z" fill="#13102D"/>
<path d="M302.506 40.3218C302.584 41.0601 302.682 41.5562 302.682 42.0522C302.701 54.2046 302.291 240.947 302.904 253.095C303.193 258.806 297.373 262.728 287.854 266.009C277.096 269.716 264.736 272.076 251.908 274.005C237.244 276.205 222.154 277.599 206.838 278.603C184.881 280.041 162.795 280.474 140.666 280.068C115.041 279.595 89.705 278.091 65.1386 274.728C50.0761 272.666 35.541 270.052 23.1269 265.623C16.9589 263.419 11.9121 260.83 9.97066 257.337C9.53316 256.552 9.39253 255.72 9.38863 254.912C9.36128 242.056 9.38081 54.6187 9.39253 41.7632C9.39644 41.353 9.498 40.939 9.57613 40.3491C10.5253 40.5991 11.1425 40.7202 11.6543 40.9038C23.541 45.0718 37.1503 47.7905 51.4082 49.9585C73.4433 53.3062 96.2324 55.0522 119.361 56.0093C140.178 56.8726 161.057 57.0327 181.916 56.3999C202.486 55.7749 222.904 54.6069 242.904 52.2983C259.717 50.3569 276.053 47.8882 290.912 43.8374C294.729 42.7983 298.314 41.5991 302.506 40.3218Z" fill="#FF0000"/>
<path d="M278.986 35.3687C274.76 38.2749 268.35 40.0288 261.561 41.5249C249.654 44.1499 236.971 45.8491 223.932 46.8804C209.014 48.064 193.982 49.0054 178.939 49.8374C170.854 50.2827 162.635 50.2788 151.104 50.5562C139.471 50.0835 124.518 49.5679 109.619 48.8413C93.9434 48.0757 78.6699 46.4585 64.0176 43.8687C54.9121 42.2554 45.9629 40.3921 39.8105 36.8882C37.1504 35.3726 34.3691 34.3179 30.1348 33.9858C29.623 33.9468 29.1152 33.8413 28.6504 33.7319C25.1035 32.8882 21.8613 31.8726 21.7012 29.9116C21.5527 28.0522 24.5098 26.9233 27.8926 26.2983C32.5957 25.4272 37.6113 24.8843 42.4863 24.1929C43.6426 24.0288 44.9551 23.9272 45.8809 23.6187C56.3965 20.1108 68.5059 18.1304 80.9941 16.5171C105.725 13.314 131.162 12.189 156.775 11.9937C169.252 11.896 181.803 12.3999 194.24 12.978C206.045 13.5288 217.807 14.3804 229.467 15.3687C242.135 16.4468 254.486 18.0718 265.764 20.9351C271.998 22.5171 277.584 24.4272 280.518 27.4507C283.182 30.1968 282.643 32.8569 278.986 35.3687ZM291.717 20.314L291.725 20.3218C291.717 20.3179 291.709 20.314 291.701 20.314H291.717ZM299.553 16.6265L271.506 10.9272L235.068 5.54834L231.834 5.74365V8.94678L231.947 8.96631C228.463 8.62647 224.967 8.31006 221.451 8.021C201.51 6.38428 181.346 5.5835 161.041 5.56787C139.502 5.44287 118.088 6.03272 96.8105 7.56787C78.8691 8.86475 61.3262 10.771 44.5723 13.9077C34.5566 15.7827 25.0762 18.0718 17.3848 21.5483C7.21679 26.146 6.56445 31.8413 15.6738 36.8296C21.8887 40.2319 30.2207 42.3921 39.0293 44.2163C57.0215 47.9507 76.2207 49.8726 95.7246 51.2866C112.834 52.5249 130.088 53.1655 147.42 53.3843C174.486 53.7241 201.393 53.1226 228.068 50.9468C243.576 49.6812 258.744 47.9429 273.018 44.9233C280.467 43.3452 287.439 41.478 293.076 38.8608L293.037 38.8999L294.279 41.9858L309.17 32.3257V25.2749L299.553 16.6265Z" fill="#13102D"/>
<path d="M46.1504 269.033C46.1426 270.685 33.0957 268.123 28.6504 267.005C26.7285 266.525 26.2207 64.8569 26.2637 52.2085C26.2637 51.8179 26.2832 51.4272 26.2637 51.0405C26.2168 50.1147 26.9512 49.853 29.0176 50.2671C34.3418 51.3296 39.6933 52.3647 45.1074 53.3374C47.1152 53.6968 47.3691 54.3218 47.334 55.103C46.9902 62.9116 46.1621 266.494 46.1504 269.033ZM43.9473 33.5327C40.5762 33.0952 36.5723 32.8061 33.0449 32.0757C27.4551 30.9155 27.2207 28.5288 32.6465 27.2554C36.9121 26.2554 41.7324 25.7124 44.6269 25.2397C40.7285 25.31 35.166 25.8843 29.959 27.0327C28.4785 27.3569 27.084 27.8139 25.9043 28.3257C23.4707 29.3764 23.7519 30.6069 26.5098 31.5093C27.3535 31.7827 28.2988 32.0093 29.2598 32.2046C34.0918 33.185 39.2519 33.4546 43.9473 33.5327ZM49.7363 26.8257C46.7012 27.1421 43.6348 27.353 40.7598 27.7983C38.416 28.1616 38.3887 29.146 40.4394 29.7671C44.3965 30.9663 54.7402 30.7554 58.5293 29.3999C60.2793 28.771 60.2129 28.0483 58.0801 27.7241C55.4512 27.3218 52.6543 27.1264 49.7363 26.8257ZM50.3027 33.6225H52.1816C74.6699 33.6655 97.1582 33.8061 119.639 33.6968C126.674 33.6616 133.814 33.1694 140.674 32.4546C145.018 32.0014 149.299 30.9702 152.947 29.8022C157.615 28.3061 157.182 26.0405 152.533 24.521C151.135 24.0639 149.506 23.6108 147.838 23.4585C142.041 22.9389 136.182 22.1968 130.342 22.1929C120.424 22.1811 110.486 22.5991 100.58 22.9585C85.0019 23.5171 69.4433 24.1772 53.8769 24.8022C53.373 24.8218 52.8808 24.9155 52.4902 24.9624C56.3418 25.31 60.2012 25.5679 63.9277 26.0288C67.1465 26.4272 70.4433 27.0991 70.6308 28.8022C70.8223 30.5483 67.709 31.4702 64.4707 31.9546C59.6387 32.6733 54.6035 33.1304 50.3027 33.6225ZM115.174 35.4702C115.146 35.5679 115.119 35.6655 115.088 35.7632C116.291 35.9975 117.467 36.2632 118.697 36.4663C127.502 37.9194 136.701 38.4507 146.01 38.8921C162.205 39.6577 177.881 38.5639 193.385 36.7163C198.783 36.0757 204.057 35.2007 208.088 33.353C211.061 31.9936 211.381 30.2905 208.342 28.978C206.115 28.0171 203.432 27.1382 200.588 26.5913C187.088 24.0014 172.643 23.5054 158.162 23.1694C157.58 23.1538 156.982 23.2436 156.115 23.3061C156.549 23.5835 156.807 23.7749 157.127 23.9429C159.877 25.3647 160.451 27.0014 159.486 28.7671C158.432 30.6968 155.201 31.8999 151.299 32.478C145.029 33.4038 138.576 34.1577 132.076 34.7007C126.533 35.1655 120.814 35.228 115.174 35.4702ZM95.1933 21.5561C95.2519 21.6889 95.3105 21.8257 95.3691 21.9624C95.8691 21.9624 96.373 21.978 96.8691 21.9585C105.182 21.646 113.486 21.271 121.811 21.0249C131.686 20.7358 141.521 20.7514 151.061 22.2124C153.107 22.5288 155.346 22.7475 157.502 22.7554C169.533 22.8022 181.463 23.2124 193.15 24.5171C199.111 25.1811 204.959 26.0366 209.482 28.0093C213.65 29.8257 213.799 32.1382 209.502 33.8764C207.201 34.8061 204.432 35.6225 201.553 36.1577C188.764 38.5327 175.17 39.3179 161.451 39.4038C152.256 39.4585 142.998 39.1264 133.842 38.6694C126.705 38.3139 119.76 37.4116 113.295 35.9233C112.021 35.6304 110.412 35.5093 108.955 35.5054C98.1152 35.4702 87.2715 35.4858 76.4277 35.4897C75.5215 35.4897 74.6191 35.5483 73.7129 35.5757C73.5176 35.7241 73.3223 35.8725 73.1269 36.0171C73.9512 36.2475 74.7637 36.4858 75.5996 36.7007C79.1113 37.6108 82.4707 38.6655 86.166 39.3882C103.467 42.7788 121.908 43.8764 140.6 44.3882C158.135 44.8647 175.584 44.5444 192.92 43.2475C205.896 42.271 218.83 41.1655 230.791 38.6655C235.205 37.7397 239.67 36.5522 243.021 35.0288C249.131 32.2475 248.795 29.7866 243.139 27.103C240.939 26.06 238.264 25.1616 235.502 24.4077C228.576 22.5171 220.908 21.3374 212.994 20.5952C203.635 19.7163 194.197 18.9155 184.701 18.3999C175.818 17.9155 166.791 17.5366 157.869 17.6694C145.475 17.8569 133.061 18.3921 120.764 19.1225C112.15 19.6343 103.713 20.7241 95.1933 21.5561ZM49.5449 23.3061C49.666 23.4546 49.7871 23.603 49.9082 23.7514C50.8613 23.7514 51.8223 23.7788 52.7676 23.7436C58.873 23.5171 64.9824 23.2983 71.0801 23.0288C78.9941 22.6811 86.8496 22.4975 94.5566 21.2436C113.225 18.2007 132.865 17.2514 152.635 16.9897C174.486 16.6968 196.088 17.7241 217.322 20.0405C225.018 20.8804 232.471 22.0366 239.271 23.8764C243.033 24.8882 246.283 26.1538 248.404 27.8804C252.084 30.8725 249.877 34.5444 242.443 36.7593C237.713 38.1694 232.564 39.4272 227.221 40.3061C207.322 43.5796 186.439 44.7632 165.373 45.2905C152.951 45.5991 140.521 45.3139 128.131 44.6616C116.635 44.0522 105.295 43.1811 94.3105 41.5483C85.8418 40.2905 77.7363 38.7436 71.248 35.9038C70.5918 35.6147 69.3418 35.4819 68.3496 35.4663C59.5605 35.3061 50.7676 35.185 41.9746 35.0679C41.2402 35.0561 40.498 35.146 39.2754 35.2202C39.998 35.7202 40.3301 36.0913 40.9238 36.3413C43.416 37.3882 45.7519 38.5483 48.5762 39.396C62.959 43.7124 79.3965 45.7514 96.2441 47.0561C108.717 48.0249 121.373 48.5952 133.998 49.103C149.959 49.7514 165.982 49.6147 181.916 48.8999C197.631 48.2007 213.26 47.1811 228.619 45.4975C239.416 44.31 250.029 42.9077 259.936 40.6382C265.881 39.2788 271.424 37.6694 275.346 35.1929C279.588 32.5132 279.768 29.6421 275.576 27.0327C274.01 26.0522 272.143 25.1304 270.096 24.3413C260.85 20.7827 249.646 18.8413 238.006 17.5249C226.518 16.228 214.822 15.1929 203.088 14.4155C192.049 13.6811 180.861 13.2593 169.701 13.0132C145.377 12.478 121.271 13.4077 97.4043 15.56C84.9238 16.685 72.7402 18.2124 61.1543 20.5522C57.166 21.3569 53.4082 22.3804 49.5449 23.3061ZM38.7246 31.7241C36.0215 30.9819 32.2558 30.646 33.1152 28.4819C30.9199 29.6343 30.9121 30.3022 33.1269 30.8491C34.8301 31.271 36.8652 31.435 38.7519 31.7124C40.9941 31.8764 43.2246 32.1343 45.4785 32.1929C51.9277 32.3647 58.2754 32.1147 64.1699 30.8296C66.0566 30.4155 68.2129 29.9311 67.8808 28.7905C67.5644 27.6968 65.2715 27.4116 63.291 27.0796C62.7519 26.9858 62.1269 26.9897 61.4668 26.9468C63.0332 29.2671 62.3183 29.935 57.2832 30.9233C56.4785 31.0835 55.6348 31.2046 54.7988 31.3335C49.5254 32.1264 44.1348 31.9897 38.7246 31.7241ZM151.104 50.5561C139.471 50.0835 124.518 49.5679 109.619 48.8413C93.9433 48.0757 78.6699 46.4585 64.0176 43.8686C54.9121 42.2554 45.9629 40.3921 39.8105 36.8882C37.1504 35.3725 34.3691 34.3179 30.1348 33.9858C29.623 33.9468 29.1152 33.8413 28.6504 33.7319C25.1035 32.8882 21.8613 31.8725 21.7012 29.9116C21.5527 28.0522 24.5098 26.9272 27.8926 26.2983C32.5957 25.4272 37.6113 24.8843 42.4863 24.1929C43.6426 24.0288 44.9551 23.9272 45.8808 23.6186C56.3965 20.1147 68.5058 18.1304 80.9941 16.5132C105.725 13.3139 131.162 12.1889 156.775 11.9936C169.252 11.896 181.803 12.3999 194.24 12.978C206.045 13.5288 217.807 14.3804 229.467 15.3686C242.135 16.4468 254.486 18.0718 265.764 20.935C271.998 22.5171 277.584 24.4272 280.518 27.4507C283.182 30.1968 282.643 32.8569 278.986 35.3686C274.76 38.2749 268.35 40.0288 261.561 41.5249C249.654 44.1499 236.971 45.8491 223.932 46.8804C209.014 48.06 193.982 49.0054 178.939 49.8374C170.854 50.2827 162.635 50.2749 151.104 50.5561Z" fill="white"/>
<path d="M49.5449 23.3059C53.4082 22.3801 57.166 21.3566 61.1504 20.552C72.7402 18.2121 84.9238 16.6848 97.4043 15.5598C121.271 13.4074 145.377 12.4777 169.701 13.0129C180.861 13.259 192.049 13.6809 203.088 14.4152C214.822 15.1926 226.518 16.2277 238.006 17.5246C249.647 18.841 260.85 20.7824 270.096 24.341C272.143 25.1301 274.01 26.052 275.576 27.0324C279.768 29.6418 279.588 32.5129 275.346 35.1926C271.424 37.6691 265.881 39.2785 259.936 40.6379C250.029 42.9035 239.416 44.3098 228.619 45.4973C213.26 47.1809 197.631 48.2004 181.916 48.8996C165.982 49.6145 149.959 49.7512 133.998 49.1027C121.373 48.5949 108.717 48.0246 96.2441 47.0559C79.3965 45.7512 62.959 43.7121 48.5762 39.3957C45.752 38.548 43.416 37.3879 40.9238 36.341C40.3301 36.091 39.998 35.7238 39.2754 35.2199C40.498 35.1457 41.2402 35.0559 41.9746 35.0676C50.7676 35.1848 59.5606 35.3059 68.3496 35.466C69.3418 35.4816 70.5918 35.6184 71.2481 35.9035C77.7324 38.7434 85.8418 40.2902 94.3106 41.548C105.295 43.1809 116.635 44.0559 128.131 44.6613C140.521 45.3137 152.951 45.5988 165.373 45.2902C186.439 44.7629 207.322 43.5793 227.225 40.3059C232.564 39.427 237.713 38.1691 242.443 36.759C249.877 34.5441 252.084 30.8723 248.404 27.8801C246.283 26.1535 243.033 24.8879 239.272 23.8762C232.471 22.0363 225.018 20.8801 217.322 20.0402C196.088 17.7238 174.486 16.6965 152.635 16.9895C132.865 17.2512 113.225 18.2004 94.5566 21.2434C86.8496 22.4973 78.9941 22.6809 71.0801 23.0285C64.9824 23.298 58.873 23.5168 52.7676 23.7434C51.8223 23.7785 50.8613 23.7512 49.9082 23.7512C49.7871 23.6027 49.666 23.4543 49.5449 23.3059Z" fill="#13102D"/>
<path d="M95.1934 21.5561C103.713 20.7241 112.15 19.6342 120.764 19.1225C133.064 18.3921 145.475 17.8569 157.869 17.6694C166.791 17.5366 175.814 17.9155 184.701 18.3999C194.197 18.9155 203.635 19.7163 212.994 20.5952C220.908 21.3374 228.576 22.5171 235.502 24.4077C238.264 25.1616 240.939 26.06 243.139 27.103C248.795 29.7866 249.131 32.2475 243.021 35.0288C239.67 36.5522 235.205 37.7397 230.791 38.6655C218.83 41.1655 205.896 42.271 192.92 43.2475C175.584 44.5444 158.135 44.8647 140.604 44.3881C121.908 43.8764 103.467 42.7788 86.166 39.3881C82.4707 38.6655 79.1074 37.6108 75.5996 36.7006C74.7637 36.4858 73.9512 36.2475 73.127 36.0171C73.3223 35.8725 73.5176 35.7241 73.7129 35.5756C74.6191 35.5483 75.5215 35.4936 76.4277 35.4897C87.2715 35.4858 98.1152 35.4702 108.959 35.5053C110.412 35.5092 112.021 35.6303 113.295 35.9233C119.76 37.4116 126.705 38.3139 133.842 38.6694C142.998 39.1264 152.256 39.4585 161.455 39.4038C175.17 39.3178 188.764 38.5366 201.553 36.1577C204.432 35.6225 207.201 34.8061 209.502 33.8764C213.799 32.1381 213.65 29.8256 209.482 28.0092C204.959 26.0366 199.111 25.1811 193.15 24.5171C181.467 23.2124 169.533 22.8022 157.502 22.7553C155.346 22.7475 153.107 22.5288 151.061 22.2124C141.521 20.7514 131.686 20.7358 121.811 21.0249C113.486 21.271 105.182 21.646 96.8691 21.9585C96.373 21.978 95.8691 21.9624 95.3691 21.9624C95.3105 21.8256 95.252 21.6889 95.1934 21.5561Z" fill="#13102D"/>
<path d="M115.174 35.4698C120.814 35.2276 126.533 35.1651 132.076 34.7003C138.576 34.1573 145.029 33.4034 151.299 32.4776C155.201 31.8995 158.432 30.6964 159.486 28.7667C160.451 27.001 159.877 25.3643 157.127 23.9424C156.807 23.7745 156.549 23.5831 156.115 23.3057C156.982 23.2432 157.58 23.1534 158.162 23.1651C172.643 23.5049 187.088 24.001 200.588 26.5909C203.432 27.1378 206.115 28.0167 208.342 28.9776C211.381 30.2901 211.064 31.9932 208.088 33.3565C204.057 35.2003 198.783 36.0753 193.385 36.7159C177.881 38.5635 162.205 39.6573 146.01 38.8917C136.701 38.4503 127.502 37.919 118.697 36.4659C117.467 36.2667 116.291 35.9971 115.088 35.7628C115.119 35.6651 115.146 35.5674 115.174 35.4698Z" fill="#13102D"/>
<path d="M119.701 33.3645C124.596 33.0364 129.545 32.8176 134.369 32.3528C138.885 31.9153 143.248 31.1848 146.678 29.7239C150.338 28.1653 150.053 26.2356 145.904 24.9543C144.33 24.4661 142.553 24.0559 140.732 23.7786C131.404 22.3684 121.834 22.3293 112.369 23.3059C107.791 23.7825 103.174 24.5754 99.1895 25.6575C93.3691 27.2395 93.8652 29.7981 99.8184 31.2864C105.951 32.8176 112.697 33.1809 119.701 33.3645ZM50.3027 33.6223C54.6074 33.1301 59.6387 32.6731 64.4707 31.9543C67.709 31.47 70.8223 30.5481 70.6309 28.802C70.4434 27.0989 67.1465 26.427 63.9277 26.0286C60.2012 25.5676 56.3418 25.3098 52.4902 24.9622C52.8809 24.9153 53.3691 24.8215 53.877 24.802C69.4434 24.177 85.002 23.5168 100.58 22.9582C110.486 22.5989 120.424 22.1809 130.346 22.1926C136.182 22.2004 142.041 22.9387 147.838 23.4582C149.506 23.6106 151.135 24.0637 152.533 24.5207C157.186 26.0403 157.611 28.3059 152.947 29.802C149.299 30.97 145.018 32.0012 140.674 32.4543C133.814 33.1692 126.674 33.6614 119.639 33.6965C97.1582 33.8059 74.666 33.6653 52.1816 33.6223H50.3027Z" fill="#13102D"/>
<path d="M49.7363 26.8257C52.6543 27.1265 55.4512 27.3218 58.0801 27.7241C60.2129 28.0483 60.2793 28.771 58.5293 29.3999C54.7403 30.7554 44.3965 30.9663 40.4395 29.7671C38.3887 29.146 38.416 28.1616 40.7598 27.7983C43.6348 27.353 46.7012 27.1421 49.7363 26.8257Z" fill="#13102D"/>
<path d="M43.9473 33.5327C39.252 33.4546 34.0918 33.1851 29.2598 32.2046C28.2988 32.0093 27.3535 31.7827 26.5098 31.5093C23.752 30.6069 23.4707 29.3765 25.9043 28.3257C27.084 27.814 28.4785 27.3569 29.959 27.0327C35.166 25.8843 40.7285 25.3101 44.627 25.2397C41.7324 25.7124 36.9121 26.2554 32.6465 27.2554C27.2207 28.5288 27.4551 30.9155 33.0449 32.0757C36.5723 32.8062 40.5762 33.0952 43.9473 33.5327Z" fill="#13102D"/>
<path d="M38.7246 31.7241C44.1348 31.9897 49.5254 32.1265 54.7988 31.3296C55.6348 31.2046 56.4785 31.0835 57.2832 30.9233C62.3184 29.9351 63.0332 29.271 61.4668 26.9468C62.1309 26.9897 62.752 26.9858 63.291 27.0796C65.2715 27.4116 67.5645 27.6929 67.8809 28.7905C68.2129 29.9351 66.0566 30.4155 64.1699 30.8296C58.2754 32.1147 51.9277 32.3647 45.4785 32.1929C43.2246 32.1343 40.9941 31.8765 38.752 31.7124L38.7246 31.7241ZM38.752 31.7124C36.8652 31.4351 34.8301 31.271 33.127 30.8491C30.9121 30.3022 30.9199 29.6304 33.1152 28.4819C32.2559 30.646 36.0215 30.9819 38.7246 31.7241L38.752 31.7124Z" fill="#13102D"/>
<path d="M128.283 24.0404C125.307 24.0404 121.131 23.8764 117.049 24.0795C111.057 24.3725 105.123 24.9467 100.186 26.6342C98.6582 27.1576 97.041 27.767 97.8574 28.7748C98.7637 29.9037 100.955 30.4389 103.389 30.767C103.756 30.8178 104.471 30.5014 104.9 30.3022C107.115 29.2787 108.881 27.9076 111.564 27.2709C117.186 25.935 123.283 24.9818 128.283 24.0404ZM115.846 32.2943C123.318 32.4115 129.275 32.2084 134.889 31.2709C138.326 30.6967 141.678 29.9115 144.689 28.9858C147.389 28.1576 147.182 26.7904 144.607 25.9154C141.186 24.7514 137.158 24.0404 132.92 24.3647C125.568 24.9272 118.295 25.7748 111.971 27.6186C109.893 28.224 108.1 29.0951 106.6 29.9818C105.088 30.8764 105.646 31.3998 108.143 31.6615C111.154 31.974 114.225 32.1654 115.846 32.2943ZM119.701 33.3647C112.697 33.185 105.951 32.8178 99.8184 31.2865C93.8652 29.7983 93.3691 27.2397 99.1894 25.6576C103.174 24.5717 107.791 23.7826 112.369 23.31C121.834 22.3295 131.404 22.3686 140.732 23.7787C142.553 24.0561 144.334 24.4662 145.908 24.9545C150.053 26.2358 150.338 28.1654 146.678 29.724C143.248 31.185 138.885 31.9154 134.369 32.3529C129.545 32.8178 124.596 33.0365 119.701 33.3647Z" fill="white"/>
<path d="M115.846 32.298C114.225 32.1652 111.15 31.9738 108.143 31.6613C105.646 31.3996 105.088 30.8761 106.6 29.9816C108.1 29.0949 109.893 28.2238 111.971 27.6183C118.295 25.7746 125.564 24.9308 132.92 24.3644C137.158 24.0402 141.186 24.7551 144.607 25.9152C147.182 26.7902 147.389 28.1574 144.689 28.9855C141.678 29.9113 138.326 30.6965 134.889 31.2707C129.271 32.2082 123.318 32.4074 115.846 32.298Z" fill="#13102D"/>
<path d="M128.283 24.0401C123.283 24.9815 117.186 25.9347 111.564 27.2706C108.881 27.9073 107.115 29.2784 104.9 30.3018C104.471 30.5011 103.756 30.8175 103.389 30.7667C100.955 30.4386 98.7637 29.9034 97.8574 28.7745C97.041 27.7667 98.6582 27.1573 100.186 26.6339C105.123 24.9464 111.057 24.3722 117.049 24.0792C121.131 23.8761 125.307 24.0401 128.283 24.0401Z" fill="#13102D"/>
<path d="M244.447 51.1339C223.381 53.8683 201.85 55.3331 180.088 55.9073C148.932 56.7355 117.939 56.1027 87.2285 53.2238C70.1777 51.6261 53.5293 49.4581 37.7363 45.9698C28.5097 43.9347 19.9746 41.1261 12.7129 37.9581C11.4355 37.4034 10.2832 36.8097 9.27145 36.1808C6.09176 34.2042 4.27536 31.8839 4.27536 29.3175C4.27536 25.9386 5.58786 20.9425 25.1269 14.6652C38.3066 10.9933 52.8418 8.70813 67.7988 6.91125C88.8652 4.38391 110.393 3.02844 132.158 2.49329C163.311 1.73157 194.307 2.3175 225.018 4.97766C242.068 6.45422 292.475 15.8136 299.533 19.1027C303.057 20.7433 307.982 24.0245 308.369 27.5714C308.756 31.1183 306.416 33.0558 305.166 34.4542C304.479 35.0519 303.729 35.6222 302.916 36.1613C298.787 38.9113 293.143 40.9425 287.119 42.755C273.939 46.7238 259.404 49.1925 244.447 51.1339ZM306.564 20.0909C302.041 17.2745 296.064 15.1339 289.521 13.2863C275.232 9.25891 259.389 6.85266 243.123 4.9425C223.326 2.61829 203.088 1.33704 182.686 0.778442C155.232 0.0206297 127.826 0.364379 100.553 2.18079C80.1035 3.54407 60.0683 5.54407 40.9668 9.08704C29.0254 11.3058 17.8457 14.0597 8.81833 18.2589C-4.15433 24.2863 1.4277 36.0284 5.68161 38.8917C6.91989 39.7238 8.26364 40.5011 9.70114 41.2355C13.5175 43.1808 17.9707 44.7941 22.7246 46.2433C37.0136 50.6027 52.8574 53.2003 69.123 55.2628C88.9238 57.7784 109.158 59.1613 129.561 59.7667C157.014 60.5831 184.42 60.2159 211.693 58.2511C232.143 56.7784 252.174 54.6144 271.279 50.7823C283.221 48.3878 294.404 45.4191 303.428 40.8722C309.998 37.5636 312.592 33.1573 312.592 27.6613C312.6 24.5753 310.361 22.4581 306.564 20.0909Z" fill="#68686D"/>
<path d="M8.9863 246.778C8.9863 246.497 8.65817 246.337 8.43552 246.513C0.66208 252.767 5.35739 262.165 9.03317 264.673C10.2402 265.497 11.5527 266.267 12.9511 266.993C16.6738 268.915 21.0175 270.513 25.6543 271.946C39.5918 276.251 55.0449 278.821 70.9082 280.864C90.2168 283.345 109.955 284.716 129.853 285.314C156.631 286.122 183.361 285.759 209.959 283.814C229.904 282.357 249.443 280.22 268.076 276.431C279.725 274.064 290.631 271.13 299.432 266.634C305.838 263.361 308.369 259.005 308.369 253.571C308.377 250.892 306.455 248.802 303.533 246.782C303.232 246.575 303.189 248.943 303.186 250.165C303.186 250.575 303.295 250.986 303.521 251.329C303.99 252.044 304.158 252.63 304.252 253.482C304.631 256.989 302.346 258.903 301.127 260.286C300.459 260.88 299.725 261.443 298.932 261.974C294.908 264.693 289.4 266.7 283.525 268.493C270.67 272.419 256.494 274.861 241.908 276.778C221.357 279.482 200.361 280.931 179.135 281.501C148.748 282.314 118.518 281.689 88.5683 278.845C71.9355 277.267 55.6972 275.122 40.2949 271.673C31.2988 269.661 22.9746 266.884 15.8886 263.751C14.6425 263.204 13.5215 262.614 12.5332 261.993C9.43161 260.04 7.66208 257.747 7.66208 255.212C7.66208 254.107 7.80271 252.829 8.6738 251.388C8.9238 250.974 9.02927 250.489 9.01755 250.001C9.00192 249.185 8.97849 247.903 8.9863 246.778Z" fill="#13102D"/>
<path d="M302.604 71.1499C298.666 74.0054 293.666 76.2202 288.373 78.2241C275.193 83.2202 260.658 86.3218 245.701 88.7632C224.635 92.2046 203.104 94.0444 181.342 94.7671C150.186 95.8062 119.193 95.0093 88.4824 91.3921C71.4316 89.3843 54.7832 86.6538 38.9902 82.271C29.7637 79.7085 21.2285 76.1772 13.9668 72.1929C12.6895 71.4937 11.5371 70.7476 10.5254 69.9546C10.1191 69.6382 9.73633 69.314 9.37695 68.9819V219.943C9.73633 220.275 10.1191 220.599 10.5254 220.916C11.5371 221.709 12.6895 222.455 13.9668 223.154C21.2285 227.138 29.7637 230.669 38.9902 233.232C54.7832 237.615 71.4316 240.345 88.4824 242.353C119.193 245.97 150.186 246.767 181.342 245.728C203.104 245.005 224.635 243.166 245.701 239.724C260.658 237.283 275.193 234.181 288.373 229.189C293.666 227.181 298.666 224.966 302.604 222.115V71.1499Z" fill="white"/>
</svg>
