<svg width="1281" height="1078" viewBox="0 0 1281 1078" fill="none" xmlns="http://www.w3.org/2000/svg">
<rect width="1280" height="1078" fill="#13102D"/>
<path d="M255.826 456.416L220.088 630.791L228.861 634.255L263.01 459.251L255.826 456.416Z" fill="white"/>
<path d="M398.459 489.447L121.709 432.865L143.752 325.033L420.506 381.615L398.459 489.447Z" fill="white" stroke="#13102D" stroke-width="4.572" stroke-miterlimit="10"/>
<path d="M389.896 477.873L134.123 425.58L152.311 336.607L408.088 388.9L389.896 477.873Z" stroke="#13102D" stroke-width="0.836" stroke-miterlimit="10"/>
<path d="M1225.94 735.181C1222.99 734.83 1220.02 734.513 1217.09 734.123C1180.45 729.248 1143.81 724.361 1107.18 719.466C1095.69 717.935 1084.25 716.306 1072.73 714.83C1065.84 713.947 1060.72 712.134 1056.09 709.314C1037.14 697.787 1017.58 686.517 998.385 675.095C979.959 664.13 961.748 653.08 943.346 642.111C938.002 638.923 932.326 635.876 926.549 632.623C902.451 646.701 878.776 660.533 854.635 674.638C783.096 630.748 712.014 587.142 640.631 543.349C584.283 572.74 528.58 601.794 472.572 631.013C448.244 613.654 424.236 596.529 399.381 578.794C345.639 613.318 292.514 647.443 238.904 681.876C222.287 671.712 206.088 661.806 189.729 651.798C183.486 654.869 177.193 657.791 171.287 660.896C140.15 677.279 109.104 693.705 78.0372 710.123C74.7598 711.857 71.3223 713.529 68.377 715.4C66.2012 716.779 64.8419 716.728 62.4512 715.529C46.5567 707.548 30.5371 699.63 14.5489 691.701C5.7598 687.337 -3.1113 683.021 -11.83 678.623C-14.3535 677.353 -16.6933 677.084 -20.1738 677.732C-54.205 684.048 -88.3183 690.263 -122.377 696.544C-144.572 700.642 -166.666 704.873 -188.893 708.919C-230.959 716.576 -273.096 724.126 -315.174 731.763C-319.869 732.615 -324.377 733.728 -329.479 734.287C-327.471 733.669 -325.459 733.06 -323.463 732.439C-302.748 725.962 -282.307 719.259 -261.268 713.064C-223.295 701.88 -185.209 690.783 -146.721 680.052C-101.084 667.33 -54.8027 655.212 -6.30661 645.357C-0.0605164 644.087 3.79105 644.595 9.18558 646.568C26.3614 652.841 44.2481 658.63 61.8731 664.599C62.6075 664.845 63.4747 664.994 64.252 665.212C70.8809 667.08 76.7676 667.209 83.5606 664.751C100.326 658.681 117.865 653.15 134.775 647.177C168.854 635.142 202.744 622.974 236.662 610.826C273.002 597.81 309.35 584.794 345.572 571.697C367.666 563.705 389.533 555.556 412.08 547.263C415.123 549.013 418.084 550.837 421.295 552.548C434.756 559.72 448.256 566.873 461.811 574.001C467.17 576.822 472.615 577.697 480.076 575.248C498.361 569.244 517.693 564.013 535.572 557.736C572.268 544.849 608.291 531.482 644.584 518.306C646.502 517.611 648.315 516.841 650.389 516.021C653.826 517.732 657.307 519.333 660.502 521.068C683.354 533.458 706.026 545.939 728.998 558.271C751.459 570.334 773.951 582.392 796.92 594.209C815.315 603.673 834.365 612.818 853.318 622.005C857.244 623.908 862.049 625.353 866.397 627.041C869.326 628.177 872.213 628.22 875.502 627.365C894.256 622.49 913.123 617.728 931.787 612.775C935.315 611.837 937.393 611.697 940.584 613.154C965.272 624.408 990.186 635.537 1014.99 646.724C1046.22 660.806 1077.14 675.056 1108.73 688.931C1124.06 695.662 1140.51 701.759 1156.6 708.041C1174.46 715.009 1192.48 721.876 1210.46 728.763C1215.73 730.779 1221.11 732.716 1226.44 734.693C1226.27 734.853 1226.11 735.017 1225.94 735.181Z" fill="#68686D"/>
<path d="M1025.65 337.955L1068.05 713.037L1088.01 714.263L1041.99 338.962L1025.65 337.955Z" fill="white"/>
<path d="M1334.94 310.931L739.74 378.513L707.814 97.3374L1303.01 29.7554L1334.94 310.931Z" fill="white" stroke="#13102D" stroke-width="10.676" stroke-miterlimit="10"/>
<path d="M1309.99 292.392L759.896 354.853L732.764 115.88L1282.85 53.4194L1309.99 292.392Z" stroke="#13102D" stroke-width="1.98133" stroke-miterlimit="10"/>
<path d="M1021.87 760.341L1182.35 657.259L1255.53 709.474L1237.31 754.365L1021.87 760.341Z" fill="#13102D"/>
<path d="M2008.9 813.642C2005.96 813.291 2002.98 812.978 2000.06 812.587C1963.42 807.708 1926.78 802.826 1890.15 797.931C1878.65 796.396 1867.21 794.771 1855.69 793.291C1848.8 792.408 1843.69 790.595 1839.05 787.775C1820.1 776.248 1800.54 764.978 1781.35 753.556C1762.92 742.595 1744.71 731.544 1726.31 720.572C1720.96 717.384 1715.29 714.341 1709.51 711.083C1685.42 725.162 1661.74 738.998 1637.6 753.099C1566.06 709.208 1494.98 665.603 1423.59 621.81C1367.25 651.201 1311.54 680.259 1255.54 709.474C1231.21 692.115 1207.2 674.99 1182.35 657.259C1128.6 691.783 1075.47 725.908 1021.87 760.341C1005.25 750.177 989.049 740.267 972.693 730.263C966.451 733.333 960.154 736.251 954.252 739.361C923.111 755.74 892.068 772.169 861.002 788.583C857.725 790.318 854.287 791.994 851.342 793.861C849.166 795.24 847.807 795.189 845.416 793.99C829.521 786.009 813.502 778.091 797.51 770.162C788.721 765.802 779.85 761.482 771.131 757.087C768.611 755.814 766.271 755.548 762.791 756.193C728.756 762.513 694.646 768.724 660.584 775.009C638.393 779.103 616.299 783.333 594.068 787.38C552.006 795.037 509.869 802.587 467.791 810.224C463.092 811.076 458.588 812.193 453.486 812.748C455.49 812.134 457.506 811.525 459.502 810.9C480.217 804.427 500.654 797.724 521.693 791.529C559.67 780.345 597.756 769.244 636.244 758.513C681.881 745.791 728.162 733.677 776.658 723.822C782.904 722.552 786.756 723.06 792.146 725.029C809.326 731.306 827.213 737.091 844.838 743.06C845.572 743.306 846.436 743.455 847.217 743.677C853.846 745.541 859.729 745.673 866.521 743.212C883.291 737.142 900.83 731.611 917.74 725.638C951.814 713.603 985.709 701.439 1019.62 689.291C1055.97 676.271 1092.31 663.259 1128.54 650.158C1150.63 642.166 1172.49 634.017 1195.04 625.724C1198.08 627.478 1201.05 629.302 1204.26 631.009C1217.72 638.181 1231.22 645.333 1244.77 652.466C1250.13 655.283 1255.58 656.158 1263.04 653.708C1281.33 647.705 1300.65 642.478 1318.54 636.197C1355.23 623.314 1391.26 609.947 1427.54 596.767C1429.46 596.072 1431.28 595.302 1433.35 594.486C1436.79 596.193 1440.27 597.798 1443.47 599.529C1466.32 611.923 1488.99 624.4 1511.96 636.736C1534.42 648.798 1556.92 660.853 1579.88 672.673C1598.28 682.134 1617.33 691.283 1636.28 700.47C1640.21 702.373 1645.01 703.814 1649.36 705.505C1652.29 706.638 1655.18 706.681 1658.47 705.826C1677.22 700.955 1696.09 696.189 1714.75 691.236C1718.28 690.302 1720.36 690.158 1723.55 691.615C1748.23 702.869 1773.15 713.998 1797.96 725.185C1829.18 739.267 1860.11 753.521 1891.69 767.396C1907.02 774.126 1923.47 780.22 1939.56 786.501C1957.42 793.474 1975.44 800.337 1993.43 807.228C1998.69 809.244 2004.07 811.181 2009.4 813.154C2009.23 813.318 2009.07 813.478 2008.9 813.642Z" fill="#68686D"/>
</svg>
