<svg width="1280" height="890" viewBox="0 0 1280 890" fill="none" xmlns="http://www.w3.org/2000/svg">
<rect width="1280" height="890" fill="#13102D"/>
<path d="M1240.08 592.287V49.0718C1240.08 41.8999 1232.95 36.0913 1224.15 36.0913H55.2285C46.4277 36.0913 39.2949 41.8999 39.2949 49.0718V739.74C39.291 751.716 39.291 762.853 39.2949 772.376C39.2949 774.548 39.0645 777.384 43.791 777.408C44.0332 777.408 44.291 777.728 44.5098 777.927C48.3887 781.408 55.8652 782.759 60.9746 780.666C63.5137 779.626 65.7168 779.802 67.7988 781.095C69.8105 782.345 71.7793 782.087 73.1738 780.794C76.1465 778.041 80.1543 777.712 84.2012 777.13C84.7793 775.181 85.3691 773.205 85.7363 771.966C93.248 770.943 100.244 770.294 107.029 768.943C110.916 768.169 114.709 767.462 118.107 764.607C124.1 759.568 132.201 757.119 140.631 757.4C142.061 756.501 143.201 755.767 144.361 755.056C145.854 754.142 147.662 753.443 148.783 752.291C150.295 750.736 151.814 750.916 153.756 751.365C156.623 752.025 158.916 753.388 161.42 754.626C166.854 757.31 179.369 754.794 181.475 757.197C183.506 759.517 185.131 755.634 187.166 757.888C189.619 760.603 192.842 762.865 195.221 765.619C197.732 768.529 201.053 769.716 205.092 770.556C207.01 770.955 208.752 772.541 210.123 773.892C211.768 775.513 212.486 777.9 214.396 779.162C218.072 781.587 218.916 785.13 220.959 788.193C222.572 790.611 222.131 793.064 220.904 795.498C220.701 795.904 220.396 796.431 220.545 796.783C222.127 800.431 223.482 804.181 225.518 807.658C227.9 811.744 233.4 810.587 237.553 811.658C240.338 812.376 242.6 812.435 245.443 810.517C249.49 807.783 251.705 808.587 255.674 812.029C256.381 812.638 257.705 813.38 258.486 813.224C262.639 812.38 267.287 811.947 270.631 810.052C273.635 808.349 276.002 806.935 279.76 807.505C280.646 807.638 281.795 806.908 282.74 806.458C285.635 805.091 286.377 802.72 286.002 800.361C285.623 797.966 292.697 794.283 294.229 798.123C294.314 798.341 295.416 798.38 296.037 798.349C300.721 798.123 305.404 797.857 309.822 797.619C310.713 798.623 311.232 799.888 312.127 800.099C315.154 800.818 318.338 801.65 321.42 801.552C327.186 801.376 332.604 802.24 337.959 803.759C340.959 804.611 343.92 805.58 346.971 806.287C350.248 807.048 353.584 807.72 356.951 808.115C358.666 808.318 360.51 807.861 362.279 807.634C364.955 807.291 368.076 806.005 370.174 806.728C372.736 807.603 374.58 807.509 376.576 806.541C378.51 805.603 380.229 804.361 382.025 803.24C384.639 801.611 385.826 782.693 389.713 782.369C395.143 781.916 398.201 787.58 400.178 787.556C403.678 787.513 406.666 787.939 409.74 789.693C415.424 792.939 425.08 790.482 424.541 793.091C427.877 793.853 430.85 794.611 433.881 795.162C434.514 795.275 435.74 794.763 436.041 794.275C437.268 792.302 438.74 786.248 440.619 787.228C441.42 787.646 442.619 787.576 443.396 788.013C446.861 789.962 450.588 779.865 453.49 782.283C454.764 783.345 454.287 785.798 454.658 787.923C460.256 787.224 459.279 776.908 461.158 779.005C463.049 778.544 464.4 792.939 465.705 792.99C471.232 793.216 475.924 795.263 480.084 798.06C480.908 798.615 481.061 799.966 481.256 800.986C481.666 803.154 481.865 805.267 485.045 806.208C485.654 806.388 486.275 808.244 485.854 808.74C484.232 810.654 485.279 812.025 486.838 813.251C489.35 815.22 492.068 817.017 494.631 818.947C495.428 819.548 496.639 820.376 496.576 821.033C496.33 823.599 498.533 824.958 500.033 826.751C503.916 831.392 510.662 833.201 517.193 831.447C519.736 830.767 521.658 829.564 523.826 828.443C527.752 826.419 533.369 827.705 536.771 830.642C539.998 833.431 546.029 833.951 549.994 831.779C554.955 829.064 561.811 831.634 562.432 836.455C562.646 838.099 562.049 840.294 563.135 841.244C564.236 842.212 566.967 842.228 568.967 842.177C573.432 842.064 578.131 842.267 582.271 841.169C585.857 840.22 590.564 839.544 591.744 835.482C591.85 835.123 592.564 834.9 592.924 834.56C594.119 833.431 595.154 832.162 596.502 831.173C597.463 830.47 599.1 829.498 599.963 829.74C603.119 830.634 606.084 831.974 609.107 833.173C611.361 834.064 613.639 834.923 615.822 835.919C618.764 837.263 621.654 838.689 624.502 840.169C624.959 840.404 625.189 841.08 625.303 841.583C625.959 844.451 626.533 847.33 627.166 850.197C627.264 850.634 627.459 851.076 627.725 851.466C630.127 855.017 641.088 859.302 645.924 858.599C646.143 858.568 646.354 858.501 646.572 858.466C648.283 858.181 650.1 858.103 651.693 857.58C655.201 856.419 659.158 855.994 661.311 852.697C662.271 851.224 665.354 849.201 666.525 849.548C670.533 850.744 673.994 849.693 677.541 848.876C679.311 848.466 680.842 847.373 682.471 846.572C683.443 846.091 684.361 845.193 685.354 845.146C688.92 844.97 692.518 845.185 696.084 845.001C697.029 844.951 698.436 844.13 698.709 843.427C699.822 840.568 706.439 844.763 705.881 847.212C708.197 848.076 710.596 848.4 711.873 849.548C715.869 853.146 719.408 857.083 723.201 860.837C726.178 863.791 727.9 867.685 732.775 869.236C734.596 869.814 736.498 871.357 738.029 871.107C739.932 870.794 741.506 869.103 743.182 867.966C744.896 866.81 746.369 867.244 746.889 869.08C747.029 869.564 747.287 870.025 747.486 870.486C751.998 869.49 756.229 868.623 760.393 870.955C761.252 871.435 762.74 871.181 763.939 871.259C764.924 871.318 766.17 871.068 766.854 871.466C770.146 873.376 773.592 875.212 776.408 877.541C780.174 880.654 783.881 880.693 787.146 877.181C787.896 876.376 789.123 875.177 789.99 875.248C793.197 875.521 794.33 873.544 796.174 872.212C797.154 871.505 798.604 871.158 799.904 870.826C802.025 870.283 804.248 869.998 806.326 869.376C807.451 869.044 808.369 868.24 809.545 867.548C809.443 867.005 809.24 866.302 809.189 865.591C809.068 863.888 810.154 862.697 812.158 863.337C815.861 864.521 819.318 864.728 822.811 863.056C822.896 863.017 823.033 863.052 823.143 863.029C828.131 861.958 833.432 861.416 838.021 859.65C841.803 858.193 844.994 857.169 849.182 858.208C851.545 858.794 854.365 858.697 854.814 855.634C854.873 855.228 856.381 854.576 857.049 854.689C859.541 855.115 860.912 854.068 862.486 852.763C863.506 851.919 865.611 850.869 866.533 851.201C871.51 852.99 876.045 851.544 880.693 850.505C881.607 850.298 882.541 850.154 883.689 849.943C883.689 850.529 883.713 850.865 883.686 851.197C883.252 856.947 886.201 858.955 893.154 857.677C894.764 857.38 896.467 857.384 898.021 856.974C899.623 856.552 901.189 855.916 902.6 855.162C904.557 854.119 906.182 852.22 908.256 851.857C914.146 850.822 917.357 848.095 918.299 842.791C924.283 844.044 930.053 845.173 935.744 846.525C936.783 846.771 938.201 847.892 938.252 848.658C938.51 852.669 940.857 855.275 945.178 857.08C949.619 858.931 953.881 861.072 958.498 863.216C959.061 861.669 959.33 860.931 959.592 860.205C960.104 860.162 960.428 860.095 960.744 860.115C968.143 860.63 970.65 859.123 972.572 853.287C972.924 852.22 973.869 851.166 974.869 850.384C979.572 846.732 979.936 845.142 976.373 840.787C978.221 840.544 979.861 840.333 981.607 840.107C982.588 845.646 988.951 846.005 992.701 848.689C994.541 850.005 996.869 850.857 998.908 851.998C999.982 852.599 1000.79 853.603 1001.94 854.021C1006.28 855.587 1010.67 857.111 1015.14 858.419C1019.33 859.646 1021.65 858.888 1023.43 856.146C1025.02 853.689 1027.37 852.583 1030.31 853.767C1033.37 855.005 1035.97 856.802 1038.83 853.712C1038.9 853.634 1039.25 853.748 1039.47 853.74C1042.61 853.626 1043.35 851.888 1043.51 849.767C1043.65 847.912 1043.79 846.052 1043.96 843.771C1051.26 845.927 1054.42 842.716 1056.29 838.486H1075.31C1075.66 841.248 1074.93 844.021 1079.23 844.466C1079.73 844.517 1080.14 845.208 1080.58 845.611C1082.7 847.529 1084.82 849.451 1086.61 851.072C1089 850.701 1091.13 850.416 1093.23 850.029C1094.84 849.736 1096.51 849.474 1097.97 848.892C1099.22 848.396 1100.22 847.47 1101.33 846.736C1102.71 847.306 1103.85 847.373 1104.99 847.294C1110.4 846.931 1113.89 843.521 1118.34 841.615C1120.06 840.876 1121.37 839.482 1123.35 838.041C1124.09 838.001 1125.77 838.22 1127.13 837.783C1134.25 835.509 1139.34 830.943 1143.75 826.267C1146.1 823.779 1147.16 823.599 1149.13 824.978C1151.78 823.826 1154.04 822.814 1156.34 821.853C1158.28 821.041 1160.13 820.228 1159.59 818.029C1158.7 814.384 1158.71 814.38 1163.17 814.099C1163.17 813.416 1163.37 812.669 1163.13 812.029C1161.72 808.134 1161.27 804.279 1163.04 800.357C1163.27 799.841 1162.87 798.888 1162.35 798.455C1161.13 797.419 1159.33 796.607 1160.81 794.908C1161.81 793.748 1162.95 791.896 1164.2 791.794C1168.2 791.466 1171.27 789.423 1174.82 788.646C1178.24 787.896 1179.76 786.435 1180.89 784.13C1181.21 783.478 1181.58 782.841 1181.93 782.197C1182.11 782.248 1182.29 782.298 1182.46 782.349V785.416C1184.03 785.892 1185.32 786.47 1186.71 786.673C1189.23 787.044 1191.94 787.712 1194.32 787.306C1197.71 786.732 1200.88 785.326 1204.12 784.228C1205.97 783.603 1208.07 783.173 1209.54 782.158C1214.35 778.849 1214.26 778.759 1219.39 781.466C1219.85 781.712 1220.28 782.123 1220.78 782.189C1221.45 782.283 1222.43 782.341 1222.83 782.033C1225.46 780.041 1227.94 777.919 1230.53 775.892C1231.22 775.353 1232.19 774.583 1232.95 774.646C1235.67 774.865 1238.35 775.392 1241.05 775.802C1241.05 682.447 1240.08 685.705 1240.08 592.287Z" fill="#FCE6E6"/>
<path d="M812.045 863.326C815.748 864.509 819.205 864.712 822.701 863.044C822.787 863.005 822.924 863.041 823.029 863.017C828.021 861.947 833.318 861.4 837.908 859.638C838.146 859.544 838.377 859.462 838.611 859.373V854.638H789.318V875.341C789.514 875.267 789.705 875.22 789.877 875.236C793.088 875.509 794.217 873.533 796.061 872.201C797.041 871.49 798.49 871.146 799.795 870.814C801.912 870.271 804.135 869.986 806.213 869.365C807.338 869.029 808.256 868.228 809.436 867.537C809.334 866.994 809.131 866.291 809.08 865.58C808.959 863.876 810.041 862.685 812.045 863.326ZM746.779 869.068C746.916 869.552 747.174 870.013 747.377 870.474C751.885 869.478 756.115 868.611 760.279 870.939C761.143 871.423 762.627 871.169 763.826 871.244C764.811 871.306 766.057 871.056 766.74 871.455C770.033 873.365 773.482 875.201 776.295 877.529C780.061 880.642 783.768 880.681 787.033 877.169C787.393 876.787 787.854 876.318 788.334 875.935V854.638H739.041V870.736C740.463 870.103 741.736 868.857 743.068 867.955C744.783 866.798 746.256 867.232 746.779 869.068ZM849.072 858.193C851.436 858.779 854.256 858.685 854.701 855.619C854.764 855.216 856.268 854.564 856.936 854.677C857.787 854.822 858.498 854.787 859.143 854.638H839.596V859.017C842.682 857.923 845.518 857.314 849.072 858.193ZM897.912 856.962C899.514 856.541 901.076 855.9 902.49 855.15C902.779 854.994 903.057 854.822 903.334 854.638H889.873V858.017C890.822 857.994 891.869 857.88 893.045 857.662C894.65 857.369 896.357 857.369 897.912 856.962ZM888.889 858.009V854.638H883.85C884.494 856.775 886.143 857.873 888.889 858.009ZM1023.32 856.134C1023.69 855.552 1024.12 855.056 1024.58 854.638H1003.6C1007.37 855.982 1011.17 857.275 1015.03 858.408C1019.22 859.63 1021.54 858.876 1023.32 856.134ZM945.064 857.064C949.51 858.919 953.771 861.06 958.385 863.205C958.951 861.658 959.221 860.916 959.482 860.193C959.994 860.15 960.318 860.083 960.631 860.103C967.416 860.576 970.084 859.337 971.963 854.638H941.018C942.08 855.583 943.432 856.38 945.064 857.064ZM1037.66 854.638H1032.27C1034.12 855.412 1035.86 855.896 1037.66 854.638ZM732.662 869.224C734.482 869.802 736.385 871.345 737.916 871.095C737.963 871.087 738.01 871.068 738.057 871.06V854.638H717.021C719.045 856.701 721.029 858.787 723.088 860.826C726.064 863.779 727.787 867.673 732.662 869.224ZM386.115 609.775V561.947H336.822V609.775H386.115ZM386.115 658.556V610.728H336.822V658.556H386.115ZM386.119 659.513H336.822V707.341H386.119V659.513ZM386.119 513.166H336.822V560.994H386.119V513.166ZM386.119 708.294H336.822V756.123H386.119V708.294ZM386.119 220.474H336.822V268.302H386.119V220.474ZM386.119 269.255H336.822V317.083H386.119V269.255ZM386.119 171.693H336.822V219.521H386.119V171.693ZM386.119 318.037H336.822V365.865H386.119V318.037ZM386.115 414.65V366.818H336.822V414.65H386.115ZM386.119 464.384H336.822V512.212H386.119V464.384ZM386.119 415.603H336.822V463.431H386.119V415.603ZM486.67 708.294H437.377V756.123H486.67V708.294ZM788.334 659.513H739.041V707.341H788.334V659.513ZM939.166 659.513H889.873V707.341H939.166V659.513ZM838.611 659.513H789.318V707.341H838.611V659.513ZM888.889 659.513H839.596V707.341H888.889V659.513ZM637.502 610.728H588.209V658.56H637.502V610.728ZM889.873 610.728V658.556H939.166V610.728H889.873ZM687.779 659.513H638.486V707.341H687.779V659.513ZM587.225 659.513H537.932V707.341H587.225V659.513ZM536.947 659.513H487.654V707.341H536.947V659.513ZM738.057 659.513H688.764V707.341H738.057V659.513ZM637.502 659.513H588.209V707.341H637.502V659.513ZM437.377 707.337H486.67V659.509H437.377V707.337ZM839.596 463.431H888.889V415.603H839.596V463.431ZM839.596 512.212H888.889V464.384H839.596V512.212ZM839.596 609.775H888.889V561.947H839.596V609.775ZM889.873 560.994H939.166V513.166H889.873V560.994ZM839.596 560.994H888.889V513.166H839.596V560.994ZM839.596 365.865H888.889V318.037H839.596V365.865ZM839.596 414.65H888.889V366.818H839.596V414.65ZM788.334 610.728H739.041V658.56H788.334V610.728ZM888.889 610.728H839.596V658.56H888.889V610.728ZM687.779 610.728H638.486V658.56H687.779V610.728ZM738.057 610.728H688.764V658.56H738.057V610.728ZM838.611 610.728H789.318V658.56H838.611V610.728ZM839.596 317.083H888.889V269.255H839.596V317.083ZM739.041 170.74H788.334V122.912H739.041V170.74ZM537.932 170.74H587.225V122.912H537.932V170.74ZM487.654 170.74H536.947V122.912H487.654V170.74ZM588.209 170.74H637.502V122.912H588.209V170.74ZM638.486 170.74H687.779V122.912H638.486V170.74ZM437.377 170.74H486.67V122.912H437.377V170.74ZM387.1 170.74H436.393V122.912H387.1V170.74ZM336.822 170.74H386.119V122.912H336.822V170.74ZM839.596 170.74H888.889V122.912H839.596V170.74ZM839.596 219.521H888.889V171.693H839.596V219.521ZM789.318 170.74H838.611V122.912H789.318V170.74ZM839.596 268.302H888.889V220.474H839.596V268.302ZM688.764 170.74H738.057V122.912H688.764V170.74ZM889.873 561.947V609.775H939.166V561.947H889.873ZM335.842 366.818H286.545V414.65H335.842V366.818ZM335.842 708.294H286.545V756.123H335.842V708.294ZM381.908 803.228C383.533 802.216 384.607 794.541 386.115 788.791V757.076H336.822V803.474C337.162 803.568 337.502 803.65 337.838 803.748C339.154 804.123 340.463 804.517 341.775 804.904H379.307C380.178 804.349 381.033 803.775 381.908 803.228ZM487.654 756.123H536.947V708.294H487.654V756.123ZM536.947 757.076H487.654V804.904H536.947V757.076ZM587.225 708.294H537.932V756.123H587.225V708.294ZM335.842 659.513H286.545V707.341H335.842V659.513ZM335.842 415.603H286.545V463.431H335.842V415.603ZM335.842 464.384H286.545V512.212H335.842V464.384ZM335.842 561.947H286.545V609.775H335.842V561.947ZM335.842 513.166H286.545V560.994H335.842V513.166ZM335.842 610.728H286.545V658.556H335.842V610.728ZM294.107 798.111C294.193 798.33 295.299 798.369 295.92 798.337C300.604 798.111 305.283 797.845 309.705 797.607C310.596 798.611 311.111 799.876 312.01 800.087C315.037 800.81 318.221 801.638 321.303 801.541C326.354 801.384 331.135 802.029 335.842 803.212V757.076H286.545V798.728C288.283 796.728 292.904 795.091 294.107 798.111ZM939.166 708.294H889.873V756.123H939.166V708.294ZM940.15 658.556H989.443V610.728H940.15V658.556ZM637.502 708.294H588.209V756.123H637.502V708.294ZM940.15 707.337H989.443V659.509H940.15V707.337ZM940.15 560.994H989.443V513.166H940.15V560.994ZM940.15 609.775H989.443V561.947H940.15V609.775ZM989.443 708.294H940.15V756.123H989.443V708.294ZM738.057 708.294H688.764V756.123H738.057V708.294ZM888.889 708.294H839.596V756.123H888.889V708.294ZM687.779 708.294H638.486V756.123H687.779V708.294ZM940.15 512.212H989.443V464.384H940.15V512.212ZM788.334 708.294H739.041V756.123H788.334V708.294ZM889.873 170.74H939.166V122.912H889.873V170.74ZM688.764 121.958H738.057V74.1265H688.764V121.958ZM889.873 512.212H939.166V464.384H889.873V512.212ZM889.873 219.521H939.166V171.693H889.873V219.521ZM839.596 121.958H888.889V74.1265H839.596V121.958ZM739.041 121.958H788.334V74.1265H739.041V121.958ZM789.318 121.958H838.611V74.1265H789.318V121.958ZM889.873 121.958H939.166V74.1265H889.873V121.958ZM889.873 463.431H939.166V415.603H889.873V463.431ZM889.873 268.302H939.166V220.474H889.873V268.302ZM889.873 366.818V414.65H939.166V366.818H889.873ZM889.873 317.083H939.166V269.255H889.873V317.083ZM889.873 365.865H939.166V318.037H889.873V365.865ZM335.842 269.255H286.545V317.083H335.842V269.255ZM286.545 121.958H335.842V74.1265H286.545V121.958ZM335.842 171.693H286.545V219.521H335.842V171.693ZM335.842 122.912H286.545V170.74H335.842V122.912ZM335.842 318.037H286.545V365.865H335.842V318.037ZM335.842 220.474H286.545V268.302H335.842V220.474ZM487.654 121.958H536.947V74.1265H487.654V121.958ZM638.486 121.958H687.779V74.1265H638.486V121.958ZM537.932 121.958H587.225V74.1265H537.932V121.958ZM336.822 121.958H386.119V74.1265H336.822V121.958ZM437.377 121.958H486.67V74.1265H437.377V121.958ZM387.1 121.958H436.393V74.1265H387.1V121.958ZM838.611 708.294H789.318V756.123H838.611V708.294ZM688.764 365.865H738.057V318.037H688.764V365.865ZM688.764 414.65H738.057V366.818H688.764V414.65ZM688.764 463.431H738.057V415.603H688.764V463.431ZM738.057 464.384H688.764V512.212H738.057V464.384ZM588.209 317.083H637.502V269.255H588.209V317.083ZM638.486 317.083H687.779V269.255H638.486V317.083ZM688.764 317.083H738.057V269.255H688.764V317.083ZM587.225 366.818H537.932V414.65H587.225V366.818ZM687.779 464.384H638.486V512.212H687.779V464.384ZM587.225 415.603H537.932V463.431H587.225V415.603ZM587.225 464.384H537.932V512.212H587.225V464.384ZM637.502 464.384H588.209V512.212H637.502V464.384ZM637.502 513.166H588.209V560.994H637.502V513.166ZM537.932 365.865H587.225V318.037H537.932V365.865ZM587.225 513.166H537.932V560.994H587.225V513.166ZM687.779 513.166H638.486V560.994H687.779V513.166ZM788.334 513.166H739.041V560.994H788.334V513.166ZM738.057 513.166H688.764V560.994H738.057V513.166ZM536.947 513.166H487.654V560.994H536.947V513.166ZM536.947 366.818H487.654V414.65H536.947V366.818ZM536.947 318.037H487.654V365.865H536.947V318.037ZM536.947 464.384H487.654V512.212H536.947V464.384ZM487.654 317.083H536.947V269.255H487.654V317.083ZM537.932 317.083H587.225V269.255H537.932V317.083ZM536.947 415.603H487.654V463.431H536.947V415.603ZM84.4551 756.123V708.294H39.1738V739.732C39.1699 745.416 39.1699 750.9 39.1699 756.123H84.4551ZM666.408 849.537C670.416 850.728 673.881 849.681 677.428 848.861C679.197 848.455 680.729 847.361 682.357 846.556C683.33 846.08 684.248 845.181 685.24 845.134C686.084 845.091 686.932 845.076 687.779 845.068V805.857H638.486V853.685H660.404C660.686 853.38 660.955 853.052 661.193 852.681C662.158 851.208 665.24 849.189 666.408 849.537ZM888.889 805.857H839.596V853.685H861.178C861.58 853.404 861.971 853.087 862.377 852.751C863.393 851.908 865.502 850.857 866.42 851.185C871.4 852.974 875.936 851.533 880.584 850.49C881.498 850.287 882.428 850.142 883.58 849.931C883.58 850.517 883.6 850.853 883.576 851.185C883.506 852.119 883.533 852.947 883.643 853.685H888.889V805.857ZM1039.72 805.857H990.424V847.443C991.197 847.81 991.936 848.208 992.592 848.677C994.432 849.99 996.756 850.845 998.795 851.986C999.654 852.462 1000.34 853.197 1001.17 853.685H1026.04C1027.19 853.185 1028.5 853.142 1029.98 853.685H1038.77C1038.81 853.673 1038.88 853.673 1038.96 853.685H1039.72V805.857ZM563.021 841.232C564.119 842.201 566.854 842.216 568.854 842.166C573.318 842.048 578.018 842.255 582.154 841.158C583.76 840.732 585.588 840.361 587.225 839.716V805.857H537.932V831.533C541.303 833.501 546.389 833.677 549.881 831.767C554.838 829.052 561.693 831.623 562.318 836.443C562.529 838.087 561.936 840.279 563.021 841.232ZM499.92 826.74C503.799 831.38 510.549 833.189 517.076 831.435C519.619 830.751 521.541 829.548 523.713 828.431C527.639 826.408 533.252 827.693 536.654 830.63C536.748 830.708 536.85 830.783 536.947 830.861V805.857H487.654V813.943C489.9 815.642 492.264 817.244 494.518 818.939C495.311 819.537 496.525 820.365 496.463 821.021C496.213 823.587 498.416 824.947 499.92 826.74ZM43.6699 777.396C43.9121 777.396 44.1699 777.72 44.3887 777.916C48.2676 781.396 55.7441 782.748 60.8535 780.654C63.3926 779.615 65.5957 779.791 67.6777 781.083C69.6895 782.333 71.6582 782.076 73.0527 780.783C76.0254 778.029 80.0332 777.697 84.0801 777.119C84.2051 776.701 84.3301 776.279 84.4551 775.865V757.076H39.1699C39.1699 762.505 39.1699 767.634 39.1738 772.365C39.1738 774.537 38.9434 777.373 43.6699 777.396ZM587.225 610.728H537.932V658.56H587.225V610.728ZM1191.53 787.376C1192.45 787.447 1193.35 787.443 1194.21 787.294C1197.6 786.724 1200.77 785.314 1204.01 784.216C1205.86 783.591 1207.97 783.162 1209.44 782.15C1214.24 778.837 1214.15 778.748 1219.28 781.455C1219.75 781.701 1220.17 782.111 1220.67 782.177C1221.34 782.271 1222.32 782.33 1222.73 782.021C1225.35 780.029 1227.83 777.908 1230.43 775.88C1231.12 775.341 1232.09 774.572 1232.84 774.634C1235.56 774.853 1238.25 775.38 1240.94 775.791C1240.94 769.072 1240.94 762.865 1240.93 757.076H1191.53V787.376ZM739.041 512.212H788.334V464.384H739.041V512.212ZM1141.26 805.857V828.669C1142.07 827.876 1142.87 827.068 1143.64 826.255C1145.99 823.767 1147.05 823.587 1149.03 824.966C1151.67 823.814 1153.94 822.802 1156.23 821.841C1158.17 821.029 1160.02 820.216 1159.48 818.017C1158.59 814.373 1158.6 814.369 1163.06 814.087C1163.06 813.404 1163.26 812.658 1163.03 812.017C1162.28 809.958 1161.81 807.908 1161.79 805.857H1141.26ZM588.209 365.865H637.502V318.037H588.209V365.865ZM486.67 813.197V805.857H484.021C484.295 805.982 484.592 806.095 484.932 806.197C485.541 806.376 486.162 808.232 485.74 808.728C484.131 810.623 485.139 811.982 486.67 813.197ZM436.393 659.513H387.1V707.341H436.393V659.513ZM588.209 414.65H637.502V366.818H588.209V414.65ZM245.326 810.505C249.373 807.771 251.588 808.576 255.557 812.013C256.26 812.626 257.588 813.369 258.369 813.212C262.521 812.369 267.17 811.935 270.514 810.041C273.518 808.337 275.885 806.923 279.643 807.494C280.529 807.626 281.678 806.896 282.623 806.447C283.002 806.267 283.342 806.068 283.65 805.857H236.268V811.408C236.666 811.474 237.057 811.548 237.432 811.646C240.221 812.365 242.482 812.423 245.326 810.505ZM687.779 415.603H638.486V463.431H687.779V415.603ZM638.486 414.65H687.779V366.818H638.486V414.65ZM638.486 365.865H687.779V318.037H638.486V365.865ZM637.502 415.603H588.209V463.431H637.502V415.603ZM387.1 658.556H436.393V610.728H387.1V658.556ZM225.396 807.646C227.389 811.056 231.549 810.814 235.287 811.263V805.857H224.424C224.732 806.458 225.053 807.056 225.396 807.646ZM486.67 757.076H437.377V791.005C438.283 788.802 439.311 786.595 440.502 787.216C441.307 787.634 442.502 787.564 443.279 788.001C446.744 789.951 450.471 779.853 453.373 782.271C454.646 783.333 454.17 785.787 454.545 787.912C460.143 787.212 459.162 776.896 461.041 778.994C462.932 778.533 464.283 792.927 465.588 792.982C471.115 793.205 475.807 795.251 479.967 798.048C480.795 798.603 480.947 799.955 481.139 800.974C481.412 802.419 481.6 803.837 482.631 804.904H486.67V757.076ZM387.1 756.123H436.393V708.294H387.1V756.123ZM433.764 795.15C434.396 795.263 435.623 794.751 435.928 794.263C436.08 794.017 436.236 793.708 436.396 793.361V757.076H387.1V785.595C387.807 783.716 388.615 782.443 389.6 782.361C395.025 781.904 398.084 787.568 400.061 787.544C403.561 787.501 406.553 787.927 409.623 789.681C415.307 792.927 424.963 790.47 424.424 793.08C427.76 793.841 430.732 794.599 433.764 795.15ZM1224.04 36.0913H1191.53V73.1733H1239.97V49.0718C1239.97 41.8999 1232.84 36.0913 1224.04 36.0913ZM688.764 219.521H738.057V171.693H688.764V219.521ZM638.486 219.521H687.779V171.693H638.486V219.521ZM487.654 219.521H536.947V171.693H487.654V219.521ZM789.318 171.693V219.521H838.611V171.693H789.318ZM537.932 219.521H587.225V171.693H537.932V219.521ZM588.209 219.521H637.502V171.693H588.209V219.521ZM739.041 219.521H788.334V171.693H739.041V219.521ZM789.318 414.65H838.611V366.818H789.318V414.65ZM789.318 463.431H838.611V415.603H789.318V463.431ZM789.318 317.083H838.611V269.255H789.318V317.083ZM789.318 365.865H838.611V318.037H789.318V365.865ZM789.318 220.474V268.302H838.611V220.474H789.318ZM437.377 219.521H486.67V171.693H437.377V219.521ZM789.318 512.212H838.611V464.384H789.318V512.212ZM436.393 415.603H387.1V463.431H436.393V415.603ZM436.393 464.384H387.1V512.212H436.393V464.384ZM436.393 513.166H387.1V560.994H436.393V513.166ZM536.947 610.728H487.654V658.56H536.947V610.728ZM486.67 610.728H437.377V658.56H486.67V610.728ZM436.393 561.947H387.1V609.779H436.393V561.947ZM436.393 220.474H387.1V268.302H436.393V220.474ZM387.1 219.521H436.393V171.693H387.1V219.521ZM436.393 318.037H387.1V365.865H436.393V318.037ZM436.393 269.255H387.1V317.083H436.393V269.255ZM436.393 366.818H387.1V414.65H436.393V366.818ZM486.67 513.166H437.377V560.994H486.67V513.166ZM638.486 268.302H687.779V220.474H638.486V268.302ZM487.654 268.302H536.947V220.474H487.654V268.302ZM588.209 268.302H637.502V220.474H588.209V268.302ZM537.932 268.302H587.225V220.474H537.932V268.302ZM486.67 269.255H437.377V317.083H486.67V269.255ZM437.377 268.302H486.67V220.474H437.377V268.302ZM486.67 318.037H437.377V365.865H486.67V318.037ZM739.041 414.65H788.334V366.818H739.041V414.65ZM739.041 365.865H788.334V318.037H739.041V365.865ZM739.041 317.083H788.334V269.255H739.041V317.083ZM739.041 268.302H788.334V220.474H739.041V268.302ZM688.764 268.302H738.057V220.474H688.764V268.302ZM788.334 561.947H739.041V609.779H788.334V561.947ZM738.057 561.947H688.764V609.779H738.057V561.947ZM587.225 561.947H537.932V609.779H587.225V561.947ZM637.502 561.947H588.209V609.779H637.502V561.947ZM687.779 561.947H638.486V609.779H687.779V561.947ZM838.611 561.947H789.318V609.779H838.611V561.947ZM789.318 560.994H838.611V513.166H789.318V560.994ZM486.67 464.384H437.377V512.212H486.67V464.384ZM486.67 366.818H437.377V414.65H486.67V366.818ZM486.67 415.603H437.377V463.431H486.67V415.603ZM739.041 463.431H788.334V415.603H739.041V463.431ZM536.947 561.947H487.654V609.779H536.947V561.947ZM486.67 561.947H437.377V609.779H486.67V561.947ZM588.209 121.958H637.502V74.1265H588.209V121.958ZM1090.98 463.431H1140.28V415.603H1090.98V463.431ZM1090.98 512.212H1140.28V464.384H1090.98V512.212ZM1090.98 268.302H1140.28V220.474H1090.98V268.302ZM1090.98 850.38C1091.7 850.263 1092.42 850.146 1093.12 850.017C1094.73 849.724 1096.4 849.462 1097.87 848.88C1099.12 848.384 1100.12 847.458 1101.22 846.724C1102.6 847.294 1103.75 847.361 1104.88 847.283C1110.29 846.919 1113.79 843.509 1118.23 841.603C1119.96 840.865 1121.26 839.47 1123.24 838.029C1123.98 837.986 1125.66 838.208 1127.03 837.771C1132.41 836.052 1136.63 833.021 1140.28 829.623V805.857H1090.98V850.38ZM1090.98 317.083H1140.28V269.255H1090.98V317.083ZM1090.98 365.865H1140.28V318.037H1090.98V365.865ZM1090.98 414.65H1140.28V366.818H1090.98V414.65ZM1090.98 756.123H1140.28V708.294H1090.98V756.123ZM1090.98 804.904H1140.28V757.076H1090.98V804.904ZM1090.98 658.556H1140.28V610.728H1090.98V658.556ZM1090.98 609.775H1140.28V561.947H1090.98V609.775ZM185.01 36.0913H135.713V73.1733H185.01V36.0913ZM1090.98 560.994H1140.28V513.166H1090.98V560.994ZM134.732 269.255H85.4355V317.083H134.732V269.255ZM1090.98 219.521H1140.28V171.693H1090.98V219.521ZM134.732 171.693H85.4355V219.521H134.732V171.693ZM134.732 220.474H85.4355V268.302H134.732V220.474ZM134.732 366.818H85.4355V414.65H134.732V366.818ZM134.732 318.037H85.4355V365.865H134.732V318.037ZM134.732 122.912H85.4355V170.74H134.732V122.912ZM1090.98 170.74H1140.28V122.912H1090.98V170.74ZM134.732 74.1265H85.4355V121.958H134.732V74.1265ZM1090.98 121.958H1140.28V74.1265H1090.98V121.958ZM1090.98 73.1733H1140.28V36.0913H1090.98V73.1733ZM134.732 415.603H85.4355V463.431H134.732V415.603ZM134.732 36.0913H85.4355V73.1733H134.732V36.0913ZM185.01 415.603H135.713V463.431H185.01V415.603ZM185.01 318.037H135.713V365.865H185.01V318.037ZM185.01 366.818H135.713V414.65H185.01V366.818ZM185.01 464.384H135.713V512.212H185.01V464.384ZM185.01 513.166H135.713V560.994H185.01V513.166ZM185.01 561.947H135.713V609.775H185.01V561.947ZM185.01 220.474H135.713V268.302H185.01V220.474ZM185.01 74.1265H135.713V121.958H185.01V74.1265ZM185.01 122.912H135.713V170.74H185.01V122.912ZM185.01 269.255H135.713V317.083H185.01V269.255ZM185.01 171.693H135.713V219.521H185.01V171.693ZM185.01 610.728H135.713V658.556H185.01V610.728ZM142.518 756.123C143.111 755.748 143.674 755.392 144.24 755.048C145.732 754.13 147.545 753.431 148.662 752.279C150.174 750.728 151.693 750.904 153.639 751.353C156.506 752.013 158.799 753.376 161.303 754.615C165.279 756.58 173.049 755.759 177.756 756.123H185.01V708.294H135.713V756.123H142.518ZM140.51 757.388C140.686 757.279 140.842 757.181 141.006 757.076H135.713V757.529C137.295 757.384 138.896 757.333 140.51 757.388ZM185.01 659.513H135.713V707.341H185.01V659.513ZM1090.98 707.337H1140.28V659.509H1090.98V707.337ZM1191.53 659.509V707.341H1240.69C1240.54 690.232 1240.36 676.81 1240.22 659.509H1191.53ZM84.4551 464.384H39.1738V512.212H84.4551V464.384ZM84.4551 610.728H39.1738V658.556H84.4551V610.728ZM84.4551 513.166H39.1738V560.994H84.4551V513.166ZM84.4551 659.513H39.1738V707.341H84.4551V659.513ZM1191.53 708.294V756.123H1240.93C1240.9 736.005 1240.81 721.091 1240.7 708.294H1191.53ZM84.4551 561.947H39.1738V609.775H84.4551V561.947ZM84.4551 415.603H39.1738V463.431H84.4551V415.603ZM84.4551 269.255H39.1738V317.083H84.4551V269.255ZM84.4551 220.474H39.1738V268.302H84.4551V220.474ZM84.4551 366.818H39.1738V414.65H84.4551V366.818ZM84.4551 318.037H39.1738V365.865H84.4551V318.037ZM1191.53 121.958H1239.97V74.1265H1191.53V121.958ZM1191.53 268.302H1239.97V220.474H1191.53V268.302ZM1191.53 317.083H1239.97V269.255H1191.53V317.083ZM1191.53 365.865H1239.97V318.037H1191.53V365.865ZM134.732 464.384H85.4355V512.212H134.732V464.384ZM84.4551 171.693H39.1738V219.521H84.4551V171.693ZM1191.53 170.74H1239.97V122.912H1191.53V170.74ZM1191.53 463.431H1239.97V415.603H1191.53V463.431ZM1239.97 561.947H1191.53V609.775H1239.99C1239.98 604.333 1239.97 598.529 1239.97 592.279V561.947ZM1191.53 560.994H1239.97V513.166H1191.53V560.994ZM1191.53 414.65H1239.97V366.818H1191.53V414.65ZM1191.53 610.728V658.556H1240.21C1240.1 645.771 1240.02 630.818 1239.99 610.728H1191.53ZM1191.53 512.212H1239.97V464.384H1191.53V512.212ZM1191.53 219.521H1239.97V171.693H1191.53V219.521ZM1141.26 707.337H1190.55V659.509H1141.26V707.337ZM1141.26 756.123H1190.55V708.294H1141.26V756.123ZM1141.26 757.076V804.904H1161.81C1161.9 803.388 1162.24 801.873 1162.93 800.345C1163.16 799.833 1162.76 798.876 1162.25 798.443C1161.02 797.404 1159.22 796.595 1160.7 794.896C1161.7 793.736 1162.84 791.884 1164.1 791.783C1168.09 791.455 1171.16 789.412 1174.71 788.634C1178.13 787.884 1179.65 786.423 1180.78 784.119C1181.1 783.466 1181.47 782.83 1181.82 782.189C1182 782.236 1182.18 782.287 1182.36 782.337V785.404C1183.92 785.88 1185.22 786.458 1186.6 786.662C1187.89 786.849 1189.23 787.119 1190.55 787.279V757.076H1141.26ZM85.6152 771.955C93.127 770.931 100.123 770.279 106.912 768.931C110.795 768.158 114.588 767.455 117.986 764.595C122.592 760.724 128.443 758.388 134.732 757.638V757.076H85.4395V772.56C85.502 772.345 85.5605 772.138 85.6152 771.955ZM1141.26 658.556H1190.55V610.728H1141.26V658.556ZM1141.26 609.775H1190.55V561.947H1141.26V609.775ZM134.732 513.166H85.4355V560.994H134.732V513.166ZM84.4551 122.912H39.1738V170.74H84.4551V122.912ZM134.732 561.947H85.4355V609.775H134.732V561.947ZM1141.26 560.994H1190.55V513.166H1141.26V560.994ZM134.732 610.728H85.4355V658.556H134.732V610.728ZM134.732 659.513H85.4355V707.341H134.732V659.513ZM134.732 708.294H85.4355V756.123H134.732V708.294ZM1141.26 73.1733H1190.55V36.0913H1141.26V73.1733ZM1141.26 219.521H1190.55V171.693H1141.26V219.521ZM1141.26 170.74H1190.55V122.912H1141.26V170.74ZM1141.26 121.958H1190.55V74.1265H1141.26V121.958ZM84.4551 73.1733V36.0913H55.1074C46.3066 36.0913 39.1738 41.8999 39.1738 49.0718V73.1733H84.4551ZM1141.26 512.212H1190.55V464.384H1141.26V512.212ZM84.4551 74.1265H39.1738V121.958H84.4551V74.1265ZM1141.26 414.65H1190.55V366.818H1141.26V414.65ZM1141.26 463.431H1190.55V415.603H1141.26V463.431ZM1141.26 268.302H1190.55V220.474H1141.26V268.302ZM1141.26 317.083H1190.55V269.255H1141.26V317.083ZM1141.26 365.865H1190.55V318.037H1141.26V365.865ZM940.15 463.431H989.443V415.603H940.15V463.431ZM285.564 610.728H236.268V658.556H285.564V610.728ZM285.564 220.474H236.268V268.302H285.564V220.474ZM285.564 659.513H236.268V707.341H285.564V659.513ZM285.564 513.166H236.268V560.994H285.564V513.166ZM284.705 804.904C285.076 804.478 285.365 804.025 285.564 803.541V757.076H236.268V804.904H284.705ZM285.564 708.294H236.268V756.123H285.564V708.294ZM285.564 269.255H236.268V317.083H285.564V269.255ZM285.564 464.384H236.268V512.212H285.564V464.384ZM285.564 318.037H236.268V365.865H285.564V318.037ZM356.834 808.103C358.549 808.306 360.393 807.849 362.162 807.623C364.838 807.279 367.959 805.994 370.061 806.716C372.619 807.591 374.463 807.498 376.459 806.529C376.889 806.322 377.311 806.091 377.725 805.857H345.189C345.744 806.001 346.295 806.146 346.854 806.275C350.131 807.037 353.467 807.708 356.834 808.103ZM285.564 366.818H236.268V414.65H285.564V366.818ZM285.564 415.603H236.268V463.431H285.564V415.603ZM285.564 561.947H236.268V609.775H285.564V561.947ZM537.932 804.904H587.225V757.076H537.932V804.904ZM1039.72 757.076H990.424V804.904H1039.72V757.076ZM939.166 757.076H889.869V804.904H939.166V757.076ZM990.428 707.337H1039.72V659.509H990.428V707.337ZM990.428 756.123H1039.72V708.294H990.428V756.123ZM888.889 757.076H839.596V804.904H888.889V757.076ZM989.443 757.076H940.15V804.904H989.443V757.076ZM637.502 757.076H588.209V804.904H637.502V757.076ZM838.611 757.076H789.318V804.904H838.611V757.076ZM687.779 757.076H638.486V804.904H687.779V757.076ZM788.334 757.076H739.041V804.904H788.334V757.076ZM738.057 757.076H688.764V804.904H738.057V757.076ZM285.564 171.693H236.268V219.521H285.564V171.693ZM940.15 73.1733H989.443V36.0913H940.15V73.1733ZM940.15 121.958H989.443V74.1265H940.15V121.958ZM889.873 73.1733H939.166V36.0913H889.873V73.1733ZM789.318 73.1733H838.611V36.0913H789.318V73.1733ZM940.15 170.74H989.443V122.912H940.15V170.74ZM839.596 73.1733H888.889V36.0913H839.596V73.1733ZM940.15 317.083H989.443V269.255H940.15V317.083ZM940.15 365.865H989.443V318.037H940.15V365.865ZM940.15 414.65H989.443V366.818H940.15V414.65ZM940.15 268.302H989.443V220.474H940.15V268.302ZM990.428 658.556H1039.72V610.728H990.428V658.556ZM739.041 73.1733H788.334V36.0913H739.041V73.1733ZM940.15 219.521H989.443V171.693H940.15V219.521ZM236.268 73.1733H285.561V36.0913H236.268V73.1733ZM286.545 73.1733H335.842V36.0913H286.545V73.1733ZM336.822 73.1733H386.119V36.0913H336.822V73.1733ZM387.1 73.1733H436.393V36.0913H387.1V73.1733ZM285.564 122.912H236.268V170.74H285.564V122.912ZM285.564 74.1265H236.268V121.958H285.564V74.1265ZM588.209 73.1733H637.502V36.0913H588.209V73.1733ZM638.486 73.1733H687.779V36.0913H638.486V73.1733ZM437.377 73.1733H486.67V36.0913H437.377V73.1733ZM688.764 73.1733H738.057V36.0913H688.764V73.1733ZM487.654 73.1733H536.947V36.0913H487.654V73.1733ZM537.932 73.1733H587.225V36.0913H537.932V73.1733ZM235.287 513.166H185.99V560.994H235.287V513.166ZM1040.71 805.857V853.544C1042.72 853.037 1043.26 851.533 1043.4 849.755C1043.54 847.9 1043.68 846.041 1043.85 843.759C1051.15 845.916 1054.31 842.705 1056.18 838.474H1075.2C1075.55 841.236 1074.82 844.009 1079.12 844.455C1079.62 844.505 1080.03 845.197 1080.47 845.595C1082.59 847.517 1084.71 849.435 1086.5 851.056C1087.72 850.869 1088.88 850.701 1090 850.533V805.857H1040.71ZM972.463 853.271C972.814 852.208 973.76 851.15 974.76 850.373C979.463 846.72 979.826 845.13 976.264 840.771C978.111 840.533 979.752 840.322 981.494 840.095C982.236 844.259 986.018 845.498 989.443 846.994V805.857H940.15V853.685H972.318C972.365 853.544 972.416 853.416 972.463 853.271ZM838.611 805.857H789.318V853.685H838.611V805.857ZM1040.71 707.337H1090V659.509H1040.71V707.337ZM1040.71 756.123H1090V708.294H1040.71V756.123ZM1040.71 804.904H1090V757.076H1040.71V804.904ZM908.143 851.845C914.037 850.81 917.244 848.08 918.189 842.779C924.17 844.033 929.943 845.162 935.635 846.513C936.674 846.759 938.092 847.88 938.139 848.646C938.229 850.029 938.584 851.236 939.166 852.306V805.857H889.873V853.685H904.67C905.779 852.861 906.877 852.064 908.143 851.845ZM187.045 757.876C189.498 760.595 192.725 762.857 195.1 765.607C197.611 768.517 200.932 769.708 204.971 770.544C206.889 770.943 208.635 772.529 210.006 773.884C211.65 775.501 212.365 777.892 214.275 779.15C217.955 781.572 218.799 785.119 220.838 788.181C222.451 790.599 222.014 793.052 220.787 795.486C220.58 795.892 220.275 796.419 220.428 796.771C221.6 799.478 222.65 802.236 223.943 804.904H235.287V757.076H185.99V757.193C186.334 757.271 186.682 757.474 187.045 757.876ZM181.357 757.189C182.67 758.685 183.814 757.595 185.01 757.248V757.076H181.236C181.275 757.111 181.322 757.146 181.357 757.189ZM788.334 805.857H739.041V853.685H788.334V805.857ZM637.502 805.857H588.209V839.279C589.795 838.486 591.088 837.337 591.631 835.47C591.736 835.107 592.451 834.884 592.811 834.548C594.006 833.419 595.041 832.15 596.389 831.162C597.35 830.458 598.982 829.486 599.85 829.728C603.006 830.623 605.971 831.962 608.994 833.158C611.244 834.052 613.521 834.912 615.705 835.908C618.65 837.251 621.541 838.677 624.389 840.154C624.846 840.392 625.072 841.068 625.189 841.572C625.846 844.439 626.42 847.318 627.053 850.185C627.15 850.623 627.346 851.064 627.607 851.455C628.104 852.181 628.975 852.943 630.064 853.685H637.502V805.857ZM738.057 805.857H688.764V845.064C691.166 845.06 693.576 845.115 695.971 844.99C696.916 844.939 698.322 844.119 698.596 843.416C699.709 840.556 706.326 844.748 705.768 847.201C708.084 848.06 710.482 848.384 711.76 849.537C713.252 850.876 714.67 852.275 716.072 853.685H738.057V805.857ZM1040.71 268.302H1090V220.474H1040.71V268.302ZM1040.71 318.037V365.865H1090V318.037H1040.71ZM235.287 708.294H185.99V756.123H235.287V708.294ZM1040.71 317.083H1090V269.255H1040.71V317.083ZM1040.71 219.521H1090V171.693H1040.71V219.521ZM1040.71 121.958H1090V74.1265H1040.71V121.958ZM1040.71 170.74H1090V122.912H1040.71V170.74ZM1040.71 463.431H1090V415.603H1040.71V463.431ZM1040.71 609.775H1090V561.947H1040.71V609.775ZM1040.71 560.994H1090V513.166H1040.71V560.994ZM1040.71 512.212H1090V464.384H1040.71V512.212ZM1040.71 414.65H1090V366.818H1040.71V414.65ZM1040.71 658.556H1090V610.728H1040.71V658.556ZM235.287 122.912H185.99V170.74H235.287V122.912ZM990.428 317.083H1039.72V269.255H990.428V317.083ZM990.428 219.521H1039.72V171.693H990.428V219.521ZM990.428 268.302H1039.72V220.474H990.428V268.302ZM990.428 170.74H1039.72V122.912H990.428V170.74ZM990.428 121.958H1039.72V74.1265H990.428V121.958ZM990.428 73.1733H1039.72V36.0913H990.428V73.1733ZM990.428 512.212H1039.72V464.384H990.428V512.212ZM990.428 560.994H1039.72V513.166H990.428V560.994ZM235.287 659.513H185.99V707.341H235.287V659.513ZM235.287 36.0913H185.99V73.1733H235.287V36.0913ZM990.428 463.431H1039.72V415.603H990.428V463.431ZM990.428 414.65H1039.72V366.818H990.428V414.65ZM990.428 365.865H1039.72V318.037H990.428V365.865ZM235.287 74.1265H185.99V121.958H235.287V74.1265ZM235.287 464.384H185.99V512.212H235.287V464.384ZM235.287 415.603H185.99V463.431H235.287V415.603ZM235.287 610.728H185.99V658.556H235.287V610.728ZM235.287 366.818H185.99V414.65H235.287V366.818ZM235.287 561.947H185.99V609.775H235.287V561.947ZM1040.71 73.1733H1090V36.0913H1040.71V73.1733ZM235.287 219.521V171.693H185.99V219.521H235.287ZM990.428 609.775H1039.72V561.947H990.428V609.775ZM235.287 268.302V220.474H185.99V268.302H235.287ZM235.287 269.255H185.99V317.083H235.287V269.255ZM235.287 365.865V318.037H185.99V365.865H235.287Z" fill="white"/>
</svg>
