<svg width="1260" height="783" viewBox="0 0 1260 783" fill="none" xmlns="http://www.w3.org/2000/svg">
<path d="M162.471 533.505C186.799 516.15 210.807 499.025 235.662 481.29C289.404 515.814 342.529 549.939 396.139 584.373C412.756 574.208 428.955 564.298 445.315 554.294C451.557 557.365 457.85 560.283 463.756 563.392C494.893 579.775 525.94 596.201 557.006 612.619C560.283 614.349 563.721 616.025 566.666 617.892C568.842 619.271 570.201 619.22 572.592 618.021C588.486 610.04 604.506 602.123 620.494 594.193C629.287 589.833 638.154 585.513 646.873 581.119C649.397 579.849 651.736 579.58 655.217 580.224C689.248 586.544 723.361 592.755 757.42 599.04C779.615 603.134 801.709 607.369 823.936 611.412C866.002 619.068 908.139 626.623 950.217 634.255C954.916 635.107 959.42 636.224 964.522 636.779C962.514 636.165 960.502 635.556 958.506 634.931C937.791 628.458 917.35 621.755 896.311 615.56C858.338 604.376 820.252 593.275 781.764 582.544C736.127 569.822 689.846 557.708 641.35 547.853C635.104 546.583 631.252 547.091 625.857 549.06C608.682 555.337 590.795 561.123 573.17 567.091C572.436 567.341 571.568 567.49 570.791 567.708C564.162 569.572 558.275 569.705 551.482 567.244C534.717 561.177 517.178 555.646 500.268 549.669C466.19 537.638 432.299 525.47 398.381 513.322L396.087 512.5C360.512 499.758 324.931 487.015 289.471 474.189C267.377 466.201 245.51 458.048 222.963 449.759C219.92 451.509 216.959 453.333 213.748 455.04C200.287 462.216 186.787 469.369 173.232 476.498C167.873 479.318 162.428 480.193 154.967 477.74C136.682 471.74 117.35 466.509 99.4707 460.232C65.8242 448.416 32.7425 436.196 -0.500061 424.09V448.499C54.1143 476.986 108.149 505.17 162.471 533.505Z" fill="#68686D"/>
<path d="M1038.44 399.49C1037.08 399.177 1035.63 399.033 1034.37 398.486C1033.71 398.204 1033.02 397.263 1032.92 396.537C1032.37 392.615 1031.97 388.669 1031.58 384.728C1031.37 382.681 1031.55 380.513 1029.02 379.107C1030.35 378.228 1034.73 377.138 1036.37 376.048C1036.46 378.259 1043.94 394.576 1045.41 397.904C1045.19 398.087 1038.66 399.31 1038.44 399.49ZM1022.85 369.595C1021.05 365.822 1019.56 361.888 1018.11 357.962C1016.9 354.701 1015.9 351.357 1014.88 348.029C1014.63 347.212 1014.08 345.81 1012.31 345.372C1010.06 344.814 1008.27 346.126 1006.7 347.462C1005.27 348.681 1004.09 350.201 1002.81 351.595C1002.44 352.005 1002.1 352.443 1001.69 352.927C1001.04 350.966 1000.46 349.22 999.896 347.517C1001.58 347.279 1003.38 347.154 1005.11 346.712C1005.92 346.505 1006.78 345.829 1007.28 345.126C1009.95 341.372 1011.72 337.193 1012.93 332.751C1013.26 331.529 1017.33 327.576 1018.01 325.908C1018.9 327.861 1034.1 371.251 1034.85 372.861C1031.79 372.974 1023.98 371.954 1022.85 369.595ZM1017.41 376.326C1012.79 376.224 1008.17 376.087 1003.55 375.954C1002.94 375.939 1002.31 375.896 1001.93 375.876C1004.64 370.65 1007.24 365.65 1009.88 360.568C1009.73 360.548 1009.91 360.521 1009.94 360.583C1012.1 364.169 1014.24 367.763 1016.4 371.345C1016.65 371.763 1016.98 372.142 1017.31 372.497C1017.76 372.97 1018.35 373.333 1018.69 373.861C1019.13 374.564 1019.41 375.38 1019.76 376.146C1018.97 376.208 1018.19 376.345 1017.41 376.326ZM1002.54 324.568C1003.98 319.267 1005.2 313.904 1006.55 308.583C1006.76 307.783 1007.26 307.064 1007.63 306.306C1007.82 306.329 1009.71 304.173 1009.9 304.197C1010.07 305.083 1015.63 320.888 1015.65 321.634C1015.67 322.494 1014.39 323.345 1013.78 324.275C1010.85 328.712 1007.96 333.169 1005.06 337.634C1004.53 338.466 1004.08 339.361 1003.59 340.228C1003.41 340.158 1003.23 340.087 1003.05 340.017C1003.26 339.396 1003.49 338.779 1003.66 338.15C1004.11 336.517 1004.89 334.869 1004.87 333.236C1004.85 331.771 1004.34 329.912 1003.35 328.951C1001.83 327.478 1002.08 326.279 1002.54 324.568ZM1060.13 312.962C1060.65 302.482 1061.18 292.005 1061.7 281.529C1043.33 280.622 1024.97 279.72 1006.6 278.814C1006.02 283.31 1005.74 287.747 1007.9 292.013C1008.35 292.927 1006.97 294.63 1006.54 295.466C1004.97 298.505 1005.35 301.372 1005.04 304.806C1004.98 305.529 1004.44 306.204 1004.14 306.912C1001.6 312.888 999.072 318.88 996.479 324.837C996.252 325.353 995.553 325.97 995.045 325.997C993.471 326.079 992.533 326.861 991.881 328.181C991.123 329.724 990.018 330.927 988.752 332.13C987.775 333.056 987.385 334.806 987.182 336.251C987.088 336.915 988.064 337.728 988.553 338.474C989.221 337.997 989.9 337.54 990.549 337.037C990.721 336.904 990.748 336.572 990.924 336.451C991.232 336.24 991.604 336.119 991.947 335.962C992.006 336.376 992.268 336.962 992.084 337.177C991.408 337.978 990.639 338.724 989.811 339.369C987.783 340.943 985.6 342.423 985.236 345.216C984.865 348.087 984.428 350.99 984.486 353.869C984.596 359.537 984.928 365.208 985.373 370.861C985.178 378.837 990.873 384.927 992.959 385.458C995.045 385.99 995.045 385.99 995.963 386.169C1002.85 387.521 1009.78 387.064 1016.7 386.603C1018.17 386.505 1019.02 386.458 1020.43 386.369C1021.61 386.294 1022.72 386.302 1023.07 388.001C1023.46 389.888 1024.11 391.767 1024.94 393.513C1026.45 396.708 1028.3 399.673 1027.86 403.54C1027.53 406.494 1029.41 407.622 1032.33 406.767C1033.75 406.353 1042.1 404.431 1043.55 404.247C1047.45 403.759 1055.25 411.99 1055.25 411.99C1056.88 378.982 1058.5 345.97 1060.13 312.962ZM789.553 403.927L792.346 401.833C792.322 401.732 792.299 401.669 792.318 401.646C793.24 400.376 793.338 400.201 792.092 399.283C790.123 397.826 789.381 395.701 788.584 393.583C788.49 393.333 788.58 392.912 788.744 392.693C789.58 391.591 789.307 390.216 789.701 389.009C789.744 388.888 789.334 388.65 789.186 388.431C788.994 388.158 788.643 387.736 788.729 387.576C790.096 385.04 791.521 382.533 792.932 380.017C793.123 380.044 793.314 380.068 793.506 380.091C794.104 382.454 794.725 384.81 795.283 387.177C795.467 387.958 795.459 388.783 795.611 389.572C795.818 390.646 795.76 391.646 795.135 392.583C795.006 392.771 794.877 393.052 794.924 393.251C795.244 394.615 795.553 395.99 796.014 397.306C796.131 397.642 796.779 397.794 797.295 398.091C796.834 398.447 796.381 398.802 795.924 399.154L800.521 395.708C800.463 395.677 800.404 395.65 800.346 395.619C800.65 394.017 800.932 392.412 801.275 390.822C801.436 390.079 801.494 389.435 800.865 388.853C800.619 388.626 800.4 388.251 800.373 387.923C800.236 386.533 800.057 385.126 800.115 383.732C800.264 379.962 800.1 376.216 799.908 372.451C799.768 369.677 799.834 367.001 798.576 364.443C798.416 364.119 798.756 363.548 798.869 363.091C798.979 362.65 799.252 362.185 799.182 361.775C798.912 360.15 798.666 358.505 798.166 356.943C797.541 354.99 796.748 353.076 795.885 351.212C795.361 350.083 794.576 349.076 793.896 348.017C793.611 347.572 793.506 347.162 793.951 346.736C794.326 346.372 794.232 346.06 793.885 345.665C793.314 345.021 792.834 344.298 792.334 343.595C791.92 343.009 791.592 342.353 791.111 341.833C790.736 341.427 790.752 341.193 791.061 340.779C791.986 339.537 793.436 336.579 793.615 336.396C793.986 337.341 793.436 335.919 793.01 333.814C792.717 332.369 792.725 332.369 794.076 331.81C794.229 331.747 794.357 331.622 794.479 331.54C794.33 330.966 794.15 330.454 794.064 329.927C793.822 328.415 793.838 328.419 795.287 328.009C795.631 327.915 796.076 327.861 796.264 327.622C796.811 326.939 797.432 327.126 798.131 327.204C798.846 327.283 799.736 327.423 800.271 327.087C801.518 326.302 802.76 325.388 803.705 324.271C805.088 322.63 806.205 320.763 807.447 318.997C807.654 318.701 807.912 318.435 808.061 318.259C808.771 318.88 809.154 318.052 809.393 318.716C809.65 319.447 810.889 360.349 810.994 364.349C811.057 366.857 811.158 369.372 811.092 371.88C811.029 374.15 811.732 376.513 810.303 378.744C810.65 378.708 810.854 378.701 811.053 378.673C812.201 378.505 812.213 378.462 812.104 377.318C812.053 376.783 812.076 376.244 812.068 375.704C812.006 370.771 812.721 366.103 812.623 361.173C812.482 353.935 811.357 324.865 811.135 319.247C811.064 317.415 810.818 318.869 812.189 317.341C813.275 316.138 812.967 314.49 811.869 313.345C811.756 313.224 811.564 313.134 811.4 313.119C810.111 312.99 808.811 313.119 807.795 313.915C806.131 315.224 804.6 316.701 802.994 318.083C802.271 318.708 801.533 319.326 800.744 319.857C799.615 320.615 798.412 320.908 797.104 320.224C796.041 319.673 794.951 319.177 793.869 318.662C793.174 318.333 792.869 317.783 793.057 317.052C793.26 316.247 793.588 315.478 793.807 314.677C794.123 313.54 794.529 312.4 794.619 311.244C794.678 310.451 794.811 309.97 795.561 309.642C797.014 309.005 797.361 307.138 796.143 306.13C795.166 305.322 793.936 304.822 792.932 304.044C791.889 303.236 790.873 303.083 789.686 303.599C789.502 303.681 789.088 303.595 788.982 303.447C788.4 302.622 787.744 302.943 787.096 303.263C786.506 303.552 785.967 303.958 785.357 304.197C784.35 304.587 783.896 305.361 783.65 306.333C783.381 307.392 783.1 308.447 782.822 309.505C780.615 309.04 778.881 308.122 778.518 305.658C778.451 305.189 778.338 304.712 778.17 304.267C778.037 303.923 777.861 303.478 777.572 303.333C774.896 302.001 772.107 301.669 769.346 302.935C767.127 303.954 765.729 305.829 764.787 308.052C764.217 309.4 763.65 310.755 763.053 312.095C762.939 312.349 762.721 312.693 762.502 312.732C761.436 312.931 760.354 313.033 759.275 313.181C759.088 313.208 758.85 313.228 758.725 313.349C757.666 314.349 756.592 315.341 755.604 316.415C755.287 316.759 755.057 317.337 755.068 317.802C755.139 320.287 755.186 322.794 756.236 325.107C756.451 325.576 757.037 326.052 757.533 326.165C758.369 326.357 759.271 326.263 760.314 326.29C760.01 327.638 759.693 329.037 759.373 330.474C758.994 330.228 758.705 330.013 758.393 329.841C758.088 329.677 757.76 329.552 757.623 329.494C756.955 329.896 756.475 330.244 755.943 330.49C754.838 331.001 754.607 331.443 755.275 332.509C756.256 334.072 757.377 335.548 758.412 337.076C758.592 337.341 758.838 337.759 758.744 337.982C758.408 338.802 757.998 339.607 757.51 340.345C757.045 341.037 756.439 341.634 755.908 342.283C755.318 343.009 755.197 343.783 755.729 344.603C756.186 345.302 756.635 346.009 757.088 346.712C757.721 347.697 758.635 348.31 759.76 348.537C760.178 348.622 760.736 348.54 761.084 348.31C761.764 347.857 762.342 347.247 762.865 346.79C763.932 347.177 764.947 347.638 766.01 347.904C767.107 348.177 769.623 350.626 770.244 351.263C770.764 351.798 771.334 351.982 772.006 351.556C772.678 351.13 772.998 351.322 773.334 352.056C773.76 352.99 774.236 354.076 775.021 354.603C775.756 355.095 776.346 355.626 776.889 356.279C777.674 357.22 778.393 358.247 779.303 359.052C781.826 361.279 783.592 364.099 785.588 366.744C785.904 367.162 786.334 367.501 786.666 367.912C786.834 368.119 785.854 377.095 785.865 379.681C785.881 382.517 784.744 384.9 783.623 387.333C783.318 387.994 782.811 388.607 782.271 389.107C780.424 390.818 779.021 392.849 777.732 394.99C777.271 395.751 777.334 396.333 778.01 396.865C778.904 397.564 779.834 398.224 780.709 398.947C781.193 399.349 781.643 399.462 782.268 399.298C783.572 398.954 784.322 399.572 784.244 400.908C784.104 403.236 788.139 403.326 789.553 403.927ZM738.775 474.54C739.162 475.759 739.553 476.974 739.85 478.212C740.076 479.165 740.186 480.15 740.295 481.13C740.771 485.552 741.17 489.986 741.729 494.4C741.967 496.255 742.549 498.068 742.947 499.904C743.213 501.134 742.803 502.212 742.057 503.169C741.518 503.869 741.588 504.513 741.865 505.333C742.182 506.263 742.244 507.298 742.275 508.294C742.303 509.119 742.221 509.876 743.326 510.025C743.471 510.044 743.658 510.404 743.67 510.615C743.791 512.966 744.604 515.103 745.576 517.208C745.982 518.087 746.209 519.052 746.482 519.986C746.498 520.029 746.49 520.083 746.475 520.142L762.021 506.829C762.162 505.951 761.729 505.458 760.994 505.107C760.193 504.724 759.596 505.005 758.936 505.47C756.385 507.263 755.592 507.017 752.838 505.314C752.74 505.255 752.588 505.126 752.604 505.068C752.947 503.888 752.139 502.568 753.299 501.435C754.611 500.158 754.623 498.283 754.545 496.626C754.35 492.478 753.943 488.337 753.568 484.197C753.451 482.9 753.576 481.744 754.037 480.466C754.627 478.845 754.846 477.021 754.861 475.279C754.881 473.38 754.525 471.474 754.248 469.579C753.799 466.474 753.295 463.376 752.779 460.283C752.689 459.751 752.807 459.513 753.334 459.388C754.119 459.204 754.889 458.962 755.666 458.74C756.525 458.494 756.998 458.865 756.865 459.747C756.689 460.943 756.838 462.04 757.459 463.111C760.275 467.978 760.971 473.322 761.025 478.833C761.045 480.583 761.416 482.326 761.588 484.076C761.689 485.111 761.596 486.158 762.232 487.095C762.381 487.314 762.131 487.767 762.15 488.111C762.174 488.595 762.127 489.204 762.396 489.517C762.607 489.763 763.275 489.755 763.693 489.654C764.885 489.372 766.068 489.029 767.221 488.615C767.877 488.38 768.436 487.81 769.1 487.646C771.014 487.181 772.955 486.845 774.889 486.466L781.932 478.576C780.525 478.837 779.131 479.154 777.729 479.451C776.518 479.704 776.045 479.396 775.361 478.38C774.064 476.439 773.932 474.173 773.689 472.021C773.342 468.919 772.322 466.048 771.51 463.083C770.033 457.697 767.752 452.63 765.725 447.458C765.057 445.751 763.787 444.74 762.006 444.251C759.979 443.693 757.963 443.271 755.83 443.251C754.299 443.24 752.74 442.919 751.24 442.556C749.627 442.165 748.041 441.829 746.369 441.986C745.826 442.04 745.268 441.908 744.6 441.853C744.9 440.654 745.225 439.634 745.408 438.587C745.58 437.626 745.58 436.634 745.713 435.665C745.752 435.404 745.963 435.04 746.182 434.954C749.525 433.646 751.818 430.962 754.424 428.697C756.084 427.259 757.537 425.552 759.896 424.974C761.674 428.954 772.482 453.556 772.158 452.822C769.459 446.65 777.318 464.587 780.025 470.755C780.955 472.869 781.885 474.978 782.791 477.095C782.881 477.31 782.932 477.49 782.947 477.654L783.588 477.068C783.408 476.724 783.24 476.408 783.1 476.087C779.459 467.806 776.639 459.482 773.01 451.197C772.904 450.958 760.4 423.275 760.982 423.083C761.771 422.822 761.807 422.384 761.389 421.728C760.975 421.079 760.521 420.419 760.896 419.556C760.955 419.419 760.807 419.099 760.658 418.974C759.963 418.369 758.979 418.591 758.393 417.9C757.467 416.806 756.533 415.009 757.053 413.326C757.197 412.857 756.979 412.65 756.498 412.689C755.592 412.759 754.893 413.189 754.439 413.951C754.322 414.15 754.381 414.576 754.521 414.783C755.521 416.247 756.279 417.74 755.658 419.591C755.314 420.611 755.045 421.658 754.697 422.681C754.576 423.033 754.4 423.443 754.115 423.65C752.525 424.818 750.967 426.06 749.256 427.029C747.486 428.033 745.557 428.751 743.549 429.662C743.506 429.025 743.396 428.658 743.471 428.326C743.732 427.099 743.334 426.029 742.791 424.97C742.67 424.732 742.623 424.454 742.498 424.22C741.857 423.04 741.432 421.634 740.51 420.751C738.861 419.181 737.193 413.521 737.033 413.267C737.307 413.216 737.576 413.126 737.846 413.115C738.615 413.087 739.4 413.185 740.146 413.052C740.904 412.919 741.252 412.408 741.139 411.533C741.061 410.947 741.264 410.306 741.428 409.712C741.588 409.111 741.916 408.732 742.682 408.951C742.861 409.001 743.35 408.576 743.416 408.298C743.51 407.931 743.365 407.482 743.26 407.087C743.053 406.322 742.803 405.568 742.529 404.681C743.49 404.849 744.271 404.997 745.057 405.119C746.209 405.294 747.002 404.716 747.639 403.841C747.951 403.404 747.889 403.064 747.393 402.829C746.822 402.56 746.271 402.24 745.678 402.044C744.186 401.548 743.104 400.693 742.447 399.193C741.471 396.943 739.381 396.126 737.189 395.744C735.479 395.447 733.779 395.638 732.24 396.783C730.639 397.974 729.67 399.599 728.709 401.247C728.514 401.579 728.607 402.091 728.607 402.521C728.607 403.224 728.604 403.927 728.666 404.626C728.705 405.095 728.807 405.576 728.979 406.009C729.092 406.302 729.396 406.513 729.584 406.783C730.295 407.837 729.854 409.017 728.666 409.349C727.904 409.564 727.057 409.642 726.67 410.54C726.619 410.658 726.256 410.673 726.033 410.685C724.834 410.755 723.588 410.736 722.686 411.697C720.416 414.115 718.268 416.615 717.967 420.142C717.947 420.369 717.857 420.587 717.791 420.849C717.592 420.802 717.447 420.779 717.307 420.736C713.732 419.665 710.67 420.49 708.088 423.193C707.822 423.474 707.404 423.704 707.025 423.767C704.01 424.244 702.787 426.619 701.529 428.935C701.162 429.607 700.939 430.38 700.764 431.134C700.232 433.427 699.721 435.732 699.275 438.044C699.076 439.091 699.502 440.06 700.299 440.701C701.287 441.497 702.365 442.22 703.49 442.802C705.021 443.591 710.115 447.38 710.498 447.447C710.826 447.501 711.209 447.244 711.459 447.165C712.756 448.822 713.975 450.443 715.279 451.994C715.662 452.451 716.248 452.88 716.814 453.005C717.85 453.228 719.838 453.15 720.006 452.915C720.197 453.142 721.096 453.204 721.654 453.122C722.424 453.009 723.186 452.853 723.955 452.744C725.08 452.583 738.584 473.923 738.775 474.54ZM946.787 59.6225C947.104 59.5482 947.342 59.4936 947.588 59.435C947.568 59.2397 947.592 59.0756 947.537 58.9467C946.943 57.6498 947.596 50.8647 947.561 49.8764C947.529 49.1225 948.123 37.0248 947.967 36.5873C948.033 36.56 951.275 33.7943 952.041 33.2553C953.732 32.0717 955.412 30.8646 957.123 29.7006C957.9 29.1693 958.037 29.2045 958.502 30.0443C959.115 31.1615 959.705 32.2982 960.232 33.4584C960.615 34.3022 960.877 35.2006 961.197 36.0717C961.271 36.267 961.381 36.4506 961.471 36.6381C961.967 37.6732 962.549 38.6772 962.939 39.7475C963.564 41.474 964.064 43.2436 964.615 44.9936C964.631 45.0326 964.643 45.0756 964.662 45.1147C965.432 46.56 966.166 48.0287 966.998 49.4389C967.287 49.9272 967.748 50.4662 968.256 50.6537C969.541 51.1264 970.568 51.8803 971.439 52.9076C971.518 53.0014 971.654 53.0443 971.74 53.1342C972.428 53.8529 973.15 54.5443 973.775 55.3139C974.197 55.8373 974.479 56.4779 974.818 57.0678C975.346 57.9857 975.861 58.9076 976.385 59.8295C976.342 59.8842 976.303 59.9389 976.26 59.9936C975.994 59.9506 975.729 59.8607 975.471 59.8764C974.732 59.9115 973.967 59.8686 973.275 60.0756C972.115 60.4232 970.979 60.6576 969.76 60.5209C969.412 60.4818 969.037 60.6654 968.682 60.767C968.201 60.9037 967.693 61.2436 967.252 61.1732C965.361 60.8686 963.564 61.5248 961.717 61.5717C960.611 61.6029 959.506 61.7631 958.4 61.8373C957.068 61.9311 955.713 61.8881 954.404 62.1068C953.537 62.2514 952.689 62.3295 951.986 61.8998C951.096 61.3607 950.205 61.474 949.283 61.5326C948.857 61.56 948.432 61.6303 948.006 61.6186C947.803 61.6107 947.498 61.5053 947.428 61.3529C947.174 60.8061 946.998 60.2201 946.787 59.6225ZM853.443 86.7982C855.482 87.2396 855.357 90.5365 856.35 92.3881C856.436 92.5482 856.65 92.6342 856.752 92.7904C856.928 93.06 857.15 93.3412 857.197 93.642C857.275 94.1537 857.443 94.56 857.85 94.9037C858.17 95.1732 858.537 95.4818 858.674 95.849C859.639 98.4896 861.072 100.88 862.549 103.251C863.439 104.685 864.021 106.337 865.416 107.478C864.646 108.603 864.498 109.79 864.947 111.076C865.041 111.349 864.92 111.697 864.896 112.013C864.811 113.173 864.717 114.337 864.643 115.497C864.607 116.029 864.627 116.56 864.592 117.083C864.502 118.658 864.369 120.228 864.299 121.798C864.182 124.521 864.229 127.255 863.959 129.962C863.744 132.107 863.787 134.212 864.041 136.333C864.158 137.302 864.35 137.427 865.334 137.376C865.588 137.365 865.842 137.369 866.174 137.365C865.662 138.076 865.662 138.076 865.682 138.857C865.682 138.939 865.615 139.017 865.607 139.103C865.455 140.49 865.279 141.88 865.178 143.275C865.162 143.509 865.42 143.88 865.646 143.997C866.424 144.384 867.236 144.704 868.053 145.017C869.104 145.423 870.217 145.701 871.213 146.212C872.682 146.962 874.154 147.568 875.838 147.454C877.432 147.349 879.037 147.369 880.572 146.806C881.932 146.306 881.791 144.701 880.986 144.126C880.514 143.787 879.924 143.607 879.416 143.306C878.951 143.037 878.51 142.716 878.092 142.376C878.002 142.306 874.291 136.97 874.178 136.622C874.08 136.322 873.826 135.962 873.549 135.841C873.084 135.642 873.104 135.443 873.225 135.021C873.436 134.294 873.635 133.54 873.666 132.79C873.756 130.685 873.768 128.572 873.795 126.462C873.846 122.97 873.932 119.474 873.904 115.978C873.893 114.064 873.834 112.181 874.189 110.267C874.607 108.017 874.58 105.72 873.568 103.56C872.893 102.115 872.201 100.677 871.568 99.2162C870.428 96.5561 869.338 93.8725 868.201 91.2123C867.775 90.2201 867.275 89.2592 866.732 88.1146C868.389 88.1693 869.932 88.1771 871.471 88.2904C872.064 88.3334 874.592 88.0209 875.053 88.0717C875.771 88.1576 876.502 88.2826 877.217 88.2279C878.873 88.1068 880.518 87.8764 882.17 87.7201C882.928 87.6498 883.693 87.5756 884.443 87.6459C885.225 87.7201 886.002 87.9311 886.756 88.1537C886.963 88.2162 887.119 88.5248 887.244 88.7475C887.389 89.0014 887.471 89.2904 887.584 89.5639C887.889 90.2904 888.193 91.0248 888.506 91.7514C888.635 92.0482 888.76 92.3529 888.932 92.6264C889.33 93.2475 889.889 93.8021 890.143 94.474C890.592 95.6732 891.283 96.6889 892.037 97.7045C893.076 99.1107 893.842 100.658 894.283 102.388C894.545 103.412 895.143 104.353 895.627 105.314C895.799 105.658 896.084 105.845 896.529 105.611C896.654 105.544 897.029 105.689 897.115 105.837C897.795 107.033 898.42 108.263 899.096 109.462C899.4 110.001 899.568 110.521 899.486 111.158C899.412 111.767 899.475 112.392 899.467 113.009C899.467 113.314 899.553 113.529 899.764 113.642L905.139 102.146C904.588 102.49 904.174 102.966 904.197 103.771C904.201 103.978 903.943 104.345 903.771 104.369C903.322 104.431 902.814 104.72 902.396 104.236C901.967 103.74 901.33 102.486 901.494 102.38C901.912 102.122 902.342 101.888 902.748 101.615C903.514 101.091 903.561 100.818 902.881 100.165C901.729 99.0678 901.057 97.6498 900.334 96.2943C899.248 94.2709 898.35 92.1459 897.338 90.0834C895.9 87.1576 894.322 84.3139 892.475 81.6186C891.607 80.3568 890.494 79.6928 888.994 79.5365C887.893 79.4232 886.791 79.2748 885.709 79.0482C883.818 78.6498 881.959 78.0639 880.049 77.7865C878.955 77.6264 878.424 76.9428 877.67 76.2279C879.213 75.9193 880.537 75.3803 881.557 74.1615C881.564 74.31 883.096 72.6811 884.021 72.4193C884.17 72.3803 884.271 72.1967 884.396 72.0795C885.42 71.1459 886.111 70.0287 886.619 68.8139C886.916 68.0951 887.146 67.3451 887.338 66.5795C887.479 66.0326 887.357 65.4154 887.318 64.8334C887.303 64.5521 887.201 64.2748 887.139 63.9975C887.193 63.9467 887.248 63.8959 887.303 63.8451C887.85 64.1811 890.432 64.5248 891.057 64.7514C893.248 65.5404 895.455 66.2553 897.826 66.1146C898.334 66.0834 898.908 65.9936 899.318 65.7318C900.225 65.1459 901.018 64.392 901.908 63.7826C903.357 62.7865 904.916 62.1654 906.748 62.2631C907.807 62.3178 908.877 62.0873 909.979 61.9857C909.951 61.8998 909.924 61.7982 909.881 61.7045C908.975 59.8568 908.076 58.0014 907.15 56.1615C906.971 55.8022 906.971 55.5795 907.178 55.1967C908.162 53.3842 909.846 52.0209 910.498 49.9936C910.564 49.7826 910.768 49.6147 910.9 49.4232C911.861 48.0404 912.854 46.685 913.756 45.267C914.049 44.81 914.107 44.2006 914.24 43.767C914.678 43.6693 915.143 43.7084 915.365 43.4936C916.135 42.7553 917.01 42.6967 917.99 42.7748C918.502 42.8139 919.209 42.8217 919.51 42.5248C920.1 41.9428 920.877 41.8607 921.506 41.4545C924.061 39.7982 926.682 38.2201 929.111 36.3959C930.701 35.2045 932.01 33.6381 933.436 32.2279C937.119 28.6068 938.771 29.6732 938.971 29.7943C939.588 30.1654 939.721 30.685 939.482 31.4467C939.443 31.5678 939.396 31.6889 939.346 31.8061C938.826 33.017 938.791 34.267 938.904 35.5639C939.1 37.7475 939.342 39.9428 939.287 42.1264C939.205 45.1264 938.838 48.1147 938.643 51.1068C938.525 52.8451 938.33 54.6147 939.834 55.9975C940.275 56.4037 939.912 57.2904 939.307 57.4545C938.775 57.5951 938.232 57.6811 937.709 57.7904C937.67 58.1107 937.748 58.6029 937.568 58.7357C936.658 59.3959 935.721 60.0365 934.721 60.5404C933.451 61.1772 932.053 61.4428 930.631 61.4779C929.92 61.4936 929.479 61.8451 929.123 62.3842C928.771 62.9076 928.814 63.1732 929.357 63.4779C929.838 63.7436 930.346 63.9584 931.029 64.2865C930.756 64.4389 930.514 64.5678 930.291 64.6889L986.217 59.4076C985.65 58.6654 985.162 57.8686 984.631 57.099C983.182 54.9975 981.932 52.7436 980.096 50.9311C979.006 49.8529 977.881 48.8061 976.725 47.7982C976.287 47.4154 975.725 47.1772 975.221 46.8725C975.104 46.8022 974.877 46.7279 974.881 46.6615C974.92 45.8959 974.318 45.4857 973.928 44.9857C973.139 43.9779 972.744 42.8881 972.646 41.5951C972.475 39.2201 972.146 36.8568 971.873 34.4897C971.752 33.4545 971.475 32.4232 971.49 31.3998C971.521 29.6225 971.713 27.8451 971.869 26.0717C971.92 25.4701 972.08 24.8764 972.162 24.2748C972.318 23.1186 972.463 21.9545 972.584 20.7943C972.615 20.5092 972.58 20.1967 972.486 19.9232C972.17 19.0053 971.83 18.0951 971.471 17.1967C971.131 16.3529 970.693 15.5404 970.408 14.6811C969.783 12.7865 968.834 11.2123 966.908 10.3607C966.424 10.1459 966.08 9.61465 965.666 9.23184C965.537 9.11074 965.416 8.95449 965.26 8.88027C964.654 8.58731 964.033 8.32949 963.432 8.03652C962.748 7.70449 962.092 7.29824 961.389 7.00918C960.982 6.84121 960.318 6.99355 960.104 6.73184C959.869 6.43496 959.943 5.8334 959.986 5.36856C960.869 -4.51035 929.705 1.45059 929.311 12.0834C929.291 12.5795 929.021 13.0873 928.85 13.6459C928.443 13.474 928.209 13.3764 927.979 13.2748C926.146 12.4506 924.256 11.9115 922.217 12.1654C922.049 12.185 921.873 12.3412 921.732 12.2748C919.842 11.3686 915.545 16.5795 916.678 18.8295C917.514 20.4975 916.662 21.5014 917.959 22.3217C918.857 22.892 919.803 23.4428 920.549 24.1811C921.119 24.7396 921.58 25.2826 922.443 25.2592C922.572 25.2553 922.748 25.3568 922.826 25.4623C923.307 26.0873 923.896 26.4154 924.803 26.2436C924.588 26.81 924.381 27.3529 924.01 27.7396C923.236 28.5521 922.271 29.1928 921.572 30.06C919.006 33.2201 916.611 36.5209 913.721 39.4076C913.498 39.6303 913.252 39.8842 912.971 39.9818C911.443 40.5131 910.029 41.4779 908.291 41.2397C907.721 41.1654 907.24 41.3959 906.912 41.8842C906.6 42.3529 906.248 42.7201 905.604 42.5717C905.502 42.5482 905.354 42.6264 905.256 42.6967C904.67 43.1186 904.354 44.0795 904.639 44.7357C904.854 45.2397 904.834 45.6772 904.518 46.1147C903.709 47.2357 902.975 48.4232 902.068 49.4623C901.275 50.3686 900.248 51.0678 899.389 51.9232C898.498 52.8178 897.455 53.3451 896.221 53.5717C895.736 53.6576 895.443 53.5717 895.154 53.1498C894.588 52.3178 893.83 51.9193 892.787 52.3139C892.623 52.3764 892.357 52.3256 892.197 52.2318C891.764 51.9779 891.365 51.6654 890.943 51.392C890.514 51.1107 890.498 50.8373 890.975 50.6029C891.311 50.4389 891.697 50.3529 892.064 50.2631C892.463 50.1654 892.58 49.9623 892.471 49.5639C892.311 48.9467 892.17 48.3217 892.061 47.6928C892.021 47.4623 892.076 47.2006 892.143 46.9662C892.256 46.5678 892.4 46.1811 892.549 45.7904C892.814 45.0834 893.084 44.3764 893.361 43.6772C893.479 43.3842 893.799 43.0522 893.729 42.8295C893.393 41.7553 893.006 40.6772 892.057 39.9545C891.518 39.5443 890.959 39.1537 890.377 38.7982C889.525 38.2748 888.689 37.6928 887.771 37.3178C886.01 36.5912 884.24 36.3022 882.635 37.7943C882.354 38.0522 881.881 38.1811 881.479 38.224C879.721 38.3998 878.955 39.5014 879.451 41.1772C879.502 41.3373 879.467 41.6342 879.357 41.7162C878.955 42.0131 878.506 42.2436 878.08 42.4975C877.721 41.2162 876.662 40.2475 875.264 40.2357C873.287 40.2162 871.303 40.3256 869.326 40.4662C868.463 40.5287 867.623 41.0561 866.736 40.5365C866.674 40.4975 866.572 40.5287 866.486 40.5248C865.15 40.5092 864.24 41.2514 863.518 42.2553C862.029 44.31 860.537 46.3647 859.115 48.4623C857.947 50.185 856.389 51.642 855.666 53.6654C855.49 54.1576 855.072 54.599 854.459 54.5717C854.006 54.5561 853.904 54.81 853.744 55.1381C853.572 55.4897 853.338 55.974 853.037 56.06C852.564 56.1889 852.451 56.435 852.35 56.8178C852.295 57.017 852.244 57.3061 852.049 57.3725C849.525 58.2201 847.299 85.4623 853.443 86.7982Z" fill="white"/>
<path d="M533.279 294.185C537.076 295.536 540.865 296.904 544.67 298.232C554.537 301.677 564.553 304.603 574.814 306.607C578.178 307.267 581.635 307.501 585.057 307.825C585.943 307.911 586.873 307.607 587.779 307.482C587.826 307.322 587.873 307.161 587.92 306.997C586.979 306.169 586.104 305.251 585.088 304.525C580.904 301.529 576.596 298.708 572.498 295.607C568.471 292.548 564.643 289.232 560.729 286.021C559.256 284.81 557.799 283.575 556.326 282.365C556.154 282.224 555.92 282.161 555.717 282.064C555.631 282.134 555.549 282.204 555.467 282.279C555.764 282.724 556.01 283.208 556.361 283.607C559.975 287.716 564.205 291.15 568.588 294.361C573.037 297.615 577.705 300.572 582.272 303.661C582.557 303.853 582.818 304.072 583.092 304.279C583.049 304.372 583.002 304.462 582.959 304.556C581.479 304.118 579.943 303.822 578.533 303.224C569.889 299.548 561.232 295.907 552.666 292.068C541.061 286.865 530.076 280.587 520.498 272.126C514.994 267.263 510.064 261.876 506.881 255.126C506.186 253.657 505.479 252.197 505.881 250.478C505.928 250.294 505.576 250.017 505.408 249.786C505.15 249.974 504.705 250.138 504.674 250.361C504.604 250.833 504.693 251.353 504.818 251.825C505.897 255.876 508.068 259.372 510.588 262.642C517.268 271.302 525.666 277.993 534.904 283.736C542.76 288.618 551.088 292.54 559.568 296.173C564.342 298.22 569.088 300.333 573.904 302.267C577.373 303.654 580.939 304.794 584.463 306.048C584.756 306.154 585.041 306.286 585.33 306.407C585.318 306.536 585.307 306.665 585.295 306.794C584.193 306.759 583.072 306.829 581.986 306.673C575.4 305.716 568.881 304.439 562.494 302.54C553.764 299.947 545.029 297.372 536.299 294.79C535.303 294.493 534.307 294.2 533.307 293.907C533.299 293.997 533.287 294.091 533.279 294.185Z" fill="#FF0000"/>
<path d="M800.101 668H703.42V633.16L921.17 58.3H1023.95L1241.7 633.16V668H1138.92L1084.92 517.317H854.974L800.101 668ZM970.817 197.66L886.33 430.217H1053.56L970.817 197.66Z" fill="#FF0000"/>
</svg>
