<svg width="1280" height="835" viewBox="0 0 1280 835" fill="none" xmlns="http://www.w3.org/2000/svg">
<rect width="1280" height="735" fill="#13102D"/>
<path d="M162.471 585.505C186.799 568.15 210.807 551.025 235.662 533.29C289.404 567.814 342.529 601.939 396.139 636.373C412.756 626.208 428.955 616.298 445.315 606.294C451.557 609.365 457.85 612.283 463.756 615.392C494.893 631.775 525.94 648.201 557.006 664.619C560.283 666.349 563.721 668.025 566.666 669.892C568.842 671.271 570.201 671.22 572.592 670.021C588.486 662.04 604.506 654.123 620.494 646.193C629.287 641.833 638.154 637.513 646.873 633.119C649.397 631.849 651.736 631.58 655.217 632.224C689.248 638.544 723.361 644.755 757.42 651.04C779.615 655.134 801.709 659.369 823.936 663.412C866.002 671.068 908.139 678.623 950.217 686.255C954.916 687.107 959.42 688.224 964.522 688.779C962.514 688.165 960.502 687.556 958.506 686.931C937.791 680.458 917.35 673.755 896.311 667.56C858.338 656.376 820.252 645.275 781.764 634.544C736.127 621.822 689.846 609.708 641.35 599.853C635.104 598.583 631.252 599.091 625.857 601.06C608.682 607.337 590.795 613.123 573.17 619.091C572.436 619.341 571.568 619.49 570.791 619.708C564.162 621.572 558.275 621.705 551.482 619.244C534.717 613.177 517.178 607.646 500.268 601.669C466.19 589.638 432.299 577.47 398.381 565.322L396.087 564.5C360.512 551.758 324.931 539.015 289.471 526.189C267.377 518.201 245.51 510.048 222.963 501.759C219.92 503.509 216.959 505.333 213.748 507.04C200.287 514.216 186.787 521.369 173.232 528.498C167.873 531.318 162.428 532.193 154.967 529.74C136.682 523.74 117.35 518.509 99.4707 512.232C65.8242 500.416 32.7425 488.196 -0.500061 476.09V500.499C54.1143 528.986 108.149 557.17 162.471 585.505Z" fill="#68686D"/>
<path d="M1038.44 451.49C1037.08 451.177 1035.63 451.033 1034.37 450.486C1033.71 450.204 1033.02 449.263 1032.92 448.537C1032.37 444.615 1031.97 440.669 1031.58 436.728C1031.37 434.681 1031.55 432.513 1029.02 431.107C1030.35 430.228 1034.73 429.138 1036.37 428.048C1036.46 430.259 1043.94 446.576 1045.41 449.904C1045.19 450.087 1038.66 451.31 1038.44 451.49ZM1022.85 421.595C1021.05 417.822 1019.56 413.888 1018.11 409.962C1016.9 406.701 1015.9 403.357 1014.88 400.029C1014.63 399.212 1014.08 397.81 1012.31 397.372C1010.06 396.814 1008.27 398.126 1006.7 399.462C1005.27 400.681 1004.09 402.201 1002.81 403.595C1002.44 404.005 1002.1 404.443 1001.69 404.927C1001.04 402.966 1000.46 401.22 999.896 399.517C1001.58 399.279 1003.38 399.154 1005.11 398.712C1005.92 398.505 1006.78 397.829 1007.28 397.126C1009.95 393.372 1011.72 389.193 1012.93 384.751C1013.26 383.529 1017.33 379.576 1018.01 377.908C1018.9 379.861 1034.1 423.251 1034.85 424.861C1031.79 424.974 1023.98 423.954 1022.85 421.595ZM1017.41 428.326C1012.79 428.224 1008.17 428.087 1003.55 427.954C1002.94 427.939 1002.31 427.896 1001.93 427.876C1004.64 422.65 1007.24 417.65 1009.88 412.568C1009.73 412.548 1009.91 412.521 1009.94 412.583C1012.1 416.169 1014.24 419.763 1016.4 423.345C1016.65 423.763 1016.98 424.142 1017.31 424.497C1017.76 424.97 1018.35 425.333 1018.69 425.861C1019.13 426.564 1019.41 427.38 1019.76 428.146C1018.97 428.208 1018.19 428.345 1017.41 428.326ZM1002.54 376.568C1003.98 371.267 1005.2 365.904 1006.55 360.583C1006.76 359.783 1007.26 359.064 1007.63 358.306C1007.82 358.329 1009.71 356.173 1009.9 356.197C1010.07 357.083 1015.63 372.888 1015.65 373.634C1015.67 374.494 1014.39 375.345 1013.78 376.275C1010.85 380.712 1007.96 385.169 1005.06 389.634C1004.53 390.466 1004.08 391.361 1003.59 392.228C1003.41 392.158 1003.23 392.087 1003.05 392.017C1003.26 391.396 1003.49 390.779 1003.66 390.15C1004.11 388.517 1004.89 386.869 1004.87 385.236C1004.85 383.771 1004.34 381.912 1003.35 380.951C1001.83 379.478 1002.08 378.279 1002.54 376.568ZM1060.13 364.962C1060.65 354.482 1061.18 344.005 1061.7 333.529C1043.33 332.622 1024.97 331.72 1006.6 330.814C1006.02 335.31 1005.74 339.747 1007.9 344.013C1008.35 344.927 1006.97 346.63 1006.54 347.466C1004.97 350.505 1005.35 353.372 1005.04 356.806C1004.98 357.529 1004.44 358.204 1004.14 358.912C1001.6 364.888 999.072 370.88 996.479 376.837C996.252 377.353 995.553 377.97 995.045 377.997C993.471 378.079 992.533 378.861 991.881 380.181C991.123 381.724 990.018 382.927 988.752 384.13C987.775 385.056 987.385 386.806 987.182 388.251C987.088 388.915 988.064 389.728 988.553 390.474C989.221 389.997 989.9 389.54 990.549 389.037C990.721 388.904 990.748 388.572 990.924 388.451C991.232 388.24 991.604 388.119 991.947 387.962C992.006 388.376 992.268 388.962 992.084 389.177C991.408 389.978 990.639 390.724 989.811 391.369C987.783 392.943 985.6 394.423 985.236 397.216C984.865 400.087 984.428 402.99 984.486 405.869C984.596 411.537 984.928 417.208 985.373 422.861C985.178 430.837 990.873 436.927 992.959 437.458C995.045 437.99 995.045 437.99 995.963 438.169C1002.85 439.521 1009.78 439.064 1016.7 438.603C1018.17 438.505 1019.02 438.458 1020.43 438.369C1021.61 438.294 1022.72 438.302 1023.07 440.001C1023.46 441.888 1024.11 443.767 1024.94 445.513C1026.45 448.708 1028.3 451.673 1027.86 455.54C1027.53 458.494 1029.41 459.622 1032.33 458.767C1033.75 458.353 1042.1 456.431 1043.55 456.247C1047.45 455.759 1055.25 463.99 1055.25 463.99C1056.88 430.982 1058.5 397.97 1060.13 364.962ZM789.553 455.927L792.346 453.833C792.322 453.732 792.299 453.669 792.318 453.646C793.24 452.376 793.338 452.201 792.092 451.283C790.123 449.826 789.381 447.701 788.584 445.583C788.49 445.333 788.58 444.912 788.744 444.693C789.58 443.591 789.307 442.216 789.701 441.009C789.744 440.888 789.334 440.65 789.186 440.431C788.994 440.158 788.643 439.736 788.729 439.576C790.096 437.04 791.521 434.533 792.932 432.017C793.123 432.044 793.314 432.068 793.506 432.091C794.104 434.454 794.725 436.81 795.283 439.177C795.467 439.958 795.459 440.783 795.611 441.572C795.818 442.646 795.76 443.646 795.135 444.583C795.006 444.771 794.877 445.052 794.924 445.251C795.244 446.615 795.553 447.99 796.014 449.306C796.131 449.642 796.779 449.794 797.295 450.091C796.834 450.447 796.381 450.802 795.924 451.154L800.521 447.708C800.463 447.677 800.404 447.65 800.346 447.619C800.65 446.017 800.932 444.412 801.275 442.822C801.436 442.079 801.494 441.435 800.865 440.853C800.619 440.626 800.4 440.251 800.373 439.923C800.236 438.533 800.057 437.126 800.115 435.732C800.264 431.962 800.1 428.216 799.908 424.451C799.768 421.677 799.834 419.001 798.576 416.443C798.416 416.119 798.756 415.548 798.869 415.091C798.979 414.65 799.252 414.185 799.182 413.775C798.912 412.15 798.666 410.505 798.166 408.943C797.541 406.99 796.748 405.076 795.885 403.212C795.361 402.083 794.576 401.076 793.896 400.017C793.611 399.572 793.506 399.162 793.951 398.736C794.326 398.372 794.232 398.06 793.885 397.665C793.314 397.021 792.834 396.298 792.334 395.595C791.92 395.009 791.592 394.353 791.111 393.833C790.736 393.427 790.752 393.193 791.061 392.779C791.986 391.537 793.436 388.579 793.615 388.396C793.986 389.341 793.436 387.919 793.01 385.814C792.717 384.369 792.725 384.369 794.076 383.81C794.229 383.747 794.357 383.622 794.479 383.54C794.33 382.966 794.15 382.454 794.064 381.927C793.822 380.415 793.838 380.419 795.287 380.009C795.631 379.915 796.076 379.861 796.264 379.622C796.811 378.939 797.432 379.126 798.131 379.204C798.846 379.283 799.736 379.423 800.271 379.087C801.518 378.302 802.76 377.388 803.705 376.271C805.088 374.63 806.205 372.763 807.447 370.997C807.654 370.701 807.912 370.435 808.061 370.259C808.771 370.88 809.154 370.052 809.393 370.716C809.65 371.447 810.889 412.349 810.994 416.349C811.057 418.857 811.158 421.372 811.092 423.88C811.029 426.15 811.732 428.513 810.303 430.744C810.65 430.708 810.854 430.701 811.053 430.673C812.201 430.505 812.213 430.462 812.104 429.318C812.053 428.783 812.076 428.244 812.068 427.704C812.006 422.771 812.721 418.103 812.623 413.173C812.482 405.935 811.357 376.865 811.135 371.247C811.064 369.415 810.818 370.869 812.189 369.341C813.275 368.138 812.967 366.49 811.869 365.345C811.756 365.224 811.564 365.134 811.4 365.119C810.111 364.99 808.811 365.119 807.795 365.915C806.131 367.224 804.6 368.701 802.994 370.083C802.271 370.708 801.533 371.326 800.744 371.857C799.615 372.615 798.412 372.908 797.104 372.224C796.041 371.673 794.951 371.177 793.869 370.662C793.174 370.333 792.869 369.783 793.057 369.052C793.26 368.247 793.588 367.478 793.807 366.677C794.123 365.54 794.529 364.4 794.619 363.244C794.678 362.451 794.811 361.97 795.561 361.642C797.014 361.005 797.361 359.138 796.143 358.13C795.166 357.322 793.936 356.822 792.932 356.044C791.889 355.236 790.873 355.083 789.686 355.599C789.502 355.681 789.088 355.595 788.982 355.447C788.4 354.622 787.744 354.943 787.096 355.263C786.506 355.552 785.967 355.958 785.357 356.197C784.35 356.587 783.896 357.361 783.65 358.333C783.381 359.392 783.1 360.447 782.822 361.505C780.615 361.04 778.881 360.122 778.518 357.658C778.451 357.189 778.338 356.712 778.17 356.267C778.037 355.923 777.861 355.478 777.572 355.333C774.896 354.001 772.107 353.669 769.346 354.935C767.127 355.954 765.729 357.829 764.787 360.052C764.217 361.4 763.65 362.755 763.053 364.095C762.939 364.349 762.721 364.693 762.502 364.732C761.436 364.931 760.354 365.033 759.275 365.181C759.088 365.208 758.85 365.228 758.725 365.349C757.666 366.349 756.592 367.341 755.604 368.415C755.287 368.759 755.057 369.337 755.068 369.802C755.139 372.287 755.186 374.794 756.236 377.107C756.451 377.576 757.037 378.052 757.533 378.165C758.369 378.357 759.271 378.263 760.314 378.29C760.01 379.638 759.693 381.037 759.373 382.474C758.994 382.228 758.705 382.013 758.393 381.841C758.088 381.677 757.76 381.552 757.623 381.494C756.955 381.896 756.475 382.244 755.943 382.49C754.838 383.001 754.607 383.443 755.275 384.509C756.256 386.072 757.377 387.548 758.412 389.076C758.592 389.341 758.838 389.759 758.744 389.982C758.408 390.802 757.998 391.607 757.51 392.345C757.045 393.037 756.439 393.634 755.908 394.283C755.318 395.009 755.197 395.783 755.729 396.603C756.186 397.302 756.635 398.009 757.088 398.712C757.721 399.697 758.635 400.31 759.76 400.537C760.178 400.622 760.736 400.54 761.084 400.31C761.764 399.857 762.342 399.247 762.865 398.79C763.932 399.177 764.947 399.638 766.01 399.904C767.107 400.177 769.623 402.626 770.244 403.263C770.764 403.798 771.334 403.982 772.006 403.556C772.678 403.13 772.998 403.322 773.334 404.056C773.76 404.99 774.236 406.076 775.021 406.603C775.756 407.095 776.346 407.626 776.889 408.279C777.674 409.22 778.393 410.247 779.303 411.052C781.826 413.279 783.592 416.099 785.588 418.744C785.904 419.162 786.334 419.501 786.666 419.912C786.834 420.119 785.854 429.095 785.865 431.681C785.881 434.517 784.744 436.9 783.623 439.333C783.318 439.994 782.811 440.607 782.271 441.107C780.424 442.818 779.021 444.849 777.732 446.99C777.271 447.751 777.334 448.333 778.01 448.865C778.904 449.564 779.834 450.224 780.709 450.947C781.193 451.349 781.643 451.462 782.268 451.298C783.572 450.954 784.322 451.572 784.244 452.908C784.104 455.236 788.139 455.326 789.553 455.927ZM738.775 526.54C739.162 527.759 739.553 528.974 739.85 530.212C740.076 531.165 740.186 532.15 740.295 533.13C740.771 537.552 741.17 541.986 741.729 546.4C741.967 548.255 742.549 550.068 742.947 551.904C743.213 553.134 742.803 554.212 742.057 555.169C741.518 555.869 741.588 556.513 741.865 557.333C742.182 558.263 742.244 559.298 742.275 560.294C742.303 561.119 742.221 561.876 743.326 562.025C743.471 562.044 743.658 562.404 743.67 562.615C743.791 564.966 744.604 567.103 745.576 569.208C745.982 570.087 746.209 571.052 746.482 571.986C746.498 572.029 746.49 572.083 746.475 572.142L762.021 558.829C762.162 557.951 761.729 557.458 760.994 557.107C760.193 556.724 759.596 557.005 758.936 557.47C756.385 559.263 755.592 559.017 752.838 557.314C752.74 557.255 752.588 557.126 752.604 557.068C752.947 555.888 752.139 554.568 753.299 553.435C754.611 552.158 754.623 550.283 754.545 548.626C754.35 544.478 753.943 540.337 753.568 536.197C753.451 534.9 753.576 533.744 754.037 532.466C754.627 530.845 754.846 529.021 754.861 527.279C754.881 525.38 754.525 523.474 754.248 521.579C753.799 518.474 753.295 515.376 752.779 512.283C752.689 511.751 752.807 511.513 753.334 511.388C754.119 511.204 754.889 510.962 755.666 510.74C756.525 510.494 756.998 510.865 756.865 511.747C756.689 512.943 756.838 514.04 757.459 515.111C760.275 519.978 760.971 525.322 761.025 530.833C761.045 532.583 761.416 534.326 761.588 536.076C761.689 537.111 761.596 538.158 762.232 539.095C762.381 539.314 762.131 539.767 762.15 540.111C762.174 540.595 762.127 541.204 762.396 541.517C762.607 541.763 763.275 541.755 763.693 541.654C764.885 541.372 766.068 541.029 767.221 540.615C767.877 540.38 768.436 539.81 769.1 539.646C771.014 539.181 772.955 538.845 774.889 538.466L781.932 530.576C780.525 530.837 779.131 531.154 777.729 531.451C776.518 531.704 776.045 531.396 775.361 530.38C774.064 528.439 773.932 526.173 773.689 524.021C773.342 520.919 772.322 518.048 771.51 515.083C770.033 509.697 767.752 504.63 765.725 499.458C765.057 497.751 763.787 496.74 762.006 496.251C759.979 495.693 757.963 495.271 755.83 495.251C754.299 495.24 752.74 494.919 751.24 494.556C749.627 494.165 748.041 493.829 746.369 493.986C745.826 494.04 745.268 493.908 744.6 493.853C744.9 492.654 745.225 491.634 745.408 490.587C745.58 489.626 745.58 488.634 745.713 487.665C745.752 487.404 745.963 487.04 746.182 486.954C749.525 485.646 751.818 482.962 754.424 480.697C756.084 479.259 757.537 477.552 759.896 476.974C761.674 480.954 772.482 505.556 772.158 504.822C769.459 498.65 777.318 516.587 780.025 522.755C780.955 524.869 781.885 526.978 782.791 529.095C782.881 529.31 782.932 529.49 782.947 529.654L783.588 529.068C783.408 528.724 783.24 528.408 783.1 528.087C779.459 519.806 776.639 511.482 773.01 503.197C772.904 502.958 760.4 475.275 760.982 475.083C761.771 474.822 761.807 474.384 761.389 473.728C760.975 473.079 760.521 472.419 760.896 471.556C760.955 471.419 760.807 471.099 760.658 470.974C759.963 470.369 758.979 470.591 758.393 469.9C757.467 468.806 756.533 467.009 757.053 465.326C757.197 464.857 756.979 464.65 756.498 464.689C755.592 464.759 754.893 465.189 754.439 465.951C754.322 466.15 754.381 466.576 754.521 466.783C755.521 468.247 756.279 469.74 755.658 471.591C755.314 472.611 755.045 473.658 754.697 474.681C754.576 475.033 754.4 475.443 754.115 475.65C752.525 476.818 750.967 478.06 749.256 479.029C747.486 480.033 745.557 480.751 743.549 481.662C743.506 481.025 743.396 480.658 743.471 480.326C743.732 479.099 743.334 478.029 742.791 476.97C742.67 476.732 742.623 476.454 742.498 476.22C741.857 475.04 741.432 473.634 740.51 472.751C738.861 471.181 737.193 465.521 737.033 465.267C737.307 465.216 737.576 465.126 737.846 465.115C738.615 465.087 739.4 465.185 740.146 465.052C740.904 464.919 741.252 464.408 741.139 463.533C741.061 462.947 741.264 462.306 741.428 461.712C741.588 461.111 741.916 460.732 742.682 460.951C742.861 461.001 743.35 460.576 743.416 460.298C743.51 459.931 743.365 459.482 743.26 459.087C743.053 458.322 742.803 457.568 742.529 456.681C743.49 456.849 744.271 456.997 745.057 457.119C746.209 457.294 747.002 456.716 747.639 455.841C747.951 455.404 747.889 455.064 747.393 454.829C746.822 454.56 746.271 454.24 745.678 454.044C744.186 453.548 743.104 452.693 742.447 451.193C741.471 448.943 739.381 448.126 737.189 447.744C735.479 447.447 733.779 447.638 732.24 448.783C730.639 449.974 729.67 451.599 728.709 453.247C728.514 453.579 728.607 454.091 728.607 454.521C728.607 455.224 728.604 455.927 728.666 456.626C728.705 457.095 728.807 457.576 728.979 458.009C729.092 458.302 729.396 458.513 729.584 458.783C730.295 459.837 729.854 461.017 728.666 461.349C727.904 461.564 727.057 461.642 726.67 462.54C726.619 462.658 726.256 462.673 726.033 462.685C724.834 462.755 723.588 462.736 722.686 463.697C720.416 466.115 718.268 468.615 717.967 472.142C717.947 472.369 717.857 472.587 717.791 472.849C717.592 472.802 717.447 472.779 717.307 472.736C713.732 471.665 710.67 472.49 708.088 475.193C707.822 475.474 707.404 475.704 707.025 475.767C704.01 476.244 702.787 478.619 701.529 480.935C701.162 481.607 700.939 482.38 700.764 483.134C700.232 485.427 699.721 487.732 699.275 490.044C699.076 491.091 699.502 492.06 700.299 492.701C701.287 493.497 702.365 494.22 703.49 494.802C705.021 495.591 710.115 499.38 710.498 499.447C710.826 499.501 711.209 499.244 711.459 499.165C712.756 500.822 713.975 502.443 715.279 503.994C715.662 504.451 716.248 504.88 716.814 505.005C717.85 505.228 719.838 505.15 720.006 504.915C720.197 505.142 721.096 505.204 721.654 505.122C722.424 505.009 723.186 504.853 723.955 504.744C725.08 504.583 738.584 525.923 738.775 526.54ZM946.787 111.622C947.104 111.548 947.342 111.494 947.588 111.435C947.568 111.24 947.592 111.076 947.537 110.947C946.943 109.65 947.596 102.865 947.561 101.876C947.529 101.122 948.123 89.0248 947.967 88.5873C948.033 88.56 951.275 85.7943 952.041 85.2553C953.732 84.0717 955.412 82.8646 957.123 81.7006C957.9 81.1693 958.037 81.2045 958.502 82.0443C959.115 83.1615 959.705 84.2982 960.232 85.4584C960.615 86.3022 960.877 87.2006 961.197 88.0717C961.271 88.267 961.381 88.4506 961.471 88.6381C961.967 89.6732 962.549 90.6772 962.939 91.7475C963.564 93.474 964.064 95.2436 964.615 96.9936C964.631 97.0326 964.643 97.0756 964.662 97.1147C965.432 98.56 966.166 100.029 966.998 101.439C967.287 101.927 967.748 102.466 968.256 102.654C969.541 103.126 970.568 103.88 971.439 104.908C971.518 105.001 971.654 105.044 971.74 105.134C972.428 105.853 973.15 106.544 973.775 107.314C974.197 107.837 974.479 108.478 974.818 109.068C975.346 109.986 975.861 110.908 976.385 111.829C976.342 111.884 976.303 111.939 976.26 111.994C975.994 111.951 975.729 111.861 975.471 111.876C974.732 111.912 973.967 111.869 973.275 112.076C972.115 112.423 970.979 112.658 969.76 112.521C969.412 112.482 969.037 112.665 968.682 112.767C968.201 112.904 967.693 113.244 967.252 113.173C965.361 112.869 963.564 113.525 961.717 113.572C960.611 113.603 959.506 113.763 958.4 113.837C957.068 113.931 955.713 113.888 954.404 114.107C953.537 114.251 952.689 114.329 951.986 113.9C951.096 113.361 950.205 113.474 949.283 113.533C948.857 113.56 948.432 113.63 948.006 113.619C947.803 113.611 947.498 113.505 947.428 113.353C947.174 112.806 946.998 112.22 946.787 111.622ZM853.443 138.798C855.482 139.24 855.357 142.537 856.35 144.388C856.436 144.548 856.65 144.634 856.752 144.79C856.928 145.06 857.15 145.341 857.197 145.642C857.275 146.154 857.443 146.56 857.85 146.904C858.17 147.173 858.537 147.482 858.674 147.849C859.639 150.49 861.072 152.88 862.549 155.251C863.439 156.685 864.021 158.337 865.416 159.478C864.646 160.603 864.498 161.79 864.947 163.076C865.041 163.349 864.92 163.697 864.896 164.013C864.811 165.173 864.717 166.337 864.643 167.497C864.607 168.029 864.627 168.56 864.592 169.083C864.502 170.658 864.369 172.228 864.299 173.798C864.182 176.521 864.229 179.255 863.959 181.962C863.744 184.107 863.787 186.212 864.041 188.333C864.158 189.302 864.35 189.427 865.334 189.376C865.588 189.365 865.842 189.369 866.174 189.365C865.662 190.076 865.662 190.076 865.682 190.857C865.682 190.939 865.615 191.017 865.607 191.103C865.455 192.49 865.279 193.88 865.178 195.275C865.162 195.509 865.42 195.88 865.646 195.997C866.424 196.384 867.236 196.704 868.053 197.017C869.104 197.423 870.217 197.701 871.213 198.212C872.682 198.962 874.154 199.568 875.838 199.454C877.432 199.349 879.037 199.369 880.572 198.806C881.932 198.306 881.791 196.701 880.986 196.126C880.514 195.787 879.924 195.607 879.416 195.306C878.951 195.037 878.51 194.716 878.092 194.376C878.002 194.306 874.291 188.97 874.178 188.622C874.08 188.322 873.826 187.962 873.549 187.841C873.084 187.642 873.104 187.443 873.225 187.021C873.436 186.294 873.635 185.54 873.666 184.79C873.756 182.685 873.768 180.572 873.795 178.462C873.846 174.97 873.932 171.474 873.904 167.978C873.893 166.064 873.834 164.181 874.189 162.267C874.607 160.017 874.58 157.72 873.568 155.56C872.893 154.115 872.201 152.677 871.568 151.216C870.428 148.556 869.338 145.872 868.201 143.212C867.775 142.22 867.275 141.259 866.732 140.115C868.389 140.169 869.932 140.177 871.471 140.29C872.064 140.333 874.592 140.021 875.053 140.072C875.771 140.158 876.502 140.283 877.217 140.228C878.873 140.107 880.518 139.876 882.17 139.72C882.928 139.65 883.693 139.576 884.443 139.646C885.225 139.72 886.002 139.931 886.756 140.154C886.963 140.216 887.119 140.525 887.244 140.747C887.389 141.001 887.471 141.29 887.584 141.564C887.889 142.29 888.193 143.025 888.506 143.751C888.635 144.048 888.76 144.353 888.932 144.626C889.33 145.247 889.889 145.802 890.143 146.474C890.592 147.673 891.283 148.689 892.037 149.704C893.076 151.111 893.842 152.658 894.283 154.388C894.545 155.412 895.143 156.353 895.627 157.314C895.799 157.658 896.084 157.845 896.529 157.611C896.654 157.544 897.029 157.689 897.115 157.837C897.795 159.033 898.42 160.263 899.096 161.462C899.4 162.001 899.568 162.521 899.486 163.158C899.412 163.767 899.475 164.392 899.467 165.009C899.467 165.314 899.553 165.529 899.764 165.642L905.139 154.146C904.588 154.49 904.174 154.966 904.197 155.771C904.201 155.978 903.943 156.345 903.771 156.369C903.322 156.431 902.814 156.72 902.396 156.236C901.967 155.74 901.33 154.486 901.494 154.38C901.912 154.122 902.342 153.888 902.748 153.615C903.514 153.091 903.561 152.818 902.881 152.165C901.729 151.068 901.057 149.65 900.334 148.294C899.248 146.271 898.35 144.146 897.338 142.083C895.9 139.158 894.322 136.314 892.475 133.619C891.607 132.357 890.494 131.693 888.994 131.537C887.893 131.423 886.791 131.275 885.709 131.048C883.818 130.65 881.959 130.064 880.049 129.787C878.955 129.626 878.424 128.943 877.67 128.228C879.213 127.919 880.537 127.38 881.557 126.162C881.564 126.31 883.096 124.681 884.021 124.419C884.17 124.38 884.271 124.197 884.396 124.079C885.42 123.146 886.111 122.029 886.619 120.814C886.916 120.095 887.146 119.345 887.338 118.579C887.479 118.033 887.357 117.415 887.318 116.833C887.303 116.552 887.201 116.275 887.139 115.997C887.193 115.947 887.248 115.896 887.303 115.845C887.85 116.181 890.432 116.525 891.057 116.751C893.248 117.54 895.455 118.255 897.826 118.115C898.334 118.083 898.908 117.994 899.318 117.732C900.225 117.146 901.018 116.392 901.908 115.783C903.357 114.787 904.916 114.165 906.748 114.263C907.807 114.318 908.877 114.087 909.979 113.986C909.951 113.9 909.924 113.798 909.881 113.704C908.975 111.857 908.076 110.001 907.15 108.162C906.971 107.802 906.971 107.579 907.178 107.197C908.162 105.384 909.846 104.021 910.498 101.994C910.564 101.783 910.768 101.615 910.9 101.423C911.861 100.04 912.854 98.685 913.756 97.267C914.049 96.81 914.107 96.2006 914.24 95.767C914.678 95.6693 915.143 95.7084 915.365 95.4936C916.135 94.7553 917.01 94.6967 917.99 94.7748C918.502 94.8139 919.209 94.8217 919.51 94.5248C920.1 93.9428 920.877 93.8607 921.506 93.4545C924.061 91.7982 926.682 90.2201 929.111 88.3959C930.701 87.2045 932.01 85.6381 933.436 84.2279C937.119 80.6068 938.771 81.6732 938.971 81.7943C939.588 82.1654 939.721 82.685 939.482 83.4467C939.443 83.5678 939.396 83.6889 939.346 83.8061C938.826 85.017 938.791 86.267 938.904 87.5639C939.1 89.7475 939.342 91.9428 939.287 94.1264C939.205 97.1264 938.838 100.115 938.643 103.107C938.525 104.845 938.33 106.615 939.834 107.997C940.275 108.404 939.912 109.29 939.307 109.454C938.775 109.595 938.232 109.681 937.709 109.79C937.67 110.111 937.748 110.603 937.568 110.736C936.658 111.396 935.721 112.037 934.721 112.54C933.451 113.177 932.053 113.443 930.631 113.478C929.92 113.494 929.479 113.845 929.123 114.384C928.771 114.908 928.814 115.173 929.357 115.478C929.838 115.744 930.346 115.958 931.029 116.287C930.756 116.439 930.514 116.568 930.291 116.689L986.217 111.408C985.65 110.665 985.162 109.869 984.631 109.099C983.182 106.997 981.932 104.744 980.096 102.931C979.006 101.853 977.881 100.806 976.725 99.7982C976.287 99.4154 975.725 99.1772 975.221 98.8725C975.104 98.8022 974.877 98.7279 974.881 98.6615C974.92 97.8959 974.318 97.4857 973.928 96.9857C973.139 95.9779 972.744 94.8881 972.646 93.5951C972.475 91.2201 972.146 88.8568 971.873 86.4897C971.752 85.4545 971.475 84.4232 971.49 83.3998C971.521 81.6225 971.713 79.8451 971.869 78.0717C971.92 77.4701 972.08 76.8764 972.162 76.2748C972.318 75.1186 972.463 73.9545 972.584 72.7943C972.615 72.5092 972.58 72.1967 972.486 71.9232C972.17 71.0053 971.83 70.0951 971.471 69.1967C971.131 68.3529 970.693 67.5404 970.408 66.6811C969.783 64.7865 968.834 63.2123 966.908 62.3607C966.424 62.1459 966.08 61.6146 965.666 61.2318C965.537 61.1107 965.416 60.9545 965.26 60.8803C964.654 60.5873 964.033 60.3295 963.432 60.0365C962.748 59.7045 962.092 59.2982 961.389 59.0092C960.982 58.8412 960.318 58.9936 960.104 58.7318C959.869 58.435 959.943 57.8334 959.986 57.3686C960.869 47.4896 929.705 53.4506 929.311 64.0834C929.291 64.5795 929.021 65.0873 928.85 65.6459C928.443 65.474 928.209 65.3764 927.979 65.2748C926.146 64.4506 924.256 63.9115 922.217 64.1654C922.049 64.185 921.873 64.3412 921.732 64.2748C919.842 63.3686 915.545 68.5795 916.678 70.8295C917.514 72.4975 916.662 73.5014 917.959 74.3217C918.857 74.892 919.803 75.4428 920.549 76.1811C921.119 76.7396 921.58 77.2826 922.443 77.2592C922.572 77.2553 922.748 77.3568 922.826 77.4623C923.307 78.0873 923.896 78.4154 924.803 78.2436C924.588 78.81 924.381 79.3529 924.01 79.7396C923.236 80.5521 922.271 81.1928 921.572 82.06C919.006 85.2201 916.611 88.5209 913.721 91.4076C913.498 91.6303 913.252 91.8842 912.971 91.9818C911.443 92.5131 910.029 93.4779 908.291 93.2397C907.721 93.1654 907.24 93.3959 906.912 93.8842C906.6 94.3529 906.248 94.7201 905.604 94.5717C905.502 94.5482 905.354 94.6264 905.256 94.6967C904.67 95.1186 904.354 96.0795 904.639 96.7357C904.854 97.2397 904.834 97.6772 904.518 98.1147C903.709 99.2357 902.975 100.423 902.068 101.462C901.275 102.369 900.248 103.068 899.389 103.923C898.498 104.818 897.455 105.345 896.221 105.572C895.736 105.658 895.443 105.572 895.154 105.15C894.588 104.318 893.83 103.919 892.787 104.314C892.623 104.376 892.357 104.326 892.197 104.232C891.764 103.978 891.365 103.665 890.943 103.392C890.514 103.111 890.498 102.837 890.975 102.603C891.311 102.439 891.697 102.353 892.064 102.263C892.463 102.165 892.58 101.962 892.471 101.564C892.311 100.947 892.17 100.322 892.061 99.6928C892.021 99.4623 892.076 99.2006 892.143 98.9662C892.256 98.5678 892.4 98.1811 892.549 97.7904C892.814 97.0834 893.084 96.3764 893.361 95.6772C893.479 95.3842 893.799 95.0522 893.729 94.8295C893.393 93.7553 893.006 92.6772 892.057 91.9545C891.518 91.5443 890.959 91.1537 890.377 90.7982C889.525 90.2748 888.689 89.6928 887.771 89.3178C886.01 88.5912 884.24 88.3022 882.635 89.7943C882.354 90.0522 881.881 90.1811 881.479 90.224C879.721 90.3998 878.955 91.5014 879.451 93.1772C879.502 93.3373 879.467 93.6342 879.357 93.7162C878.955 94.0131 878.506 94.2436 878.08 94.4975C877.721 93.2162 876.662 92.2475 875.264 92.2357C873.287 92.2162 871.303 92.3256 869.326 92.4662C868.463 92.5287 867.623 93.0561 866.736 92.5365C866.674 92.4975 866.572 92.5287 866.486 92.5248C865.15 92.5092 864.24 93.2514 863.518 94.2553C862.029 96.31 860.537 98.3647 859.115 100.462C857.947 102.185 856.389 103.642 855.666 105.665C855.49 106.158 855.072 106.599 854.459 106.572C854.006 106.556 853.904 106.81 853.744 107.138C853.572 107.49 853.338 107.974 853.037 108.06C852.564 108.189 852.451 108.435 852.35 108.818C852.295 109.017 852.244 109.306 852.049 109.372C849.525 110.22 847.299 137.462 853.443 138.798Z" fill="white"/>
<path d="M533.279 346.185C537.076 347.536 540.865 348.904 544.67 350.232C554.537 353.677 564.553 356.603 574.814 358.607C578.178 359.267 581.635 359.501 585.057 359.825C585.943 359.911 586.873 359.607 587.779 359.482C587.826 359.322 587.873 359.161 587.92 358.997C586.979 358.169 586.104 357.251 585.088 356.525C580.904 353.529 576.596 350.708 572.498 347.607C568.471 344.548 564.643 341.232 560.729 338.021C559.256 336.81 557.799 335.575 556.326 334.365C556.154 334.224 555.92 334.161 555.717 334.064C555.631 334.134 555.549 334.204 555.467 334.279C555.764 334.724 556.01 335.208 556.361 335.607C559.975 339.716 564.205 343.15 568.588 346.361C573.037 349.615 577.705 352.572 582.272 355.661C582.557 355.853 582.818 356.072 583.092 356.279C583.049 356.372 583.002 356.462 582.959 356.556C581.479 356.118 579.943 355.822 578.533 355.224C569.889 351.548 561.232 347.907 552.666 344.068C541.061 338.865 530.076 332.587 520.498 324.126C514.994 319.263 510.064 313.876 506.881 307.126C506.186 305.657 505.479 304.197 505.881 302.478C505.928 302.294 505.576 302.017 505.408 301.786C505.15 301.974 504.705 302.138 504.674 302.361C504.604 302.833 504.693 303.353 504.818 303.825C505.897 307.876 508.068 311.372 510.588 314.642C517.268 323.302 525.666 329.993 534.904 335.736C542.76 340.618 551.088 344.54 559.568 348.173C564.342 350.22 569.088 352.333 573.904 354.267C577.373 355.654 580.939 356.794 584.463 358.048C584.756 358.154 585.041 358.286 585.33 358.407C585.318 358.536 585.307 358.665 585.295 358.794C584.193 358.759 583.072 358.829 581.986 358.673C575.4 357.716 568.881 356.439 562.494 354.54C553.764 351.947 545.029 349.372 536.299 346.79C535.303 346.493 534.307 346.2 533.307 345.907C533.299 345.997 533.287 346.091 533.279 346.185Z" fill="#FF0000"/>
<path d="M800.101 720H703.42V685.16L921.17 110.3H1023.95L1241.7 685.16V720H1138.92L1084.92 569.317H854.974L800.101 720ZM970.817 249.66L886.33 482.217H1053.56L970.817 249.66Z" fill="#FF0000"/>
</svg>
