<svg width="1281" height="1079" viewBox="0 0 1281 1079" fill="none" xmlns="http://www.w3.org/2000/svg">
<rect x="0.111328" y="0.00244141" width="1280" height="1079" fill="#13102D"/>
<path d="M310.369 924.581L367.479 854.038C368.154 853.382 368.635 852.647 368.893 851.866L446.588 628.948C448.373 623.827 454.494 621.737 459.037 624.698L472.123 633.214C472.838 633.679 473.791 633.483 474.268 632.772L485.443 616.065C488.822 611.019 499.611 611.354 502.283 616.589L624.174 855.448L706.979 1019.39M773.33 789.39C773.33 789.39 799.283 756.69 800.322 755.655L951.443 604.71C951.967 604.19 952.455 603.64 952.912 603.058C956.334 598.698 972.643 578.194 981.893 566.542C986.147 561.183 989.479 555.151 991.756 548.698L1043.82 400.917C1047.02 393.647 1063.45 393.534 1066.9 400.757L1194.38 747.327C1197.44 755.636 1199.56 764.249 1200.71 773.026C1207.69 826.28 1224.91 1022.11 1224.91 1022.11M69.1426 1022.11L95.6231 942.765C96.5527 939.976 97.8145 937.292 99.3887 934.753L128.928 887.163L189.697 738.312C190.846 734.854 196.213 734.784 197.475 738.21L282.061 873.065L325.803 1022.11H69.1426Z" fill="#13102D"/>
<path d="M310.369 924.581L367.479 854.038C368.154 853.382 368.635 852.647 368.893 851.866L446.588 628.948C448.373 623.827 454.494 621.737 459.037 624.698L472.123 633.214C472.838 633.679 473.791 633.483 474.268 632.772L485.443 616.065C488.822 611.019 499.611 611.354 502.283 616.589L624.174 855.448L706.979 1019.39M773.33 789.39C773.33 789.39 799.283 756.69 800.322 755.655L951.443 604.71C951.967 604.19 952.455 603.64 952.912 603.058C956.334 598.698 972.643 578.194 981.893 566.542C986.147 561.183 989.479 555.151 991.756 548.698L1043.82 400.917C1047.02 393.647 1063.45 393.534 1066.9 400.757L1194.38 747.327C1197.44 755.636 1199.56 764.249 1200.71 773.026C1207.69 826.28 1224.91 1022.11 1224.91 1022.11M69.1426 1022.11L95.6231 942.765C96.5527 939.976 97.8145 937.292 99.3887 934.753L128.928 887.163L189.697 738.312C190.846 734.854 196.213 734.784 197.475 738.21L282.061 873.065L325.803 1022.11H69.1426Z" stroke="#68686D" stroke-width="2.66667" stroke-miterlimit="10"/>
<path d="M168.494 1019.39L331.053 819.445C334.818 814.812 341.865 814.745 345.725 819.3L430.967 920.034C431.455 920.612 432.01 921.128 432.619 921.573L566.459 1019.39M598.881 795.359L663.029 705.913C665.889 700.726 733.877 660.405 736.768 665.581L848.521 865.734" fill="#13102D"/>
<path d="M168.494 1019.39L331.053 819.445C334.818 814.812 341.865 814.745 345.725 819.3L430.967 920.034C431.455 920.612 432.01 921.128 432.619 921.573L566.459 1019.39M598.881 795.359L663.029 705.913C665.889 700.726 733.877 660.405 736.768 665.581L848.521 865.734" stroke="#68686D" stroke-width="2.66667" stroke-miterlimit="10"/>
<path d="M1117.37 1019.39L1069.64 773.057C1069.41 771.854 1068.97 770.714 1068.34 769.71L922.541 534.167C918.678 527.925 910.252 529.448 908.252 536.753L777.904 1012.79" fill="#13102D"/>
<path d="M1117.37 1019.39L1069.64 773.057C1069.41 771.854 1068.97 770.714 1068.34 769.71L922.541 534.167C918.678 527.925 910.252 529.448 908.252 536.753L777.904 1012.79" stroke="#68686D" stroke-width="2.66667" stroke-miterlimit="10"/>
<path d="M68.2246 1056.44V247.835" stroke="white" stroke-width="2.66667" stroke-miterlimit="10"/>
<path d="M76.4043 254.461L74.9395 255.824L68.2285 248.602L61.5137 255.824L60.0488 254.461L68.2285 245.664L76.4043 254.461Z" fill="white"/>
<path d="M33.3418 1022.11H1235.82" stroke="white" stroke-width="2.66667" stroke-miterlimit="10"/>
<path d="M1229.19 1030.29L1227.83 1028.83L1235.05 1022.12L1227.83 1015.4L1229.19 1013.94L1237.99 1022.12L1229.19 1030.29Z" fill="white"/>
</svg>
