<svg width="1281" height="744" viewBox="0 0 1281 744" fill="none" xmlns="http://www.w3.org/2000/svg">
<rect width="1280" height="744" fill="#13102D"/>
<path d="M253.624 533H43.68V76.6H236.02C277.313 76.6 309.261 87.032 331.864 107.896C354.901 128.76 366.42 159.187 366.42 199.176C366.42 245.251 348.164 277.633 311.652 296.324C359.9 314.145 384.024 350.875 384.024 406.512C384.024 447.805 372.723 479.319 350.12 501.052C327.517 522.351 295.352 533 253.624 533ZM121.92 337.4V464.54H240.584C284.051 464.54 305.784 443.676 305.784 401.948C305.784 358.916 284.051 337.4 240.584 337.4H121.92ZM121.92 145.06V272.2H222.98C266.012 272.2 287.528 250.901 287.528 208.304C287.528 166.141 266.012 145.06 222.98 145.06H121.92ZM508.627 533H436.255V506.92L599.255 76.6H676.191L839.191 506.92V533H762.255L721.831 420.204H549.703L508.627 533ZM636.419 180.92L573.175 355.004H698.359L636.419 180.92ZM880.4 533H865.404V461.28H877.792C905.61 461.28 924.736 449.544 935.168 426.072C945.6 401.731 950.816 358.916 950.816 297.628V76.6H1235.74V533H1157.5V145.06H1022.54V320.448C1022.54 462.149 975.157 533 880.4 533Z" fill="#68686D"/>
<path d="M330.606 101.972C307.208 80.7556 271.033 70 229 70V76.9456C269.227 76.9456 303.815 87.0927 325.877 107.096C347.853 127.018 360.996 161.599 360.996 200.083C360.996 222.238 354.536 243.299 345.743 258.764C337.305 273.613 322.797 286.012 306.144 294.841L314.825 298C348.224 278.438 368 244.276 368 200.083C368 159.568 354.091 123.267 330.606 101.972Z" fill="#FF0000"/>
<path d="M436.162 506.853H429.162V539.705H506.268L508.854 532.705H436.162V506.853Z" fill="#FF0000"/>
<path d="M950 76.5L949.758 297.356C949.758 357.698 944.408 400.321 933.877 423.99C923.624 446.218 905.29 457.023 877.818 457.023H865.402L865.402 464H877.818C908.03 464 929.116 451.49 940.516 426.781C951.456 402.194 957 358.648 957 297.356V76.5H950Z" fill="#FF0000"/>
<path d="M921.908 355.963C920.592 359.771 919.291 363.588 917.947 367.388C914.471 377.24 910.494 386.892 905.646 396.15C904.057 399.189 902.08 402.033 900.197 404.908C899.705 405.654 898.893 406.189 898.225 406.822C898.072 406.756 897.916 406.693 897.76 406.627C897.701 405.373 897.529 404.115 897.6 402.869C897.873 397.736 898.369 392.607 898.506 387.467C898.639 382.412 898.439 377.349 898.377 372.291C898.354 370.385 898.303 368.474 898.279 366.568C898.275 366.345 898.373 366.123 898.424 365.904C898.529 365.885 898.639 365.861 898.748 365.842C898.912 366.353 899.135 366.853 899.225 367.373C900.174 372.76 900.213 378.209 899.979 383.638C899.736 389.146 899.131 394.635 898.686 400.135C898.658 400.474 898.662 400.818 898.654 401.158C898.756 401.181 898.854 401.205 898.955 401.228C899.537 399.802 900.268 398.416 900.682 396.939C903.217 387.9 905.783 378.865 908.139 369.775C911.33 357.463 913.299 344.97 912.678 332.201C912.322 324.865 911.197 317.65 907.92 310.943C907.205 309.486 906.51 308.021 904.912 307.263C904.744 307.181 904.748 306.736 904.67 306.459C904.979 306.377 905.385 306.131 905.576 306.244C905.99 306.486 906.338 306.881 906.631 307.275C909.119 310.646 910.49 314.529 911.467 318.537C914.057 329.162 914.025 339.9 912.736 350.701C911.639 359.888 909.49 368.842 907.033 377.732C905.646 382.736 904.33 387.76 902.822 392.728C901.74 396.306 900.4 399.802 899.178 403.334C899.076 403.631 899.006 403.935 898.916 404.236C899.025 404.306 899.135 404.381 899.24 404.451C899.904 403.568 900.658 402.736 901.213 401.791C904.584 396.052 907.662 390.166 910.174 383.99C913.604 375.556 917.053 367.131 920.494 358.701C920.889 357.736 921.279 356.775 921.674 355.814C921.752 355.865 921.83 355.912 921.908 355.963ZM395.666 246.353C395.885 242.33 396.123 238.306 396.318 234.279C396.826 223.845 396.795 213.408 395.807 203.002C395.482 199.588 394.729 196.209 394.072 192.834C393.9 191.959 393.346 191.154 392.971 190.318L392.467 190.322C391.936 191.459 391.303 192.56 390.893 193.74C389.209 198.599 387.729 203.533 385.912 208.342C384.123 213.068 382.025 217.681 380.057 222.342C379.311 224.099 378.541 225.845 377.799 227.603C377.713 227.806 377.721 228.049 377.682 228.275C377.775 228.334 377.869 228.392 377.959 228.451C378.303 228.045 378.701 227.666 378.982 227.217C381.896 222.588 383.99 217.556 385.826 212.443C387.686 207.256 389.197 201.939 390.869 196.681C390.971 196.357 391.104 196.041 391.225 195.724C391.326 195.74 391.428 195.756 391.529 195.771C391.529 197.314 391.682 198.873 391.506 200.396C390.432 209.724 389.396 219.056 388.139 228.361C386.439 240.967 383.537 253.279 378.139 264.861C375.037 271.521 371.264 277.775 365.697 282.744C364.482 283.826 363.283 284.916 361.521 285.017C361.334 285.029 361.166 285.439 360.99 285.67C361.248 285.861 361.529 286.244 361.752 286.213C362.225 286.142 362.697 285.908 363.115 285.654C366.693 283.47 369.428 280.396 371.85 277.056C378.264 268.197 382.299 258.244 385.186 247.76C387.643 238.842 389.041 229.74 390.123 220.58C390.732 215.424 391.412 210.271 391.896 205.103C392.248 201.385 392.33 197.638 392.533 193.908C392.549 193.595 392.6 193.283 392.631 192.974C392.76 192.947 392.885 192.924 393.014 192.896C393.291 193.967 393.678 195.017 393.834 196.103C394.783 202.689 395.408 209.306 395.396 215.97C395.385 225.076 395.393 234.181 395.393 243.287V246.404L395.666 246.353Z" fill="#FF0000"/>
</svg>
