<svg width="1105" height="271" viewBox="0 0 1105 271" fill="none" xmlns="http://www.w3.org/2000/svg">
<path d="M356.393 93.0133C356.396 69.9234 350.721 52.7477 339.424 42.9313C336.986 40.8102 334.303 39.0797 331.396 37.7047C310.068 99.443 306.939 179.287 326.908 241.224C338.85 243.99 350.83 246.541 362.842 248.877V230.556C350.229 204.627 337.654 180.064 325.123 157.326C345.916 145.201 356.4 122.845 356.393 93.0133ZM511.963 182.134C511.963 190.474 509.287 197.576 503.932 203.345C498.576 209.123 490.842 211.802 480.74 211.353C470.639 210.9 462.924 207.56 457.584 201.529C452.248 195.502 449.58 188.505 449.58 180.474V6.27891C432.584 8.17734 415.627 10.5172 398.721 13.2984V176.056C398.725 202.259 405.986 223.517 420.568 240.646C435.15 257.693 455.189 268.314 480.74 270.365C489.545 271.064 497.689 270.611 505.209 269.068C520.037 241.892 525.006 215.377 544.537 215.603C549.291 215.642 553.525 217.123 557.451 219.724C561.26 208.173 563.174 195.002 563.174 180.212V0.200781C546.1 0.130468 529.025 0.501563 511.963 1.31797V182.134ZM752.232 19.2828C698.725 8.60312 644.549 2.40781 590.268 0.689062V57.8141C608.924 58.1539 627.568 58.8063 646.174 59.7633V264.048C663.201 262.603 680.193 260.736 697.143 258.439V63.1617C715.568 64.6734 733.939 66.4859 752.232 68.607V19.2828ZM797.467 83.0211C781.186 127.623 764.83 177.712 748.416 231.642V250.173C761.604 247.705 774.752 244.974 787.854 241.986C809.396 191.982 807.143 133.955 797.467 83.0211ZM51.1152 155.595V193.709H93.6621C97.9902 193.709 101.736 192.084 104.889 188.834C108.037 185.584 109.615 181.005 109.615 175.095C109.615 168.795 108.037 163.97 104.889 160.619C101.736 157.271 97.9902 155.595 93.6621 155.595H51.1152ZM51.1152 75.5289V113.048H85.0918C89.4238 113.048 93.1152 111.478 96.1699 108.322C99.2246 105.173 100.752 100.642 100.752 94.732C100.752 88.6305 99.2246 83.9 96.1699 80.5484C93.1152 77.2008 89.4238 75.5289 85.0918 75.5289H51.1152ZM96.9121 238.029H0.294922V31.2086H88.0449C108.33 31.2086 124.139 36.232 135.467 46.2789C146.791 56.3219 152.455 70.7984 152.455 89.7086C152.455 108.423 145.463 122.115 131.479 130.779C141.326 135.904 148.713 142.205 153.639 149.689C158.561 157.173 161.025 166.923 161.025 178.939C161.025 198.439 155.459 213.166 144.33 223.107C133.201 233.056 117.393 238.029 96.9121 238.029Z" fill="#13102D"/>
<path fill-rule="evenodd" clip-rule="evenodd" d="M331.658 41.6772C320.963 34.7085 307.131 31.2085 290.139 31.2085H199.432V238.029H250.252V162.392H271.525L314.072 238.029H327.107C306.838 182.595 310.029 95.9351 331.658 41.6772ZM281.572 120.439C289.842 120.439 295.9 118.712 299.74 115.267C303.584 111.822 305.502 105.959 305.502 97.6851C305.502 89.6108 303.584 83.8999 299.74 80.5483C295.9 77.2046 289.842 75.5288 281.572 75.5288H250.252V120.439H281.572Z" fill="#13102D"/>
<path fill-rule="evenodd" clip-rule="evenodd" d="M866.279 31.2085H816.346L797.357 83.9155C807.189 132.4 809.455 194.587 787.611 238.029H792.709L807.482 193.416H873.072L887.549 238.029H935.119V221.482L866.279 31.2085ZM840.572 94.4351L821.662 150.869H858.893L840.572 94.4351Z" fill="#13102D"/>
<path d="M1104.12 238.029H964.662V31.2085H1015.48V193.712H1104.12V238.029Z" fill="#13102D"/>
</svg>
