<svg width="315" height="350" viewBox="0 0 315 350" fill="none" xmlns="http://www.w3.org/2000/svg">
<path d="M264.354 349.013L9.45508 307.997C6.75586 307.56 4.91992 305.021 5.35351 302.322L49.6699 26.9194C50.1035 24.2202 52.6426 22.3842 55.3457 22.8178L310.24 63.8334C312.939 64.2709 314.775 66.81 314.342 69.5092L270.029 344.912C269.596 347.611 267.053 349.447 264.354 349.013Z" fill="#13102D"/>
<path d="M259.459 342.548L4.8496 301.58C2.06835 301.13 0.17772 298.517 0.626939 295.736L44.8926 20.6266C45.3418 17.8453 47.959 15.9547 50.7363 16.4039L305.346 57.3727C308.127 57.818 310.014 60.4352 309.568 63.2125L265.299 338.326C264.854 341.107 262.236 342.994 259.459 342.548Z" fill="white"/>
<path d="M62.6504 18.3179L16.7598 303.498M83.6309 21.6968L37.7402 306.873M104.611 25.0718L58.7207 310.248M125.592 28.4468L79.7012 313.623M146.572 31.8218L100.682 317.001M167.549 35.2007L121.662 320.376M188.529 38.5757L142.643 323.751M209.51 41.9507L163.623 327.126M230.49 45.3257L184.604 330.505M251.471 48.7046L205.584 333.88M272.451 52.0796L226.564 337.255M293.432 55.4546L247.545 340.63M5.88086 263.083L270.553 305.673M9.25586 242.103L273.928 284.693M12.6309 221.123L277.307 263.712M16.0059 200.142L280.682 242.732M19.3848 179.162L284.057 221.751M22.7598 158.181L287.432 200.771M26.1348 137.201L290.811 179.791M29.5098 116.22L294.186 158.81M32.8887 95.2397L297.561 137.83M36.2637 74.2593L300.939 116.849M39.6387 53.2788L304.314 95.8687M43.0137 32.2983L307.689 74.8882M2.50195 284.064L267.178 326.65" stroke="#FFDBDB" stroke-miterlimit="10"/>
<path d="M73.9316 33.7476L76.1152 20.4858L72.2441 19.8647L73.209 34.4233L73.9316 33.7476Z" fill="#13102D"/>
<path d="M73.6777 1.99762C73.0566 -0.0140995 67.3457 -0.0297247 60.9277 1.96246C54.5098 3.95465 49.8105 7.19684 50.4355 9.20856C50.959 10.9039 55.0879 11.1773 60.2051 10.0367L72.8457 34.0914C73.1074 34.7476 74.0957 34.4351 73.9316 33.7476L66.8769 7.88434C71.3027 5.97418 74.1738 3.59528 73.6777 1.99762Z" fill="#FF0000"/>
<path d="M60.2051 10.0366L66.877 7.88428L67.2246 9.16162C65.2754 10.1265 63.127 10.771 60.6816 10.9351L60.2051 10.0366Z" fill="#13102D"/>
<path d="M60.2051 10.0366L66.877 7.88428L67.2246 9.16162C65.2754 10.1265 63.127 10.771 60.6816 10.9351L60.2051 10.0366Z" fill="#13102D"/>
<path d="M47.0977 240.756C94.793 251.143 141.309 265.592 187.41 281.522C186.457 281.326 185.477 281.205 184.551 280.916C170.215 276.455 155.895 271.947 141.559 267.494C132.504 264.682 123.449 261.873 114.355 259.182C106.66 256.908 98.9414 254.717 91.1875 252.654C81.75 250.143 72.2773 247.748 62.7969 245.404C56.4258 243.826 50.0078 242.428 43.6172 240.936C43.2461 240.846 42.9063 240.608 42.5547 240.44C42.543 240.287 42.5312 240.139 42.5195 239.986C43.2617 239.779 44.0234 239.346 44.7422 239.404C50.8242 239.912 56.918 240.334 62.9609 241.127C70.6172 242.131 78.2461 243.381 85.8633 244.67C93.8906 246.033 101.887 247.572 109.898 249.029C110.461 249.131 111.027 249.178 111.594 249.248C111.625 249.135 111.656 249.022 111.688 248.912C110.402 248.49 109.133 247.983 107.82 247.666C103.539 246.631 99.2461 245.639 94.9492 244.674C89.6758 243.494 84.4062 242.315 79.1172 241.213C73.3008 240.006 67.4414 238.998 61.6445 237.697C56.3477 236.506 51.0195 236.658 45.6641 236.709C42.5195 236.74 39.3711 236.424 36.2344 236.158C35.4805 236.096 34.7578 235.635 34.0195 235.354L34 234.756C34.8086 234.49 35.6328 233.963 36.4258 234.002C40.1914 234.19 43.9453 234.557 47.707 234.818C50.9609 235.045 54.168 236.01 57.4805 235.42C57.7812 235.365 58.1523 235.561 58.4609 235.705C59.0625 235.983 59.6133 236.471 60.2383 236.592C64.4766 237.404 68.7422 238.096 72.9805 238.92C77.7109 239.838 82.4414 240.779 87.1406 241.842C92.9375 243.147 98.7109 244.572 104.488 245.971C111.273 247.615 118.055 249.279 124.836 250.943C126.168 251.272 127.48 251.674 128.82 251.963C133.898 253.053 138.984 254.084 144.059 255.182C152.793 257.068 161.543 258.889 170.238 260.924C182.102 263.701 193.863 266.893 205.387 270.865C210.023 272.463 214.562 274.346 219.145 276.108C219.527 276.256 219.953 276.404 220.242 276.674C220.562 276.971 220.742 277.412 220.984 277.791C220.562 277.881 220.09 278.135 219.723 278.029C216.566 277.115 213.434 276.127 210.285 275.186C203.91 273.275 197.562 271.275 191.148 269.506C180.691 266.623 170.188 263.885 159.703 261.096C152.84 259.272 146.008 257.326 139.102 255.69C131.91 253.986 124.668 252.455 117.402 251.092C108.176 249.361 98.9141 247.815 89.6484 246.299C80.5469 244.811 71.4336 243.404 62.3047 242.08C57.5 241.385 52.6602 240.943 47.832 240.397C47.6094 240.369 47.3789 240.424 47.1484 240.44C47.1328 240.545 47.1133 240.65 47.0977 240.756Z" fill="#FF0000"/>
</svg>
