<svg width="357" height="490" viewBox="0 0 357 490" fill="none" xmlns="http://www.w3.org/2000/svg">
<path d="M69.5632 284.604L63.3757 296.979L34.4225 276.526L43.0944 259.151L50.4694 262.838L69.5632 284.604Z" fill="#FF0000"/>
<path d="M192.622 215.447H178.715L180.637 203.119L171.044 211.041L164.028 198.837L175.903 194.431L164.028 190.025L171.044 177.806L180.637 185.728L178.715 173.4H192.622L190.7 185.728L200.419 177.806L207.309 190.025L195.778 194.431L207.309 198.837L200.419 211.041L190.7 203.119L192.622 215.447Z" fill="#FF0000"/>
<path d="M102.76 469.77C83.9163 473.364 67.4241 471.551 53.2913 464.333C39.3109 457.083 30.639 444.653 27.2757 427.036L66.4788 419.551C67.8109 426.544 71.6546 430.997 78.0101 432.911C84.2991 434.559 91.2484 434.657 98.8538 433.208C112.362 430.626 118.323 425.153 116.729 416.786C116.112 413.598 113.987 411.333 110.354 409.989C106.717 408.637 100.049 407.309 90.3538 406.004L62.7132 402.301C38.0882 398.669 23.7718 386.364 19.7601 365.395C16.8343 350.051 19.8929 336.797 28.9319 325.629C38.1273 314.422 52.1507 307.02 70.9944 303.426C89.221 299.95 104.858 301.844 117.901 309.114C130.94 316.387 139.143 328.829 142.51 346.442L103.073 353.958C101.948 348.044 98.9046 343.864 93.9476 341.426C88.9984 338.989 83.0296 338.438 76.0413 339.77C63.2913 342.208 57.6976 347.528 59.2601 355.723C59.9046 359.067 61.4476 361.376 63.8851 362.645C66.3226 363.907 71.0296 365.047 78.0101 366.067L104.948 369.911C119.155 371.754 130.26 375.067 138.26 379.848C147.385 384.723 153.217 393.844 155.76 407.208C158.748 422.856 155.713 436.231 146.651 447.333C137.588 458.438 122.955 465.919 102.76 469.77Z" fill="#FF0000"/>
<path d="M208.733 447.388L170.905 451.685L166.827 415.81L204.655 411.513L208.733 447.388ZM202.67 394.044L164.842 398.341L151.639 281.981L189.467 277.685L202.67 394.044Z" fill="#FF0000"/>
<path d="M127.49 298.632L54.0525 242.367L137.49 133.445L164.256 153.96L98.7087 239.539L145.381 275.289L127.49 298.632Z" fill="#FF0000"/>
<path d="M65.9428 204.206L41.2866 197.034L44.3491 186.502L57.9584 169.221L50.3959 73.9399L54.3959 60.2056L81.6772 68.1431L84.5991 132.471L119.865 79.2681L146.787 87.0962L142.787 100.831L65.9428 204.206Z" fill="#FF0000"/>
<path d="M172.289 127.979C175.008 128.771 177.304 128.768 179.179 127.963C181.054 127.15 182.277 125.768 182.851 123.807L187.773 106.916C188.355 104.885 188.078 103.01 186.945 101.291C185.808 99.5645 183.883 98.3027 181.164 97.5098C178.297 96.6777 175.922 96.6816 174.039 97.5254C172.152 98.3691 170.918 99.8066 170.336 101.838L165.414 118.729C164.84 120.689 165.125 122.51 166.273 124.197C167.418 125.885 169.422 127.146 172.289 127.979ZM167.617 144.072C159.156 141.604 153.172 137.67 149.664 132.275C146.152 126.881 145.383 120.814 147.351 114.072L152.679 95.7285C154.617 89.084 158.531 84.4277 164.429 81.7598C170.336 79.0957 177.476 78.9785 185.851 81.416C194.32 83.877 200.246 87.8535 203.633 93.3535C207.058 98.7832 207.824 104.74 205.929 111.229L200.601 129.572C198.633 136.311 194.718 141.014 188.867 143.682C183.011 146.357 175.929 146.486 167.617 144.072Z" fill="#FF0000"/>
<path d="M175.219 61.2837L171.453 69.69L137.953 54.69C136.254 58.4947 137.555 61.354 141.859 63.2837C145.305 64.8345 147.68 64.8228 148.984 63.2525L165.578 70.6744C163.317 75.5259 159.332 78.5689 153.625 79.7994C148.02 80.9244 141.883 79.9908 135.219 77.0025C128.32 73.9166 123.664 69.8306 121.25 64.7369C118.832 59.6431 118.91 54.229 121.484 48.4869L121.906 47.5181L116.516 45.1119L120.281 36.7056L175.219 61.2837ZM176.906 57.5181L121.969 32.94L125.719 24.5494L159.109 39.4869C160.785 35.7486 159.469 32.9165 155.156 30.9869C151.926 29.5415 149.641 29.5455 148.297 31.0025L131.594 23.5337C133.914 18.7212 137.801 15.7212 143.25 14.5337C148.758 13.3775 154.75 14.2486 161.219 17.1431C168.313 20.3228 173.149 24.4244 175.734 29.4556C178.317 34.4869 178.32 39.8736 175.75 45.6119L175.266 46.7056L180.656 49.1275L176.906 57.5181Z" fill="#FF0000"/>
<path d="M214.615 256.557L206.865 273.885L163.818 254.635L160.24 262.619L145.334 255.947L148.912 247.963C142.123 244.924 138.139 240.412 136.959 234.432C135.846 228.518 136.924 221.908 140.193 214.604C140.225 214.533 140.928 213.143 142.303 210.432L156.334 216.697L155.162 219.322C152.518 225.229 153.018 229.002 156.662 230.635L161.365 220.135L176.272 226.807L171.568 237.307L214.615 256.557Z" fill="#FF0000"/>
<path d="M188.705 270.029C187.213 270.962 185.99 272.158 185.064 273.642C186.6 272.771 187.744 271.494 188.705 270.029ZM183.068 190.4C183.842 192.408 184.486 193.599 186.537 192.638C185.631 191.701 184.58 191.259 183.068 190.4ZM186.412 275.728C188.701 275.669 189.768 274.634 189.811 272.24C188.662 273.56 187.295 274.322 186.412 275.728ZM186.768 286.841C186.939 286.693 187.111 286.544 187.279 286.392C185.541 284.423 183.799 282.451 182.061 280.478C183.311 282.853 184.553 285.232 186.768 286.841ZM311.838 107.724C313.908 110.849 315.838 114.068 317.85 117.232C316.236 113.81 314.611 110.396 311.838 107.724ZM182.014 201.498C182.072 200.072 182.064 198.884 180.885 198.279C179.834 197.744 178.822 198.091 177.834 199.099C179.244 199.908 180.525 200.642 182.014 201.498ZM194.994 269.017C194.346 269.173 194.299 269.556 194.654 269.958C196.127 271.626 197.631 273.267 199.123 274.919C199.475 275.306 199.826 275.333 200.217 274.947C200.666 274.498 200.615 274.138 200.193 273.666C199.049 272.384 197.936 271.08 196.455 270.146C195.936 269.814 195.471 269.392 194.994 269.017ZM185.354 205.712C185.49 205.505 185.627 205.302 185.764 205.095C181.471 202.474 177.178 199.853 172.881 197.228C176.627 200.705 181.143 202.97 185.354 205.712ZM8.99023 290.595C10.6348 294.517 12.9199 297.994 15.7363 301.13C13.7832 297.419 12.0098 293.603 8.99023 290.595ZM193.869 197.353C193.908 196.873 193.471 196.595 193.002 196.4C192.377 196.142 192.311 196.681 192.186 197.072C191.35 199.689 190.115 202.123 188.662 204.443C188.283 205.044 188.275 205.513 188.959 205.853C189.799 206.267 189.65 205.392 189.904 205.084C190.408 204.478 190.9 203.849 191.307 203.173C192.393 201.392 193.412 199.572 193.869 197.353ZM190.674 208.298C196.818 212.669 203.26 216.552 209.877 220.166C203.697 215.845 197.377 211.767 190.674 208.298ZM177.068 187.478C177.049 186.501 176.221 186.345 175.67 185.947C175.244 185.642 174.826 185.771 174.604 186.236C173.377 188.833 172.174 191.435 170.951 194.037C170.666 194.642 170.99 194.982 171.459 195.263C172.029 195.603 172.4 195.318 172.701 194.841C173.619 193.384 174.561 191.939 175.447 190.462C176.037 189.478 176.549 188.447 177.068 187.478ZM49.6777 149.876C46.3613 150.697 44.9004 152.787 45.5918 155.904C45.9004 157.302 47.3574 157.248 48.4082 157.455C49.416 157.654 49.1504 156.619 49.2637 156.068C49.6894 154.029 49.8418 151.97 49.6777 149.876ZM44.0254 172.697C45.8027 172.791 46.1543 172.025 45.3809 170.275C44.3105 167.853 44.7441 165.81 46.7754 164.173C47.3105 163.744 47.6738 163.259 47.8769 162.638C48.1387 161.833 48.9746 160.923 47.2988 160.552C46.1582 160.298 45.1894 159.939 44.9316 161.583C44.4238 164.814 43.3809 167.931 42.9473 171.189C42.7793 172.455 43.2207 172.72 44.0254 172.697ZM16.1269 295.978C14.3301 291.982 12.709 287.912 9.89648 284.49C9.10741 283.533 8.43163 282.181 6.92773 282.353C6.25585 282.431 6.76757 285.634 7.65429 286.771C7.70116 286.83 7.75194 286.88 7.80663 286.927C10.8457 289.685 13.6035 292.701 16.1269 295.978ZM250.74 413.166C248.365 412.345 245.99 411.521 243.615 410.709C236.557 408.298 229.299 406.834 221.873 406.201C221.158 406.138 220.029 405.521 220.01 407.115C219.99 408.419 220.58 408.966 221.861 408.834C222.076 408.81 222.295 408.822 222.51 408.818C225.764 408.748 228.998 409.056 232.217 409.466C238.498 410.263 244.631 411.787 250.74 413.166ZM39.8496 179.146C40.623 175.197 42.1269 171.404 41.7715 167.275C41.666 166.044 41.8887 164.541 42.5371 163.533C44.6426 160.248 44.1035 156.466 44.8809 152.947C44.9746 152.521 45.0762 151.697 44.2871 151.892C42.8262 152.263 41.4043 152.81 39.998 153.369C39.5605 153.544 39.8184 153.974 40.0137 154.279C42.3223 157.876 41.5762 161.802 41.1387 165.65C40.6269 170.15 39.8809 174.619 39.8496 179.146ZM242.607 442.556C242.143 442.474 241.986 442.861 241.9 443.201C241.068 446.482 240.252 449.759 239.443 453.044C239.307 453.611 239.475 454.021 240.146 454.123C241.213 454.279 242.275 454.47 243.334 454.658C243.928 454.763 244.365 454.619 244.357 453.943C244.307 450.509 245.314 447.291 246.275 444.052C246.443 443.494 246.975 442.431 245.686 442.498C244.885 442.541 243.248 442.666 242.607 442.556ZM15.5488 304.74C15.2676 303.111 13.8691 302.162 12.8418 301.033C8.69726 296.474 5.23241 291.595 4.45507 285.259C4.39647 284.787 4.38866 284.173 3.65038 284.201C3.06835 284.22 2.51757 284.283 2.25585 284.974C1.60351 286.724 1.51757 288.431 2.15038 290.244C4.30663 296.388 8.13476 301.392 12.6699 305.927C13.2012 306.462 13.6426 307.435 14.5488 307.115C15.5293 306.767 15.0644 305.58 15.5488 304.74ZM186.381 276.701C184.607 276.419 184.193 277.572 183.432 278.13C182.99 278.455 183.162 278.853 183.498 279.228C185.033 280.947 186.576 282.662 188.064 284.423C188.709 285.185 189.279 285.13 189.795 284.408C190.432 283.517 191.232 282.896 192.158 282.337C192.803 281.947 193.834 281.384 192.287 280.58C191.369 280.103 191.619 279.197 192.271 278.58C193.42 277.49 194.76 276.806 196.381 277.435C196.861 277.619 197.229 277.994 197.678 277.427C198.104 276.892 197.729 276.466 197.479 276.064C196.521 274.541 195.475 273.072 194.568 271.517C193.807 270.201 193.139 270.205 192.154 271.302C191.639 271.876 191.436 272.498 191.205 273.185C190.299 275.896 188.768 276.865 186.381 276.701ZM208.932 254.642C205.631 258.083 202.709 261.158 199.744 264.193C199.053 264.9 199.057 265.439 199.604 266.24C200.775 267.955 202.014 269.662 201.939 271.974C202.936 271.474 203.178 270.435 204.436 270.521C205.58 270.599 208.893 266.623 208.912 265.419C208.963 261.982 208.932 258.541 208.932 254.642ZM178.158 187.56C177.486 187.615 177.471 188.228 177.236 188.646C176.182 190.529 175.104 192.404 174.115 194.326C173.803 194.939 172.588 195.689 173.541 196.275C174.814 197.056 175.779 198.959 177.783 197.994C181.131 196.38 182.412 197.013 183.24 200.705C183.322 201.052 183.377 201.423 183.537 201.74C184.795 204.251 186.467 204.482 188.369 202.439C189.682 201.033 190.4 199.302 191.033 197.537C191.271 196.869 192.217 196.033 191.232 195.462C190.064 194.787 189.15 193.333 187.459 193.861C184.041 194.923 183.096 194.4 182.256 190.99C182.018 190.017 178.986 187.482 178.158 187.56ZM122.049 294.58C121.186 297.001 117.389 305.001 116.131 306.841C115.662 307.521 115.451 308.044 116.271 308.642C118.307 310.126 120.295 311.677 122.311 313.189C123.182 313.841 123.838 313.654 124.447 312.732C126.686 309.357 128.592 305.814 130.158 302.083C130.455 301.384 130.627 300.751 129.83 300.185C127.307 298.404 124.814 296.58 122.049 294.58ZM209.92 218.802C210.342 214.99 210.436 211.423 210.424 207.845C210.424 206.994 209.916 206.521 209.287 206.142C205.646 203.955 201.986 201.794 198.357 199.591C197.553 199.103 197.158 199.166 196.76 200.095C196.17 201.482 195.459 202.83 194.682 204.123C193.881 205.459 193.229 204.998 192.818 203.642C192.088 204.798 191.439 205.822 190.717 206.959C197.033 210.853 203.373 214.763 209.92 218.802ZM79.5488 467.041C67.873 471.216 56.1855 473.318 44.0566 475.533C47.1309 477.853 50.0137 479.369 53.1582 480.486C58.8105 482.501 64.7402 482.837 70.5996 483.623C71.4395 483.736 71.9824 483.431 72.3535 482.705C74.8652 477.787 77.5215 472.935 79.5488 467.041ZM100.221 115.888C91.7715 118.533 37.4746 145.49 35.7676 146.103C35.3418 146.255 34.7559 146.287 34.7519 147.021C34.7402 149.337 38.4043 151.9 40.5879 151.072C48.2988 148.142 55.6074 144.361 62.8769 140.498C74.1543 134.505 85.3262 128.318 96.9863 123.072C97.5332 122.826 98.0176 122.513 98.2129 121.927C98.8574 120.044 99.4707 118.15 100.221 115.888ZM221.307 105.271C231.271 96.9351 242.033 91.0444 254.154 87.3413C244.111 83.7866 235.744 77.8921 228.631 69.9936C228.549 71.1811 228.658 72.2241 228.838 73.2515C229.639 77.771 230.146 82.2124 227.291 86.3374C226.232 87.8686 225.604 89.689 224.67 91.3179C222.268 95.5132 221.541 100.095 221.307 105.271ZM37.084 253.533C37.9707 236.947 40.1699 220.501 42.4707 204.064C43.6387 195.705 44.7168 187.337 45.8652 178.978C45.9902 178.076 46.0137 177.201 44.8496 177.431C43.8144 177.634 42.1855 176.103 41.7637 178.353C41.3418 180.619 40.8769 182.88 40.4863 185.154C38.0098 199.509 36.4277 214.005 33.6113 228.314C32.123 235.884 31.8184 243.638 30.8809 251.298C30.4629 254.751 36.9277 256.466 37.084 253.533ZM167.865 193.064C169.818 190.955 170.701 188.158 172.26 185.802C173.041 184.623 172.678 184.103 171.588 183.486C167.127 180.966 162.697 178.388 158.271 175.806C137.514 163.701 116.635 151.802 95.7441 139.931C94.3613 139.146 94.002 139.47 93.4473 140.732C92.4316 143.041 91.3574 145.345 90.0371 147.486C88.9668 149.224 89.1895 150.048 90.998 151.08C100.971 156.755 167.65 192.947 167.865 193.064ZM17.2676 311.748C17.0215 312.556 16.8301 313.021 16.7402 313.505C15.4473 320.533 14.1191 327.556 13.1973 334.642C12.9121 336.833 15.7168 339.841 15.7754 339.884C18.3184 341.814 20.6738 343.978 22.4551 346.623C26.6465 352.849 30.1894 359.474 33.3223 366.287C36.1465 372.427 38.5488 378.767 41.1465 385.017C42.4668 388.197 43.6777 391.412 45.1113 394.552C46.3105 397.185 46.7832 400.185 47.8887 402.927C50.2402 408.763 52.873 414.513 54.8301 420.478C57.5215 428.681 59.7207 437.044 62.0801 445.353C64.2129 452.841 66.3145 460.341 68.3457 467.861C68.752 469.361 69.6074 469.095 70.623 468.857C71.7559 468.591 71.7949 468.037 71.4629 466.97C69.1348 459.529 67.2793 451.962 65.4512 444.388C62.0996 430.498 57.7519 416.876 54.1465 403.052C49.8105 386.431 44.8848 369.99 38.748 353.939C34.9394 343.982 31.2285 333.966 25.7559 324.751C23.1816 320.423 20.5254 316.146 17.2676 311.748ZM205.068 465.923C206.58 466.119 207.498 466.283 208.42 466.353C213.389 466.74 218.361 467.072 223.322 467.49C232.24 468.244 241.123 469.49 250.068 469.841C261.475 470.287 272.885 470.58 284.291 470.884C290.502 471.048 296.709 471.119 302.908 471.556C304.256 471.65 305.861 471.916 306.838 470.81C309.611 467.65 311.811 464.084 313.576 460.259C313.897 459.56 313.779 459.08 312.846 458.884C308.162 457.927 303.518 457.498 299.123 459.923C294.111 462.689 289.053 461.673 283.99 460.228C282.451 459.787 281.147 458.814 279.869 457.873C279.439 457.556 278.725 457.181 279.092 456.513C279.537 455.705 280.064 456.435 280.533 456.638C281.127 456.9 281.725 457.162 282.299 457.459C287.451 460.13 292.975 460.548 298.221 458.56C303.201 456.673 307.979 456.209 313.018 457.572C314.041 457.849 314.65 457.681 314.955 456.576C315.787 453.584 316.693 450.619 317.154 447.533C317.424 445.712 316.576 444.931 314.932 444.908C309.42 444.837 303.963 445.173 298.721 447.142C294.725 448.642 290.635 449.224 286.4 448.24C284.814 447.869 283.295 447.423 282.592 445.748C282.307 445.064 281.74 445.037 281.166 445.021C280.412 444.998 280.529 445.634 280.4 446.095C279.627 448.794 279.357 451.623 278.076 454.189C276.592 455.837 275.104 455.626 272.674 456.806C266.654 460.794 260.143 461.72 253.197 460.626C251.182 460.31 249.049 459.771 247.842 458.08C246.619 456.373 245.037 455.853 243.205 455.404C239.678 454.541 232.314 457.892 224.061 458.087C222.287 457.904 220.521 457.357 218.83 456.759C217.17 456.173 216.947 455.619 217.107 454.095C220.615 456.619 224.49 458.205 228.756 456.611C231.553 455.564 234.291 454.56 237.252 454.22C238.025 454.13 238.654 454.017 238.736 453.037C239.002 449.923 239.807 446.927 240.775 443.97C241.135 442.884 240.818 442.482 239.646 442.822C237.287 443.498 234.861 443.966 232.561 444.798C228.139 446.404 223.912 446.091 219.814 443.888C218.846 443.365 218.596 443.724 218.4 444.599C217.947 446.662 217.178 448.611 216.158 450.451C213.162 455.884 209.939 461.166 205.068 465.923ZM208.85 268.775C207.561 269.869 169.186 306.861 160.873 314.462C159.947 315.31 160.264 315.662 161.111 316.177C166.35 319.361 171.428 322.837 176.822 325.712C187.682 331.498 199.295 335.443 211.057 338.955C212.439 339.365 212.83 339.185 212.736 337.685C212.42 332.712 212.076 327.74 211.994 322.763C211.854 314.037 210.174 305.447 209.947 296.728C209.701 287.361 209.221 278.001 208.85 268.775ZM96.6582 126.041C95.9277 126.287 95.6426 126.349 95.3848 126.47C81.459 132.837 67.998 140.123 54.4551 147.244C53.7363 147.619 53.373 148.123 53.2246 148.876C52.6504 151.822 51.623 154.755 51.584 157.701C51.5332 161.65 50.6777 165.419 49.9785 169.232C49.541 171.619 50.0644 174.49 48.3926 176.279C46.1973 178.63 46.6269 181.38 46.2246 184.005C45.8223 186.642 45.8574 189.341 45.4941 191.986C42.7832 211.572 39.9668 231.142 38.8223 250.908C38.5644 255.384 38.4707 255.322 42.8691 255.986C44.498 256.232 44.9941 255.755 45.0996 254.13C45.541 247.494 46.5644 240.931 47.7715 234.392C49.959 222.544 54.0293 211.33 58.9394 200.357C62.123 193.248 64.5254 185.759 68.4434 179.005C75.6855 166.513 82.9395 154.033 89.7012 141.271C92.2598 136.451 94.6777 131.556 96.6582 126.041ZM248.42 441.931C253.057 444.935 257.842 447.072 263.455 444.693C268.764 442.443 274.252 442.283 279.818 443.306C282.463 443.794 284.393 446.72 286.811 447.224C289.443 447.943 291.967 447.423 294.408 446.408C300.451 443.888 306.818 443.209 313.272 443.181C317.947 443.166 317.959 443.255 317.568 438.466C317.49 437.482 317.596 436.33 316.514 435.783C314.721 434.869 303.189 433.248 299.572 432.13C290.822 429.435 282.147 426.498 273.49 423.513C261.201 419.279 249.436 413.47 236.479 411.24C231.678 410.412 226.865 409.681 221.982 409.521C221.061 409.494 220.314 409.4 220.389 410.798C218.4 444.599 229.182 442.673 234.186 441.681C237.604 441.001 241.033 440.025 244.553 441.068C246.322 441.595 247.299 441.205 248.42 441.931ZM216.518 125.97C217.643 124.912 218.514 124.091 219.389 123.279C220.287 122.443 221.158 121.572 222.104 120.791C237.361 108.216 254.967 102.599 274.584 104.005C284.775 104.736 293.744 109.06 301.326 116.044C309.295 123.38 312.822 133.021 315.314 143.142C317.721 152.916 317.697 162.888 317.158 172.869C316.736 180.654 316.119 188.373 313.826 195.931C309.975 208.65 305.311 221.08 300.908 233.599C297.576 243.072 293.342 252.169 288.92 261.181C286.721 265.662 285.357 270.47 284.611 275.423C284.389 276.908 285.252 277.853 286.404 278.31C287.549 278.763 288.447 277.935 289.053 276.966C289.482 276.283 289.943 275.63 290.635 275.216C292.682 273.982 294.068 272.134 295.287 270.162C299.811 262.845 303.369 255.013 307.111 247.298C310.607 240.087 313.373 232.548 315.131 224.634C316.533 218.306 318.85 212.189 320.49 205.908C325.025 188.537 328.729 171.052 326.658 152.9C325.139 139.587 321.943 126.74 315.248 115.044C310.08 106.017 303.631 98.1187 293.451 94.228C291.701 93.5561 289.986 92.8022 288.244 92.1069C276.463 87.4038 264.486 87.2046 252.357 90.5913C241.76 93.5483 232.467 98.9976 223.787 105.595C222.443 106.619 218.467 110.607 218.322 111.369C218.15 112.291 218.072 113.228 217.936 114.154C217.373 117.974 216.768 121.787 216.518 125.97ZM11.1152 389.349C13.5332 405.365 16.8965 421.173 22.8144 436.322C27.3965 448.048 31.3965 460.037 38.7051 470.521C41.1074 473.97 43.6816 475.209 47.7012 473.955C48.3144 473.763 48.9277 473.494 49.5605 473.423C55.0918 472.791 60.4082 471.115 65.8574 470.095C67.3379 469.822 67.6582 469.298 67.1738 467.759C60.1309 445.47 54.2285 422.834 46.0137 400.9C40.5684 386.365 35.2871 371.791 28.0605 358.017C24.6894 351.591 20.8496 345.509 15.0371 340.923C14.3457 340.376 13.5723 339.626 12.8027 339.826C11.873 340.064 12.1035 341.267 11.9863 342.048C10.6699 351.064 10.1152 382.705 11.1152 389.349ZM107.057 485.439C107.057 485.255 117.018 485.048 121.99 484.853C126.674 484.669 131.357 484.302 135.998 483.552C150.607 481.189 165.135 478.396 179.619 475.38C183.67 474.533 187.635 473.525 191.006 470.935C196.037 467.068 200.752 462.869 205.018 458.142C212.682 449.646 216.307 439.494 217.471 428.322C217.76 425.529 217.572 425.47 214.725 425.572C211.264 425.697 183.67 429.123 178.01 429.791C160.189 431.9 143.541 437.88 127.197 444.896C121.404 447.38 93.9395 462.525 84.9902 465.584C84.1035 465.884 83.2051 466.099 82.7871 467.126C80.5996 472.548 78.3184 477.923 75.2832 482.947C74.6973 483.919 74.9746 484.677 76.3379 484.427C77.5645 484.201 78.7832 484.341 80.0059 484.423C89.0137 484.998 98.0215 485.623 107.057 485.439ZM161.752 57.7827C149.162 59.1499 137.244 63.1811 125.076 66.2007C119.189 67.6616 114.064 71.1694 108.572 73.7085C107.389 74.2554 107.396 75.0952 107.486 76.189C108.264 85.439 108.088 94.6655 106.525 103.837C106.018 106.837 105.439 109.822 104.861 112.994C108.807 111.716 112.361 110.103 116.248 109.634C112.986 110.939 109.67 112.083 106.369 113.271C105.58 113.556 104.604 113.708 104.303 114.673C103.752 116.439 103.279 118.228 102.639 120.486C103.943 119.939 104.779 119.599 105.611 119.24C112.135 116.419 118.932 114.517 125.865 113.029C139.693 110.052 153.721 108.138 167.498 104.775C187.096 99.9897 206.209 94.2397 223.287 83.0796C226.189 81.1811 226.986 79.3101 225.951 75.7827C204.861 86.9468 182.709 95.2007 159.381 100.244C160.291 99.8022 161.244 99.478 162.209 99.1968C169.072 97.1968 175.904 95.0835 182.807 93.2358C189.736 91.3804 195.811 87.4233 202.795 85.5913C207.697 84.3061 212.314 81.853 216.982 79.7515C219.674 78.5405 222.213 77.0015 224.811 75.5835C225.428 75.2476 226.041 74.9429 225.896 73.9585C224.955 67.603 222.842 61.5601 220.971 55.4546C220.529 54.0171 219.627 53.5405 218.068 53.6226C210.283 54.021 178.088 56.0093 161.752 57.7827ZM106.854 71.0522C107.088 72.8179 107.318 73.4272 109.252 72.3921C120.1 66.5679 131.416 61.8101 143.357 58.771C159.381 54.6968 175.771 53.1733 192.229 52.1968C200.514 51.7046 208.846 52.0483 217.088 50.6968C218.713 50.4272 219.018 50.064 218.314 48.5601C214.432 40.2163 209.729 32.5249 202.045 27.0444C198.287 24.3608 194.717 21.4077 190.943 18.7475C171.799 5.22801 150.393 1.32567 127.471 4.00145C113.209 5.66551 100.803 12.1382 88.5566 19.0327C87.459 19.646 87.4824 20.0991 88.2637 20.9507C91.3574 23.8452 105.65 53.4311 106.854 71.0522ZM71.6152 463.865C72.9785 468.158 72.9199 468.041 77.3809 466.876C79.5527 466.31 80.6543 465.138 81.2754 463.095C82.3184 459.642 83.5879 456.259 84.6387 452.806C87.9707 441.845 90.0957 430.716 90.1504 419.177C90.1973 407.974 88.5645 397.052 86.0605 386.177C83.3848 374.548 80.1973 363.103 75.0449 352.298C71.4746 344.81 67.8652 337.341 64.2012 329.9C56.623 314.513 50.248 298.689 46.2051 281.97C44.4941 274.9 43.7832 267.744 43.9043 260.509C43.9277 259.13 43.6894 258.716 42.4316 258.607C38.7012 258.279 34.9551 258.048 31.2637 257.486C28.916 257.13 28.2051 258.162 27.8613 260.162C27.123 264.494 26.3535 268.826 25.4668 273.134C23.0371 284.935 20.0371 296.619 17.8262 308.466C17.6543 309.373 17.2715 310.251 17.916 311.169C19.4277 313.326 20.9746 315.544 22.623 317.505C25.3144 320.701 27.3535 324.201 29.1621 327.837C34.4043 338.38 38.2988 349.494 42.2715 360.548C48.248 377.189 53.5254 394.056 57.9434 411.189C61.7441 425.931 69.8301 458.232 71.6152 463.865ZM220.342 88.5561C219.42 89.0913 218.736 89.4741 218.064 89.8726C213.021 92.8569 207.756 95.3726 202.256 97.4038C190.518 101.74 178.381 104.642 166.189 107.337C157.396 109.287 148.717 111.728 139.775 113.087C127.412 114.966 115.201 117.572 103.682 122.681C102.779 123.08 101.771 123.322 101.186 124.283C98.7481 128.287 97.1582 132.685 95.2207 136.919C94.7676 137.912 94.9355 138.326 96.0098 138.826C99.8027 140.591 103.639 142.322 107.229 144.455C121.795 153.099 137.17 160.322 151.186 169.947C157.658 174.384 164.65 178.068 171.447 182.025C172.287 182.513 173.045 183.943 174.42 182.669C174.795 182.326 174.752 183.037 174.904 183.291C175.529 184.341 176.139 185.376 177.721 185.068C178.291 184.958 179.033 185.236 179.572 185.548C185.576 189.056 192.51 191.166 196.982 197.005C197.08 197.13 197.377 197.111 197.584 197.146C199.346 197.447 200.752 198.501 202.213 199.4C204.893 201.048 207.529 202.763 210.615 204.72C207.479 165.279 213.623 127.037 220.342 88.5561ZM209.65 227.81C209.65 226.681 209.502 225.919 209.682 225.244C210.268 223.017 209.182 221.861 207.396 220.771C201.85 217.392 196.393 213.869 190.893 210.408C190.471 210.142 190.025 209.845 189.553 209.72C183.146 208.048 177.686 204.537 172.338 200.826C171.295 200.099 169.9 199.88 169.232 198.529C168.854 197.763 167.283 197.673 168.025 196.166C168.111 195.99 166.717 195.001 165.932 194.505C160.951 191.376 103.201 159.115 90.1035 151.498C88.584 150.611 88.1426 150.919 87.4082 152.212C83.6426 158.873 69.2988 182.587 66.8301 188.314C57.6348 209.638 51.1699 231.736 47.9355 254.755C47.7246 256.259 48.1191 256.751 49.5762 257.033C53.3301 257.755 57.0566 258.642 60.7793 259.513C69.4277 261.544 77.9785 263.978 86.0449 267.701C99.7949 274.044 112.217 282.646 124.682 291.142C131.951 296.099 139.15 301.169 146.318 306.275C147.42 307.056 147.939 306.857 148.814 306.029C154.432 300.724 160.092 295.47 165.947 290.423C171.385 285.74 177.506 281.857 181.725 275.724C184.1 272.271 187.627 269.615 190.631 266.595C191.096 266.13 191.533 265.978 192.291 265.986C193.494 265.994 195.014 265.798 195.857 265.064C200.061 261.431 204.041 257.544 207.83 253.47C208.646 252.599 209.01 251.619 209.045 250.357C209.236 242.709 209.025 235.044 209.65 227.81ZM314.756 164.791C314.783 154.634 314.162 144.623 310.33 134.982C306.854 126.24 302.17 118.58 293.998 113.494C286.893 109.072 279.275 105.962 270.803 106.185C262.709 106.4 254.721 107.619 247.002 110.326C236.064 114.158 226.342 119.908 218.061 128.048C216.736 129.353 215.865 130.787 215.764 132.751C215.607 135.705 215.24 138.65 214.881 141.583C213.424 153.349 212.744 165.169 212.271 177.005C211.857 187.333 212.689 197.65 212.893 207.97C213.088 217.873 212.514 227.759 212.584 237.65C212.646 246.521 213.213 255.388 213.295 264.259C213.412 276.533 213.225 288.794 213.854 301.076C214.732 318.275 215.326 335.494 216.174 352.701C216.99 369.298 217.924 385.88 219.912 402.388C220.021 403.298 219.811 404.263 221.318 404.251C226.049 404.209 230.631 405.349 235.232 406.244C236.654 406.517 236.959 406.259 236.979 404.865C237.041 400.603 237.279 396.334 238.033 392.138C240.49 378.513 244.818 365.419 249.764 352.533C256.119 335.978 264.471 320.275 270.561 303.583C273.354 295.935 277.678 288.919 281.545 281.736C281.9 281.072 282.576 280.451 282.287 279.56C280.682 274.576 282.428 270.009 284.139 265.486C286.545 259.123 290.189 253.345 292.869 247.103C298.025 235.076 301.955 222.607 306.545 210.376C312.072 195.638 314.709 180.47 314.756 164.791ZM117.35 447.849C129.361 441.064 142.209 436.294 155.424 432.552C174.924 427.037 194.986 425.158 215.131 424.021C217.068 423.912 217.611 423.435 217.396 421.525C216.912 417.228 216.549 412.912 216.275 408.595C214.99 388.193 213.893 367.779 213.178 347.349C213.029 343.173 213.025 343.13 208.822 342.505C202.408 341.544 196.428 339.212 190.479 336.802C181.193 333.041 171.803 329.462 163.455 323.763C159.885 321.322 155.869 319.654 152.42 316.978C146.26 312.201 139.912 307.662 133.686 302.974C132.814 302.322 132.576 302.513 132.193 303.4C130.576 307.146 126.104 315.818 125.365 316.13C124.627 316.443 117.564 311.435 114.174 308.779C113.482 308.236 113.689 307.494 113.971 306.791C115.615 302.638 116.779 298.259 119.674 294.705C120.33 293.888 120.225 293.333 119.35 292.791C117.756 291.802 116.158 290.818 114.615 289.751C107.842 285.072 100.881 280.65 93.4902 277.048C79.3535 270.154 64.5527 265.193 48.9941 262.595C47.1777 262.294 46.3262 262.716 46.541 264.541C47.0215 268.619 47.4668 272.708 48.1543 276.751C51.5957 296.912 59.7559 315.396 68.5332 333.646C73.2832 343.521 78.416 353.212 81.8652 363.681C86.5254 377.822 90.7168 392.056 92.166 406.959C94.0254 426.068 91.4551 444.56 84.6387 462.49C84.4082 463.084 83.7715 463.677 84.3145 464.505C89.0137 462.806 116.104 448.552 117.35 447.849ZM43.7246 64.2905C32.209 85.189 25.4824 107.056 28.2832 131.201C28.8613 136.177 30.7598 140.654 33.1426 144.986C33.8066 146.197 34.5644 145.83 35.4668 145.435C40.8887 143.064 82.7207 121.876 99.0801 115.443C100.256 114.982 100.557 114.06 100.893 112.974C104.674 100.666 105.482 88.1069 104.432 75.3257C101.873 49.9663 92.8965 34.185 89.0605 26.6186C88.1465 25.4116 84.5801 21.4546 83.1582 22.3686C71.4863 29.8413 61.4629 39.0952 53.0019 50.0561C52.1543 51.1538 47.1621 58.0483 43.7246 64.2905ZM149.76 308.146C151.713 310.529 154.541 311.65 157.088 313.166C157.584 313.462 157.967 312.814 158.314 312.474C166.24 304.783 174.564 297.533 182.936 290.337C183.975 289.443 183.678 289.15 182.873 288.271C181.193 286.443 178.24 285.072 179.979 281.72C179.158 281.576 178.904 282.103 178.553 282.423C172.521 287.904 149.24 307.974 149.76 308.146ZM92.5254 274.294C81.1191 268.572 69.1699 264.384 56.7207 261.591C54.0449 260.994 51.4004 260.263 48.7363 259.623C47.9394 259.431 47.1582 259.294 47.0137 260.537C46.8926 261.58 47.4277 261.775 48.2519 261.833C48.6816 261.865 49.1035 261.986 49.5332 262.041C62.2988 263.654 74.3691 267.705 86.2676 272.423C88.7676 273.419 93.9004 276.322 94.3105 276.56C97.4707 278.384 100.643 280.189 103.783 282.044C108.166 284.634 122.506 293.56 124.51 295.06C127.635 297.404 149.143 313.966 157.381 319.013C167.721 325.345 178.682 330.525 189.818 335.31C196.791 338.306 203.861 341.001 211.439 342.048C211.881 342.107 212.529 342.634 212.693 341.857C212.83 341.201 212.096 341.173 211.631 341.08C208.381 340.404 205.244 339.322 202.053 338.431C187.67 334.423 174.49 327.83 161.947 319.873C148.35 311.251 135.51 301.525 122.271 292.38C121.139 291.599 93.1777 274.623 92.5254 274.294ZM277.912 452.642C278.947 451.115 278.885 448.892 279.361 447.017C279.486 446.529 279.693 445.927 279.17 445.642C278.522 445.291 271.951 444.755 269.397 445.209C266.256 445.767 263.416 447.232 260.455 448.33C256.443 449.814 248.779 443.169 248.014 442.931C247.611 442.806 247.408 443.228 247.369 443.607C247.018 447.209 246.1 450.681 245.107 454.142C244.877 454.947 246.971 456.177 250.814 458.642C255.744 460.529 260.748 460.263 265.588 458.513C268.932 457.306 276.881 454.169 277.912 452.642ZM263.025 330.58C271.268 315.24 277.479 298.931 285.58 283.529C286.182 282.38 286.795 281.24 287.455 280.126C287.701 279.712 288.072 279.181 288.654 279.576C289.1 279.876 288.834 280.38 288.658 280.755C287.436 283.373 286.209 285.986 284.955 288.587C283.639 291.318 281.963 293.923 281.025 296.779C278.811 303.505 275.826 309.904 273.127 316.423C266.662 332.033 259.807 347.482 254.064 363.384C249.049 377.291 246.174 391.584 246.225 406.427C246.229 408.474 246.857 409.365 248.861 410.056C265.654 415.837 282.381 421.826 299.162 427.634C304.553 429.498 310.201 430.662 315.475 432.779C320.732 434.892 322.123 434.962 322.213 441.263C322.225 442.185 322.279 442.689 323.471 442.673C332.088 442.572 340.619 441.705 349.08 440.087C349.502 440.005 349.908 439.806 350.33 439.751C350.971 439.666 351.568 438.724 352.236 439.533C352.811 440.232 352.002 440.626 351.764 441.173C351.522 441.74 331.936 447.08 321.15 447.134C321.229 445.88 319.627 448.084 319.455 448.849C318.826 451.677 318.135 454.494 316.924 457.126C316.143 458.826 316.725 459.033 318.299 458.916C323.205 458.552 328.037 457.646 332.897 456.955C340.674 455.841 348.147 453.744 355.217 450.287C355.568 450.115 355.971 449.615 356.338 450.123C356.826 450.787 356.221 451.162 355.787 451.525C351.432 455.162 346.775 458.126 340.951 458.873C333.084 459.888 325.283 461.556 317.283 461.041C316.338 460.978 316.018 461.521 315.639 462.134C314.693 463.673 313.557 465.126 312.838 466.763C310.463 472.15 305.994 473.716 300.588 474.232C295.678 474.701 263.744 473.302 255.08 473.037C244.877 472.716 204.682 469.341 203.521 468.103C203.154 467.712 202.928 468.029 202.65 468.251C195.85 473.634 188.311 477.427 179.689 478.892C175.834 479.548 172.193 480.998 168.416 481.955C160.139 484.048 151.658 485.009 143.264 486.455C126.307 489.373 109.17 489.896 92.0723 489.271C78.3809 488.771 64.7676 486.673 51.3613 483.626C49.9121 483.298 39.1074 476.384 37.6035 475.009C32.3105 470.169 29.6777 463.587 26.8144 457.275C18.209 438.314 11.998 418.544 8.90038 397.947C6.06054 379.052 6.26366 360.091 9.12694 341.154C10.6074 331.373 12.1113 321.599 14.1035 311.908C14.3613 310.654 14.0957 309.888 13.1309 309.119C9.36132 306.115 6.51366 302.259 3.68944 298.431C0.654287 294.314 0.396474 289.462 0.763662 284.583C0.947256 282.189 3.26757 281.759 4.84179 280.611C6.81835 279.166 8.00976 280.029 9.4121 281.47C12.1113 284.244 14.2637 287.373 16.1152 290.748C16.5918 291.611 16.8809 292.615 17.9004 293.392C18.9316 289.24 19.9941 285.228 20.9238 281.185C23.3848 270.494 24.7559 259.607 26.7598 248.834C30.209 230.294 31.6113 211.466 34.8887 192.904C36.8965 181.513 38.1816 170.033 37.3965 158.416C37.3105 157.162 37.0996 155.998 36.2715 154.994C27.2012 143.994 24.3301 131.037 25.1543 117.251C26.1738 100.205 30.3144 83.8022 38.4941 68.7476C43.9707 58.6733 50.5801 49.2319 58.2012 40.5991C65.7871 32.0132 74.1934 24.2515 83.7832 17.9741C95.7871 10.1225 108.787 4.45067 123.037 2.0327C135.9 -0.14699 148.787 -0.432146 161.553 2.57567C170.58 4.70457 179.209 7.94286 187.209 12.8061C195.877 18.0757 204.33 23.5796 211.033 31.3491C216.752 37.9819 221.025 45.4546 224.064 53.6655C226.377 59.9155 230.221 65.2007 235.576 69.0679C245.232 76.0405 255.994 81.021 267.197 84.9194C272.154 86.646 277.635 86.3452 282.701 87.8374C294.814 91.4077 305.861 96.7437 313.963 106.916C318.119 112.13 320.803 118.099 322.963 124.337C327.662 137.908 329.631 151.931 330.025 166.228C330.143 170.529 329.428 174.72 328.674 178.912C326.772 189.509 324.15 199.947 321.803 210.447C318.772 224.025 314.576 237.216 309.033 249.943C305.314 258.478 300.936 266.72 295.166 274.115C293.783 275.888 291.947 276.943 289.818 277.888C286.881 279.197 283.904 280.599 282.408 284.138C276.635 297.759 270.6 311.271 264.607 324.798C262.795 328.888 260.787 332.888 258.889 336.935C258.654 337.431 258.256 337.892 258.424 338.72C259.537 336.978 260.561 335.38 261.576 333.787C261.178 334.794 260.873 335.845 260.365 336.787C258.861 339.583 257.037 342.228 255.771 345.126C250.303 357.658 239.057 396.775 238.666 404.869C238.592 406.447 239.029 407.103 240.639 407.494C244.096 408.326 244.049 408.451 244.068 404.857C244.197 381.119 251.064 359.064 260.885 337.755C261.881 335.591 262.869 333.427 263.826 331.248C263.955 330.951 264.475 330.494 263.791 330.244C263.604 330.177 263.283 330.458 263.025 330.58Z" fill="#68686D"/>
</svg>
