<svg width="352" height="368" viewBox="0 0 352 368" fill="none" xmlns="http://www.w3.org/2000/svg">
<path d="M347.932 287.079L102.49 367.083C99.8809 367.931 97.0802 366.509 96.2325 363.9L9.79499 98.7162C8.94342 96.1068 10.3692 93.306 12.9747 92.4584L258.42 12.4545C261.025 11.6068 263.826 13.0287 264.678 15.6381L351.111 280.822C351.963 283.431 350.537 286.232 347.932 287.079Z" fill="#13102D"/>
<path d="M338.932 281.079L93.4903 361.083C90.8809 361.931 88.0802 360.509 87.2325 357.9L0.794987 92.7162C-0.0565763 90.1068 1.36921 87.306 3.97467 86.4584L249.42 6.45448C252.025 5.60683 254.826 7.0287 255.674 9.63808L342.111 274.822C342.963 277.431 341.537 280.232 338.932 281.079Z" fill="#68686D"/>
<path d="M338.932 281.079L93.4903 361.083C90.8809 361.931 88.0801 360.509 87.2325 357.9L0.794987 92.7162C-0.0565764 90.1068 1.36921 87.306 3.97467 86.4584L249.42 6.45448C252.025 5.60683 254.826 7.0287 255.674 9.63808L342.111 274.822C342.963 277.431 341.537 280.232 338.932 281.079Z" stroke="#13102D" stroke-width="0.666667" stroke-miterlimit="10"/>
<path d="M219.924 34.5913L225.354 14.3022L221.393 15.5913L219.127 35.064C219.533 35.1187 219.799 35.0015 219.924 34.5913Z" fill="#13102D"/>
<path d="M227.795 3.7828C227.717 1.67733 222.205 0.181237 215.49 0.43905C208.775 0.696862 203.396 2.61093 203.475 4.71639C203.545 6.48983 207.459 7.82577 212.697 8.05233L218.666 34.5601C218.748 35.2633 219.783 35.2203 219.803 34.5094L219.697 7.70468C224.467 7.00546 227.861 5.45468 227.795 3.7828Z" fill="#FF0000"/>
<path d="M212.697 8.05225L219.701 7.70459L219.705 9.0249C217.568 9.45068 215.326 9.51709 212.92 9.04443L212.697 8.05225Z" fill="#13102D"/>
</svg>
