<svg width="1281" height="250" viewBox="0 0 1281 250" fill="none" xmlns="http://www.w3.org/2000/svg">
<path d="M1661.37 248.017C1660.07 247.446 1658.76 246.888 1657.47 246.31C1644.03 240.345 1630.78 234.165 1617.13 228.458C1592.51 218.15 1567.81 207.919 1542.85 198.028C1513.26 186.302 1483.24 175.138 1451.79 166.052C1447.74 164.88 1445.25 165.349 1441.75 167.165C1430.61 172.95 1419.01 178.282 1407.58 183.782C1407.11 184.013 1406.54 184.15 1406.04 184.353C1401.74 186.071 1397.92 186.193 1393.52 183.927C1382.65 178.329 1371.27 173.232 1360.31 167.728C1338.21 156.634 1316.23 145.423 1294.24 134.224C1270.67 122.228 1247.1 110.232 1223.61 98.1573C1210.64 91.4933 1197.8 84.7081 1184.65 77.8175C1182.14 76.505 1179.09 76.8097 1176.9 78.6066C1176.12 79.2511 1175.33 79.8878 1174.5 80.5089C1165.78 87.1183 1157.02 93.712 1148.23 100.282C1144.75 102.884 1141.22 103.689 1136.38 101.431C1124.53 95.8956 1111.99 91.0753 1100.4 85.2902C1076.6 73.4152 1053.24 61.0948 1029.71 48.9464C1029.69 48.9425 1029.68 48.9347 1029.67 48.9269C1027.31 47.712 1024.49 47.8409 1022.32 49.3566C1021.31 50.0597 1020.33 50.7628 1019.38 51.4933C1004.56 62.9152 989.861 74.4152 974.963 85.7862C960.396 96.9034 945.811 108.017 930.916 118.907C918.986 127.63 906.631 136.06 894.342 144.528C891.795 146.282 888.682 147.614 885.861 149.169C883.963 150.216 882.088 150.255 879.955 149.466C867.795 144.974 855.561 140.583 843.455 136.017C841.17 135.157 839.822 135.025 837.752 136.368C821.744 146.743 805.588 156.997 789.502 167.31C789.115 167.556 788.729 167.806 788.342 168.052C786.158 169.458 783.377 169.556 781.107 168.29C776.15 165.521 771.252 162.7 766.521 159.743C746.037 146.958 725.982 133.818 705.732 120.841C689.646 110.528 673.486 100.275 657.482 89.8995C655.408 88.5597 654.061 88.6886 651.775 89.5519C639.67 94.1144 627.436 98.5089 615.275 102.997C613.143 103.786 611.268 103.747 609.369 102.7C606.549 101.146 603.436 99.8136 600.889 98.0597C588.6 89.5909 576.244 81.1612 564.314 72.4386C549.42 61.548 534.834 50.4347 520.268 39.3175C505.373 27.9464 490.67 16.4464 475.854 5.02452C474.904 4.29406 473.92 3.59093 472.916 2.89171C470.744 1.37609 467.916 1.24327 465.564 2.46202C465.553 2.46593 465.541 2.47374 465.525 2.47765C441.994 14.6261 418.631 26.9425 394.834 38.8214C383.24 44.6066 370.705 49.4308 358.846 54.962C354.01 57.2198 350.479 56.4152 347.002 53.8136C338.213 47.2433 329.459 40.6495 320.729 34.0402C319.908 33.4191 319.111 32.7784 318.326 32.1378C316.143 30.3448 313.092 30.0362 310.588 31.3487C297.428 38.2394 284.588 45.0245 271.623 51.6886C248.135 63.7628 224.564 75.7589 200.998 87.755C179.002 98.9542 157.025 110.169 134.928 121.259C123.959 126.767 112.588 131.86 101.713 137.458C97.3066 139.724 93.4902 139.603 89.1934 137.884C88.6895 137.681 88.127 137.544 87.6504 137.314C76.2207 131.814 64.6191 126.482 53.4824 120.696C49.9863 118.88 47.4863 118.415 43.4395 119.583C11.9902 128.669 -18.0254 139.833 -47.6191 151.56C-72.5801 161.45 -97.2793 171.681 -121.904 181.989C-135.545 187.696 -148.803 193.876 -162.232 199.845" stroke="#68686D" stroke-width="2.66667" stroke-miterlimit="10"/>
</svg>
