<svg width="473" height="258" viewBox="0 0 473 258" fill="none" xmlns="http://www.w3.org/2000/svg">
<path d="M297.738 133.527L341.27 90H222L300.891 116.328C302.043 116.715 302.961 117.594 303.391 118.727C303.781 119.758 303.734 120.902 303.262 121.898L297.738 133.527Z" fill="#13102D"/>
<path d="M429.654 4.32165C417.307 4.48181 405.154 5.61462 393.08 7.25524C378.904 9.18102 364.998 11.6654 351.588 15.2435C334.592 19.7748 318.271 25.0756 304.131 32.8373C298.572 35.8842 293.604 39.2513 290.568 43.642C287.666 47.8412 289.041 51.6537 294.689 54.4388C300.42 57.2709 307.264 58.0052 314.158 58.4701C327.447 59.3607 340.58 58.3021 353.588 56.681C369.482 54.6967 384.979 51.7748 399.865 47.599C414.9 43.3842 429.494 38.6342 442.791 32.3646C448.818 29.5209 454.486 26.4115 458.623 22.3216C461.639 19.3412 463.217 16.1302 461.193 12.6029C459.225 9.16931 454.982 7.28259 449.877 6.11462C443.334 4.62243 436.537 4.25915 429.654 4.32165ZM278.553 46.5717C275.627 45.6302 256.119 41.4232 244.377 39.9388C223.533 37.306 202.49 36.474 181.35 37.2826C170.381 37.7006 159.408 38.517 148.564 39.6654C134.189 41.1849 120.15 43.681 107.225 48.1927C102.787 49.7435 98.5176 51.6146 94.6582 53.7162C87.9121 57.3842 83.6426 65.2318 86.0254 70.9974C87.248 74.681 90.5371 76.4193 92.9511 77.681C92.2676 77.517 91.1894 80.9779 90.623 80.7435C78.1621 75.5873 81.4902 63.7865 85.2871 58.724C88.2871 54.4349 93.4902 51.4779 99.3965 48.974C109.041 44.8842 119.721 42.349 130.752 40.3568C140.998 38.5052 151.443 37.3529 161.982 36.4545C177.877 35.099 193.842 34.8724 209.791 35.392C231.264 36.0912 252.436 38.142 272.713 43.0795C275.455 43.7474 278.166 44.4779 280.818 45.2787C282.1 45.6693 282.955 45.5404 283.607 44.7982C285.592 42.5365 287.49 40.2396 289.525 37.9935C290.127 37.3295 290.904 36.6381 291.869 36.2162C295.717 34.5326 299.252 32.7396 301.986 30.1927C303.318 28.9545 306.131 28.3998 308.221 27.4896C310.631 26.431 313.209 25.4779 315.311 24.1967C317.752 22.7084 320.564 21.7904 323.521 20.8802C327.268 19.7318 330.799 18.2982 334.486 17.0599C337.295 16.1185 340.17 15.2513 343.068 14.4232C346.986 13.2982 350.936 12.2201 354.9 11.1693C357.951 10.3607 361.018 9.56774 364.131 8.86852C368.482 7.88806 372.936 7.09118 377.252 6.05212C380.186 5.34899 383.002 4.54431 386.217 4.46227C391.561 4.32556 396.514 3.07946 401.553 2.05993C403.381 1.68884 405.373 1.42712 407.271 1.47009C412.225 1.57946 416.959 0.977897 421.744 0.263054C423.939 -0.0650717 426.361 0.23571 428.682 0.263054C431.197 0.290397 433.752 0.524773 436.221 0.321648C439.881 0.020867 443.283 -0.193977 446.807 1.02477C448.529 1.62243 450.998 1.45055 453.115 1.39587C455.701 1.32946 457.822 1.54821 459.143 3.2279C459.486 3.6654 460.533 3.93884 461.342 4.13415C462.248 4.35681 463.252 4.39977 464.209 4.52477C467.115 4.90368 467.213 4.90368 467.264 6.79431C467.295 7.95837 468.588 8.24743 469.768 8.65368C472.275 9.52477 472.459 9.62243 471.061 11.2279C470.002 12.4427 470.002 13.431 471.475 14.4154C472.479 15.0912 472.201 15.6654 471.272 16.2631C470.537 16.7357 469.939 17.3021 469.201 17.7787C467.873 18.6341 467.154 19.6107 467.424 20.8451C467.627 21.7787 467.033 22.4662 465.85 22.9935C462.494 24.4896 459.373 26.1029 457.99 28.7592C457.756 29.2084 456.904 29.5873 456.209 29.8646C451.693 31.6342 447.213 33.3763 443.904 36.1888C442.896 37.0482 440.893 37.474 439.244 37.9506C435.24 39.1107 431.615 40.6068 428.107 42.3334C425.576 43.5756 422.412 44.2826 419.521 45.2123C416.033 46.3334 412.389 47.2865 409.076 48.5951C405.9 49.849 402.486 50.5365 399.014 51.2592C395.064 52.0873 391.256 53.1849 387.35 54.1107C384.439 54.7982 381.541 55.6498 378.521 55.9779C373.33 56.5404 368.447 57.6302 363.549 58.7982C361.443 59.3021 359.15 59.7162 356.932 59.7318C351.963 59.767 347.291 60.5638 342.58 61.4388C340.561 61.8099 338.326 62.017 336.252 61.8842C331.771 61.5873 327.404 61.8646 323.08 62.5287C320.639 62.9037 318.373 62.7709 315.99 62.3177C313.834 61.9037 311.545 61.7904 309.314 61.5443C307.471 61.3412 306.764 61.7748 306.861 63.0482C309.975 73.2084 303.963 79.1381 298.779 81.6576C298.99 81.0795 299.498 77.4037 299.588 77.1654C302.193 75.1888 302.725 74.9584 304.432 70.9037C305.424 68.4193 305.287 64.5912 303.9 62.5795C302.51 60.5677 281.479 47.5131 278.553 46.5717Z" fill="#68686D"/>
<path d="M292.412 126.552C294.455 125.826 294.701 124.884 294.697 123.822C294.678 110.744 294.682 97.6694 294.678 84.5913C294.678 84.2983 294.697 83.9976 294.623 83.7085C294.432 82.9507 293.619 82.8491 293.045 83.3765C292.498 83.8726 292.158 84.5835 292.154 85.2007C292.107 98.4468 292.119 111.689 292.131 124.935C292.131 125.412 292.291 125.884 292.412 126.552ZM117.553 90.6069C117.561 89.6733 117.107 89.1812 115.705 88.8218C112.139 87.9038 108.639 86.8726 105.143 85.8452C102.764 85.146 102.443 85.2358 102.439 86.9116C102.416 100.501 102.416 114.095 102.357 127.685C102.354 128.779 102.877 129.607 104.275 130.134C107.365 131.294 110.428 132.494 113.643 133.49C116.357 134.326 116.818 134.072 116.826 132.138C116.854 125.302 117.514 97.6147 117.553 90.6069ZM300.1 77.8921C300.154 78.6538 299.975 78.6616 299.975 79.2319C299.982 92.1069 299.736 104.99 300.096 117.861C300.252 123.423 296.568 127.384 290.342 130.701C281.842 135.236 271.873 137.919 261.529 140.08C250.463 142.388 239.107 143.798 227.588 144.814C211.951 146.197 196.256 146.314 180.564 145.857C163.865 145.373 147.381 143.736 131.342 140.58C121.084 138.56 111.17 135.994 102.439 131.837C97.9238 129.685 93.8457 127.224 91.8613 123.74C91.002 122.232 90.5684 120.537 90.5566 118.927C90.4981 105.505 90.5801 92.0796 90.6309 78.6538C90.6309 78.2866 90.7363 77.9194 90.834 77.2866C92.2754 77.9819 93.4356 78.5522 94.6152 79.1069C103.596 83.3062 113.639 86.0835 124.131 88.2124C141.385 91.7124 159.088 93.6108 177.131 94.103C186.697 94.3647 196.287 94.646 205.846 94.4468C214.873 94.2554 223.881 93.4976 232.881 92.8921C243.342 92.189 253.701 91.1733 263.768 89.228C289.092 84.0483 299.377 78.1694 300.1 77.8921Z" fill="#FF0000"/>
<path d="M303.486 121.501C304.572 123.884 304.717 126.232 303.393 128.537C301.119 132.494 296.721 135.349 291.611 137.775C282.943 141.892 273.162 144.533 262.975 146.595C246.529 149.927 229.643 151.626 212.475 152.294C197.217 152.888 181.971 152.802 166.787 151.716C148.459 150.404 130.482 148.068 113.514 143.177C106.338 141.107 99.5137 138.63 93.8809 135.009C88.959 131.845 85.5059 128.208 86.0918 123.466C86.1738 122.81 86.4473 122.166 87.0762 121.49C87.3731 122.142 87.6387 122.794 87.9629 123.439C90.1074 127.681 94.6426 130.728 99.9668 133.337C109.471 137.99 120.35 140.794 131.67 142.923C153.057 146.939 174.951 148.404 197.162 148.33C212.592 148.279 227.881 147.388 243.006 145.443C256.408 143.716 269.459 141.259 281.572 137.044C288.283 134.708 294.58 131.958 299.014 127.861C303.053 124.228 303.283 121.841 303.486 121.501Z" fill="#13102D"/>
<path d="M426.322 5.61063C421.588 5.85282 416.846 6.05594 412.115 6.34891C400.225 7.07938 388.592 8.72391 377.045 10.6302C366.229 12.4153 355.772 14.8802 345.572 17.802C330.744 22.0481 316.529 26.9739 304.197 33.8958C298.697 36.9856 293.717 40.3684 291.272 44.9661C289.432 48.4192 290.869 51.5052 295.354 53.7435C298.9 55.513 303.064 56.4036 307.357 56.9427C319.404 58.4622 331.498 57.9778 343.533 56.8997C355.221 55.8528 366.666 54.0481 377.975 51.8684C389.365 49.6731 400.291 46.7122 410.951 43.3372C423.084 39.4934 434.893 35.2903 445.369 29.6966C450.42 27.0013 455.076 24.0677 457.967 20.1575C460.912 16.1809 459.854 12.4817 454.768 9.97782C453.029 9.12235 451.025 8.42704 448.998 7.89188C441.736 5.9661 434.057 5.73954 426.322 5.61063ZM429.654 4.32157C436.537 4.25907 443.334 4.62235 449.873 6.11454C454.982 7.2825 459.225 9.16922 461.193 12.6028C463.217 16.1302 461.639 19.3411 458.623 22.3216C454.482 26.4114 448.818 29.5208 442.791 32.3645C429.494 38.6341 414.9 43.3841 399.865 47.5989C384.979 51.7747 369.482 54.6966 353.588 56.681C340.58 58.302 327.447 59.3606 314.158 58.47C307.264 58.0052 300.42 57.2708 294.689 54.4388C289.041 51.6536 287.666 47.8411 290.568 43.6419C293.604 39.2513 298.572 35.8841 304.131 32.8372C318.272 25.0755 334.592 19.7747 351.588 15.2434C364.998 11.6653 378.904 9.18094 393.08 7.25516C405.154 5.61454 417.307 4.48172 429.654 4.32157ZM116.826 132.138C116.822 134.072 116.357 134.325 113.643 133.486C110.428 132.493 107.365 131.294 104.275 130.134C102.877 129.607 102.354 128.779 102.357 127.685C102.416 114.095 102.416 100.501 102.439 86.9114C102.443 85.2356 102.764 85.1458 105.143 85.845C108.639 86.8724 112.139 87.9036 115.705 88.8216C117.107 89.1809 117.561 89.6731 117.557 90.6067C117.514 97.6145 116.854 125.302 116.826 132.138ZM292.412 126.552C292.291 125.884 292.131 125.411 292.131 124.935C292.119 111.689 292.107 98.4466 292.154 85.2005C292.158 84.5833 292.498 83.8724 293.045 83.3763C293.619 82.8489 294.432 82.9505 294.623 83.7083C294.697 83.9974 294.678 84.2981 294.678 84.5911C294.682 97.6692 294.678 110.743 294.697 123.822C294.701 124.884 294.455 125.825 292.412 126.552Z" fill="white"/>
<path d="M426.322 5.61084C434.057 5.73975 441.736 5.96631 448.998 7.89209C451.025 8.42725 453.029 9.12256 454.768 9.97803C459.854 12.4819 460.912 16.1812 457.967 20.1577C455.076 24.0679 450.42 27.0015 445.369 29.6968C434.893 35.2905 423.084 39.4937 410.951 43.3374C400.291 46.7124 389.365 49.6733 377.975 51.8687C366.666 54.0483 355.221 55.853 343.533 56.8999C331.498 57.978 319.404 58.4624 307.357 56.9429C303.064 56.4038 298.9 55.5132 295.354 53.7437C290.869 51.5054 289.432 48.4194 291.271 44.9663C293.717 40.3687 298.697 36.9858 304.197 33.896C316.529 26.9741 330.744 22.0483 345.572 17.8022C355.771 14.8804 366.229 12.4155 377.045 10.6304C388.592 8.72412 400.225 7.07959 412.115 6.34912C416.846 6.05615 421.588 5.85303 426.322 5.61084ZM195.584 97.3257C152.932 97.3257 109.564 91.8335 88.5918 79.6187L89.6504 75.9155C108.873 87.1147 152.299 93.9155 201.451 93.2515C247.775 92.6343 287.822 86.0796 300.381 76.5562L302.455 79.2905C287.467 90.6616 241.877 97.3257 195.584 97.3257Z" fill="#68686D"/>
<path d="M7.44733 244.064C9.35358 248.556 11.4669 252.599 14.1895 255.298C16.0255 257.115 18.7481 257.697 21.1544 256.771L67.088 240.673L7.44733 244.064ZM179.506 205.185L201.6 205.951L189.522 214.666L46.713 239.892L179.506 205.185Z" fill="#13102D"/>
<path d="M190.576 187.564C190.365 187.411 190.178 187.251 190.037 187.091C189.127 186.021 184.889 182.884 183.787 182.4C183.018 182.064 182.08 181.767 181.291 181.9C177.979 182.45 12.6582 212.997 9.84182 213.446C3.88479 214.4 -0.271462 219.583 0.291038 225.579C0.669944 229.63 4.7676 245.595 7.81057 248.575C10.5176 251.236 13.9434 252.146 17.709 251.259C22.291 250.181 183.627 215.814 189.522 214.665C191.498 214.282 192.9 212.505 192.791 210.505C192.736 209.54 192.705 208.571 192.643 207.607C192.607 207.056 192.721 206.653 193.037 206.388C193.432 200.173 192.225 190.935 190.576 187.564Z" fill="#FF0000"/>
<path d="M225.287 195.525C224.322 197.201 222.182 197.771 220.51 196.806C218.838 195.841 218.264 193.701 219.229 192.029C220.193 190.357 222.334 189.783 224.006 190.747C225.682 191.716 226.252 193.853 225.287 195.525ZM204.869 199.763C203.904 201.439 201.764 202.009 200.092 201.044C198.42 200.079 197.846 197.939 198.811 196.267C199.775 194.595 201.916 194.021 203.588 194.986C205.264 195.951 205.834 198.091 204.869 199.763ZM192.541 189.99C202.189 188.259 211.678 186.552 221.174 184.869C221.752 184.767 222.373 184.888 223.334 184.915C220.596 186.165 193.686 190.619 192.541 189.99ZM272.854 199.9C266.756 200.869 260.67 201.915 254.564 202.853C248.67 203.759 242.756 204.537 236.857 205.439C235.893 205.583 235.639 205.247 235.619 204.423C235.588 203.037 235.502 201.65 235.553 200.271C235.564 200.005 236.08 199.579 236.404 199.537C240.986 198.947 245.58 198.415 250.17 197.861C250.877 197.775 251.58 197.634 252.283 197.537C254.455 197.24 254.646 197.052 254.564 194.794C254.471 192.306 254.326 183.63 254.174 180.583C254.127 179.642 253.291 178.943 252.357 179.056C249.314 179.419 222.721 182.451 221.896 182.525C221.568 182.556 221.15 182.369 220.885 182.15C218.611 180.302 217.729 177.74 218.408 175.064C218.869 173.255 220.131 171.517 221.412 170.087C223.064 168.247 225.443 167.99 227.83 168.275C228.314 168.333 228.768 168.615 229.252 168.755C230.205 169.029 231.182 168.982 231.732 168.099C232.291 167.201 232.127 166.31 231.279 165.501C226.045 160.497 217.674 159.701 211.643 163.388C209.553 164.622 205.99 170.251 204.35 174.302C203.557 176.263 203.307 178.439 202.701 180.486C201.846 183.376 199.779 185.326 197.295 186.826C196.197 187.486 194.936 187.884 193.729 188.357C192.846 188.701 191.463 188.212 190.576 187.564C192.225 190.935 193.432 200.173 193.037 206.388C193.229 206.22 193.502 206.107 193.861 206.037C197.779 205.302 222.514 201.216 224.252 200.954C224.447 200.923 224.662 200.997 224.869 201.025C224.873 201.122 224.877 201.216 224.877 201.314C222.525 201.658 213.654 203.29 211.561 203.732C208.439 204.392 205.311 205.021 202.186 205.673C202.033 205.704 201.9 205.806 201.596 205.951C202.131 206.388 202.639 206.681 202.99 207.107C204.268 208.642 205.709 210.099 206.697 211.81C208.385 214.728 210.686 217.037 213.35 218.939C220.139 223.79 227.807 225.521 235.967 224.095C242.963 222.869 249.553 220.326 255.74 216.72C261.713 213.24 266.889 208.822 271.779 204.017C272.553 203.259 273.279 202.435 273.908 201.556C274.178 201.177 274.143 200.583 274.248 200.087C273.783 200.021 273.299 199.829 272.854 199.9Z" fill="#13102D"/>
<path d="M221.17 184.868C211.678 186.552 202.19 188.259 192.541 189.993C193.686 190.618 220.596 186.165 223.334 184.915C222.373 184.888 221.752 184.767 221.17 184.868ZM181.342 183.704C171.986 185.364 23.9278 213.794 10.4043 216.279C10.2051 216.318 11.1231 216.646 10.9825 216.669C12.127 217.298 181.26 185.841 183.998 184.591C182.955 184.302 181.924 183.603 181.342 183.704ZM203.588 194.986C201.916 194.021 199.775 194.591 198.811 196.267C197.846 197.939 198.42 200.079 200.092 201.044C201.764 202.009 203.904 201.435 204.869 199.763C205.834 198.091 205.264 195.95 203.588 194.986ZM224.006 190.747C222.334 189.782 220.193 190.357 219.229 192.029C218.264 193.7 218.838 195.841 220.51 196.806C222.182 197.771 224.322 197.2 225.287 195.525C226.252 193.853 225.682 191.712 224.006 190.747Z" fill="white"/>
</svg>
