<svg width="684" height="596" viewBox="0 0 684 596" fill="none" xmlns="http://www.w3.org/2000/svg">
<path d="M136 510.568H269.635C273.717 510.568 277.037 507.271 277.064 503.189L276.498 432.744C276.533 427.439 280.842 423.158 286.143 423.158H338" stroke="#FF0000" stroke-width="1.33333" stroke-miterlimit="10" stroke-linecap="square" stroke-dasharray="17.33 17.33"/>
<path d="M81.916 256.275H209.607C218.986 256.275 226.584 263.876 226.584 273.255V464.083C226.584 476.998 237.057 487.466 249.971 487.466H669.193" stroke="#FF0000" stroke-width="1.33333" stroke-miterlimit="10" stroke-linecap="square" stroke-dasharray="17.33 17.33"/>
<path d="M1.47461 595.291H292.5" stroke="#FF0000" stroke-width="1.33333" stroke-miterlimit="10" stroke-linecap="square" stroke-dasharray="17.33 17.33"/>
<path d="M38.6387 0.696777H649.463" stroke="#FF0000" stroke-width="1.33333" stroke-miterlimit="10" stroke-linecap="square" stroke-dasharray="17.33 17.33"/>
<path d="M68.2871 342.13H179.037C188.541 342.13 196.232 334.404 196.197 324.904L195.33 100.076C195.291 90.7944 202.807 83.2476 212.088 83.2476H291" stroke="#FF0000" stroke-width="1.33333" stroke-miterlimit="10" stroke-linecap="square" stroke-dasharray="17.33 17.33"/>
<path d="M8 171.369H601.201C612.686 171.369 621.998 180.677 621.998 192.162V285.994C621.998 299.47 632.92 310.392 646.393 310.392" stroke="#FF0000" stroke-width="1.33333" stroke-miterlimit="10" stroke-linecap="square" stroke-dasharray="17.33 17.33"/>
<path d="M19.5 424.533H243.939C255.549 424.533 264.959 415.123 264.959 403.514V259.963" stroke="#FF0000" stroke-width="1.33333" stroke-miterlimit="10" stroke-linecap="square" stroke-dasharray="17.33 17.33"/>
<path d="M137.697 85.6069C144.35 85.6069 149.744 91.0015 149.744 97.6577V140.544C149.744 148.185 155.939 154.373 163.576 154.373H682.482" stroke="#FF0000" stroke-width="1.33333" stroke-miterlimit="10" stroke-linecap="square" stroke-dasharray="17.33 17.33"/>
<path d="M269 248H281V249.5H269V248Z" fill="#FF0000"/>
</svg>
