<svg width="312" height="125" viewBox="0 0 312 125" fill="none" xmlns="http://www.w3.org/2000/svg">
<path d="M0 64.0071C0 64.0071 10.206 63.9954 14.8051 64.013C16.4118 64.0189 17.9931 64.2398 19.4922 64.8536C22.1636 65.9443 23.6705 68.0281 24.2459 70.759C24.5649 72.2759 24.7508 73.8495 24.7567 75.3996C24.7978 87.7362 24.7821 100.075 24.7762 112.411C24.7762 114.638 24.5257 116.829 23.649 118.907C22.3651 121.953 19.9834 123.552 16.7836 124.005C15.7875 124.146 14.7698 124.177 13.762 124.181C9.3449 124.199 0.039141 124.189 0.039141 124.189L0 64.0091L0 64.0071ZM0.039141 60.8639C0.039141 39.5646 0.039141 17.0944 0.039141 0.771936L9.62867 0.783664V24.7727H15.7934V0.830579H24.97V60.8795H15.8169V34.5232H9.66977V60.8912H0.465777M43.1001 0.144451C44.0042 0.271512 45.5033 0.668332 46.5856 1.07297C49.255 2.06796 50.6934 4.13611 51.214 6.84935C51.443 8.03981 51.5428 9.26937 51.5623 10.4833C51.6093 13.607 51.578 16.7327 51.578 19.8584C51.578 20.05 51.578 20.2435 51.578 20.48H42.7263C42.7165 20.2552 42.7008 20.0637 42.6989 19.8741C42.6989 17.1882 42.6989 14.5023 42.6969 11.8164C42.6969 11.5232 42.695 11.23 42.6754 10.9388C42.5403 8.90773 41.3191 7.98899 39.3249 8.40731C38.3347 8.61647 37.7495 9.45703 37.5851 10.7921C37.0508 15.1024 37.998 18.9436 40.8221 22.3625C43.4836 25.5859 45.9534 28.9696 48.4937 32.2908C51.259 35.9072 52.5389 40.0239 52.4587 44.5434C52.4136 47.0748 52.4058 49.6356 52.0164 52.126C51.4214 55.928 49.6014 59.04 45.8458 60.6039C44.8379 61.0242 43.7302 61.3369 42.646 61.4288C39.8201 61.6653 36.9765 61.81 34.217 60.903C30.8098 59.7829 28.8117 57.3785 28.0699 53.942C27.794 52.6655 27.6805 51.3323 27.6609 50.0226C27.6081 46.2636 27.6413 42.5026 27.6433 38.7436C27.6433 38.552 27.6687 38.3624 27.6844 38.1298H36.7318C36.7436 38.3233 36.7671 38.5129 36.7671 38.7045C36.769 42.0256 36.7514 45.3449 36.7808 48.666C36.7866 49.3893 36.8806 50.1321 37.0704 50.83C37.4364 52.1807 38.3797 52.8219 39.7907 52.8102C41.1469 52.7984 42.0981 52.1827 42.3446 50.787C42.9239 47.4951 43.0707 44.1739 41.965 40.9525C41.2976 39.0074 39.9453 37.4378 38.6987 35.829C36.4383 32.9066 34.1153 30.0291 31.9292 27.054C29.3205 23.5021 28.1365 19.444 28.1756 15.0594C28.1971 12.7411 28.1815 10.3895 28.5553 8.11409C29.2872 3.67088 32.4068 0.918544 36.9236 0.361432C36.9236 0.361432 38.7495 0.0760337 39.8827 0.0212998C41.0158 -0.0334341 42.1939 0.0173902 43.0981 0.146406L43.1001 0.144451ZM9.67564 72.2876V115.342C10.6894 115.342 11.666 115.398 12.6327 115.328C13.9087 115.234 14.7542 114.511 15.0419 113.26C15.2219 112.474 15.3296 111.653 15.3296 110.848C15.3472 99.4864 15.3433 88.1252 15.3354 76.764C15.3354 76.1307 15.2826 75.4934 15.1945 74.8679C14.9753 73.3354 14.2845 72.4577 12.9948 72.313C11.9204 72.1918 10.8225 72.2876 9.67564 72.2876Z" fill="#13102D"/>
<path d="M98.2555 125C97.4982 124.757 96.7056 124.593 95.9912 124.257C93.1907 122.939 91.7151 120.559 91.0497 117.666C90.7307 116.283 90.5878 114.833 90.5839 113.414C90.5487 101.142 90.5565 88.8716 90.5702 76.5995C90.5741 73.9957 90.8677 71.431 92.0067 69.0403C93.4882 65.9303 95.9815 64.126 99.3652 63.6666C102.199 63.2815 105.056 63.2346 107.861 63.9618C111.059 64.7906 113.092 66.8744 113.838 70.0314C114.288 71.9295 114.462 73.9116 114.568 75.8664C114.689 78.089 114.597 80.3253 114.593 82.5537C114.593 82.7121 114.568 82.8704 114.552 83.0737H105.643C105.643 82.8391 105.643 82.6495 105.643 82.4599C105.643 80.3448 105.655 78.2278 105.636 76.1127C105.63 75.5302 105.569 74.9418 105.463 74.3691C105.211 73.0007 104.365 72.297 102.956 72.2208C101.606 72.1465 100.584 72.8189 100.25 74.1247C100.054 74.889 99.9406 75.6964 99.9386 76.4841C99.919 88.0721 99.921 99.66 99.9386 111.248C99.9386 111.989 100.038 112.745 100.215 113.465C100.579 114.946 101.579 115.732 102.945 115.726C104.573 115.721 105.737 114.856 106.107 113.347C106.211 112.923 106.287 112.481 106.287 112.047C106.299 107.133 106.295 102.217 106.295 97.3025C106.295 97.1911 106.279 97.0777 106.262 96.8725H102.205V87.642H114.957V124.144H109.79C109.303 122.291 108.818 120.437 108.346 118.641C107.546 119.773 106.843 120.922 105.986 121.945C104.733 123.438 103.15 124.474 101.201 124.871C101.093 124.892 100.992 124.957 100.888 125H98.2458H98.2555Z" fill="#13102D"/>
<path d="M142.604 64.0483V124.148H135.132C132.287 112.9 129.439 101.645 126.592 90.389C126.545 90.3949 126.498 90.4007 126.451 90.4066V124.14H118.167V64.0503H126.441C129.001 74.5553 131.559 85.0485 134.116 95.5418C134.162 95.5359 134.205 95.532 134.25 95.5262V64.0483H142.602H142.604Z" fill="#13102D"/>
<path d="M214.78 0.812988H223.154V60.8814H215.673C212.817 49.5965 209.96 38.3057 207.103 27.0149C207.06 27.0207 207.017 27.0266 206.973 27.0325V60.8756H198.717V0.818853H206.989C209.551 11.3278 212.111 21.8249 214.669 32.3221C214.706 32.3182 214.743 32.3162 214.778 32.3123V0.812988H214.78Z" fill="#13102D"/>
<path d="M226.55 60.8832V0.834256C226.763 0.812753 226.967 0.775612 227.17 0.775612C231.783 0.771703 236.398 0.765839 241.01 0.775612C242.719 0.779522 244.392 1.03364 245.956 1.76278C249.005 3.1839 250.205 5.83849 250.643 8.94464C250.811 10.1488 250.858 11.3764 250.86 12.5942C250.876 24.8175 250.872 37.0407 250.866 49.262C250.866 51.641 250.58 53.973 249.526 56.1467C248.242 58.7896 246.06 60.2283 243.218 60.6955C242.194 60.8636 241.144 60.9144 240.104 60.9203C235.816 60.9438 231.529 60.9301 227.243 60.9281C227.021 60.9281 226.8 60.9008 226.552 60.8851L226.55 60.8832ZM235.75 52.0691C236.834 52.0691 237.863 52.1433 238.877 52.0495C240.093 51.9381 240.875 51.1914 241.144 50.0087C241.312 49.2698 241.425 48.4996 241.425 47.7431C241.443 36.2705 241.441 24.7979 241.429 13.3234C241.429 12.692 241.369 12.0527 241.255 11.4311C241.097 10.5671 240.801 9.72851 239.932 9.31996C238.588 8.68661 237.161 9.06388 235.75 8.95442V52.0671V52.0691Z" fill="#13102D"/>
<path d="M121.769 60.8777H112.593V0.817097C112.808 0.801459 113.014 0.776046 113.219 0.776046C118.061 0.774092 122.903 0.770182 127.742 0.776046C129.269 0.776046 130.77 0.96566 132.189 1.56187C134.878 2.68782 136.027 4.90454 136.385 7.6256C136.52 8.65381 136.555 9.70158 136.559 10.7396C136.573 14.3031 136.586 17.8667 136.535 21.4303C136.508 23.2971 136.093 25.1033 134.882 26.5889C134.308 27.2926 133.553 27.8498 132.86 28.4909C132.864 28.4929 132.929 28.5574 133.007 28.5945C135.4 29.7674 136.481 31.7867 136.532 34.3475C136.602 37.9755 136.565 41.6056 136.567 45.2336C136.571 48.8304 136.575 52.4272 136.565 56.024C136.561 57.4882 136.735 58.9112 137.346 60.26C137.422 60.4262 137.422 60.6275 137.469 60.8758C137.207 60.8973 137.003 60.9305 136.802 60.9305C134.177 60.9344 131.553 60.9168 128.928 60.9462C128.402 60.952 128.091 60.7546 128.018 60.2874C127.801 58.8819 127.478 57.4706 127.465 56.0573C127.404 49.972 127.441 43.8848 127.435 37.7976C127.435 37.2953 127.402 36.787 127.337 36.2886C127.189 35.1352 126.664 34.4511 125.533 34.281C124.321 34.0972 123.079 34.1129 121.773 34.0366V60.8817L121.769 60.8777ZM121.781 25.4121C122.899 25.4121 123.965 25.5021 125.008 25.3887C126.179 25.2616 126.881 24.4699 127.179 23.3499C127.294 22.912 127.388 22.4546 127.394 22.005C127.425 19.4657 127.435 16.9284 127.431 14.3891C127.431 13.3805 127.419 12.3699 127.333 11.367C127.257 10.4718 126.899 9.67225 125.997 9.3028C124.639 8.74569 123.216 9.03304 121.779 8.97049V25.4121H121.781Z" fill="#13102D"/>
<path d="M232.337 124.146H223.219V97.8094H217.001V124.146H207.833V64.0503H216.974V88.0491H223.164V64.0601H232.339V124.148L232.337 124.146Z" fill="#13102D"/>
<path d="M260.53 94.0443C260.53 100.196 260.559 106.348 260.514 112.497C260.499 114.62 260.107 116.706 259.307 118.69C257.984 121.97 255.561 123.966 252.093 124.601C249.214 125.129 246.306 125.157 243.455 124.441C239.441 123.432 237.122 120.68 236.225 116.78C235.773 114.816 235.541 112.761 235.529 110.746C235.464 99.5998 235.497 88.4517 235.497 77.3036C235.497 74.8659 235.724 72.4577 236.572 70.151C237.883 66.5835 240.416 64.3766 244.163 63.7393C247.069 63.2448 250.009 63.2213 252.9 63.9407C256.698 64.8868 258.961 67.4241 259.831 71.1206C260.285 73.05 260.501 75.0712 260.532 77.0553C260.622 82.7163 260.563 88.3813 260.563 94.0443C260.552 94.0443 260.54 94.0443 260.528 94.0443H260.53ZM251.179 94.142C251.179 94.142 251.193 94.142 251.201 94.142C251.201 88.3989 251.209 82.6557 251.191 76.9106C251.189 76.1522 251.117 75.3801 250.97 74.6353C250.665 73.0949 249.641 72.2524 248.154 72.2153C246.57 72.1742 245.496 72.919 245.136 74.4359C244.954 75.2022 244.878 76.0134 244.878 76.8031C244.862 88.3227 244.854 99.8422 244.889 111.362C244.893 112.363 245.095 113.406 245.429 114.351C245.844 115.521 246.981 116.045 248.383 115.961C249.606 115.887 250.447 115.263 250.809 114.106C251.011 113.463 251.162 112.773 251.166 112.103C251.193 106.115 251.181 100.128 251.181 94.1401L251.179 94.142Z" fill="#13102D"/>
<path d="M288.5 94.0052C288.5 99.9282 288.514 105.853 288.492 111.776C288.485 113.95 288.185 116.092 287.457 118.155C286.199 121.724 283.719 123.941 279.981 124.615C277.12 125.131 274.225 125.157 271.39 124.441C267.397 123.434 265.082 120.7 264.178 116.819C263.724 114.872 263.489 112.834 263.477 110.834C263.413 99.6213 263.446 88.4087 263.446 77.196C263.446 74.7897 263.683 72.4166 264.519 70.1412C265.832 66.5738 268.368 64.3707 272.116 63.7374C275.022 63.2467 277.961 63.2194 280.852 63.9426C284.67 64.8985 286.927 67.4573 287.79 71.1753C288.234 73.091 288.449 75.0947 288.479 77.0631C288.567 82.7085 288.51 88.3559 288.51 94.0033H288.496L288.5 94.0052ZM272.807 94.0248C272.807 99.719 272.797 105.415 272.816 111.11C272.818 111.917 272.893 112.738 273.053 113.528C273.366 115.074 274.449 115.938 275.975 115.969C277.513 116.002 278.537 115.254 278.891 113.704C279.071 112.92 279.136 112.093 279.138 111.285C279.153 99.8148 279.151 88.3442 279.138 76.8716C279.138 76.1444 279.061 75.4074 278.928 74.692C278.629 73.091 277.56 72.2133 276.012 72.2133C274.374 72.2133 273.339 73.0285 273.032 74.6607C272.881 75.47 272.818 76.3066 272.816 77.1315C272.799 82.7613 272.807 88.3911 272.807 94.0208V94.0248Z" fill="#13102D"/>
<path d="M195.932 97.983H204.881C204.899 98.1843 204.928 98.3564 204.928 98.5284C204.93 103.198 204.958 107.87 204.919 112.54C204.897 114.962 204.543 117.343 203.48 119.56C202.079 122.482 199.736 124.181 196.554 124.677C193.914 125.09 191.254 125.11 188.628 124.556C184.642 123.718 182.24 121.18 181.297 117.31C180.904 115.697 180.682 114 180.675 112.343C180.624 100.039 180.641 87.736 180.653 75.4327C180.653 73.1847 180.99 70.9855 181.97 68.933C183.559 65.6021 186.309 63.876 189.902 63.5574C192.397 63.3345 194.916 63.3013 197.403 63.8076C201.165 64.5719 203.764 67.1151 204.441 70.8878C204.725 72.4653 204.877 74.0819 204.909 75.6829C204.977 79.1311 204.93 82.5832 204.928 86.0334C204.928 86.2406 204.911 86.4498 204.899 86.7137H195.947C195.932 86.526 195.902 86.3227 195.902 86.1194C195.9 82.8159 195.932 79.5123 195.879 76.2087C195.865 75.3486 195.709 74.4494 195.409 73.646C194.99 72.52 193.754 72.047 192.27 72.2522C191.047 72.4203 190.368 73.0791 190.174 74.3419C190.084 74.9342 190.023 75.5382 190.022 76.1364C190.014 88.0332 190.01 99.93 190.029 111.827C190.029 112.597 190.149 113.389 190.356 114.131C190.701 115.369 191.652 115.983 192.973 115.969C194.276 115.955 195.249 115.3 195.57 114.085C195.767 113.338 195.881 112.548 195.887 111.778C195.916 107.401 195.9 103.022 195.902 98.6437C195.902 98.4365 195.92 98.2293 195.932 97.9811V97.983Z" fill="#13102D"/>
<path d="M177.434 83.7367H168.631C168.617 83.508 168.592 83.3028 168.592 83.0975C168.59 80.4273 168.596 77.759 168.584 75.0888C168.584 74.6196 168.541 74.1466 168.471 73.6813C168.251 72.2504 167.445 71.5721 166.005 71.5721C164.566 71.5721 163.729 72.2582 163.531 73.6774C162.956 77.8001 163.537 81.6197 166.249 84.9936C168.942 88.3402 171.5 91.7963 174.13 95.1956C177.099 99.0309 178.442 103.376 178.354 108.205C178.307 110.773 178.438 113.35 177.837 115.881C177.132 118.858 175.817 121.444 173.14 123.141C171.594 124.122 169.88 124.631 168.065 124.742C165.461 124.902 162.85 125.002 160.306 124.22C156.589 123.077 154.536 120.461 153.847 116.743C153.603 115.426 153.542 114.059 153.526 112.714C153.483 109.166 153.513 105.619 153.513 102.069C153.513 101.861 153.513 101.654 153.513 101.398H162.601C162.619 101.615 162.652 101.834 162.652 102.051C162.664 105.583 162.668 109.116 162.689 112.646C162.691 113.031 162.772 113.422 162.858 113.801C163.198 115.293 164.14 116.049 165.625 116.045C167.108 116.041 168.067 115.349 168.29 113.793C168.78 110.378 169.085 106.905 167.582 103.674C166.791 101.973 165.576 100.448 164.441 98.9293C162.658 96.5444 160.803 94.2124 158.934 91.8921C155.546 87.6912 153.889 82.9001 154.018 77.5205C154.069 75.3976 154.076 73.2376 154.474 71.1636C155.278 66.9588 157.969 64.4274 162.186 63.7315C165.236 63.2272 168.328 63.2057 171.363 63.9582C174.759 64.7988 176.598 67.0918 177.16 70.4442C177.371 71.705 177.438 72.9991 177.455 74.2795C177.496 77.2253 177.469 80.1712 177.467 83.1171C177.467 83.3067 177.447 83.4963 177.434 83.7348V83.7367Z" fill="#13102D"/>
<path d="M50.8989 101.386H59.9581C59.9737 101.621 60.0011 101.842 60.0011 102.063C60.0109 105.448 59.9953 108.832 60.0403 112.218C60.0501 112.935 60.189 113.682 60.4258 114.36C60.8446 115.557 61.7449 116.076 63.0522 116.045C64.3927 116.014 65.2871 115.51 65.5376 114.208C66.2304 110.611 66.5201 106.94 64.8761 103.544C63.925 101.58 62.467 99.8498 61.148 98.0808C59.1459 95.3929 57.001 92.8087 55.0381 90.0955C52.4215 86.4772 51.3588 82.335 51.4038 77.9133C51.4253 75.8041 51.4567 73.6773 51.7424 71.5935C52.3315 67.3027 55.4471 64.2748 59.7448 63.6864C62.5492 63.3013 65.3693 63.2778 68.164 63.8135C71.7669 64.5035 74.1467 66.9782 74.5616 70.6337C74.7847 72.5982 74.7964 74.5902 74.8375 76.5723C74.8806 78.7519 74.8473 80.9334 74.8453 83.115C74.8453 83.3046 74.8238 83.4961 74.8101 83.7366H66.0151C65.9995 83.5079 65.9701 83.3026 65.9701 83.0974C65.9662 80.4447 65.9799 77.7921 65.9584 75.1395C65.9545 74.5257 65.9055 73.8962 65.7548 73.3039C65.4358 72.0529 64.6335 71.5388 63.2303 71.5759C61.9738 71.6091 61.1401 72.2112 60.964 73.4447C60.4258 77.2233 60.5745 80.8982 63.0209 84.106C65.6061 87.4976 68.2149 90.8696 70.8021 94.2572C72.5986 96.6088 74.2504 99.0562 74.9667 101.975C75.3052 103.357 75.5518 104.786 75.6282 106.205C75.8121 109.567 75.9374 112.939 75.1134 116.256C73.769 121.679 70.1112 124.66 64.5199 124.814C62.2243 124.877 59.9248 124.928 57.684 124.23C54.0341 123.092 51.9714 120.557 51.2512 116.899C51.0046 115.648 50.9302 114.348 50.9146 113.07C50.8715 109.393 50.8989 105.714 50.8989 102.035V101.388V101.386Z" fill="#13102D"/>
<path d="M111.125 60.8912H102.252C101.845 57.1361 101.442 53.4083 101.035 49.6473H94.4413C94.0381 53.379 93.633 57.1165 93.224 60.8893H84.9966C87.4526 40.8547 89.9029 20.871 92.359 0.83252H103.277C105.894 20.8573 108.507 40.8488 111.125 60.8912ZM97.735 19.3619C97.6841 19.3619 97.6332 19.3638 97.5823 19.3658C96.8367 26.4089 96.093 33.4539 95.3415 40.5556H100.054C99.2791 33.4676 98.508 26.4167 97.7369 19.3638L97.735 19.3619Z" fill="#13102D"/>
<path d="M178.495 0.817139H189.409C192.024 20.8282 194.638 40.8315 197.259 60.8856H188.382C187.976 57.1344 187.575 53.4203 187.17 49.6573H180.573C180.17 53.3831 179.765 57.1207 179.356 60.8876H171.128C173.586 40.8432 176.038 20.8497 178.495 0.817139ZM186.186 40.5637C185.405 33.419 184.632 26.3583 183.859 19.2976C183.812 19.2976 183.765 19.2976 183.72 19.2976C182.972 26.372 182.225 33.4444 181.471 40.5617H186.186V40.5637Z" fill="#13102D"/>
<path d="M37.2211 88.489H46.2822V97.6627H37.2309V114.968H49.2726V124.138H28.0367V64.0542H48.7775V72.7823H37.2191V88.489H37.2211Z" fill="#13102D"/>
<path d="M64.2734 51.7292H76.3209V60.8697H55.0694V0.824707H75.865V9.51762H64.2792V25.2438H73.3443V34.4098H64.2753V51.7292H64.2734Z" fill="#13102D"/>
<path d="M145.921 9.53717H138.262V0.824707H162.678V9.52544H155.02V60.8854H145.921V9.53717Z" fill="#13102D"/>
<path d="M291.669 64.0483H300.8V114.832H311.967V124.146H291.669V64.0483Z" fill="#13102D"/>
<path d="M78.3269 64.0483H87.4155V124.144H78.3269V64.0483Z" fill="#13102D"/>
</svg>
