<svg width="1424" height="201" viewBox="0 0 1424 201" fill="none" xmlns="http://www.w3.org/2000/svg">
<path fill-rule="evenodd" clip-rule="evenodd" d="M1424 178.332C1420.5 176.945 1408.66 173.497 1377.21 164.411C1373.17 163.243 1370.67 163.708 1367.17 165.528C1359.04 169.75 1350.67 173.73 1342.29 177.711C1339.19 179.185 1336.09 180.659 1333 182.146C1332.72 182.28 1332.4 182.385 1332.09 182.489C1331.88 182.56 1331.66 182.631 1331.46 182.712C1327.16 184.431 1323.35 184.552 1318.94 182.286C1312.95 179.207 1306.81 176.277 1300.68 173.348C1295.67 170.956 1290.65 168.565 1285.72 166.091C1266.34 156.359 1247.05 146.534 1227.75 136.707C1225.05 135.333 1222.35 133.958 1219.65 132.583L1216.44 130.947C1193.95 119.497 1171.45 108.046 1149.03 96.5206C1139.17 91.4521 1129.38 86.3136 1119.47 81.1101C1116.35 79.4721 1113.22 77.8276 1110.06 76.1769C1107.56 74.8644 1104.51 75.173 1102.33 76.9659C1101.54 77.6105 1100.74 78.2472 1099.92 78.8683C1091.19 85.4816 1082.44 92.0714 1073.65 98.6456C1070.17 101.243 1066.64 102.048 1061.8 99.7901C1056.8 97.4555 1051.67 95.2475 1046.55 93.0398C1039.53 90.0171 1032.52 86.9951 1025.82 83.6495C1008.73 75.1203 991.858 66.3613 974.99 57.6027C968.373 54.167 961.757 50.7314 955.127 47.3097C955.117 47.3045 955.108 47.2993 955.1 47.2953C955.096 47.2932 955.092 47.2915 955.088 47.2901C952.736 46.0714 949.908 46.2042 947.736 47.7198C946.732 48.4191 945.748 49.1222 944.803 49.8566C939.223 54.1566 933.66 58.4671 928.098 62.7776C918.885 69.9167 909.672 77.0554 900.385 84.1456C885.818 95.2628 871.232 106.376 856.338 117.271C845.925 124.881 835.187 132.271 824.452 139.66C822.889 140.736 821.326 141.811 819.764 142.888C818.092 144.039 816.176 145.008 814.26 145.978C813.256 146.486 812.252 146.994 811.283 147.528C809.385 148.575 807.51 148.614 805.377 147.825C801.013 146.214 796.639 144.616 792.265 143.018C784.452 140.163 776.638 137.307 768.877 134.38C766.592 133.517 765.244 133.388 763.17 134.732C752.076 141.921 740.908 149.056 729.741 156.191C724.798 159.349 719.856 162.507 714.92 165.669C714.687 165.817 714.456 165.967 714.224 166.116C714.071 166.215 713.918 166.313 713.764 166.411C711.58 167.817 708.795 167.915 706.529 166.65C701.568 163.88 696.67 161.06 691.939 158.107C677.829 149.297 663.922 140.322 650.015 131.347C643.733 127.293 637.451 123.239 631.15 119.2C626.083 115.953 621.009 112.711 615.935 109.469C604.901 102.418 593.866 95.367 582.9 88.2628C580.83 86.9191 579.482 87.048 577.197 87.9112C569.523 90.8062 561.796 93.6306 554.07 96.4549C549.609 98.0856 545.148 99.7162 540.697 101.36C538.564 102.146 536.689 102.11 534.791 101.06C533.822 100.526 532.819 100.018 531.816 99.5111C529.899 98.5418 527.983 97.573 526.311 96.4191C524.82 95.3927 523.329 94.3668 521.838 93.3409C511.032 85.9057 500.22 78.4669 489.736 70.8019C474.842 59.9073 460.256 48.7941 445.689 37.6769C436.371 30.5669 427.13 23.405 417.889 16.2428C412.356 11.9542 406.822 7.66554 401.271 3.38781C400.326 2.65734 399.338 1.95031 398.334 1.25109C396.162 -0.264539 393.338 -0.39735 390.986 0.8214C390.971 0.825306 390.959 0.833119 390.947 0.840931C384.23 4.30731 377.526 7.78802 370.823 11.2687C354.042 19.9826 337.26 28.6963 320.256 37.1847C313.565 40.5233 306.559 43.5407 299.552 46.5587C294.417 48.7703 289.281 50.9823 284.268 53.3214C279.432 55.5792 275.9 54.7745 272.42 52.1769C263.635 45.6066 254.877 39.0128 246.15 32.4034C245.326 31.7784 244.533 31.1417 243.748 30.4972C241.564 28.7042 238.51 28.3995 236.006 29.7081C232.939 31.3152 229.89 32.9164 226.852 34.5115C216.857 39.7593 206.988 44.9412 197.045 50.0519C187.553 54.9296 140.159 77.7311 94.1495 99.8665C51.4012 120.433 9.84795 140.424 1 144.931L12.3016 144.432L0 150V200.332H1422.5V199.446C1422.98 199.568 1423.48 199.697 1424 199.832V178.332Z" fill="#13102D"/>
</svg>
