<svg width="1203" height="1251" viewBox="0 0 1203 1251" fill="none" xmlns="http://www.w3.org/2000/svg">
<path d="M770.498 891.15C791.893 907.056 815.162 916.22 840.424 920.619C841.463 920.799 842.506 920.943 843.549 921.103C843.065 920.193 842.643 919.244 842.088 918.381C840.768 916.314 840.623 914.877 842.92 913.002C844.205 911.951 845.029 908.935 844.506 907.302C841.951 899.334 840.275 890.634 832.92 885.357C829.096 882.615 824.721 880.279 820.244 878.884C808.428 875.193 801.854 866.56 797.076 855.974C791.557 843.732 786.045 831.486 780.662 819.185C777.799 812.646 775.15 806.013 772.615 799.345C772.354 798.658 773.522 797.427 774.025 796.451C774.541 796.931 775.225 797.322 775.549 797.912C784.264 813.849 792.94 829.806 801.619 845.763C801.959 846.392 802.107 847.228 802.611 847.642C803.744 848.564 805.041 849.279 806.275 850.084C806.252 849.287 806.357 848.467 806.182 847.709C805.502 844.775 805.092 841.713 803.936 838.974C798.834 826.939 793.49 815.009 788.275 803.021C786.815 799.658 785.326 796.287 784.213 792.802C783.92 791.884 784.986 790.529 785.428 789.377C786.057 789.994 786.877 790.502 787.275 791.244C791.393 798.908 795.389 806.638 799.525 814.291C804.412 823.334 809.338 832.357 814.443 841.279C815.08 842.4 816.912 842.834 818.193 843.588C818.443 842.127 819.342 840.377 818.838 839.252C813.354 826.994 807.592 814.861 802.029 802.634C799.752 797.627 797.615 792.541 795.783 787.357C795.338 786.095 796.346 784.322 796.686 782.783C797.647 783.892 798.857 784.873 799.529 786.138C803.861 794.299 807.975 802.576 812.361 810.709C816.752 818.842 821.295 826.896 825.99 834.857C826.682 836.025 828.6 836.467 829.951 837.244C830.107 835.677 830.885 833.826 830.322 832.584C822.393 815.15 814.248 797.81 806.291 780.384C805.842 779.404 806.584 777.881 806.772 776.607C808.182 777.302 810.256 777.619 810.897 778.748C820.486 795.623 830.029 812.525 839.252 829.599C842.92 836.388 846.74 843.361 848.666 850.728C849.908 855.486 848.182 861.181 847.17 866.338C845.604 874.353 847.025 881.486 851.283 888.459C856.74 897.396 861.518 906.748 867.006 915.666C867.674 916.752 871.979 917.228 872.811 916.33C879.229 909.412 885.416 902.252 891.256 894.838C896.94 887.623 893.244 879.849 892.065 872.146C891.107 865.873 890.158 859.271 891.08 853.095C895.607 822.834 916.639 806.697 942.357 794.884C953.525 789.756 963.748 791.474 971.986 800.404C975.053 803.728 976.307 808.775 978.197 813.123C979.033 815.033 978.76 823.06 978.674 825.025C977.764 845.869 971.127 864.549 955.857 878.998C945.826 888.494 933.479 894.537 919.096 894.318C907.482 894.142 902.217 901.927 897.443 910.588C892.9 918.818 887.768 926.802 884.17 935.431C882.834 938.638 885.068 943.361 885.76 947.377C886.014 948.834 887.092 950.369 886.818 951.662C885.072 959.896 878.916 964.947 873.186 970.435C866.295 977.033 793.088 1070.32 766.35 1079.09C761.397 1080.71 759.037 1083.11 750.381 1080.63C741.729 1078.15 740.229 1069.12 742.139 1063.22C744.053 1057.31 833.502 951.955 838.51 946.095C838.967 945.56 839.186 944.822 839.514 944.181C838.834 944.08 838.139 943.83 837.482 943.904C835.92 944.084 834.342 944.287 832.834 944.709C829.932 945.525 828.432 944.861 827.522 941.65C827.104 940.181 824.725 938.775 822.967 938.263C810.529 934.646 797.826 933.564 784.854 933.404C759.451 933.088 736.436 924.857 715.791 910.099C711.689 907.166 707.807 903.92 703.979 900.638C703.49 900.224 703.658 897.943 704.029 897.795C709.775 895.502 715.541 893.197 721.463 891.451C722.881 891.033 725.057 892.385 726.604 893.369C734.014 898.068 741.299 902.963 748.682 907.705C753.443 910.76 758.756 909.705 761.065 905.4C764.072 899.787 762.424 894.588 756.951 891.947C756.096 891.537 755.588 890.396 754.92 889.595C755.729 889.021 756.459 888.158 757.354 887.916C762.67 886.482 767.404 887.47 770.498 891.15ZM461.537 463.908C460.904 462.681 458.197 460.072 457.049 460.392C448.189 462.877 439.393 465.677 430.756 468.869C422.357 471.97 421.471 480.318 418.525 487.322C416.123 493.025 413.549 499.002 409.635 503.662C390.447 526.521 364.74 529.22 337.334 525.939C325.436 524.517 317.811 517.873 315.51 506.256C314.654 501.924 316.186 497.088 316.826 492.51C317.107 490.494 321.424 483.959 322.494 482.369C333.873 465.502 348.912 453.353 368.971 449.115C382.154 446.334 395.498 447.599 407.346 455.111C416.912 461.177 425.26 457.385 433.643 452.619C441.611 448.088 449.951 444.064 457.338 438.724C460.084 436.74 460.631 431.674 462.104 427.978C462.635 426.642 462.522 424.814 463.404 423.881C469.053 417.924 476.744 416.857 484.311 415.213C493.404 413.24 601.811 372.97 628.514 379.306C633.459 380.482 636.643 379.693 642.572 386.166C648.506 392.638 645.154 400.908 640.557 404.842C635.955 408.775 470.158 476.799 461.537 463.908Z" fill="#68686D"/>
<path d="M926.916 452.533L864.275 480.99C863.701 481.251 863.025 480.998 862.764 480.423L817.373 380.517C817.111 379.943 817.365 379.267 817.939 379.005L880.576 350.544C881.15 350.283 881.83 350.537 882.088 351.115L927.482 451.021C927.744 451.595 927.49 452.271 926.916 452.533ZM794.838 462.466L769.029 457.103C768.408 456.974 768.014 456.369 768.143 455.751L790.467 348.314C790.596 347.693 791.201 347.298 791.818 347.427L817.631 352.791C818.248 352.919 818.643 353.521 818.514 354.142L796.189 461.58C796.061 462.197 795.455 462.595 794.838 462.466ZM419.752 846.794C419.752 881.955 391.244 910.458 356.084 910.458C320.924 910.458 292.42 881.955 292.42 846.794C292.42 811.63 320.924 783.126 356.084 783.126C391.244 783.126 419.752 811.63 419.752 846.794Z" fill="#68686D"/>
<path d="M384.646 830.22L363.514 812.173L399.127 770.466C400.549 768.798 403.049 768.603 404.713 770.025L419.818 782.92C421.482 784.341 421.682 786.845 420.26 788.509L384.646 830.22Z" fill="#68686D"/>
<path d="M1098.5 23.0717C1146.19 36.7514 1122.61 89.2163 1122.61 89.2163L1031.62 59.3256C1031.62 59.3256 1050.81 9.39595 1098.5 23.0717ZM1144.08 104.388C1144.08 104.388 1179.68 25.2006 1107.7 4.5522C1035.71 -16.0923 1006.74 59.2749 1006.74 59.2749L1144.08 104.388Z" fill="#68686D"/>
<path d="M1202.74 220.873C1202.74 126.185 1125.98 49.4272 1031.29 49.4272C983.9 49.4272 941.002 68.6577 909.967 99.7397L1152.43 342.201C1183.51 311.169 1202.74 268.267 1202.74 220.873Z" fill="#FF0000"/>
<path d="M1048.93 52.6812C1121.54 72.3374 1169.12 117.607 1195.41 184.654C1195.41 184.654 1189.65 134.513 1140.87 93.5952C1092.09 52.6812 1048.93 52.6812 1048.93 52.6812Z" fill="white"/>
<path d="M1031.32 392.599C936.713 392.599 859.744 315.634 859.744 221.025C859.744 175.146 877.627 132.029 910.096 99.6069L911.502 101.017C879.408 133.06 861.736 175.681 861.736 221.025C861.736 314.537 937.811 390.611 1031.32 390.611C1076.67 390.611 1119.06 372.81 1151.1 340.716L1152.51 342.123C1120.09 374.591 1077.2 392.599 1031.32 392.599Z" fill="#FF0000"/>
<path d="M923.646 253.767C905.506 194.314 938.998 131.412 998.447 113.271C1057.9 95.1305 1120.8 128.623 1138.94 188.072C1157.08 247.525 1123.59 310.427 1064.14 328.568C1004.69 346.709 941.787 313.216 923.646 253.767Z" fill="#68686D"/>
<path d="M1106.43 6.00537C1129.07 13.8843 1148.19 41.4858 1150.45 50.7007C1150.45 50.7007 1148.44 36.4741 1138.12 24.6108C1125.35 9.93506 1106.43 6.00537 1106.43 6.00537Z" fill="white"/>
<path d="M719.447 344.685L534.314 62.2632ZM534.76 63.1147C455.311 97.0835 412.58 186.185 438.373 270.712C466.006 361.279 561.939 410.626 652.502 382.99C678.6 375.029 703.123 357.154 721.717 339.626" fill="#13102D"/>
<path d="M773.361 219.783C773.361 125.095 696.6 48.3335 601.912 48.3335C554.521 48.3335 511.619 67.564 480.584 98.646L723.045 341.107C754.131 310.076 773.361 267.173 773.361 219.783Z" fill="#FF0000"/>
<path d="M619.553 51.5874C692.166 71.2476 739.744 116.517 766.033 183.56C766.033 183.56 760.271 133.423 711.49 92.5054C662.709 51.5874 619.553 51.5874 619.553 51.5874Z" fill="white"/>
<path d="M601.939 391.509C507.33 391.509 430.365 314.541 430.365 219.935C430.365 174.056 448.244 130.935 480.713 98.5171L482.119 99.9233C450.029 131.966 432.354 174.587 432.354 219.935C432.354 313.443 508.428 389.517 601.939 389.517C647.287 389.517 689.678 371.716 721.717 339.626L723.123 341.033C690.709 373.501 647.818 391.509 601.939 391.509Z" fill="#FF0000"/>
<path d="M494.264 252.673C476.127 193.22 509.615 130.318 569.068 112.177C628.518 94.0407 691.42 127.529 709.561 186.982C727.701 246.435 694.213 309.334 634.76 327.474C575.307 345.615 512.404 312.127 494.264 252.673Z" fill="#68686D"/>
<path d="M44.7754 385.556C3.18161 358.505 41.0996 315.255 41.0996 315.255L119.346 370.482C119.346 370.482 86.3652 412.603 44.7754 385.556ZM25.0136 294.455C25.0136 294.455 -32.2207 359.744 30.5605 400.568C93.3379 441.396 143.119 377.822 143.119 377.822L25.0136 294.455Z" fill="#68686D"/>
<path d="M290.064 343.947L104.936 61.5249ZM105.377 62.3765C25.9277 96.3452 -16.8027 185.447 8.99022 269.974C36.623 360.541 132.557 409.888 223.123 382.251C249.221 374.291 273.74 356.419 292.334 338.888" fill="#13102D"/>
<path d="M343.979 219.044C343.979 124.357 267.221 47.5952 172.533 47.5952C125.139 47.5952 82.2402 66.8257 51.2051 97.9077L293.666 340.369C324.748 309.337 343.979 266.435 343.979 219.044Z" fill="#FF0000"/>
<path d="M190.17 50.8491C262.783 70.5093 310.361 115.779 336.65 182.822C336.65 182.822 330.893 132.685 282.107 91.7671C233.326 50.8491 190.17 50.8491 190.17 50.8491Z" fill="white"/>
<path d="M172.557 390.771C77.9512 390.771 0.982422 313.802 0.982422 219.197C0.982422 173.318 18.8652 130.197 51.334 97.7788L52.7402 99.1851C20.6465 131.228 2.9707 173.849 2.9707 219.197C2.9707 312.705 79.0488 388.779 172.557 388.779C217.904 388.779 260.295 370.982 292.334 338.888L293.744 340.294C261.326 372.763 218.439 390.771 172.557 390.771Z" fill="#FF0000"/>
<path d="M64.8847 251.935C46.7441 192.482 80.2324 129.58 139.686 111.439C199.139 93.3024 262.041 126.791 280.182 186.244C298.318 245.697 264.83 308.595 205.377 326.736C145.924 344.877 83.0254 311.388 64.8847 251.935Z" fill="#68686D"/>
<path d="M290.115 751.47L104.986 469.048ZM105.428 469.9C25.9785 503.869 -16.7481 592.966 9.04098 677.498C36.6777 768.064 132.607 817.412 223.174 789.775C249.271 781.814 273.791 763.943 292.385 746.412" fill="#13102D"/>
<path d="M344.029 626.568C344.029 531.876 267.271 455.119 172.584 455.119C125.189 455.119 82.291 474.349 51.2559 505.431L293.717 747.892C324.799 716.861 344.029 673.958 344.029 626.568Z" fill="#68686D"/>
<path d="M190.221 458.373C262.834 478.029 310.412 523.302 336.701 590.345C336.701 590.345 330.943 540.208 282.158 499.291C233.377 458.373 190.221 458.373 190.221 458.373Z" fill="white"/>
<path d="M172.607 798.294C78.002 798.294 1.0332 721.326 1.0332 626.72C1.0332 580.841 18.916 537.72 51.3848 505.302L52.791 506.708C20.6973 538.751 3.02539 581.373 3.02539 626.72C3.02539 720.228 79.0996 796.302 172.607 796.302C217.955 796.302 260.346 778.501 292.385 746.412L293.795 747.818C261.377 780.287 218.49 798.294 172.607 798.294Z" fill="#68686D"/>
<path d="M64.9355 659.459C46.7949 600.006 80.2832 537.103 139.736 518.963C199.189 500.826 262.092 534.314 280.232 593.767C298.373 653.216 264.881 716.119 205.428 734.259C145.975 752.4 83.0761 718.912 64.9355 659.459Z" fill="#FF0000"/>
<path d="M526.896 802.037C484.389 776.455 520.779 731.908 520.779 731.908L600.896 784.384C600.896 784.384 569.404 827.623 526.896 802.037ZM503.979 711.681C503.979 711.681 449.053 778.919 513.213 817.537C577.373 856.158 624.912 790.888 624.912 790.888L503.979 711.681Z" fill="#68686D"/>
<path d="M728.381 790.416L543.252 507.994ZM577.307 470.564C497.857 504.537 455.131 593.634 480.92 678.166C508.557 768.728 604.486 818.076 695.053 790.443C721.15 782.478 745.67 764.603 764.264 747.076" fill="#13102D"/>
<path d="M815.908 627.232C815.908 532.544 739.15 455.783 644.463 455.783C597.068 455.783 554.17 475.017 523.135 506.099L765.596 748.56C796.678 717.525 815.908 674.623 815.908 627.232Z" fill="#68686D"/>
<path d="M662.1 459.037C734.713 478.697 782.291 523.966 808.58 591.009C808.58 591.009 802.822 540.873 754.041 499.955C705.256 459.037 662.1 459.037 662.1 459.037Z" fill="white"/>
<path d="M644.486 798.958C549.881 798.958 472.912 721.99 472.912 627.384C472.912 581.505 490.795 538.384 523.264 505.966L524.67 507.373C492.576 539.416 474.904 582.037 474.904 627.384C474.904 720.892 550.979 796.966 644.486 796.966C689.834 796.966 732.225 779.166 764.268 747.076L765.674 748.482C733.256 780.951 690.369 798.958 644.486 798.958Z" fill="#68686D"/>
<path d="M536.814 660.123C518.674 600.669 552.166 537.771 611.615 519.63C671.068 501.49 733.971 534.978 752.111 594.431C770.252 653.884 736.76 716.783 677.307 734.923C617.857 753.064 554.955 719.576 536.814 660.123Z" fill="#FF0000"/>
<path d="M1144.83 751.373L959.697 468.955ZM960.139 469.806C880.69 503.775 837.963 592.873 863.752 677.404C891.389 767.97 987.318 817.318 1077.88 789.681C1103.98 781.72 1128.5 763.845 1147.1 746.318" fill="#13102D"/>
<path d="M1198.74 626.47C1198.74 531.783 1121.98 455.025 1027.29 455.025C979.9 455.025 937.002 474.255 905.967 505.337L1148.43 747.798C1179.51 716.767 1198.74 673.865 1198.74 626.47Z" fill="#68686D"/>
<path d="M1044.93 458.279C1117.54 477.935 1165.12 523.205 1191.41 590.251C1191.41 590.251 1185.65 540.111 1136.87 499.197C1088.09 458.279 1044.93 458.279 1044.93 458.279Z" fill="white"/>
<path d="M1027.32 798.201C932.713 798.201 855.744 721.232 855.744 626.626C855.744 580.748 873.627 537.626 906.096 505.208L907.502 506.615C875.408 538.658 857.736 581.279 857.736 626.626C857.736 720.134 933.811 796.208 1027.32 796.208C1072.67 796.208 1115.06 778.408 1147.1 746.318L1148.51 747.72C1116.09 780.193 1073.2 798.201 1027.32 798.201Z" fill="#68686D"/>
<path d="M919.647 659.365C901.506 599.912 934.998 537.009 994.447 518.869C1053.9 500.728 1116.8 534.22 1134.94 593.673C1153.08 653.123 1119.59 716.025 1060.14 734.166C1000.69 752.306 937.787 718.814 919.647 659.365Z" fill="#FF0000"/>
<path d="M290.064 1203.73L104.936 921.31ZM105.377 922.162C25.9277 956.134 -16.8027 1045.23 8.99022 1129.76C36.623 1220.33 132.557 1269.67 223.123 1242.04C249.221 1234.08 273.74 1216.2 292.334 1198.67" fill="#13102D"/>
<path d="M343.979 1078.83C343.979 984.142 267.221 907.384 172.533 907.384C125.139 907.384 82.2402 926.615 51.2051 957.697L293.666 1200.16C324.748 1169.12 343.979 1126.22 343.979 1078.83Z" fill="#FF0000"/>
<path d="M190.17 910.634C262.783 930.294 310.361 975.564 336.65 1042.61C336.65 1042.61 330.893 992.47 282.107 951.552C233.326 910.634 190.17 910.634 190.17 910.634Z" fill="white"/>
<path d="M172.557 1250.56C77.9512 1250.56 0.982422 1173.59 0.982422 1078.98C0.982422 1033.1 18.8652 989.982 51.334 957.564L52.7402 958.974C20.6465 991.017 2.9707 1033.63 2.9707 1078.98C2.9707 1172.49 79.0488 1248.57 172.557 1248.57C217.904 1248.57 260.295 1230.77 292.334 1198.67L293.744 1200.08C261.326 1232.55 218.439 1250.56 172.557 1250.56Z" fill="#FF0000"/>
<path d="M64.8847 1111.72C46.7441 1052.27 80.2324 989.369 139.686 971.228C199.139 953.087 262.041 986.576 280.182 1046.03C298.318 1105.48 264.83 1168.38 205.377 1186.52C145.924 1204.66 83.0254 1171.17 64.8847 1111.72Z" fill="#68686D"/>
<path d="M727.67 1073.66C727.67 978.97 650.912 902.208 556.221 902.208C508.83 902.208 465.928 921.443 434.897 952.525L677.357 1194.99C708.439 1163.95 727.67 1121.05 727.67 1073.66Z" fill="#FF0000"/>
<path d="M573.861 905.462C646.475 925.123 694.053 970.392 720.342 1037.44C720.342 1037.44 714.58 987.298 665.799 946.38C617.018 905.462 573.861 905.462 573.861 905.462Z" fill="white"/>
<path d="M556.248 1245.38C461.643 1245.38 384.674 1168.42 384.674 1073.81C384.674 1027.93 402.557 984.81 435.025 952.392L436.432 953.802C404.338 985.845 386.662 1028.46 386.662 1073.81C386.662 1167.32 462.74 1243.4 556.248 1243.4C601.596 1243.4 643.986 1225.6 676.025 1193.5L677.436 1194.91C645.018 1227.38 602.127 1245.38 556.248 1245.38Z" fill="#FF0000"/>
<path d="M448.576 1106.55C430.436 1047.1 463.924 984.197 523.377 966.056C582.83 947.915 645.729 981.404 663.869 1040.86C682.01 1100.31 648.522 1163.21 589.068 1181.35C529.615 1199.49 466.717 1166 448.576 1106.55Z" fill="#68686D"/>
<path d="M1098.5 868.896C1146.19 882.576 1122.61 935.037 1122.61 935.037L1031.62 905.15C1031.62 905.15 1050.81 855.217 1098.5 868.896ZM1144.08 950.209C1144.08 950.209 1179.68 871.021 1107.7 850.377C1035.71 829.728 1006.74 905.095 1006.74 905.095L1144.08 950.209Z" fill="#68686D"/>
<path d="M1148.83 1191.6L963.697 909.177ZM964.139 910.029C884.693 943.998 841.963 1033.1 867.752 1117.63C895.389 1208.19 991.318 1257.54 1081.88 1229.9C1107.98 1221.94 1132.5 1204.07 1151.1 1186.54" fill="#13102D"/>
<path d="M1202.74 1066.7C1202.74 972.005 1125.98 895.248 1031.29 895.248C983.9 895.248 941.002 914.478 909.967 945.56L1152.43 1188.02C1183.51 1156.99 1202.74 1114.09 1202.74 1066.7Z" fill="#FF0000"/>
<path d="M1048.93 898.501C1121.54 918.158 1169.12 963.431 1195.41 1030.47C1195.41 1030.47 1189.65 980.333 1140.87 939.419C1092.09 898.501 1048.93 898.501 1048.93 898.501Z" fill="white"/>
<path d="M1031.32 1238.42C936.713 1238.42 859.744 1161.45 859.744 1066.85C859.744 1020.97 877.627 977.849 910.096 945.431L911.502 946.837C879.408 978.88 861.736 1021.5 861.736 1066.85C861.736 1160.36 937.811 1236.43 1031.32 1236.43C1076.67 1236.43 1119.06 1218.63 1151.1 1186.54L1152.51 1187.95C1120.09 1220.42 1077.2 1238.42 1031.32 1238.42Z" fill="#FF0000"/>
<path d="M923.646 1099.59C905.506 1040.13 938.998 977.232 998.447 959.091C1057.9 940.955 1120.8 974.443 1138.94 1033.9C1157.08 1093.35 1123.59 1156.25 1064.14 1174.39C1004.69 1192.53 941.787 1159.04 923.646 1099.59Z" fill="#68686D"/>
<path d="M1106.43 853.806C1129.07 861.681 1148.19 889.283 1150.45 898.501C1150.45 898.501 1148.44 884.275 1138.12 872.408C1125.35 857.736 1106.43 853.806 1106.43 853.806Z" fill="white"/>
</svg>
