<svg width="1281" height="878" viewBox="0 0 1281 878" fill="none" xmlns="http://www.w3.org/2000/svg">
<path fill-rule="evenodd" clip-rule="evenodd" d="M841.623 509.029L863.748 553.558L1154.59 606.771L1138.92 627.13C1169.01 627.482 1260.7 655.74 1281.1 669.923V721.259C1281.07 721.243 1281.03 721.227 1281 721.211V853.5C1272 850.5 1246.37 844.552 1235 849.357C1234.29 849.656 1233.56 849.893 1232.43 850.256C1231.78 850.466 1230.99 850.718 1230.01 851.048C1235.54 842.358 1239.68 810.923 1243.95 778.503C1247.38 752.482 1250.89 725.826 1255.27 709.785C1213.93 691.861 1144.83 663.018 1123.38 654.306C1119.17 652.595 1113.46 654.541 1107.77 656.483C1105.22 657.355 1102.66 658.226 1100.25 658.763C1095.17 659.896 1090.03 660.888 1084.9 661.88L1084.89 661.88C1072.91 664.195 1060.91 666.51 1049.58 670.623C1042.7 673.118 1031.29 683.591 1019.84 694.101C1003.59 709.008 987.269 723.99 983.682 716.388C977.19 702.619 1026.43 646.447 1034.53 642.849C1052.58 634.833 1070.64 626.849 1088.85 619.228L864.709 555.492L864.873 555.822L760.5 769.351L715.5 845.5H648H581L541.379 769.351L437.446 559.127L259.522 617.884L346.389 664.716L305.049 685.06L359.533 721.869L294.623 822.873L-9.2168 877.224L-9.20898 713.314C-9.20898 713.314 142.959 634.466 165.135 628.419C178.432 624.791 195.943 625.517 207.838 626.677L195.189 617.291L437.794 556.928L451.412 505.283L841.623 509.029Z" fill="#68686D"/>
<path d="M876.592 348.974C860.608 542.533 759.322 680.568 638.256 680.568C517.189 680.568 439.025 542.533 419.049 340.697C400.561 153.955 441.025 0.825684 638.256 0.825684C866.604 0.825684 892.037 161.939 876.592 348.974Z" fill="#FF0000"/>
<path fill-rule="evenodd" clip-rule="evenodd" d="M1281.5 853C1278 851.613 1266.16 848.165 1234.71 839.079C1230.67 837.911 1228.17 838.376 1224.67 840.196C1216.54 844.418 1208.17 848.398 1199.79 852.379C1196.69 853.853 1193.59 855.327 1190.5 856.814C1190.22 856.948 1189.9 857.053 1189.59 857.157C1189.38 857.228 1189.16 857.299 1188.96 857.38C1184.66 859.099 1180.85 859.22 1176.44 856.954C1170.45 853.875 1164.31 850.945 1158.18 848.016C1153.17 845.624 1148.15 843.233 1143.22 840.759C1123.84 831.027 1104.55 821.202 1085.25 811.375C1082.55 810.001 1079.85 808.626 1077.15 807.251L1073.94 805.615C1051.45 794.165 1028.95 782.714 1006.53 771.189C996.669 766.12 986.88 760.982 976.968 755.778C973.848 754.14 970.715 752.496 967.564 750.845C965.061 749.532 962.01 749.841 959.826 751.634C959.041 752.278 958.244 752.915 957.424 753.536C948.693 760.15 939.939 766.739 931.15 773.314C927.674 775.911 924.143 776.716 919.303 774.458C914.299 772.123 909.174 769.915 904.049 767.708C897.033 764.685 890.019 761.663 883.318 758.317C866.226 749.788 849.358 741.029 832.49 732.271C825.873 728.835 819.257 725.399 812.627 721.978C812.621 721.975 812.616 721.972 812.612 721.97C812.603 721.965 812.595 721.961 812.588 721.958C810.236 720.739 807.408 720.872 805.236 722.388C804.232 723.087 803.248 723.79 802.303 724.525C796.723 728.825 791.16 733.135 785.598 737.446C776.385 744.585 767.172 751.723 757.885 758.814C743.318 769.931 728.732 781.044 713.838 791.939C703.425 799.549 692.687 806.939 681.952 814.328C680.389 815.403 678.826 816.479 677.264 817.556C675.592 818.707 673.676 819.676 671.76 820.646C670.756 821.154 669.752 821.662 668.783 822.196C666.885 823.243 665.01 823.282 662.877 822.493C658.513 820.882 654.139 819.284 649.765 817.686C641.952 814.831 634.138 811.975 626.377 809.048C624.092 808.185 622.744 808.056 620.67 809.4C609.576 816.589 598.408 823.724 587.241 830.859C582.298 834.017 577.356 837.174 572.42 840.337C572.227 840.46 572.034 840.584 571.842 840.708C571.649 840.832 571.457 840.956 571.264 841.079C569.08 842.485 566.295 842.583 564.029 841.317C559.068 838.548 554.17 835.728 549.439 832.775C535.329 823.965 521.422 814.99 507.515 806.015C501.233 801.961 494.951 797.907 488.65 793.868C483.583 790.621 478.509 787.379 473.435 784.137C462.401 777.086 451.366 770.035 440.4 762.931C438.33 761.587 436.982 761.716 434.697 762.579C427.023 765.474 419.296 768.299 411.57 771.123C407.109 772.754 402.648 774.384 398.197 776.028C396.064 776.814 394.189 776.778 392.291 775.728C391.322 775.194 390.319 774.686 389.316 774.179C387.399 773.21 385.483 772.241 383.811 771.087C382.32 770.061 380.829 769.035 379.338 768.009C368.532 760.574 357.72 753.135 347.236 745.47C332.342 734.575 317.756 723.462 303.189 712.345C293.871 705.235 284.63 698.073 275.389 690.911C269.856 686.622 264.322 682.334 258.771 678.056C257.826 677.325 256.838 676.618 255.834 675.919C253.662 674.403 250.838 674.271 248.486 675.489C248.471 675.493 248.459 675.501 248.447 675.509C241.73 678.975 235.026 682.456 228.323 685.937C211.542 694.651 194.76 703.364 177.756 711.853C171.065 715.191 164.059 718.209 157.052 721.227C151.917 723.438 146.781 725.65 141.768 727.989C136.932 730.247 133.4 729.442 129.92 726.845C121.135 720.275 112.377 713.681 103.65 707.071C102.826 706.446 102.033 705.81 101.248 705.165C99.0645 703.372 96.0098 703.067 93.5059 704.376C90.4391 705.983 87.3896 707.584 84.3516 709.179C74.3569 714.427 64.4876 719.609 54.5449 724.72C36.234 734.13 17.8709 743.494 -0.5 752.851V757V813.375V875H1277V873.39C1278.36 873.701 1279.85 874.067 1281.5 874.5V853Z" fill="#13102D"/>
<path d="M472.631 429.603C615.49 429.603 591.514 336.771 632.65 336.771C675.432 336.771 675.932 429.603 785.647 429.603C943.287 429.603 888.264 181.345 858.662 151.74C829.057 122.138 774.865 118.755 647.225 118.755C519.584 118.755 468.826 117.353 440.783 145.396C383.865 204.798 384.221 429.603 472.631 429.603Z" fill="#68686D"/>
<path d="M444.393 232.013C444.396 208.923 438.721 191.748 427.424 181.931C424.986 179.81 422.303 178.08 419.396 176.705C398.068 238.443 394.939 318.287 414.908 380.224C426.85 382.99 438.83 385.541 450.842 387.877V369.556C438.229 343.627 425.654 319.064 413.123 296.326C433.916 284.201 444.4 261.845 444.393 232.013ZM599.963 321.134C599.963 329.474 597.287 336.576 591.932 342.345C586.576 348.123 578.842 350.802 568.74 350.353C558.639 349.9 550.924 346.56 545.584 340.529C540.248 334.502 537.58 327.505 537.58 319.474V145.279C520.584 147.177 503.627 149.517 486.721 152.298V315.056C486.725 341.259 493.986 362.517 508.568 379.646C523.15 396.693 543.189 407.314 568.74 409.365C577.545 410.064 585.689 409.611 593.209 408.068C608.037 380.892 613.006 354.377 632.537 354.603C637.291 354.642 641.525 356.123 645.451 358.724C649.26 347.173 651.174 334.002 651.174 319.212V139.201C634.1 139.13 617.025 139.502 599.963 140.318V321.134ZM840.232 158.283C786.725 147.603 732.549 141.408 678.268 139.689V196.814C696.924 197.154 715.568 197.806 734.174 198.763V403.048C751.201 401.603 768.193 399.736 785.143 397.439V202.162C803.568 203.673 821.939 205.486 840.232 207.607V158.283ZM885.467 222.021C869.186 266.623 852.83 316.712 836.416 370.642V389.173C849.604 386.705 862.752 383.974 875.854 380.986C897.396 330.982 895.143 272.955 885.467 222.021ZM139.115 294.595V332.709H181.662C185.99 332.709 189.736 331.084 192.889 327.834C196.037 324.584 197.615 320.005 197.615 314.095C197.615 307.795 196.037 302.97 192.889 299.619C189.736 296.271 185.99 294.595 181.662 294.595H139.115ZM139.115 214.529V252.048H173.092C177.424 252.048 181.115 250.478 184.17 247.322C187.225 244.173 188.752 239.642 188.752 233.732C188.752 227.63 187.225 222.9 184.17 219.548C181.115 216.201 177.424 214.529 173.092 214.529H139.115ZM184.912 377.029H88.2949V170.209H176.045C196.33 170.209 212.139 175.232 223.467 185.279C234.791 195.322 240.455 209.798 240.455 228.709C240.455 247.423 233.463 261.115 219.479 269.779C229.326 274.904 236.713 281.205 241.639 288.689C246.561 296.173 249.025 305.923 249.025 317.939C249.025 337.439 243.459 352.166 232.33 362.107C221.201 372.056 205.393 377.029 184.912 377.029Z" fill="#13102D"/>
<path fill-rule="evenodd" clip-rule="evenodd" d="M419.658 180.677C408.963 173.708 395.131 170.208 378.139 170.208H287.432V377.029H338.252V301.392H359.525L402.072 377.029H415.107C394.838 321.595 398.029 234.935 419.658 180.677ZM369.572 259.439C377.842 259.439 383.9 257.712 387.74 254.267C391.584 250.822 393.502 244.959 393.502 236.685C393.502 228.611 391.584 222.9 387.74 219.548C383.9 216.205 377.842 214.529 369.572 214.529H338.252V259.439H369.572Z" fill="#13102D"/>
<path fill-rule="evenodd" clip-rule="evenodd" d="M954.279 170.208H904.346L885.357 222.916C895.189 271.4 897.455 333.587 875.611 377.029H880.709L895.482 332.416H961.072L975.549 377.029H1023.12V360.482L954.279 170.208ZM928.572 233.435L909.662 289.869H946.893L928.572 233.435Z" fill="#13102D"/>
<path d="M1192.12 377.029H1052.66V170.208H1103.48V332.712H1192.12V377.029Z" fill="#13102D"/>
</svg>
