<svg width="510" height="330" viewBox="0 0 510 330" fill="none" xmlns="http://www.w3.org/2000/svg">
<path d="M240.65 218.603C261.705 218.603 274.092 235.267 287.205 252.907C306.588 278.982 330.713 311.431 393.643 311.431C435.068 311.431 463.768 292.857 478.947 256.212C486.459 238.079 497.525 197.814 487.264 131.872C484.26 112.579 479.6 93.2746 474.139 77.5207C468.525 61.3371 463.248 52.2902 460.178 49.2238C434.256 23.3019 386.268 18.923 255.225 18.923C249.256 18.923 243.451 18.9191 237.814 18.9152C125.83 18.8488 79.4004 18.8332 55.3379 42.8058C37.6856 61.2902 24.5528 100.181 20.2012 146.872C15.8145 193.919 21.1348 240.603 34.4239 271.751C45.6621 298.083 61.209 311.431 80.6309 311.431C119.826 311.431 149.018 304.415 169.865 289.974C187.291 277.904 195.916 262.708 203.525 249.302C212.486 233.513 220.947 218.603 240.65 218.603ZM393.643 329.767H80.6309C53.5606 329.767 31.752 312.196 17.5645 278.946C3.12698 245.122 -2.70896 195.114 1.94729 145.169C6.74807 93.6769 21.4082 51.716 42.166 30.0519L42.3028 29.9113C71.7207 0.493338 120.357 0.520681 237.822 0.583181C243.459 0.583181 249.26 0.587087 255.225 0.587087C384.729 0.587087 440.697 3.81365 473.143 36.259C485.549 48.6652 498.807 86.8254 505.381 129.052C510.08 159.255 515.1 216.845 495.885 263.232C477.857 306.759 442.502 329.767 393.643 329.767Z" fill="#FF0000"/>
</svg>
