<svg width="728" height="470" viewBox="0 0 728 470" fill="none" xmlns="http://www.w3.org/2000/svg">
<path d="M101.606 31.9723C78.2075 10.7556 42.033 0 0 0V6.94562C40.2274 6.94562 74.8152 17.0927 96.8771 37.0963C118.853 57.0184 131.996 91.5992 131.996 130.083C131.996 152.238 125.536 173.299 116.743 188.764C108.305 203.613 93.7975 216.012 77.1445 224.841L85.8247 228C119.224 208.438 139 174.276 139 130.083C139 89.5682 125.091 53.2665 101.606 31.9723Z" fill="#FF0000"/>
<path d="M207.162 436.853H200.162V469.705H277.268L279.854 462.705H207.162V436.853Z" fill="#FF0000"/>
<path d="M721 6.5L720.758 227.356C720.758 287.698 715.408 330.321 704.877 353.99C694.624 376.218 676.29 387.023 648.818 387.023H636.402L636.402 394H648.818C679.03 394 700.116 381.49 711.516 356.781C722.456 332.194 728 288.648 728 227.356V6.5H721Z" fill="#FF0000"/>
<path d="M692.908 285.963C691.592 289.771 690.291 293.588 688.947 297.388C685.471 307.24 681.494 316.892 676.646 326.15C675.057 329.189 673.08 332.033 671.197 334.908C670.705 335.654 669.893 336.189 669.225 336.822C669.072 336.756 668.916 336.693 668.76 336.627C668.701 335.373 668.529 334.115 668.6 332.869C668.873 327.736 669.369 322.607 669.506 317.467C669.639 312.412 669.439 307.349 669.377 302.291C669.354 300.385 669.303 298.474 669.279 296.568C669.275 296.345 669.373 296.123 669.424 295.904C669.529 295.885 669.639 295.861 669.748 295.842C669.912 296.353 670.135 296.853 670.225 297.373C671.174 302.76 671.213 308.209 670.979 313.638C670.736 319.146 670.131 324.635 669.686 330.135C669.658 330.474 669.662 330.818 669.654 331.158C669.756 331.181 669.854 331.205 669.955 331.228C670.537 329.802 671.268 328.416 671.682 326.939C674.217 317.9 676.783 308.865 679.139 299.775C682.33 287.463 684.299 274.97 683.678 262.201C683.322 254.865 682.197 247.65 678.92 240.943C678.205 239.486 677.51 238.021 675.912 237.263C675.744 237.181 675.748 236.736 675.67 236.459C675.979 236.377 676.385 236.131 676.576 236.244C676.99 236.486 677.338 236.881 677.631 237.275C680.119 240.646 681.49 244.529 682.467 248.537C685.057 259.162 685.025 269.9 683.736 280.701C682.639 289.888 680.49 298.842 678.033 307.732C676.646 312.736 675.33 317.76 673.822 322.728C672.74 326.306 671.4 329.802 670.178 333.334C670.076 333.631 670.006 333.935 669.916 334.236C670.025 334.306 670.135 334.381 670.24 334.451C670.904 333.568 671.658 332.736 672.213 331.791C675.584 326.052 678.662 320.166 681.174 313.99C684.604 305.556 688.053 297.131 691.494 288.701C691.889 287.736 692.279 286.775 692.674 285.814C692.752 285.865 692.83 285.912 692.908 285.963ZM166.666 176.353C166.885 172.33 167.123 168.306 167.318 164.279C167.826 153.845 167.795 143.408 166.807 133.002C166.482 129.588 165.729 126.209 165.072 122.834C164.9 121.959 164.346 121.154 163.971 120.318L163.467 120.322C162.936 121.459 162.303 122.56 161.893 123.74C160.209 128.599 158.729 133.533 156.912 138.342C155.123 143.068 153.025 147.681 151.057 152.342C150.311 154.099 149.541 155.845 148.799 157.603C148.713 157.806 148.721 158.049 148.682 158.275C148.775 158.334 148.869 158.392 148.959 158.451C149.303 158.045 149.701 157.666 149.982 157.217C152.896 152.588 154.99 147.556 156.826 142.443C158.686 137.256 160.197 131.939 161.869 126.681C161.971 126.357 162.104 126.041 162.225 125.724C162.326 125.74 162.428 125.756 162.529 125.771C162.529 127.314 162.682 128.873 162.506 130.396C161.432 139.724 160.396 149.056 159.139 158.361C157.439 170.967 154.537 183.279 149.139 194.861C146.037 201.521 142.264 207.775 136.697 212.744C135.482 213.826 134.283 214.916 132.521 215.017C132.334 215.029 132.166 215.439 131.99 215.67C132.248 215.861 132.529 216.244 132.752 216.213C133.225 216.142 133.697 215.908 134.115 215.654C137.693 213.47 140.428 210.396 142.85 207.056C149.264 198.197 153.299 188.244 156.186 177.76C158.643 168.842 160.041 159.74 161.123 150.58C161.732 145.424 162.412 140.271 162.896 135.103C163.248 131.385 163.33 127.638 163.533 123.908C163.549 123.595 163.6 123.283 163.631 122.974C163.76 122.947 163.885 122.924 164.014 122.896C164.291 123.967 164.678 125.017 164.834 126.103C165.783 132.689 166.408 139.306 166.396 145.97C166.385 155.076 166.393 164.181 166.393 173.287V176.404L166.666 176.353Z" fill="#FF0000"/>
</svg>
