<svg width="287" height="288" viewBox="0 0 287 288" fill="none" xmlns="http://www.w3.org/2000/svg">
<path d="M285.916 197.193V25.6421C285.916 23.3765 284.26 21.5405 282.213 21.5405H10.3183C8.27147 21.5405 6.61132 23.3765 6.61132 25.6421V254.064C6.61132 254.751 6.55663 255.646 7.65819 255.654C7.71288 255.654 7.77538 255.755 7.82616 255.818C8.7285 256.916 10.4668 257.345 11.6543 256.685C12.2441 256.353 12.7598 256.408 13.2441 256.818C13.709 257.212 14.166 257.13 14.4941 256.724C15.1816 255.853 16.1152 255.748 17.0566 255.568C17.1933 254.951 17.3301 254.326 17.416 253.935C19.1621 253.611 20.791 253.408 22.3691 252.982C23.2715 252.736 24.1543 252.513 24.9433 251.611C26.3379 250.021 28.2207 249.248 30.1816 249.334C30.5137 249.052 30.7793 248.822 31.0488 248.595C31.3965 248.306 31.8183 248.084 32.0801 247.72C32.4316 247.232 32.7832 247.287 33.2363 247.431C33.9043 247.638 34.4355 248.068 35.0176 248.459C36.2832 249.306 39.1933 248.513 39.6816 249.271C40.1582 250.005 40.5332 248.779 41.0058 249.49C41.5762 250.349 42.3262 251.064 42.8808 251.931C43.4629 252.849 44.2363 253.224 45.1777 253.49C45.623 253.615 46.0293 254.119 46.3457 254.544C46.7285 255.056 46.8965 255.81 47.3418 256.209C48.1973 256.974 48.3926 258.091 48.8691 259.06C49.2441 259.822 49.1387 260.599 48.8535 261.365C48.8066 261.494 48.7363 261.662 48.7715 261.771C49.1387 262.927 49.4551 264.107 49.9277 265.209C50.4824 266.498 51.7598 266.13 52.7246 266.47C53.3769 266.697 53.9004 266.716 54.5605 266.111C55.5058 265.248 56.0176 265.501 56.9433 266.587C57.1074 266.779 57.416 267.013 57.5957 266.966C58.5605 266.697 59.6426 266.564 60.4199 265.962C61.1191 265.427 61.6699 264.978 62.5449 265.158C62.7519 265.201 63.0176 264.97 63.2402 264.83C63.9121 264.396 64.084 263.646 63.998 262.904C63.9082 262.146 65.5527 260.982 65.9082 262.197C65.9277 262.263 66.1855 262.279 66.3301 262.267C67.4199 262.197 68.5098 262.111 69.5371 262.037C69.7441 262.353 69.8652 262.755 70.0723 262.822C70.7793 263.048 71.5176 263.31 72.2363 263.279C73.5762 263.224 74.8379 263.498 76.0801 263.978C76.7793 264.244 77.4668 264.552 78.1777 264.775C78.9394 265.013 79.7168 265.228 80.498 265.353C80.8965 265.416 81.3262 265.271 81.7402 265.201C82.3613 265.091 83.0879 264.685 83.5762 264.912C84.1699 265.189 84.5996 265.158 85.0644 264.853C85.5137 264.56 85.9121 264.166 86.334 263.814C86.9394 263.298 87.2168 257.322 88.1191 257.22C89.3848 257.076 90.0918 258.865 90.5527 258.857C91.3691 258.845 92.0644 258.982 92.7793 259.533C94.0996 260.56 96.3457 259.783 96.2207 260.607C96.998 260.849 97.6894 261.087 98.3926 261.259C98.541 261.298 98.8262 261.134 98.8965 260.982C99.1816 260.357 99.5215 258.447 99.9629 258.755C100.146 258.888 100.428 258.865 100.607 259.005C101.412 259.619 102.279 256.431 102.955 257.193C103.252 257.529 103.139 258.302 103.225 258.974C104.529 258.755 104.303 255.498 104.74 256.158C105.178 256.013 105.494 260.56 105.795 260.576C107.08 260.646 108.174 261.294 109.139 262.177C109.334 262.353 109.369 262.779 109.412 263.099C109.51 263.783 109.557 264.451 110.295 264.748C110.436 264.806 110.58 265.392 110.482 265.548C110.104 266.154 110.35 266.587 110.713 266.974C111.295 267.595 111.928 268.162 112.525 268.775C112.709 268.962 112.99 269.224 112.975 269.431C112.92 270.24 113.432 270.669 113.779 271.236C114.682 272.701 116.252 273.275 117.771 272.72C118.365 272.505 118.811 272.123 119.314 271.771C120.229 271.13 121.533 271.537 122.326 272.466C123.076 273.345 124.479 273.509 125.4 272.826C126.557 271.966 128.15 272.779 128.295 274.302C128.346 274.822 128.205 275.513 128.459 275.814C128.713 276.119 129.35 276.123 129.814 276.107C130.854 276.072 131.947 276.138 132.908 275.791C133.744 275.49 134.838 275.275 135.115 273.994C135.139 273.88 135.303 273.81 135.389 273.705C135.666 273.345 135.908 272.947 136.221 272.634C136.443 272.412 136.822 272.103 137.025 272.181C137.76 272.462 138.447 272.888 139.15 273.263C139.674 273.544 140.205 273.818 140.713 274.134C141.396 274.556 142.072 275.005 142.732 275.474C142.838 275.548 142.893 275.763 142.92 275.923C143.072 276.826 143.205 277.736 143.354 278.642C143.373 278.779 143.42 278.919 143.482 279.041C144.041 280.162 146.592 281.517 147.717 281.294C147.768 281.283 147.814 281.263 147.865 281.251C148.264 281.162 148.686 281.138 149.057 280.974C149.873 280.607 150.795 280.47 151.295 279.431C151.518 278.966 152.236 278.326 152.506 278.435C153.439 278.814 154.244 278.482 155.068 278.224C155.479 278.095 155.838 277.748 156.217 277.498C156.443 277.345 156.658 277.06 156.885 277.044C157.717 276.99 158.553 277.06 159.381 277.001C159.604 276.986 159.928 276.724 159.994 276.505C160.252 275.599 161.791 276.923 161.662 277.697C162.201 277.97 162.756 278.072 163.053 278.435C163.986 279.572 164.807 280.814 165.689 282.001C166.381 282.935 166.783 284.166 167.916 284.654C168.342 284.837 168.783 285.322 169.139 285.244C169.58 285.146 169.947 284.611 170.338 284.255C170.736 283.888 171.08 284.025 171.201 284.603C171.232 284.759 171.291 284.904 171.338 285.048C172.389 284.736 173.373 284.459 174.342 285.197C174.541 285.349 174.885 285.267 175.166 285.291C175.393 285.31 175.686 285.232 175.842 285.357C176.611 285.962 177.412 286.541 178.068 287.275C178.943 288.259 179.803 288.271 180.564 287.162C180.74 286.908 181.021 286.529 181.225 286.552C181.971 286.638 182.236 286.013 182.662 285.595C182.893 285.369 183.229 285.263 183.533 285.154C184.025 284.986 184.541 284.896 185.025 284.697C185.287 284.591 185.502 284.341 185.775 284.123C185.752 283.951 185.705 283.728 185.693 283.505C185.662 282.966 185.916 282.587 186.381 282.791C187.244 283.166 188.049 283.232 188.861 282.701C188.881 282.689 188.912 282.701 188.936 282.693C190.096 282.357 191.33 282.185 192.396 281.626C193.275 281.166 194.018 280.841 194.994 281.169C195.545 281.357 196.201 281.326 196.303 280.357C196.318 280.232 196.666 280.025 196.822 280.06C197.404 280.193 197.721 279.865 198.088 279.451C198.326 279.185 198.814 278.853 199.029 278.959C200.186 279.525 201.244 279.068 202.322 278.736C202.537 278.673 202.752 278.63 203.021 278.56C203.021 278.748 203.025 278.853 203.018 278.959C202.92 280.775 203.604 281.408 205.221 281.005C205.596 280.908 205.994 280.912 206.354 280.783C206.725 280.65 207.092 280.447 207.42 280.209C207.873 279.88 208.252 279.279 208.736 279.166C210.104 278.837 210.85 277.978 211.072 276.302C212.463 276.697 213.803 277.056 215.127 277.482C215.369 277.56 215.701 277.912 215.713 278.154C215.771 279.423 216.318 280.244 217.322 280.814C218.354 281.4 219.346 282.076 220.42 282.751C220.553 282.263 220.615 282.029 220.674 281.802C220.795 281.787 220.869 281.767 220.943 281.775C222.666 281.935 223.248 281.459 223.693 279.615C223.775 279.279 223.994 278.947 224.229 278.701C225.322 277.548 225.408 277.044 224.58 275.669C225.01 275.595 225.389 275.525 225.795 275.455C226.025 277.205 227.506 277.318 228.377 278.166C228.803 278.58 229.346 278.849 229.818 279.209C230.072 279.4 230.256 279.716 230.525 279.849C231.537 280.345 232.557 280.826 233.596 281.236C234.572 281.626 235.111 281.384 235.521 280.521C235.893 279.744 236.439 279.396 237.123 279.767C237.838 280.158 238.443 280.728 239.104 279.751C239.123 279.728 239.205 279.763 239.256 279.759C239.986 279.724 240.158 279.177 240.193 278.505C240.229 277.919 240.26 277.334 240.299 276.611C241.998 277.294 242.732 276.279 243.166 274.943H247.592C247.674 275.814 247.502 276.693 248.502 276.83C248.619 276.849 248.713 277.068 248.818 277.193C249.311 277.798 249.803 278.404 250.221 278.916C250.775 278.802 251.271 278.709 251.76 278.587C252.135 278.494 252.521 278.412 252.861 278.228C253.154 278.072 253.385 277.779 253.643 277.548C253.963 277.728 254.232 277.748 254.494 277.724C255.752 277.611 256.568 276.533 257.6 275.931C258.002 275.697 258.307 275.259 258.764 274.802C258.936 274.791 259.326 274.857 259.646 274.72C261.303 274.005 262.486 272.56 263.51 271.084C264.057 270.298 264.303 270.24 264.764 270.677C265.377 270.314 265.904 269.994 266.439 269.689C266.889 269.435 267.322 269.177 267.197 268.482C266.986 267.33 266.99 267.33 268.025 267.24C268.025 267.025 268.072 266.791 268.018 266.587C267.689 265.357 267.588 264.142 267.998 262.9C268.053 262.74 267.959 262.439 267.838 262.302C267.553 261.974 267.135 261.716 267.479 261.181C267.713 260.814 267.975 260.228 268.268 260.197C269.197 260.095 269.912 259.447 270.736 259.201C271.533 258.966 271.885 258.505 272.15 257.775C272.225 257.572 272.311 257.369 272.389 257.166C272.432 257.181 272.475 257.197 272.514 257.212V258.185C272.877 258.334 273.182 258.517 273.502 258.58C274.088 258.697 274.717 258.908 275.271 258.779C276.061 258.599 276.799 258.154 277.553 257.806C277.982 257.611 278.471 257.474 278.814 257.154C279.932 256.107 279.912 256.08 281.104 256.935C281.213 257.013 281.311 257.142 281.428 257.166C281.584 257.193 281.811 257.212 281.908 257.115C282.518 256.486 283.092 255.814 283.697 255.177C283.857 255.005 284.084 254.763 284.26 254.783C284.893 254.849 285.514 255.017 286.143 255.146C286.143 225.666 285.916 226.693 285.916 197.193Z" fill="#13102D"/>
<path d="M279.916 194.193V22.6382C279.916 20.3765 278.26 18.5405 276.213 18.5405H4.31835C2.27147 18.5405 0.611317 20.3765 0.611317 22.6382V251.064C0.611317 251.751 0.556629 252.646 1.65819 252.654C1.71288 252.654 1.77538 252.755 1.82616 252.818C2.7285 253.916 4.46679 254.345 5.65429 253.681C6.24413 253.353 6.75976 253.408 7.24022 253.818C7.70897 254.212 8.16601 254.13 8.49022 253.724C9.18163 252.853 10.1152 252.748 11.0566 252.568C11.1894 251.951 11.3301 251.326 11.4121 250.935C13.1621 250.611 14.7871 250.408 16.3652 249.982C17.2715 249.736 18.1543 249.513 18.9433 248.611C20.3379 247.021 22.2207 246.248 24.1816 246.334C24.5137 246.052 24.7793 245.822 25.0488 245.595C25.3965 245.306 25.8183 245.084 26.0801 244.72C26.4316 244.232 26.7832 244.287 27.2363 244.427C27.9043 244.638 28.4355 245.068 29.0176 245.459C30.2832 246.306 33.1933 245.513 33.6816 246.271C34.1543 247.005 34.5332 245.779 35.0058 246.49C35.5762 247.345 36.3262 248.06 36.8808 248.931C37.4629 249.849 38.2363 250.224 39.1777 250.49C39.623 250.615 40.0293 251.119 40.3457 251.544C40.7285 252.056 40.8965 252.81 41.3418 253.209C42.1933 253.974 42.3926 255.091 42.8652 256.06C43.2402 256.822 43.1387 257.599 42.8535 258.369C42.8066 258.494 42.7363 258.662 42.7715 258.771C43.1387 259.923 43.4551 261.107 43.9277 262.209C44.4824 263.498 45.7598 263.13 46.7246 263.47C47.373 263.697 47.9004 263.716 48.5605 263.111C49.5058 262.248 50.0176 262.501 50.9433 263.587C51.1074 263.779 51.4121 264.013 51.5957 263.962C52.5605 263.697 53.6426 263.56 54.4199 262.962C55.1191 262.427 55.6699 261.978 56.5449 262.158C56.7519 262.201 57.0176 261.97 57.2363 261.83C57.9121 261.396 58.084 260.646 57.9941 259.904C57.9082 259.146 59.5527 257.982 59.9082 259.197C59.9277 259.263 60.1855 259.279 60.3301 259.267C61.4199 259.197 62.5098 259.111 63.5371 259.037C63.7441 259.353 63.8652 259.751 64.0723 259.822C64.7754 260.048 65.5176 260.31 66.2363 260.279C67.5762 260.224 68.8379 260.498 70.0801 260.974C70.7793 261.244 71.4668 261.552 72.1777 261.775C72.9394 262.013 73.7168 262.228 74.498 262.353C74.8965 262.416 75.3262 262.271 75.7363 262.201C76.3613 262.091 77.0879 261.685 77.5762 261.912C78.1699 262.189 78.5996 262.158 79.0644 261.853C79.5137 261.556 79.9121 261.166 80.3301 260.81C80.9394 260.298 81.2168 254.322 82.1191 254.22C83.3848 254.08 84.0918 255.865 84.5527 255.857C85.3691 255.845 86.0644 255.978 86.7793 256.533C88.0996 257.56 90.3457 256.783 90.2207 257.607C90.9941 257.845 91.6894 258.087 92.3926 258.259C92.541 258.294 92.8262 258.134 92.8965 257.982C93.1816 257.357 93.5215 255.447 93.9629 255.755C94.1465 255.888 94.4277 255.865 94.6074 256.001C95.4121 256.619 96.2793 253.427 96.9551 254.193C97.2519 254.529 97.1387 255.302 97.2246 255.974C98.5293 255.755 98.3027 252.498 98.7363 253.158C99.1777 253.013 99.4902 257.56 99.7949 257.576C101.08 257.646 102.174 258.294 103.139 259.177C103.33 259.349 103.365 259.779 103.412 260.099C103.51 260.787 103.557 261.451 104.295 261.748C104.436 261.806 104.58 262.392 104.482 262.548C104.104 263.154 104.35 263.587 104.713 263.974C105.295 264.595 105.928 265.162 106.525 265.771C106.709 265.962 106.99 266.224 106.975 266.431C106.92 267.24 107.432 267.669 107.779 268.236C108.682 269.705 110.252 270.271 111.771 269.72C112.361 269.505 112.811 269.126 113.314 268.771C114.229 268.13 115.533 268.537 116.326 269.466C117.076 270.345 118.479 270.509 119.4 269.826C120.557 268.966 122.15 269.779 122.295 271.302C122.346 271.822 122.205 272.513 122.459 272.814C122.713 273.119 123.35 273.123 123.814 273.107C124.854 273.072 125.947 273.134 126.908 272.791C127.744 272.49 128.838 272.279 129.111 270.994C129.139 270.88 129.303 270.81 129.389 270.705C129.666 270.345 129.904 269.947 130.221 269.634C130.443 269.412 130.822 269.103 131.025 269.181C131.76 269.462 132.447 269.884 133.15 270.263C133.674 270.544 134.205 270.818 134.713 271.13C135.396 271.556 136.068 272.005 136.732 272.474C136.838 272.548 136.893 272.763 136.92 272.919C137.072 273.826 137.205 274.736 137.354 275.642C137.373 275.779 137.42 275.919 137.482 276.041C138.041 277.162 140.592 278.517 141.717 278.294C141.768 278.283 141.814 278.263 141.865 278.251C142.264 278.162 142.686 278.138 143.057 277.97C143.873 277.607 144.795 277.47 145.295 276.431C145.518 275.966 146.236 275.326 146.506 275.435C147.439 275.814 148.244 275.482 149.068 275.224C149.479 275.095 149.838 274.748 150.217 274.498C150.443 274.345 150.654 274.06 150.885 274.044C151.717 273.99 152.553 274.06 153.381 274.001C153.604 273.986 153.928 273.724 153.994 273.501C154.252 272.599 155.791 273.923 155.662 274.697C156.201 274.97 156.756 275.072 157.053 275.435C157.986 276.572 158.807 277.814 159.689 279.001C160.381 279.935 160.783 281.166 161.916 281.654C162.342 281.837 162.783 282.326 163.139 282.244C163.58 282.146 163.947 281.611 164.338 281.251C164.736 280.888 165.076 281.025 165.201 281.603C165.232 281.755 165.291 281.904 165.338 282.048C166.389 281.736 167.369 281.459 168.342 282.197C168.541 282.349 168.885 282.267 169.166 282.291C169.393 282.31 169.686 282.232 169.842 282.357C170.607 282.962 171.412 283.541 172.064 284.275C172.943 285.259 173.803 285.271 174.564 284.162C174.736 283.908 175.021 283.529 175.225 283.552C175.971 283.638 176.232 283.013 176.662 282.595C176.893 282.369 177.229 282.259 177.529 282.158C178.025 281.986 178.541 281.892 179.025 281.697C179.287 281.591 179.502 281.337 179.775 281.123C179.752 280.951 179.701 280.728 179.689 280.501C179.662 279.966 179.916 279.587 180.381 279.791C181.24 280.166 182.049 280.228 182.857 279.701C182.881 279.689 182.912 279.701 182.936 279.693C184.096 279.357 185.33 279.185 186.396 278.626C187.275 278.166 188.018 277.841 188.994 278.169C189.545 278.357 190.197 278.326 190.303 277.357C190.318 277.228 190.666 277.025 190.822 277.06C191.404 277.197 191.721 276.865 192.088 276.451C192.326 276.185 192.814 275.853 193.029 275.959C194.186 276.521 195.24 276.068 196.322 275.74C196.533 275.673 196.752 275.626 197.021 275.56C197.021 275.748 197.025 275.853 197.018 275.959C196.92 277.771 197.604 278.408 199.221 278.001C199.596 277.908 199.99 277.912 200.354 277.783C200.725 277.646 201.092 277.447 201.42 277.209C201.873 276.88 202.252 276.279 202.732 276.166C204.104 275.837 204.85 274.978 205.068 273.302C206.463 273.697 207.803 274.056 209.127 274.482C209.369 274.56 209.697 274.912 209.713 275.154C209.771 276.423 210.318 277.244 211.322 277.814C212.354 278.4 213.346 279.076 214.42 279.751C214.553 279.263 214.615 279.029 214.674 278.802C214.795 278.787 214.869 278.767 214.943 278.775C216.662 278.935 217.248 278.459 217.693 276.615C217.775 276.279 217.994 275.947 218.229 275.701C219.322 274.544 219.404 274.044 218.576 272.669C219.01 272.591 219.389 272.525 219.795 272.455C220.025 274.205 221.506 274.318 222.377 275.166C222.803 275.58 223.346 275.849 223.818 276.209C224.068 276.4 224.256 276.716 224.525 276.849C225.537 277.345 226.557 277.826 227.596 278.24C228.572 278.626 229.107 278.384 229.521 277.521C229.893 276.744 230.439 276.392 231.123 276.767C231.838 277.158 232.439 277.728 233.104 276.751C233.119 276.724 233.201 276.763 233.256 276.759C233.986 276.724 234.154 276.173 234.193 275.505C234.229 274.919 234.26 274.334 234.299 273.611C235.998 274.294 236.732 273.279 237.166 271.943H241.592C241.674 272.814 241.502 273.693 242.502 273.83C242.619 273.849 242.713 274.068 242.818 274.193C243.311 274.798 243.803 275.404 244.221 275.916C244.775 275.798 245.271 275.712 245.76 275.587C246.135 275.494 246.521 275.412 246.861 275.228C247.154 275.072 247.385 274.779 247.643 274.548C247.963 274.728 248.232 274.748 248.494 274.724C249.752 274.611 250.564 273.533 251.6 272.931C252.002 272.697 252.307 272.255 252.764 271.802C252.936 271.791 253.326 271.857 253.646 271.72C255.303 271.001 256.482 269.56 257.51 268.084C258.057 267.298 258.303 267.244 258.764 267.677C259.377 267.314 259.904 266.994 260.439 266.689C260.889 266.431 261.318 266.177 261.193 265.482C260.986 264.33 260.99 264.33 262.025 264.24C262.025 264.025 262.072 263.791 262.018 263.587C261.689 262.357 261.588 261.138 261.998 259.9C262.053 259.74 261.955 259.435 261.838 259.298C261.553 258.974 261.135 258.716 261.479 258.181C261.713 257.814 261.975 257.228 262.268 257.197C263.197 257.091 263.912 256.447 264.736 256.205C265.533 255.966 265.885 255.505 266.15 254.779C266.225 254.572 266.311 254.369 266.389 254.166C266.432 254.181 266.475 254.197 266.514 254.212V255.181C266.877 255.334 267.182 255.517 267.502 255.58C268.088 255.697 268.717 255.908 269.271 255.779C270.061 255.599 270.799 255.154 271.553 254.806C271.982 254.611 272.471 254.474 272.814 254.154C273.932 253.111 273.908 253.08 275.104 253.935C275.213 254.013 275.311 254.142 275.428 254.166C275.584 254.193 275.811 254.212 275.904 254.115C276.518 253.486 277.092 252.814 277.697 252.173C277.857 252.005 278.08 251.763 278.26 251.783C278.893 251.849 279.514 252.017 280.143 252.146C280.143 222.666 279.916 223.693 279.916 194.193Z" fill="#FF0000"/>
<path d="M24.0918 34.6772C24.0918 38.6616 20.8613 41.8882 16.877 41.8882C12.8926 41.8882 9.66602 38.6616 9.66602 34.6772C9.66602 30.6929 12.8926 27.4624 16.877 27.4624C20.8613 27.4624 24.0918 30.6929 24.0918 34.6772ZM48.5918 34.6772C48.5918 38.6616 45.3613 41.8882 41.377 41.8882C37.3926 41.8882 34.166 38.6616 34.166 34.6772C34.166 30.6929 37.3926 27.4624 41.377 27.4624C45.3613 27.4624 48.5918 30.6929 48.5918 34.6772ZM73.0918 34.6772C73.0918 38.6616 69.8613 41.8882 65.877 41.8882C61.8926 41.8882 58.6621 38.6616 58.6621 34.6772C58.6621 30.6929 61.8926 27.4624 65.877 27.4624C69.8613 27.4624 73.0918 30.6929 73.0918 34.6772ZM97.5918 34.6772C97.5918 38.6616 94.3613 41.8882 90.377 41.8882C86.3926 41.8882 83.1621 38.6616 83.1621 34.6772C83.1621 30.6929 86.3926 27.4624 90.377 27.4624C94.3613 27.4624 97.5918 30.6929 97.5918 34.6772ZM122.092 34.6772C122.092 38.6616 118.861 41.8882 114.877 41.8882C110.893 41.8882 107.662 38.6616 107.662 34.6772C107.662 30.6929 110.893 27.4624 114.877 27.4624C118.861 27.4624 122.092 30.6929 122.092 34.6772ZM146.588 34.6772C146.588 38.6616 143.361 41.8882 139.377 41.8882C135.393 41.8882 132.162 38.6616 132.162 34.6772C132.162 30.6929 135.393 27.4624 139.377 27.4624C143.361 27.4624 146.588 30.6929 146.588 34.6772ZM171.088 34.6772C171.088 38.6616 167.861 41.8882 163.877 41.8882C159.893 41.8882 156.662 38.6616 156.662 34.6772C156.662 30.6929 159.893 27.4624 163.877 27.4624C167.861 27.4624 171.088 30.6929 171.088 34.6772ZM195.588 34.6772C195.588 38.6616 192.361 41.8882 188.377 41.8882C184.393 41.8882 181.162 38.6616 181.162 34.6772C181.162 30.6929 184.393 27.4624 188.377 27.4624C192.361 27.4624 195.588 30.6929 195.588 34.6772ZM220.088 34.6772C220.088 38.6616 216.861 41.8882 212.877 41.8882C208.893 41.8882 205.662 38.6616 205.662 34.6772C205.662 30.6929 208.893 27.4624 212.877 27.4624C216.861 27.4624 220.088 30.6929 220.088 34.6772ZM244.588 34.6772C244.588 38.6616 241.361 41.8882 237.377 41.8882C233.393 41.8882 230.162 38.6616 230.162 34.6772C230.162 30.6929 233.393 27.4624 237.377 27.4624C241.361 27.4624 244.588 30.6929 244.588 34.6772ZM269.088 34.6772C269.088 38.6616 265.861 41.8882 261.877 41.8882C257.893 41.8882 254.662 38.6616 254.662 34.6772C254.662 30.6929 257.893 27.4624 261.877 27.4624C265.861 27.4624 269.088 30.6929 269.088 34.6772Z" fill="#13102D"/>
<path d="M25.0918 34.6772C25.0918 38.6616 21.8613 41.8882 17.877 41.8882C13.8926 41.8882 10.666 38.6616 10.666 34.6772C10.666 30.6929 13.8926 27.4624 17.877 27.4624C21.8613 27.4624 25.0918 30.6929 25.0918 34.6772ZM49.5918 34.6772C49.5918 38.6616 46.3613 41.8882 42.377 41.8882C38.3926 41.8882 35.166 38.6616 35.166 34.6772C35.166 30.6929 38.3926 27.4624 42.377 27.4624C46.3613 27.4624 49.5918 30.6929 49.5918 34.6772ZM74.0918 34.6772C74.0918 38.6616 70.8613 41.8882 66.877 41.8882C62.8926 41.8882 59.666 38.6616 59.666 34.6772C59.666 30.6929 62.8926 27.4624 66.877 27.4624C70.8613 27.4624 74.0918 30.6929 74.0918 34.6772ZM98.5918 34.6772C98.5918 38.6616 95.3613 41.8882 91.377 41.8882C87.3926 41.8882 84.1621 38.6616 84.1621 34.6772C84.1621 30.6929 87.3926 27.4624 91.377 27.4624C95.3613 27.4624 98.5918 30.6929 98.5918 34.6772ZM123.092 34.6772C123.092 38.6616 119.861 41.8882 115.877 41.8882C111.893 41.8882 108.662 38.6616 108.662 34.6772C108.662 30.6929 111.893 27.4624 115.877 27.4624C119.861 27.4624 123.092 30.6929 123.092 34.6772ZM147.592 34.6772C147.592 38.6616 144.361 41.8882 140.377 41.8882C136.393 41.8882 133.162 38.6616 133.162 34.6772C133.162 30.6929 136.393 27.4624 140.377 27.4624C144.361 27.4624 147.592 30.6929 147.592 34.6772ZM172.088 34.6772C172.088 38.6616 168.861 41.8882 164.877 41.8882C160.893 41.8882 157.662 38.6616 157.662 34.6772C157.662 30.6929 160.893 27.4624 164.877 27.4624C168.861 27.4624 172.088 30.6929 172.088 34.6772ZM196.588 34.6772C196.588 38.6616 193.361 41.8882 189.377 41.8882C185.393 41.8882 182.162 38.6616 182.162 34.6772C182.162 30.6929 185.393 27.4624 189.377 27.4624C193.361 27.4624 196.588 30.6929 196.588 34.6772ZM221.088 34.6772C221.088 38.6616 217.861 41.8882 213.877 41.8882C209.893 41.8882 206.662 38.6616 206.662 34.6772C206.662 30.6929 209.893 27.4624 213.877 27.4624C217.861 27.4624 221.088 30.6929 221.088 34.6772ZM245.588 34.6772C245.588 38.6616 242.361 41.8882 238.377 41.8882C234.393 41.8882 231.162 38.6616 231.162 34.6772C231.162 30.6929 234.393 27.4624 238.377 27.4624C242.361 27.4624 245.588 30.6929 245.588 34.6772ZM270.088 34.6772C270.088 38.6616 266.861 41.8882 262.877 41.8882C258.893 41.8882 255.662 38.6616 255.662 34.6772C255.662 30.6929 258.893 27.4624 262.877 27.4624C266.861 27.4624 270.088 30.6929 270.088 34.6772Z" fill="#68686D"/>
<path d="M103.76 34.0835L109.533 18.5405H104.756L102.916 34.6069L103.76 34.0835Z" fill="#13102D"/>
<path d="M109.709 2.89596C109.486 0.798303 103.893 -0.330602 97.209 0.372522C90.5215 1.07174 85.2832 3.33737 85.5019 5.43502C85.6855 7.19674 89.6816 8.27096 94.9238 8.15377L102.627 34.2085C102.756 34.9038 103.783 34.7905 103.76 34.0835L101.889 7.34127C106.6 6.33346 109.881 4.56393 109.709 2.89596Z" fill="white"/>
<path d="M94.9239 8.1499L101.885 7.34131L101.979 8.66162C99.877 9.22803 97.6426 9.43897 95.2129 9.12647L94.9239 8.1499Z" fill="#13102D"/>
</svg>
