<svg width="357" height="490" viewBox="0 0 357 490" fill="none" xmlns="http://www.w3.org/2000/svg">
<path d="M192.414 349.928H185.18L185.633 334.334L172.414 342.584L168.805 336.256L182.586 328.913L168.805 321.569L172.414 315.241L185.633 323.475L185.18 307.881H192.414L191.852 323.475L205.18 315.241L208.805 321.569L194.899 328.913L208.805 336.256L205.18 342.584L191.852 334.334L192.414 349.928Z" fill="#FF0000"/>
<path d="M98.768 472.04C81.6001 475.322 66.1157 473.396 52.3149 466.259C38.6899 459.251 30.1508 446.712 26.7055 428.65L46.518 424.869C47.7876 431.548 50.1938 437.146 53.7368 441.665C57.2758 446.189 61.4712 449.365 66.3149 451.197C71.1587 453.033 76.0532 454.146 81.0024 454.54C85.9594 454.927 91.0219 454.626 96.1899 453.634C107.44 451.49 115.725 447.47 121.049 441.572C126.37 435.665 128.291 428.845 126.815 421.103C125.479 414.115 121.721 409.244 115.534 406.494C109.272 403.431 98.9868 400.665 84.6743 398.197L72.4712 396.29C55.7837 393.814 43.0883 390.017 34.393 384.9C26.2563 380.162 21.0883 372.017 18.8774 360.462C16.3266 347.099 19.229 335.49 27.5805 325.634C35.9321 315.771 48.5415 309.228 65.4087 306.009C83.3344 302.583 98.3227 304.408 110.377 311.478C122.428 318.54 130.151 330.958 133.549 348.728L113.721 352.509C111.491 340.822 106.307 332.646 98.1743 327.978C90.0376 323.302 80.1977 322.068 68.6587 324.275C58.1665 326.275 50.1626 330.13 44.643 335.837C39.1196 341.537 37.0571 348.025 38.4555 355.306C39.7563 362.142 43.2094 367.072 48.8149 370.103C54.2602 373.001 63.7876 375.427 77.393 377.384L88.8305 379.244C106.1 382.236 118.791 385.63 126.909 389.431C138.303 394.662 145.206 403.583 147.612 416.197C150.194 429.72 147.221 441.548 138.69 451.681C130.159 461.806 116.85 468.595 98.768 472.04Z" fill="#FF0000"/>
<path d="M181.574 463.815L160.965 466.159L157.574 436.331L178.183 433.987L181.574 463.815ZM175.012 410.534L155.621 412.737L142.418 296.377L161.808 294.174L175.012 410.534Z" fill="#FF0000"/>
<path d="M130.725 323.842L72.8184 258.624L175.412 167.53L186.725 180.264L95.4122 261.342L142.006 313.827L130.725 323.842Z" fill="#FF0000"/>
<path d="M49.733 278.048L37.3424 273.673L39.2955 268.126L58.3424 247.829L53.7174 147.251L56.1862 140.22L70.0299 145.11L72.5924 230.392L127.514 165.392L140.999 170.157L138.53 177.188L49.733 278.048Z" fill="#FF0000"/>
<path d="M159.811 97.7173C153.6 103.217 147.295 106.042 140.889 106.186C134.49 106.323 128.897 103.686 124.092 98.2798L111.123 83.6861C106.373 78.3345 104.42 72.4478 105.264 66.0298C106.17 59.4673 109.666 53.4907 115.748 48.0923C121.772 42.7486 127.905 40.0767 134.155 40.0767C140.405 40.0689 145.928 42.7642 150.733 48.1704L160.217 58.8423L130.483 85.2486L133.967 89.1704C136.28 91.7876 139.006 93.0572 142.155 92.9829C145.311 92.9126 148.498 91.4478 151.717 88.5923C157.069 83.8345 158.342 78.9478 155.53 73.9361L165.561 65.0298C169.342 70.2798 170.74 75.7876 169.764 81.5454C168.783 87.2954 165.467 92.6861 159.811 97.7173ZM120.998 74.5767L123.67 77.5923L143.373 60.1079L140.701 57.0923C138.44 54.5415 135.78 53.2915 132.717 53.3423C129.655 53.3853 126.576 54.7876 123.483 57.5454C120.381 60.2954 118.623 63.1861 118.217 66.2173C117.811 69.2407 118.74 72.0259 120.998 74.5767Z" fill="#FF0000"/>
<path d="M203.851 174.967L192.507 177.123L188.351 155.357C185.671 160.369 181.07 163.498 174.539 164.748C168.695 165.865 163.671 165.057 159.476 162.326C155.289 159.588 152.589 155.057 151.382 148.732L148.195 132.029C146.976 125.646 147.836 120.428 150.773 116.373C153.711 112.311 157.921 109.756 163.414 108.701C170.089 107.432 175.882 108.822 180.789 112.873L183.867 106.092L190.461 104.842L203.851 174.967ZM174.632 154.029C178.964 153.209 182.855 150.076 186.304 144.639L182.164 122.982C176.964 119.213 172.168 117.744 167.773 118.576C164.886 119.131 162.671 120.529 161.132 122.779C159.601 125.029 159.121 127.666 159.695 130.686L162.57 145.732C163.152 148.764 164.586 151.045 166.867 152.576C169.148 154.1 171.734 154.584 174.632 154.029Z" fill="#FF0000"/>
<path d="M40.9906 85.5376C44.1468 81.4243 49.9593 77.7642 58.4281 74.5532L91.9593 62.0063L100.381 68.4595L97.8187 71.7876L70.725 81.4595C73.4828 82.3345 76.0609 83.6899 78.4593 85.522C83.1781 89.1392 85.8343 93.7329 86.4281 99.3032C87.1664 104.897 85.3578 110.526 81.0062 116.194C76.2015 122.475 70.6507 126.042 64.35 126.897C58.0453 127.76 51.7797 125.807 45.5531 121.038C39.3343 116.264 35.8187 110.725 35.0062 104.413C34.1937 98.1118 36.1859 91.8188 40.9906 85.5376ZM71.4593 109.678C74.1859 106.124 75.3812 102.67 75.0375 99.3188C74.6937 95.9673 72.7406 92.9282 69.1781 90.2095C65.6234 87.4829 62.1859 86.3892 58.8656 86.9282C55.5414 87.4595 52.514 89.5024 49.7875 93.0532C47.1078 96.5532 45.932 100.045 46.2562 103.522C46.5883 106.999 48.4789 110.061 51.9281 112.709C55.3734 115.354 58.8226 116.385 62.2718 115.803C65.7172 115.217 68.7797 113.178 71.4593 109.678Z" fill="#FF0000"/>
<path d="M203.067 90.146C199.056 92.3022 195.2 92.9975 191.505 92.2241C187.817 91.4428 184.981 89.2007 182.989 85.4897C180.688 81.2007 180.349 77.1889 181.974 73.4585C183.599 69.7202 187.208 66.3452 192.802 63.3335L201.739 58.521L200.02 55.3022C197.684 50.9585 193.962 50.1694 188.849 52.9272C186.388 54.2514 184.778 55.7944 184.005 57.5522C183.235 59.3139 183.329 61.0835 184.286 62.8647L175.895 67.3803C173.614 63.1421 173.208 59.0639 174.677 55.146C176.138 51.2319 179.454 47.8803 184.63 45.0991C189.856 42.2866 194.54 41.3491 198.677 42.2866C202.821 43.2241 206.044 45.8413 208.349 50.1303L223.349 78.0366L218.333 80.7241L212.599 77.9585C211.536 83.2397 208.356 87.3022 203.067 90.146ZM200.599 81.3803C204.618 79.2163 207.263 75.8022 208.536 71.146L205.286 65.0991L196.349 69.9116C190.868 72.8608 189.13 76.1928 191.13 79.9116C192.95 83.31 196.106 83.7983 200.599 81.3803ZM177.833 37.9272C179.239 38.396 180.458 38.0913 181.489 37.0053C182.513 35.9116 182.892 34.7397 182.63 33.4897C182.372 32.2397 181.528 31.3608 180.099 30.8491C178.704 30.3921 177.489 30.7085 176.458 31.8022C175.427 32.896 175.048 34.0639 175.317 35.3022C175.579 36.5444 176.419 37.4194 177.833 37.9272ZM187.958 36.8335C187.102 39.2397 185.528 41.0639 183.239 42.3022C180.938 43.5444 178.536 43.8569 176.036 43.2397C173.528 42.5639 171.684 41.1303 170.505 38.9428C169.329 36.7475 169.169 34.4428 170.02 32.0366C170.856 29.5678 172.423 27.7163 174.724 26.4741C177.017 25.2358 179.423 24.9546 181.942 25.6303C184.434 26.2475 186.263 27.6538 187.442 29.8491C188.618 32.0366 188.79 34.3647 187.958 36.8335Z" fill="#FF0000"/>
<path d="M144.332 38.1562L138.301 35.1406L136.113 17.2812L151.66 8.39062L157.692 11.4062L156.676 13.4531L143.473 20.9688L145.348 36.125L144.332 38.1562ZM157.676 44.8125L151.629 41.7969L149.442 23.9531L164.988 15.0469L171.035 18.0625L170.02 20.1094L156.817 27.625L158.692 42.7812L157.676 44.8125Z" fill="#FF0000"/>
<path d="M76.4218 57.8804L71.4062 50.521L108.25 25.3491L104.906 20.4585L108.797 17.8022L121.234 22.9429L123.25 25.896L76.4218 57.8804Z" fill="#FF0000"/>
<path d="M174.875 285.859C179.707 287.273 183.785 287.113 187.109 285.374C190.441 283.648 192.711 280.71 193.922 276.562L198.875 259.562C200.082 255.406 199.742 251.703 197.859 248.453C195.984 245.203 192.629 242.87 187.797 241.453C183.023 240.07 178.929 240.249 175.515 241.999C172.109 243.749 169.812 246.667 168.625 250.749L163.672 267.749C162.484 271.824 162.859 275.515 164.797 278.828C166.742 282.132 170.101 284.472 174.875 285.859ZM154.515 265.453L159.656 247.781C161.55 241.292 165.207 236.683 170.625 233.953C176.039 231.226 182.562 230.976 190.187 233.203C197.82 235.421 203.179 239.109 206.265 244.265C209.359 249.421 209.945 255.288 208.031 261.859L202.89 279.531C200.972 286.101 197.328 290.738 191.953 293.437C186.586 296.132 180.086 296.367 172.453 294.14C164.828 291.921 159.457 288.21 156.343 283.015C153.226 277.808 152.617 271.953 154.515 265.453Z" fill="#FF0000"/>
<path d="M201.658 452.403L192.065 453.075L188.362 399.919L178.315 400.606L177.721 392.231L187.768 391.544C187.244 384.044 188.487 378.208 191.487 374.028C194.487 369.841 199.658 367.493 207.002 366.981C207.877 366.919 209.272 366.903 211.19 366.935L211.799 375.56L211.19 375.481C210.791 375.505 210.334 375.536 209.815 375.575C209.303 375.606 208.928 375.634 208.69 375.653C204.377 375.958 201.307 377.134 199.487 379.185C197.674 381.239 196.916 384.458 197.221 388.841L197.362 390.872L212.19 389.841L212.783 398.216L197.955 399.247L201.658 452.403Z" fill="#FF0000"/>
<path d="M187.3 222.792L174.003 216.151L183.331 197.495L196.628 204.135L187.3 222.792Z" fill="#FF0000"/>
<path d="M70.2269 276.279L77.3207 280.279L56.0707 302.685L46.3363 297.201L48.6957 292.998L70.2269 276.279Z" fill="#FF0000"/>
<path d="M93.4631 167.952C86.9943 165.053 82.5021 161.452 79.9943 157.139C77.4826 152.834 77.2365 148.42 79.2599 143.889C80.1349 141.952 81.2053 140.323 82.4787 138.998L75.4943 135.873L78.9631 128.108L132.385 151.998L128.916 159.764L93.5881 143.967C92.5881 144.811 91.7834 145.916 91.1818 147.28C89.2521 151.592 91.5959 155.225 98.2131 158.186C101.221 159.53 103.955 159.998 106.416 159.592C108.885 159.194 110.557 158.022 111.432 156.077L122.963 161.233C120.776 166.116 116.854 169.19 111.197 170.452C105.612 171.577 99.7014 170.741 93.4631 167.952ZM133.729 148.983L80.3068 125.092L83.7756 117.342L119.963 133.53C120.94 132.686 121.737 131.577 122.354 130.202C123.186 128.338 123.049 126.428 121.947 124.467C120.854 122.51 118.76 120.838 115.666 119.452C112.498 118.038 109.744 117.538 107.401 117.952C105.065 118.37 103.451 119.584 102.557 121.592L91.0256 116.436C93.2443 111.479 97.0725 108.413 102.51 107.233C107.916 105.944 113.811 106.725 120.197 109.577C126.666 112.475 131.123 116.088 133.572 120.42C136.029 124.756 136.233 129.217 134.182 133.811C133.244 135.897 132.166 137.436 130.947 138.436L137.197 141.233L133.729 148.983Z" fill="#FF0000"/>
<path d="M188.994 270.029C187.502 270.962 186.279 272.158 185.35 273.642C186.889 272.771 188.033 271.494 188.994 270.029ZM183.357 190.4C184.131 192.408 184.771 193.599 186.826 192.638C185.92 191.701 184.869 191.259 183.357 190.4ZM186.701 275.728C188.99 275.669 190.057 274.634 190.096 272.24C188.951 273.56 187.584 274.322 186.701 275.728ZM187.057 286.841C187.229 286.693 187.396 286.544 187.568 286.392C185.83 284.423 184.088 282.451 182.35 280.478C183.6 282.853 184.842 285.232 187.057 286.841ZM312.123 107.724C314.193 110.849 316.127 114.068 318.135 117.232C316.525 113.81 314.9 110.396 312.123 107.724ZM182.303 201.498C182.361 200.072 182.354 198.884 181.17 198.279C180.123 197.744 179.111 198.091 178.123 199.099C179.533 199.908 180.814 200.642 182.303 201.498ZM195.279 269.017C194.635 269.173 194.584 269.556 194.943 269.958C196.416 271.626 197.92 273.267 199.412 274.919C199.764 275.306 200.115 275.333 200.502 274.947C200.955 274.498 200.904 274.138 200.482 273.666C199.334 272.384 198.225 271.08 196.744 270.146C196.221 269.814 195.76 269.392 195.279 269.017ZM185.643 205.712C185.779 205.505 185.916 205.302 186.053 205.095C181.76 202.474 177.463 199.853 173.17 197.228C176.916 200.705 181.428 202.97 185.643 205.712ZM9.27931 290.595C10.9238 294.517 13.209 297.994 16.0254 301.13C14.0723 297.419 12.2988 293.603 9.27931 290.595ZM194.158 197.353C194.197 196.873 193.756 196.595 193.291 196.4C192.666 196.142 192.6 196.681 192.475 197.072C191.635 199.689 190.404 202.123 188.951 204.443C188.572 205.044 188.561 205.513 189.248 205.853C190.088 206.267 189.939 205.392 190.193 205.084C190.697 204.478 191.186 203.849 191.596 203.173C192.678 201.392 193.701 199.572 194.158 197.353ZM190.963 208.298C197.104 212.669 203.549 216.552 210.162 220.166C203.986 215.845 197.662 211.767 190.963 208.298ZM177.357 187.478C177.338 186.501 176.51 186.345 175.959 185.947C175.533 185.642 175.115 185.771 174.893 186.236C173.666 188.833 172.459 191.435 171.24 194.037C170.955 194.642 171.279 194.982 171.748 195.263C172.318 195.603 172.689 195.318 172.99 194.841C173.908 193.384 174.85 191.939 175.736 190.462C176.326 189.478 176.838 188.447 177.357 187.478ZM49.9668 149.876C46.6504 150.697 45.1895 152.787 45.8809 155.904C46.1895 157.302 47.6465 157.248 48.6973 157.455C49.7051 157.654 49.4356 156.619 49.5528 156.068C49.9746 154.029 50.127 151.97 49.9668 149.876ZM44.3106 172.697C46.0879 172.791 46.4395 172.025 45.6699 170.275C44.5996 167.853 45.0293 165.81 47.0606 164.173C47.5996 163.744 47.9629 163.259 48.166 162.638C48.4278 161.833 49.2637 160.923 47.5879 160.552C46.4473 160.298 45.4785 159.939 45.2207 161.583C44.7129 164.814 43.6699 167.931 43.2363 171.189C43.0684 172.455 43.5098 172.72 44.3106 172.697ZM16.4121 295.978C14.6192 291.982 12.9981 287.912 10.1817 284.49C9.3965 283.533 8.71681 282.181 7.21291 282.353C6.54494 282.431 7.05666 285.634 7.94338 286.771C7.98635 286.83 8.04103 286.88 8.09181 286.927C11.1348 289.685 13.8926 292.701 16.4121 295.978ZM251.025 413.166C248.65 412.345 246.279 411.521 243.904 410.709C236.846 408.298 229.588 406.834 222.162 406.201C221.443 406.138 220.314 405.521 220.295 407.115C220.279 408.419 220.869 408.966 222.146 408.834C222.361 408.81 222.58 408.822 222.799 408.818C226.053 408.748 229.287 409.056 232.506 409.466C238.787 410.263 244.92 411.787 251.025 413.166ZM40.1387 179.146C40.9121 175.197 42.416 171.404 42.0606 167.275C41.9551 166.044 42.1778 164.541 42.8262 163.533C44.9317 160.248 44.3887 156.466 45.1699 152.947C45.2637 152.521 45.3613 151.697 44.5762 151.892C43.1153 152.263 41.6934 152.81 40.2871 153.369C39.8457 153.544 40.1035 153.974 40.3028 154.279C42.6113 157.876 41.8613 161.802 41.4238 165.65C40.9121 170.15 40.1699 174.619 40.1387 179.146ZM242.893 442.556C242.432 442.474 242.271 442.861 242.186 443.201C241.357 446.482 240.537 449.759 239.732 453.044C239.596 453.611 239.764 454.021 240.436 454.123C241.502 454.279 242.561 454.47 243.623 454.658C244.217 454.763 244.654 454.619 244.646 453.943C244.596 450.509 245.604 447.291 246.564 444.052C246.729 443.494 247.264 442.431 245.975 442.498C245.174 442.541 243.537 442.666 242.893 442.556ZM15.8379 304.74C15.5528 303.111 14.1582 302.162 13.1309 301.033C8.98635 296.474 5.5215 291.595 4.74416 285.259C4.68556 284.787 4.67385 284.173 3.93947 284.201C3.35744 284.22 2.80275 284.283 2.54494 284.974C1.8926 286.724 1.80666 288.431 2.43947 290.244C4.59572 296.388 8.42385 301.392 12.9551 305.927C13.4903 306.462 13.9278 307.435 14.834 307.115C15.8184 306.767 15.3535 305.58 15.8379 304.74ZM186.67 276.701C184.896 276.419 184.479 277.572 183.721 278.13C183.279 278.455 183.451 278.853 183.787 279.228C185.322 280.947 186.865 282.662 188.35 284.423C188.998 285.185 189.568 285.13 190.084 284.408C190.717 283.517 191.521 282.896 192.447 282.337C193.092 281.947 194.123 281.384 192.576 280.58C191.658 280.103 191.908 279.197 192.561 278.58C193.709 277.49 195.049 276.806 196.67 277.435C197.146 277.619 197.518 277.994 197.963 277.427C198.393 276.892 198.018 276.466 197.764 276.064C196.807 274.541 195.76 273.072 194.857 271.517C194.096 270.201 193.424 270.205 192.443 271.302C191.928 271.876 191.725 272.498 191.494 273.185C190.584 275.896 189.057 276.865 186.67 276.701ZM209.217 254.642C205.92 258.084 202.998 261.158 200.029 264.193C199.342 264.9 199.346 265.439 199.893 266.24C201.064 267.955 202.303 269.662 202.229 271.974C203.225 271.474 203.467 270.435 204.721 270.521C205.869 270.599 209.182 266.623 209.201 265.419C209.252 261.982 209.217 258.541 209.217 254.642ZM178.443 187.56C177.771 187.615 177.756 188.228 177.525 188.646C176.467 190.529 175.393 192.404 174.404 194.326C174.088 194.939 172.877 195.689 173.83 196.275C175.1 197.056 176.068 198.959 178.072 197.994C181.42 196.38 182.701 197.013 183.529 200.705C183.607 201.052 183.666 201.423 183.826 201.74C185.08 204.251 186.756 204.482 188.658 202.439C189.971 201.033 190.689 199.302 191.318 197.537C191.557 196.869 192.506 196.033 191.521 195.462C190.354 194.787 189.439 193.334 187.748 193.861C184.33 194.923 183.381 194.4 182.545 190.99C182.307 190.017 179.275 187.482 178.443 187.56ZM122.334 294.58C121.475 297.001 117.678 305.001 116.416 306.841C115.951 307.521 115.74 308.044 116.557 308.642C118.592 310.126 120.584 311.677 122.6 313.189C123.471 313.841 124.123 313.654 124.736 312.732C126.971 309.357 128.881 305.814 130.447 302.083C130.744 301.384 130.916 300.751 130.119 300.185C127.596 298.404 125.1 296.58 122.334 294.58ZM210.209 218.802C210.631 214.99 210.725 211.423 210.713 207.845C210.709 206.994 210.205 206.521 209.576 206.142C205.936 203.955 202.275 201.794 198.643 199.591C197.842 199.103 197.443 199.166 197.049 200.095C196.455 201.482 195.748 202.83 194.971 204.123C194.17 205.459 193.518 204.998 193.107 203.642C192.377 204.798 191.725 205.822 191.006 206.959C197.318 210.853 203.662 214.763 210.209 218.802ZM79.8379 467.041C68.1621 471.216 56.4746 473.318 44.3457 475.533C47.4199 477.853 50.3028 479.369 53.4473 480.486C59.0996 482.501 65.0254 482.837 70.8848 483.623C71.7285 483.736 72.2715 483.431 72.6426 482.705C75.1504 477.787 77.8106 472.935 79.8379 467.041ZM100.51 115.888C92.0606 118.533 37.7637 145.49 36.0528 146.103C35.6309 146.255 35.0449 146.287 35.041 147.021C35.0293 149.337 38.6934 151.9 40.877 151.072C48.5879 148.142 55.8965 144.361 63.166 140.498C74.4395 134.505 85.6152 128.318 97.2715 123.072C97.8223 122.826 98.3027 122.513 98.502 121.927C99.1426 120.044 99.7598 118.15 100.51 115.888ZM221.596 105.271C231.561 96.9351 242.322 91.0444 254.443 87.3413C244.4 83.7866 236.029 77.8921 228.92 69.9936C228.834 71.1811 228.943 72.2241 229.127 73.2515C229.928 77.771 230.436 82.2124 227.58 86.3374C226.521 87.8686 225.889 89.689 224.959 91.3179C222.553 95.5132 221.83 100.095 221.596 105.271ZM37.3731 253.533C38.2559 236.947 40.459 220.501 42.7598 204.064C43.9278 195.705 45.0059 187.337 46.1543 178.978C46.2793 178.076 46.3028 177.201 45.1387 177.431C44.1035 177.634 42.4746 176.103 42.0528 178.353C41.627 180.619 41.166 182.88 40.7715 185.154C38.2949 199.509 36.7129 214.005 33.9004 228.314C32.4121 235.884 32.1035 243.638 31.1699 251.298C30.7481 254.751 37.2168 256.466 37.3731 253.533ZM168.154 193.064C170.107 190.955 170.986 188.158 172.549 185.802C173.33 184.623 172.967 184.103 171.877 183.486C167.412 180.966 162.982 178.388 158.557 175.806C137.803 163.701 116.924 151.802 96.0293 139.931C94.6465 139.146 94.291 139.47 93.7363 140.732C92.7168 143.041 91.6465 145.345 90.3262 147.486C89.2559 149.224 89.4785 150.048 91.2871 151.08C101.26 156.755 167.939 192.947 168.154 193.064ZM17.5567 311.748C17.3106 312.556 17.1192 313.021 17.0293 313.505C15.7363 320.533 14.4082 327.556 13.4863 334.642C13.2012 336.833 16.0059 339.841 16.0606 339.884C18.6074 341.814 20.9629 343.978 22.7442 346.623C26.9356 352.849 30.4785 359.474 33.6113 366.287C36.4356 372.427 38.8379 378.767 41.4356 385.017C42.7559 388.197 43.9668 391.412 45.4004 394.552C46.5996 397.185 47.0684 400.185 48.1778 402.927C50.5293 408.763 53.1621 414.513 55.1192 420.478C57.8106 428.681 60.0059 437.044 62.3692 445.353C64.4981 452.841 66.6035 460.341 68.6348 467.861C69.041 469.361 69.8926 469.095 70.9121 468.857C72.0449 468.591 72.084 468.037 71.752 466.97C69.4238 459.529 67.5645 451.962 65.7402 444.388C62.3887 430.498 58.041 416.876 54.4356 403.052C50.0996 386.431 45.1738 369.99 39.0371 353.939C35.2285 343.982 31.5137 333.966 26.041 324.751C23.4707 320.423 20.8106 316.146 17.5567 311.748ZM205.357 465.923C206.869 466.119 207.787 466.283 208.709 466.353C213.678 466.74 218.646 467.072 223.611 467.49C232.529 468.244 241.408 469.49 250.357 469.841C261.76 470.287 273.17 470.58 284.58 470.884C290.787 471.048 296.998 471.119 303.197 471.556C304.541 471.65 306.15 471.916 307.123 470.81C309.9 467.65 312.1 464.084 313.861 460.259C314.186 459.56 314.068 459.08 313.135 458.884C308.451 457.927 303.807 457.498 299.412 459.923C294.4 462.689 289.338 461.673 284.275 460.228C282.74 459.787 281.436 458.814 280.158 457.873C279.729 457.556 279.014 457.181 279.381 456.513C279.826 455.705 280.35 456.435 280.822 456.638C281.416 456.9 282.014 457.162 282.588 457.459C287.736 460.13 293.26 460.548 298.506 458.56C303.49 456.673 308.268 456.209 313.307 457.572C314.33 457.849 314.939 457.681 315.244 456.576C316.076 453.584 316.982 450.619 317.443 447.533C317.713 445.712 316.861 444.931 315.221 444.908C309.709 444.837 304.248 445.173 299.01 447.142C295.014 448.642 290.924 449.224 286.689 448.24C285.1 447.869 283.584 447.423 282.881 445.748C282.592 445.064 282.029 445.037 281.455 445.021C280.701 444.998 280.818 445.634 280.686 446.095C279.912 448.794 279.643 451.623 278.365 454.189C276.877 455.837 275.393 455.626 272.963 456.806C266.943 460.794 260.432 461.72 253.486 460.626C251.471 460.31 249.338 459.771 248.127 458.08C246.908 456.373 245.326 455.853 243.494 455.404C239.963 454.541 232.604 457.892 224.35 458.087C222.576 457.904 220.811 457.357 219.119 456.759C217.459 456.173 217.236 455.619 217.396 454.095C220.9 456.619 224.779 458.205 229.045 456.611C231.838 455.564 234.58 454.56 237.541 454.22C238.314 454.13 238.943 454.017 239.025 453.037C239.291 449.923 240.092 446.927 241.064 443.97C241.424 442.884 241.107 442.482 239.936 442.822C237.576 443.498 235.146 443.966 232.85 444.798C228.424 446.404 224.201 446.091 220.104 443.888C219.131 443.365 218.881 443.724 218.689 444.599C218.236 446.662 217.463 448.611 216.447 450.451C213.451 455.884 210.229 461.166 205.357 465.923ZM209.135 268.775C207.85 269.869 169.475 306.861 161.162 314.462C160.232 315.31 160.553 315.662 161.4 316.177C166.639 319.361 171.713 322.837 177.111 325.712C187.971 331.498 199.58 335.443 211.346 338.955C212.729 339.365 213.119 339.185 213.021 337.685C212.705 332.712 212.365 327.74 212.283 322.763C212.143 314.037 210.459 305.447 210.232 296.728C209.99 287.361 209.51 278.001 209.135 268.775ZM96.9473 126.041C96.2168 126.287 95.9317 126.349 95.6699 126.47C81.7481 132.837 68.2871 140.123 54.7442 147.244C54.0254 147.619 53.6621 148.123 53.5137 148.876C52.9356 151.822 51.9121 154.755 51.8731 157.701C51.8184 161.65 50.9668 165.419 50.2676 169.232C49.8301 171.619 50.3535 174.49 48.6817 176.279C46.4824 178.63 46.916 181.38 46.5137 184.005C46.1113 186.642 46.1465 189.341 45.7832 191.986C43.0723 211.572 40.2559 231.142 39.1113 250.908C38.8535 255.384 38.7598 255.322 43.1582 255.986C44.7871 256.232 45.2793 255.755 45.3887 254.13C45.8301 247.494 46.8535 240.931 48.0606 234.392C50.2481 222.544 54.3184 211.33 59.2285 200.357C62.4121 193.248 64.8145 185.759 68.7324 179.005C75.9746 166.513 83.2285 154.033 89.9902 141.271C92.5449 136.451 94.9668 131.556 96.9473 126.041ZM248.709 441.931C253.346 444.935 258.131 447.072 263.744 444.693C269.049 442.443 274.541 442.283 280.107 443.306C282.752 443.794 284.682 446.72 287.096 447.224C289.732 447.943 292.252 447.423 294.697 446.408C300.74 443.888 307.107 443.209 313.561 443.181C318.236 443.166 318.248 443.255 317.857 438.466C317.779 437.482 317.885 436.33 316.803 435.783C315.01 434.869 303.479 433.248 299.861 432.13C291.111 429.435 282.436 426.498 273.779 423.513C261.49 419.279 249.725 413.47 236.768 411.24C231.967 410.412 227.154 409.681 222.271 409.521C221.35 409.494 220.604 409.4 220.678 410.798C218.689 444.599 229.467 442.673 234.475 441.681C237.893 441.001 241.318 440.025 244.842 441.068C246.611 441.595 247.584 441.205 248.709 441.931ZM216.803 125.97C217.932 124.912 218.799 124.091 219.674 123.279C220.576 122.443 221.443 121.572 222.393 120.791C237.65 108.216 255.252 102.599 274.873 104.005C285.064 104.736 294.029 109.06 301.615 116.044C309.584 123.38 313.111 133.021 315.604 143.142C318.01 152.916 317.986 162.888 317.443 172.869C317.022 180.654 316.408 188.373 314.115 195.931C310.264 208.65 305.6 221.08 301.193 233.599C297.861 243.072 293.631 252.169 289.205 261.181C287.006 265.662 285.647 270.47 284.9 275.423C284.674 276.908 285.537 277.853 286.689 278.31C287.838 278.763 288.736 277.935 289.342 276.966C289.772 276.283 290.229 275.63 290.92 275.216C292.971 273.982 294.357 272.134 295.576 270.162C300.096 262.845 303.658 255.013 307.397 247.298C310.897 240.087 313.662 232.548 315.416 224.634C316.818 218.306 319.139 212.189 320.775 205.908C325.314 188.537 329.018 171.052 326.943 152.9C325.428 139.587 322.232 126.74 315.537 115.044C310.369 106.017 303.92 98.1186 293.74 94.228C291.99 93.5561 290.275 92.8022 288.533 92.1069C276.748 87.4038 264.775 87.2046 252.646 90.5913C242.045 93.5483 232.756 98.9976 224.076 105.595C222.732 106.619 218.756 110.607 218.611 111.369C218.439 112.291 218.361 113.228 218.225 114.154C217.662 117.974 217.057 121.787 216.803 125.97ZM11.4043 389.349C13.8223 405.365 17.1856 421.173 23.1035 436.322C27.6817 448.048 31.6856 460.037 38.9942 470.521C41.3965 473.97 43.9707 475.209 47.9863 473.955C48.6035 473.763 49.2168 473.494 49.8457 473.423C55.3809 472.791 60.6973 471.115 66.1465 470.095C67.627 469.822 67.9473 469.298 67.4629 467.759C60.4199 445.47 54.5137 422.834 46.2988 400.9C40.8574 386.365 35.5762 371.791 28.3496 358.017C24.9785 351.591 21.1387 345.509 15.3262 340.923C14.6348 340.376 13.8613 339.626 13.0918 339.826C12.1621 340.064 12.3887 341.267 12.2754 342.048C10.9551 351.064 10.4043 382.705 11.4043 389.349ZM107.346 485.439C107.346 485.255 117.307 485.048 122.275 484.853C126.959 484.669 131.646 484.302 136.287 483.552C150.893 481.189 165.42 478.396 179.904 475.38C183.959 474.533 187.92 473.525 191.291 470.935C196.326 467.068 201.041 462.869 205.307 458.142C212.971 449.646 216.596 439.494 217.76 428.322C218.049 425.529 217.857 425.47 215.014 425.572C211.553 425.697 183.955 429.123 178.299 429.791C160.479 431.9 143.83 437.88 127.486 444.896C121.693 447.38 94.2285 462.525 85.2793 465.584C84.3926 465.884 83.4942 466.099 83.0762 467.126C80.8887 472.548 78.6074 477.923 75.5723 482.947C74.9863 483.919 75.2598 484.677 76.627 484.427C77.8535 484.201 79.0684 484.341 80.2949 484.423C89.3027 484.998 98.3067 485.623 107.346 485.439ZM162.041 57.7827C149.451 59.1499 137.533 63.1811 125.365 66.2007C119.479 67.6616 114.35 71.1694 108.861 73.7085C107.678 74.2554 107.686 75.0952 107.775 76.189C108.553 85.439 108.373 94.6655 106.814 103.837C106.303 106.837 105.729 109.822 105.146 112.994C109.096 111.716 112.65 110.103 116.537 109.634C113.275 110.939 109.959 112.083 106.658 113.271C105.869 113.556 104.893 113.708 104.592 114.673C104.041 116.439 103.568 118.228 102.928 120.486C104.232 119.939 105.068 119.599 105.9 119.24C112.42 116.419 119.221 114.517 126.15 113.029C139.982 110.052 154.01 108.138 167.787 104.775C187.385 99.9897 206.498 94.2397 223.576 83.0796C226.475 81.1811 227.275 79.3101 226.24 75.7827C205.15 86.9468 182.998 95.2007 159.67 100.244C160.58 99.8022 161.533 99.478 162.498 99.1968C169.357 97.1968 176.193 95.0835 183.096 93.2358C190.025 91.3804 196.1 87.4233 203.08 85.5913C207.986 84.3061 212.604 81.853 217.271 79.7515C219.959 78.5405 222.502 77.0015 225.1 75.5835C225.717 75.2476 226.33 74.9429 226.182 73.9585C225.244 67.603 223.127 61.5601 221.26 55.4546C220.818 54.0171 219.916 53.5405 218.357 53.6226C210.572 54.021 178.373 56.0093 162.041 57.7827ZM107.143 71.0522C107.377 72.8179 107.604 73.4272 109.537 72.3921C120.389 66.5679 131.705 61.8101 143.646 58.771C159.666 54.6968 176.061 53.1733 192.518 52.1968C200.803 51.7046 209.135 52.0483 217.377 50.6968C219.002 50.4272 219.307 50.064 218.604 48.5601C214.721 40.2163 210.018 32.5249 202.334 27.0444C198.576 24.3608 195.006 21.4077 191.232 18.7475C172.084 5.22801 150.682 1.32567 127.76 4.00145C113.498 5.66551 101.092 12.1382 88.8418 19.0327C87.7481 19.646 87.7715 20.0991 88.5527 20.9507C91.6465 23.8452 105.939 53.4311 107.143 71.0522ZM71.9043 463.865C73.2676 468.158 73.209 468.041 77.6699 466.876C79.8379 466.31 80.9434 465.138 81.5645 463.095C82.6074 459.642 83.877 456.259 84.9238 452.806C88.2559 441.845 90.3848 430.716 90.4356 419.177C90.4863 407.974 88.8496 397.052 86.3496 386.177C83.6738 374.548 80.4824 363.103 75.3301 352.298C71.7637 344.81 68.1543 337.341 64.4903 329.9C56.9121 314.513 50.5371 298.689 46.4942 281.97C44.7832 274.9 44.0723 267.744 44.1934 260.509C44.2129 259.13 43.9785 258.716 42.7168 258.607C38.9903 258.279 35.2442 258.048 31.5488 257.486C29.2051 257.13 28.4942 258.162 28.1504 260.162C27.4121 264.494 26.6426 268.826 25.7559 273.134C23.3262 284.935 20.3262 296.619 18.1113 308.466C17.9434 309.373 17.5606 310.251 18.2051 311.169C19.7168 313.326 21.2598 315.544 22.9121 317.505C25.5996 320.701 27.6426 324.201 29.4512 327.837C34.6934 338.38 38.5879 349.494 42.5606 360.548C48.5371 377.189 53.8106 394.056 58.2324 411.189C62.0332 425.931 70.1192 458.232 71.9043 463.865ZM220.631 88.5561C219.705 89.0913 219.025 89.4741 218.354 89.8726C213.311 92.8569 208.045 95.3726 202.545 97.4038C190.807 101.74 178.67 104.642 166.479 107.337C157.682 109.287 149.006 111.728 140.064 113.087C127.701 114.966 115.49 117.572 103.971 122.681C103.064 123.08 102.061 123.322 101.475 124.283C99.0371 128.287 97.4473 132.685 95.5098 136.919C95.0567 137.912 95.2246 138.326 96.2988 138.826C100.092 140.591 103.928 142.322 107.518 144.455C122.084 153.099 137.459 160.322 151.475 169.947C157.943 174.384 164.939 178.068 171.736 182.025C172.576 182.513 173.334 183.943 174.709 182.669C175.084 182.326 175.041 183.037 175.189 183.291C175.814 184.341 176.428 185.376 178.01 185.068C178.58 184.958 179.322 185.236 179.861 185.548C185.865 189.056 192.799 191.166 197.271 197.005C197.369 197.13 197.666 197.111 197.873 197.146C199.635 197.447 201.037 198.501 202.502 199.4C205.182 201.048 207.818 202.763 210.904 204.72C207.764 165.279 213.912 127.037 220.631 88.5561ZM209.939 227.81C209.939 226.681 209.791 225.919 209.967 225.244C210.557 223.017 209.467 221.861 207.686 220.771C202.139 217.392 196.682 213.869 191.182 210.408C190.756 210.142 190.314 209.845 189.838 209.72C183.432 208.048 177.971 204.537 172.627 200.826C171.584 200.099 170.189 199.88 169.521 198.529C169.143 197.763 167.572 197.673 168.314 196.166C168.396 195.99 167.006 195.001 166.221 194.505C161.24 191.376 103.49 159.115 90.3926 151.498C88.8731 150.611 88.4277 150.919 87.6973 152.212C83.9317 158.873 69.5879 182.587 67.1192 188.314C57.9199 209.638 51.459 231.736 48.2246 254.755C48.0137 256.259 48.4082 256.751 49.8653 257.033C53.6192 257.755 57.3418 258.642 61.0645 259.513C69.7168 261.544 78.2637 263.978 86.334 267.701C100.084 274.044 112.506 282.646 124.967 291.142C132.24 296.099 139.439 301.169 146.607 306.275C147.709 307.056 148.229 306.857 149.104 306.029C154.721 300.724 160.381 295.47 166.236 290.423C171.674 285.74 177.795 281.857 182.014 275.724C184.389 272.271 187.916 269.615 190.92 266.595C191.381 266.13 191.818 265.978 192.58 265.986C193.783 265.994 195.303 265.798 196.146 265.064C200.35 261.431 204.33 257.544 208.119 253.47C208.932 252.599 209.299 251.619 209.33 250.357C209.525 242.709 209.314 235.044 209.939 227.81ZM315.041 164.791C315.068 154.634 314.451 144.623 310.619 134.982C307.139 126.24 302.459 118.58 294.287 113.494C287.182 109.072 279.561 105.962 271.088 106.185C262.998 106.4 255.01 107.619 247.291 110.326C236.354 114.158 226.631 119.908 218.35 128.048C217.025 129.353 216.154 130.787 216.053 132.751C215.893 135.705 215.529 138.65 215.166 141.583C213.713 153.349 213.033 165.169 212.561 177.005C212.146 187.333 212.979 197.65 213.182 207.97C213.377 217.873 212.799 227.759 212.873 237.65C212.936 246.521 213.498 255.388 213.584 264.259C213.701 276.533 213.51 288.794 214.139 301.076C215.021 318.275 215.615 335.494 216.463 352.701C217.275 369.298 218.213 385.88 220.201 402.388C220.307 403.298 220.096 404.263 221.607 404.251C226.338 404.209 230.92 405.349 235.518 406.244C236.939 406.517 237.248 406.259 237.268 404.865C237.33 400.603 237.568 396.334 238.322 392.138C240.779 378.513 245.104 365.419 250.053 352.533C256.404 335.978 264.76 320.275 270.85 303.583C273.639 295.935 277.963 288.919 281.834 281.736C282.189 281.072 282.865 280.451 282.576 279.56C280.971 274.576 282.717 270.009 284.428 265.486C286.83 259.123 290.479 253.345 293.154 247.103C298.311 235.076 302.244 222.607 306.834 210.376C312.361 195.638 314.998 180.47 315.041 164.791ZM117.635 447.849C129.646 441.064 142.498 436.294 155.713 432.552C175.213 427.037 195.275 425.158 215.42 424.021C217.357 423.912 217.896 423.435 217.686 421.525C217.201 417.228 216.838 412.912 216.564 408.595C215.279 388.193 214.182 367.779 213.467 347.349C213.318 343.173 213.314 343.13 209.107 342.505C202.697 341.544 196.717 339.212 190.768 336.802C181.482 333.041 172.092 329.462 163.744 323.763C160.174 321.322 156.158 319.654 152.709 316.978C146.549 312.201 140.201 307.662 133.971 302.974C133.104 302.322 132.865 302.513 132.482 303.4C130.865 307.146 126.393 315.818 125.654 316.13C124.912 316.443 117.85 311.435 114.463 308.779C113.768 308.236 113.979 307.494 114.256 306.791C115.904 302.638 117.068 298.259 119.959 294.705C120.619 293.888 120.514 293.333 119.639 292.791C118.045 291.802 116.447 290.818 114.904 289.751C108.127 285.072 101.17 280.65 93.7754 277.048C79.6426 270.154 64.8418 265.193 49.2793 262.595C47.4629 262.294 46.6153 262.716 46.8301 264.541C47.3067 268.619 47.7559 272.708 48.4434 276.751C51.8848 296.912 60.0449 315.396 68.8223 333.646C73.5723 343.521 78.7051 353.212 82.1543 363.681C86.8145 377.822 91.002 392.056 92.4551 406.959C94.3145 426.068 91.7442 444.56 84.9238 462.49C84.6973 463.084 84.0606 463.677 84.5996 464.505C89.3027 462.806 116.389 448.552 117.635 447.849ZM44.0137 64.2905C32.4981 85.189 25.7715 107.056 28.5723 131.201C29.1504 136.177 31.0488 140.654 33.4317 144.986C34.0957 146.197 34.8535 145.83 35.7559 145.435C41.1738 143.064 83.0098 121.876 99.3692 115.443C100.541 114.982 100.846 114.06 101.178 112.974C104.963 100.666 105.771 88.1069 104.717 75.3257C102.162 49.9663 93.1856 34.185 89.3457 26.6186C88.4356 25.4116 84.8692 21.4546 83.4473 22.3686C71.7754 29.8413 61.752 39.0952 53.291 50.0561C52.4434 51.1538 47.4512 58.0483 44.0137 64.2905ZM150.049 308.146C152.002 310.529 154.83 311.65 157.377 313.166C157.873 313.462 158.252 312.814 158.604 312.474C166.529 304.783 174.854 297.533 183.221 290.337C184.264 289.443 183.967 289.15 183.162 288.271C181.479 286.443 178.529 285.072 180.268 281.72C179.447 281.576 179.193 282.103 178.842 282.423C172.811 287.904 149.525 307.974 150.049 308.146ZM92.8145 274.294C81.4082 268.572 69.459 264.384 57.0098 261.591C54.334 260.994 51.6895 260.263 49.0215 259.623C48.2246 259.431 47.4473 259.294 47.3028 260.537C47.1817 261.58 47.7168 261.775 48.5371 261.833C48.9668 261.865 49.3926 261.986 49.8223 262.041C62.5879 263.654 74.6582 267.705 86.5527 272.423C89.0567 273.419 94.1895 276.322 94.5996 276.56C97.7598 278.384 100.932 280.189 104.072 282.044C108.455 284.634 122.791 293.56 124.799 295.06C127.924 297.404 149.432 313.966 157.67 319.013C168.01 325.345 178.971 330.525 190.107 335.31C197.08 338.306 204.15 341.001 211.729 342.048C212.17 342.107 212.818 342.634 212.982 341.857C213.119 341.201 212.381 341.173 211.92 341.08C208.666 340.404 205.533 339.322 202.342 338.431C187.959 334.423 174.779 327.83 162.232 319.873C148.635 311.251 135.799 301.525 122.561 292.38C121.428 291.599 93.4668 274.623 92.8145 274.294ZM278.201 452.642C279.236 451.115 279.174 448.892 279.65 447.017C279.775 446.529 279.982 445.927 279.459 445.642C278.811 445.291 272.236 444.755 269.686 445.209C266.541 445.767 263.705 447.232 260.744 448.33C256.732 449.814 249.068 443.169 248.303 442.931C247.9 442.806 247.693 443.228 247.658 443.607C247.307 447.209 246.385 450.681 245.393 454.142C245.162 454.947 247.256 456.177 251.104 458.642C256.033 460.529 261.037 460.263 265.877 458.513C269.221 457.306 277.17 454.169 278.201 452.642ZM263.314 330.58C271.553 315.24 277.768 298.931 285.869 283.529C286.471 282.38 287.084 281.24 287.744 280.126C287.99 279.712 288.361 279.181 288.943 279.576C289.389 279.876 289.123 280.38 288.947 280.755C287.725 283.373 286.498 285.986 285.244 288.587C283.928 291.318 282.248 293.923 281.311 296.779C279.1 303.505 276.115 309.904 273.416 316.423C266.951 332.033 260.092 347.482 254.354 363.384C249.334 377.291 246.463 391.584 246.51 406.427C246.518 408.474 247.146 409.365 249.15 410.056C265.943 415.837 282.666 421.826 299.451 427.634C304.838 429.498 310.486 430.662 315.764 432.779C321.022 434.892 322.412 434.962 322.502 441.263C322.514 442.185 322.568 442.689 323.76 442.673C332.373 442.572 340.908 441.705 349.369 440.087C349.791 440.005 350.193 439.806 350.619 439.751C351.26 439.666 351.857 438.724 352.522 439.533C353.1 440.232 352.287 440.626 352.053 441.173C351.811 441.74 332.225 447.08 321.439 447.134C321.518 445.88 319.916 448.084 319.744 448.849C319.111 451.677 318.42 454.494 317.213 457.126C316.432 458.826 317.014 459.033 318.588 458.916C323.494 458.552 328.326 457.646 333.186 456.955C340.963 455.841 348.432 453.744 355.506 450.287C355.857 450.115 356.256 449.615 356.627 450.123C357.111 450.787 356.51 451.162 356.076 451.525C351.721 455.162 347.061 458.126 341.24 458.873C333.373 459.888 325.572 461.556 317.572 461.041C316.627 460.978 316.307 461.521 315.928 462.134C314.982 463.673 313.846 465.126 313.123 466.763C310.752 472.15 306.283 473.716 300.877 474.232C295.963 474.701 264.029 473.302 255.369 473.037C245.166 472.716 204.971 469.341 203.811 468.103C203.443 467.712 203.217 468.029 202.939 468.251C196.139 473.634 188.6 477.427 179.979 478.892C176.123 479.548 172.479 480.998 168.705 481.955C160.428 484.048 151.947 485.009 143.553 486.455C126.596 489.373 109.459 489.896 92.3613 489.271C78.6699 488.771 65.0567 486.673 51.6504 483.626C50.2012 483.298 39.3965 476.384 37.8926 475.009C32.5996 470.169 29.9629 463.587 27.0996 457.275C18.4981 438.314 12.2871 418.544 9.18947 397.947C6.34572 379.052 6.55275 360.091 9.41603 341.154C10.8926 331.373 12.4004 321.599 14.3926 311.908C14.6504 310.654 14.3848 309.888 13.4199 309.119C9.65041 306.115 6.80275 302.259 3.97853 298.431C0.93947 294.314 0.685565 289.462 1.05275 284.583C1.23244 282.189 3.55275 281.759 5.12697 280.611C7.10353 279.166 8.29885 280.029 9.70119 281.47C12.4004 284.244 14.5528 287.373 16.4043 290.748C16.8809 291.611 17.166 292.615 18.1856 293.392C19.2207 289.24 20.2832 285.228 21.2129 281.185C23.6699 270.494 25.0449 259.607 27.0488 248.834C30.4981 230.294 31.9004 211.466 35.1778 192.904C37.1856 181.513 38.4707 170.033 37.6817 158.416C37.5996 157.162 37.3887 155.998 36.5567 154.994C27.4903 143.994 24.6192 131.037 25.4434 117.251C26.4629 100.205 30.6035 83.8022 38.7832 68.7476C44.2559 58.6733 50.8692 49.2319 58.4903 40.5991C66.0762 32.0132 74.4785 24.2515 84.0684 17.9741C96.0762 10.1225 109.076 4.45067 123.326 2.0327C136.186 -0.14699 149.076 -0.432146 161.842 2.57567C170.869 4.70457 179.498 7.94286 187.498 12.8061C196.166 18.0757 204.619 23.5796 211.322 31.3491C217.041 37.9819 221.314 45.4546 224.354 53.6655C226.666 59.9155 230.506 65.2007 235.865 69.0679C245.521 76.0405 256.283 81.021 267.486 84.9194C272.443 86.646 277.92 86.3452 282.99 87.8374C295.1 91.4077 306.15 96.7437 314.252 106.916C318.408 112.13 321.088 118.099 323.252 124.337C327.951 137.908 329.916 151.931 330.311 166.228C330.432 170.529 329.717 174.72 328.963 178.912C327.061 189.509 324.436 199.947 322.092 210.447C319.061 224.025 314.865 237.216 309.322 249.943C305.604 258.478 301.225 266.72 295.455 274.115C294.068 275.888 292.236 276.943 290.107 277.888C287.17 279.197 284.193 280.599 282.693 284.138C276.92 297.759 270.889 311.271 264.893 324.798C263.084 328.888 261.076 332.888 259.178 336.935C258.943 337.431 258.545 337.892 258.713 338.72C259.826 336.978 260.85 335.38 261.865 333.787C261.467 334.794 261.162 335.845 260.654 336.787C259.15 339.583 257.326 342.228 256.061 345.126C250.592 357.658 239.342 396.775 238.955 404.869C238.881 406.447 239.318 407.103 240.928 407.494C244.385 408.326 244.338 408.451 244.354 404.857C244.486 381.119 251.354 359.064 261.174 337.755C262.17 335.591 263.158 333.427 264.111 331.248C264.244 330.951 264.764 330.494 264.08 330.244C263.889 330.177 263.572 330.458 263.314 330.58Z" fill="#68686D"/>
</svg>
