<svg width="275" height="97" viewBox="0 0 275 97" fill="none" xmlns="http://www.w3.org/2000/svg">
<path d="M7.44733 83.064C9.35358 87.5562 11.4669 91.5991 14.1895 94.2983C16.0255 96.1147 18.7481 96.6968 21.1544 95.771L67.088 79.6733L7.44733 83.064ZM179.506 44.1851L201.6 44.9507L189.522 53.6655L46.713 78.8921L179.506 44.1851Z" fill="#13102D"/>
<path d="M190.576 26.5637C190.365 26.4113 190.178 26.2512 190.037 26.091C189.127 25.0207 184.889 21.884 183.787 21.3996C183.018 21.0637 182.08 20.7668 181.291 20.8996C177.979 21.4504 12.6582 51.9973 9.84182 52.4465C3.88479 53.3996 -0.271462 58.5832 0.291038 64.5793C0.669944 68.6301 4.7676 84.5949 7.81057 87.5754C10.5176 90.2355 13.9434 91.1457 17.709 90.259C22.291 89.1808 183.627 54.8137 189.522 53.6652C191.498 53.2824 192.9 51.5051 192.791 49.5051C192.736 48.5402 192.705 47.5715 192.643 46.6066C192.607 46.0558 192.721 45.6535 193.037 45.3879C193.432 39.173 192.225 29.9348 190.576 26.5637Z" fill="#FF0000"/>
<path d="M225.287 34.5248C224.322 36.2006 222.182 36.7709 220.51 35.806C218.838 34.8412 218.264 32.7006 219.229 31.0287C220.193 29.3568 222.334 28.7826 224.006 29.7474C225.682 30.7162 226.252 32.8529 225.287 34.5248ZM204.869 38.7631C203.904 40.4389 201.764 41.0092 200.092 40.0443C198.42 39.0795 197.846 36.9389 198.811 35.267C199.775 33.5951 201.916 33.0209 203.588 33.9857C205.264 34.9506 205.834 37.0912 204.869 38.7631ZM192.541 28.9896C202.189 27.2592 211.678 25.5521 221.174 23.8685C221.752 23.767 222.373 23.8881 223.334 23.9154C220.596 25.1654 193.686 29.6185 192.541 28.9896ZM272.854 38.8998C266.756 39.8685 260.67 40.9154 254.564 41.8529C248.67 42.7592 242.756 43.5365 236.857 44.4389C235.893 44.5834 235.639 44.2474 235.619 43.4232C235.588 42.0365 235.502 40.6498 235.553 39.2709C235.564 39.0053 236.08 38.5795 236.404 38.5365C240.986 37.9467 245.58 37.4154 250.17 36.8607C250.877 36.7748 251.58 36.6342 252.283 36.5365C254.455 36.2396 254.646 36.0521 254.564 33.7943C254.471 31.306 254.326 22.6303 254.174 19.5834C254.127 18.642 253.291 17.9428 252.357 18.056C249.314 18.4193 222.721 21.4506 221.896 21.5248C221.568 21.556 221.15 21.3685 220.885 21.1498C218.611 19.3021 217.729 16.7396 218.408 14.0638C218.869 12.2553 220.131 10.517 221.412 9.08728C223.064 7.24744 225.443 6.98963 227.83 7.27478C228.314 7.33338 228.768 7.61463 229.252 7.75525C230.205 8.02869 231.182 7.98182 231.732 7.099C232.291 6.20057 232.127 5.30994 231.279 4.50135C226.045 -0.502562 217.674 -1.29944 211.643 2.38806C209.553 3.62244 205.99 9.25135 204.35 13.3021C203.557 15.2631 203.307 17.4388 202.701 19.4857C201.846 22.3763 199.779 24.3256 197.295 25.8256C196.197 26.4857 194.936 26.8842 193.729 27.3568C192.846 27.7006 191.463 27.2123 190.576 26.5638C192.225 29.9349 193.432 39.1732 193.037 45.3881C193.229 45.2201 193.502 45.1068 193.861 45.0365C197.779 44.3021 222.514 40.2162 224.252 39.9545C224.447 39.9232 224.662 39.9974 224.869 40.0248C224.873 40.1224 224.877 40.2162 224.877 40.3139C222.525 40.6576 213.654 42.2904 211.561 42.7318C208.439 43.392 205.311 44.0209 202.186 44.6732C202.033 44.7045 201.9 44.806 201.596 44.9506C202.131 45.3881 202.639 45.681 202.99 46.1068C204.268 47.642 205.709 49.099 206.697 50.8099C208.385 53.7279 210.686 56.0365 213.35 57.9389C220.139 62.7904 227.807 64.5209 235.967 63.0951C242.963 61.8685 249.553 59.3256 255.74 55.7201C261.713 52.2396 266.889 47.8217 271.779 43.017C272.553 42.2592 273.279 41.4349 273.908 40.556C274.178 40.1771 274.143 39.5834 274.248 39.0873C273.783 39.0209 273.299 38.8295 272.854 38.8998Z" fill="#13102D"/>
<path d="M221.17 23.8684C211.678 25.552 202.19 27.259 192.541 28.9934C193.686 29.6184 220.596 25.1653 223.334 23.9153C222.373 23.8879 221.752 23.7668 221.17 23.8684ZM181.342 22.7043C171.986 24.3645 23.9278 52.7942 10.4043 55.2786C10.2051 55.3176 11.1231 55.6457 10.9825 55.6692C12.127 56.2981 181.26 24.841 183.998 23.591C182.955 23.302 181.924 22.6028 181.342 22.7043ZM203.588 33.9856C201.916 33.0207 199.775 33.5911 198.811 35.2668C197.846 36.9387 198.42 39.0793 200.092 40.0442C201.764 41.009 203.904 40.4348 204.869 38.7629C205.834 37.0911 205.264 34.9504 203.588 33.9856ZM224.006 29.7473C222.334 28.7825 220.193 29.3567 219.229 31.0286C218.264 32.7004 218.838 34.8411 220.51 35.8059C222.182 36.7707 224.322 36.2004 225.287 34.5246C226.252 32.8528 225.682 30.7121 224.006 29.7473Z" fill="white"/>
</svg>
