<svg width="345" height="350" viewBox="0 0 345 350" fill="none" xmlns="http://www.w3.org/2000/svg">
<path d="M341.1 288.013L79.7364 349.482C77.0997 350.099 74.463 348.466 73.8419 345.834L9.95905 74.2007C9.33795 71.564 10.9708 68.9273 13.6075 68.3062L274.971 6.83743C277.608 6.22024 280.244 7.85305 280.861 10.4859L344.748 282.119C345.365 284.755 343.733 287.392 341.1 288.013Z" fill="#13102D"/>
<path d="M331.951 281.935L70.7676 343.361C68.084 343.994 65.3965 342.33 64.7637 339.646L0.923857 68.1929C0.291045 65.5093 1.95511 62.8218 4.6387 62.189L265.822 0.763213C268.506 0.1304 271.193 1.79446 271.826 4.47806L335.67 275.935C336.299 278.619 334.635 281.306 331.951 281.935Z" fill="white"/>
<path d="M21.4629 58.2749L87.5918 339.447M42.1504 53.4116L108.275 334.583M62.834 48.5444L128.963 329.716M83.5215 43.6812L149.647 324.853M104.205 38.814L170.334 319.99M124.893 33.9507L191.022 315.123M145.576 29.0835L211.705 310.259M166.264 24.2202L232.393 305.392M186.947 19.3569L253.076 300.529M207.635 14.4897L273.764 295.662M228.322 9.62646L294.447 290.798M249.006 4.75928L315.135 285.935M57.1699 307.349L328.08 243.634M52.3027 286.662L323.213 222.947M47.4395 265.978L318.35 202.263M42.5723 245.291L313.482 181.576M37.709 224.607L308.619 160.892M32.8418 203.919L303.756 140.205M27.9785 183.232L298.889 119.521M23.1152 162.548L294.025 98.8335M18.248 141.861L289.158 78.146M13.3848 121.177L284.295 57.4624M8.51758 100.49L279.428 36.7749M3.6543 79.8062L274.564 16.0913M62.0332 328.033L332.943 264.322" stroke="#FFDBDB" stroke-miterlimit="10"/>
<path d="M51.1269 69.2359C52.0371 73.1148 49.6348 76.9976 45.7558 77.9116C41.8769 78.8218 37.9941 76.4195 37.084 72.5405C36.1699 68.6616 38.5762 64.7788 42.4512 63.8687C46.3301 62.9546 50.2129 65.3609 51.1269 69.2359Z" fill="#FF0000"/>
<path fill-rule="evenodd" clip-rule="evenodd" d="M74.9746 63.6304C75.8848 67.5054 73.4824 71.3882 69.6035 72.3023C65.7246 73.2124 61.8418 70.8101 60.9316 66.9312C60.0176 63.0523 62.4238 59.1695 66.3027 58.2593C70.1777 57.3452 74.0644 59.7515 74.9746 63.6304ZM98.8223 58.021C99.7363 61.896 97.3301 65.7788 93.4551 66.6929C89.5762 67.603 85.6933 65.2007 84.7793 61.3218C83.8691 57.4429 86.2715 53.5601 90.1504 52.6499C94.0293 51.7359 97.9121 54.1421 98.8223 58.021ZM122.674 52.4116C123.584 56.2905 121.182 60.1734 117.303 61.0835C113.424 61.9937 109.541 59.5913 108.631 55.7124C107.717 51.8374 110.123 47.9546 113.998 47.0405C117.877 46.1304 121.76 48.5327 122.674 52.4116ZM146.521 46.8023C147.436 50.6773 145.029 54.564 141.15 55.4741C137.275 56.3843 133.393 53.9819 132.479 50.103C131.568 46.228 133.971 42.3452 137.85 41.4312C141.729 40.521 145.611 42.9234 146.521 46.8023ZM170.373 41.1929C171.283 45.0718 168.881 48.9546 165.002 49.8648C161.123 50.7788 157.24 48.3726 156.33 44.4937C155.416 40.6187 157.822 36.7359 161.697 35.8218C165.576 34.9116 169.459 37.314 170.373 41.1929ZM194.221 35.5835C195.131 39.4624 192.729 43.3452 188.85 44.2554C184.975 45.1694 181.088 42.7632 180.178 38.8882C179.268 35.0093 181.67 31.1265 185.549 30.2124C189.424 29.3023 193.311 31.7046 194.221 35.5835ZM218.068 29.9741C218.982 33.853 216.576 37.7359 212.701 38.646C208.822 39.5601 204.939 37.1538 204.025 33.2788C203.115 29.3999 205.518 25.5171 209.396 24.603C213.275 23.6929 217.158 26.0952 218.068 29.9741ZM241.92 24.3648C242.83 28.2437 240.428 32.1265 236.549 33.0405C232.67 33.9507 228.787 31.5444 227.877 27.6694C226.963 23.7905 229.369 19.9077 233.248 18.9976C237.123 18.0835 241.006 20.4859 241.92 24.3648ZM265.768 18.7554C266.682 22.6343 264.275 26.5171 260.396 27.4312C256.521 28.3413 252.639 25.939 251.725 22.0601C250.814 18.1812 253.217 14.2983 257.096 13.3882C260.975 12.4741 264.857 14.8804 265.768 18.7554Z" fill="#13102D"/>
<path d="M27.2754 74.8452C28.1894 78.7241 25.7832 82.6069 21.9043 83.5171C18.0293 84.4312 14.1465 82.0249 13.2324 78.1499C12.3223 74.271 14.7246 70.3882 18.6035 69.478C22.4824 68.564 26.3652 70.9702 27.2754 74.8452Z" fill="#FF0000"/>
<path d="M75.9746 63.6304C76.8848 67.5054 74.4824 71.3882 70.6035 72.3023C66.7246 73.2124 62.8418 70.8101 61.9316 66.9312C61.0176 63.0523 63.4238 59.1695 67.3027 58.2593C71.1777 57.3452 75.0645 59.7515 75.9746 63.6304ZM99.8223 58.021C100.736 61.896 98.3301 65.7788 94.4551 66.6929C90.5762 67.603 86.6934 65.2007 85.7793 61.3218C84.8691 57.4429 87.2715 53.5601 91.1504 52.6499C95.0293 51.7359 98.9121 54.1421 99.8223 58.021ZM123.674 52.4116C124.584 56.2905 122.182 60.1734 118.303 61.0835C114.424 61.9937 110.541 59.5913 109.631 55.7124C108.717 51.8374 111.123 47.9546 115.002 47.0405C118.877 46.1304 122.76 48.5327 123.674 52.4116ZM147.521 46.8023C148.436 50.6773 146.029 54.564 142.15 55.4741C138.275 56.3843 134.393 53.9819 133.479 50.103C132.568 46.228 134.971 42.3452 138.85 41.4312C142.729 40.521 146.611 42.9234 147.521 46.8023ZM171.373 41.1929C172.283 45.0718 169.881 48.9546 166.002 49.8648C162.123 50.7788 158.24 48.3726 157.33 44.4937C156.416 40.6187 158.822 36.7359 162.697 35.8218C166.576 34.9116 170.459 37.314 171.373 41.1929ZM195.221 35.5835C196.131 39.4624 193.729 43.3452 189.85 44.2554C185.975 45.1694 182.088 42.7632 181.178 38.8882C180.268 35.0093 182.67 31.1265 186.549 30.2124C190.424 29.3023 194.311 31.7046 195.221 35.5835ZM219.068 29.9741C219.982 33.853 217.576 37.7359 213.701 38.646C209.822 39.5601 205.939 37.1538 205.025 33.2788C204.115 29.3999 206.518 25.5171 210.396 24.603C214.275 23.6929 218.158 26.0952 219.068 29.9741ZM242.92 24.3648C243.83 28.2437 241.428 32.1265 237.549 33.0405C233.67 33.9507 229.787 31.5444 228.877 27.6694C227.963 23.7905 230.369 19.9077 234.248 18.9976C238.123 18.0835 242.006 20.4859 242.92 24.3648ZM266.768 18.7554C267.682 22.6343 265.275 26.5171 261.397 27.4312C257.522 28.3413 253.639 25.939 252.725 22.0601C251.814 18.1812 254.217 14.2983 258.096 13.3882C261.975 12.4741 265.857 14.8804 266.768 18.7554Z" fill="#68686D"/>
<path d="M199.783 37.3608L205.646 14.7866L201.682 15.7554L198.947 37.8687C199.365 37.8647 199.646 37.8804 199.783 37.3608ZM196.205 16.8921L198.533 37.0718L198.947 16.2476L196.205 16.8921Z" fill="#13102D"/>
<path d="M211.451 7.92708C211.635 5.82942 206.354 3.65364 199.658 3.0677C192.963 2.48176 187.389 3.70833 187.205 5.80598C187.049 7.57161 190.768 9.38801 195.936 10.2708L196.588 17.0443L198.447 36.4232L198.533 37.3177C198.525 38.0247 199.561 38.1107 199.67 37.4115L202.928 10.8021C207.744 10.7083 211.303 9.59505 211.451 7.92708Z" fill="white"/>
<path d="M195.936 10.271L202.924 10.8022L202.764 12.1147C200.596 12.271 198.361 12.0522 196.033 11.2827L195.936 10.271Z" fill="#13102D"/>
<path d="M212.705 289.157C212.666 289.142 212.631 289.126 212.596 289.111C212.576 289.185 212.557 289.259 212.537 289.333C212.557 289.337 212.576 289.345 212.596 289.349L212.705 289.157ZM221.865 205.458C221.9 205.427 221.936 205.392 221.971 205.361L221.799 205.22C221.783 205.243 221.752 205.271 221.756 205.286C221.787 205.345 221.826 205.4 221.865 205.458ZM202.166 198.013C202.162 198.036 202.154 198.06 202.147 198.083C202.232 198.103 202.322 198.118 202.408 198.138C202.412 198.122 202.416 198.103 202.42 198.087C202.338 198.06 202.252 198.036 202.166 198.013ZM227.475 281.165C227.522 281.021 227.553 280.927 227.584 280.829C227.416 280.888 227.291 280.954 227.475 281.165ZM197.975 196.997C198.162 197.068 198.322 197.122 198.525 197.001C198.334 196.833 198.174 196.821 197.975 196.997ZM200.174 197.579C199.932 197.294 199.932 197.294 199.51 197.478C199.779 197.517 199.979 197.548 200.174 197.579ZM132.19 268.712C132.104 268.841 132.029 268.939 131.94 269.068C132.053 269.161 132.166 269.259 132.291 269.361C132.482 269.087 132.299 268.923 132.19 268.712ZM128.92 233.958C128.74 234.372 128.736 234.466 128.869 234.751C129.158 234.521 129.072 234.267 128.92 233.958ZM176.861 296.72C177.201 297.017 177.397 297.029 177.709 296.786C177.447 296.509 177.162 296.743 176.861 296.72ZM130.639 261.493C130.557 261.708 130.475 261.837 130.467 261.974C130.459 262.06 130.557 262.161 130.623 262.243C130.639 262.259 130.764 262.239 130.775 262.212C130.815 262.118 130.857 262.009 130.842 261.915C130.822 261.802 130.74 261.696 130.639 261.493ZM196.42 196.677C196.428 196.646 196.432 196.614 196.44 196.583C196.318 196.505 196.209 196.411 196.08 196.349C195.998 196.306 195.885 196.282 195.795 196.298C195.725 196.31 195.635 196.396 195.627 196.454C195.623 196.505 195.713 196.603 195.772 196.614C195.986 196.65 196.205 196.657 196.42 196.677ZM130.854 222.236C131.096 221.712 131.416 221.208 131.393 220.611C131.119 221.126 130.854 221.642 130.854 222.236ZM130.354 261.337C130.615 260.97 130.592 260.833 130.268 260.614C130.424 260.345 130.268 260.122 130.127 259.872C129.943 260.013 129.869 260.154 129.951 260.353C130.065 260.626 130.154 260.904 130.26 261.177C130.279 261.228 130.315 261.275 130.354 261.337ZM189.662 195.65C189.283 195.708 189.205 195.122 188.822 195.314C188.529 195.466 188.115 195.177 187.893 195.536C188.186 195.81 188.463 195.833 189.662 195.65ZM137.357 210.4C137.229 210.411 137.147 210.392 137.123 210.419C136.768 210.814 136.42 211.212 136.076 211.614C135.975 211.728 135.893 211.857 135.787 211.966C135.666 212.091 135.553 212.212 135.607 212.482C135.752 212.353 135.897 212.282 135.94 212.181C136.025 211.97 136.186 211.857 136.361 211.72C136.561 211.568 136.686 211.341 136.842 211.142C136.889 211.083 136.912 210.978 136.975 210.958C137.236 210.868 137.252 210.65 137.357 210.4ZM182.107 195.411C182.334 195.431 182.51 195.458 182.682 195.466C183.229 195.486 183.779 195.505 184.326 195.513C184.479 195.517 184.631 195.478 184.854 195.45C184.318 195.212 184.318 195.224 183.752 195.236C183.557 195.239 183.361 195.154 183.162 195.111C182.998 195.083 182.873 195.286 182.65 195.154C182.354 194.974 182.346 194.986 182.107 195.411ZM195.725 295.798C194.924 295.603 194.111 295.544 193.287 295.696V296.017C194.127 296.114 194.912 295.888 195.725 295.798ZM181.869 294.677C181.596 294.677 181.393 294.72 181.221 294.669C180.932 294.575 180.846 294.716 180.74 294.904C182.107 295.169 184.272 295.333 184.865 295.189C184.631 295.071 184.459 294.915 184.279 294.904C183.713 294.868 183.143 294.896 182.572 294.888C182.299 294.888 182.018 294.892 181.869 294.677ZM165.342 194.786C165.924 194.911 170.541 194.318 171.014 194.068C170.783 194.056 170.615 194.001 170.506 194.052C170.213 194.185 169.94 194.044 169.658 194.056C169.471 194.064 169.275 194.001 169.092 194.013C168.729 194.044 168.385 194.154 168.002 194.154C167.494 194.15 166.99 194.286 166.471 194.275C166.283 194.271 166.072 194.349 165.92 194.45C165.772 194.548 165.678 194.696 165.455 194.63C165.44 194.626 165.385 194.724 165.342 194.786ZM227.4 209.861C227.342 209.743 227.318 209.63 227.248 209.548C226.998 209.255 226.76 208.95 226.471 208.689C225.881 208.157 225.268 207.646 224.647 207.142C224.193 206.775 223.713 206.427 223.233 206.083C223.19 206.052 223.08 206.095 222.9 206.111C223.111 206.275 223.26 206.364 223.373 206.482C223.9 207.017 224.498 207.474 225.072 207.958C225.358 208.204 225.658 208.435 225.928 208.696C226.24 209.001 226.518 209.333 226.826 209.642C226.963 209.779 227.111 209.931 227.4 209.861ZM230.69 274.415C230.572 274.505 230.49 274.552 230.44 274.614C230.022 275.157 229.584 275.689 229.201 276.251C228.795 276.845 228.338 277.419 228.119 278.122C228.002 278.501 227.752 278.853 227.549 279.212C227.483 279.333 227.436 279.446 227.502 279.661C227.873 279.353 228.233 279.122 228.494 278.818C228.881 278.376 229.252 277.911 229.529 277.411C230.041 276.482 230.561 275.548 230.69 274.415ZM129.83 261.857C129.51 262.025 129.502 262.22 129.549 262.439C129.6 262.685 129.635 262.931 129.69 263.177C129.818 263.712 129.83 264.259 130.065 264.786C130.408 265.571 130.596 266.411 130.99 267.185C131.178 267.552 131.334 267.927 131.647 268.224C131.721 268.29 131.85 268.306 131.955 268.345C132.131 267.79 131.979 267.318 131.815 266.861C131.647 266.388 131.4 265.939 131.201 265.474C131.131 265.31 131.104 265.126 131.057 264.95C131.006 264.751 131.002 264.525 130.893 264.357C130.565 263.853 130.498 263.247 130.127 262.763C130.08 262.7 130.092 262.603 130.065 262.525C129.994 262.318 129.92 262.111 129.83 261.857ZM207.822 292.439C207.385 292.521 207.045 292.54 206.748 292.654C206.24 292.845 205.736 293.025 205.197 293.122C204.783 293.2 204.381 293.341 203.963 293.404C203.311 293.505 202.631 293.489 202.061 293.864C202.022 293.888 201.979 293.911 201.932 293.915C201.315 293.966 200.744 294.193 200.162 294.357C199.9 294.431 199.615 294.482 199.393 294.614C199.068 294.81 198.709 294.849 198.354 294.931C199.322 294.923 200.299 294.943 201.264 294.864C201.857 294.814 202.475 294.755 203.014 294.458C203.381 294.255 203.76 294.122 204.209 294.177C204.346 294.196 204.514 294.138 204.635 294.068C204.975 293.868 205.451 293.911 205.701 293.56C205.709 293.544 205.76 293.552 205.787 293.544C206.295 293.345 206.803 293.146 207.311 292.946C207.42 292.9 207.537 292.853 207.623 292.779C207.693 292.716 207.725 292.614 207.822 292.439ZM140.947 281.025C140.846 281.267 140.865 281.435 140.99 281.587C141.248 281.9 141.479 282.236 141.768 282.521C142.299 283.052 142.865 283.556 143.416 284.071C143.498 284.154 143.568 284.247 143.65 284.325C144.186 284.849 144.697 285.388 145.338 285.825C146.022 286.29 146.701 286.759 147.424 287.173C147.631 287.29 147.869 287.404 147.99 287.583C148.119 287.759 148.283 287.806 148.459 287.876C148.697 287.966 148.932 288.064 149.174 288.138C149.272 288.165 149.389 288.142 149.482 288.142C149.553 287.759 149.318 287.587 149.076 287.411C148.74 287.173 148.412 286.927 148.076 286.685C148.01 286.634 147.928 286.591 147.846 286.56C147.584 286.454 147.4 286.279 147.26 286.056C147.139 285.864 147.025 285.634 146.838 285.517C146.303 285.181 145.908 284.728 145.51 284.279C145.416 284.173 145.303 284.044 145.178 284.013C144.885 283.943 144.713 283.759 144.537 283.568C144.385 283.4 144.244 283.196 144.045 283.091C143.596 282.849 143.197 282.568 142.861 282.204C142.615 281.943 142.334 281.712 142.057 281.45C142.346 281.154 142.057 281.005 141.846 280.81C141.799 280.978 141.748 281.146 141.705 281.294C141.459 281.208 141.225 281.122 140.947 281.025ZM208.455 197.79L208.408 197.884C208.58 197.966 208.744 198.06 208.92 198.13C209.24 198.259 209.572 198.364 209.893 198.493C210.084 198.571 210.252 198.704 210.447 198.763C210.76 198.861 211.104 198.876 211.311 199.173C211.365 199.251 211.525 199.267 211.639 199.314C212.279 199.599 212.928 199.872 213.557 200.173C214.186 200.478 214.787 200.825 215.416 201.134C216.471 201.657 217.537 202.161 218.6 202.677C219.537 203.13 220.471 203.595 221.412 204.052C221.522 204.107 221.643 204.146 221.76 204.193C221.76 203.989 221.732 203.81 221.623 203.7C221.397 203.478 221.135 203.279 220.869 203.095C220.385 202.763 219.893 202.443 219.389 202.13C218.904 201.829 218.42 201.525 217.908 201.259C217.268 200.927 216.604 200.638 215.947 200.329C215.639 200.185 215.299 200.068 215.033 199.872C214.752 199.665 214.443 199.54 214.119 199.427C213.541 199.228 212.963 199.025 212.373 198.849C211.561 198.603 210.811 198.177 209.928 198.111C209.854 198.107 209.772 198.087 209.713 198.048C209.33 197.79 208.873 197.888 208.455 197.79ZM237.604 244.134C237.549 244.13 237.494 244.126 237.44 244.122C237.408 244.318 237.361 244.513 237.346 244.712C237.244 245.825 237.174 246.939 237.057 248.048C236.932 249.228 236.76 250.404 236.623 251.579C236.576 251.966 236.588 252.353 236.545 252.739C236.51 253.071 236.416 253.4 236.385 253.732C236.272 255.095 236.053 256.446 235.779 257.79C235.682 258.255 235.623 258.724 235.541 259.193C235.451 259.685 235.436 260.185 235.213 260.661C235.115 260.868 235.119 261.118 235.076 261.361C235.42 261.337 235.471 261.107 235.545 260.923C235.67 260.626 235.768 260.318 235.869 260.013C236.049 259.466 236.229 258.923 236.397 258.376C236.51 258.013 236.561 257.634 236.709 257.286C237.1 256.384 237.311 255.443 237.467 254.497C237.635 253.462 237.733 252.419 237.869 251.38C238.029 250.126 237.92 248.876 237.811 247.626C237.764 247.099 237.713 246.575 237.686 246.048C237.647 245.407 237.631 244.771 237.604 244.134ZM150.647 286.825C150.928 286.97 151.174 287.091 151.42 287.22C151.701 287.364 152.022 287.466 152.236 287.665C152.408 287.825 152.596 287.907 152.799 287.993C153.236 288.185 153.678 288.376 154.111 288.579C154.881 288.943 155.647 289.314 156.412 289.681C156.881 289.904 157.346 290.138 157.818 290.357C157.963 290.423 158.123 290.458 158.283 290.493C158.533 290.548 158.787 290.579 159.033 290.65C159.568 290.802 160.092 290.993 160.631 291.134C161.393 291.333 162.158 291.509 162.928 291.681C163.252 291.751 163.588 291.767 163.912 291.829C164.225 291.892 164.525 291.989 164.838 292.056C164.959 292.079 165.092 292.052 165.24 292.048C165.076 291.685 164.861 291.45 164.506 291.341C164.264 291.267 164.022 291.193 163.787 291.103C163.022 290.81 162.275 290.474 161.44 290.38C161.346 290.368 161.26 290.286 161.162 290.259C160.627 290.103 160.334 289.517 159.678 289.579C159.643 289.579 159.588 289.548 159.565 289.517C159.451 289.388 159.307 289.396 159.147 289.411C159.049 289.419 158.94 289.384 158.846 289.345C158.447 289.185 158.053 289.029 157.666 288.853C157.467 288.759 157.264 288.517 157.107 288.548C156.787 288.607 156.565 288.404 156.279 288.419C156.193 288.423 156.065 288.407 156.025 288.357C155.811 288.075 155.436 288.048 155.154 287.872C154.889 287.708 154.58 287.618 154.252 287.654C153.971 287.681 153.709 287.626 153.455 287.517C153.279 287.443 153.1 287.376 152.916 287.31C152.635 287.212 152.357 287.083 152.068 287.032C151.76 286.974 151.607 286.72 151.326 286.622C150.943 286.486 150.963 286.443 150.647 286.825ZM141.291 280.65C141.416 280.364 141.338 280.193 141.217 280.021C140.943 279.638 140.678 279.255 140.416 278.868C140.291 278.681 140.201 278.47 140.057 278.298C139.756 277.939 139.377 277.646 139.061 277.298C138.807 277.025 138.658 276.72 138.506 276.4C138.385 276.142 138.221 275.864 137.986 275.704C137.717 275.521 137.502 275.329 137.342 275.071C137.123 274.712 136.947 274.329 136.693 273.989C136.443 273.654 136.213 273.314 136.01 272.954C135.9 272.755 135.783 272.56 135.643 272.38C135.318 271.966 134.979 271.564 134.643 271.161C134.193 270.614 134.182 269.872 133.67 269.357C133.647 269.333 133.682 269.267 133.662 269.236C133.455 268.931 133.252 268.626 133.022 268.333C132.967 268.263 132.826 268.251 132.658 268.185C132.717 268.513 132.721 268.786 132.822 269.025C133.166 269.833 133.397 270.681 133.83 271.462C134.006 271.779 134.115 272.13 134.303 272.446C134.584 272.935 134.912 273.4 135.213 273.88C135.635 274.556 136.022 275.255 136.475 275.911C136.815 276.404 137.236 276.849 137.615 277.318C137.92 277.7 138.174 278.122 138.529 278.458C139.123 279.025 139.772 279.548 140.416 280.075C140.674 280.282 140.979 280.443 141.291 280.65ZM231.811 274.118C232.053 274.173 232.154 274.095 232.186 273.958C232.252 273.654 232.385 273.4 232.608 273.146C232.983 272.72 233.358 272.267 233.592 271.771C233.85 271.224 234.213 270.732 234.455 270.181C234.506 270.068 234.568 269.962 234.627 269.853C234.85 269.439 235.068 269.029 235.287 268.614C235.389 268.419 235.393 268.2 235.541 268.001C235.779 267.689 235.94 267.318 236.092 266.958C236.256 266.575 236.365 266.169 236.522 265.779C236.736 265.243 237.022 264.736 237.135 264.169C237.135 264.154 237.143 264.142 237.147 264.13C237.369 263.439 237.619 262.751 237.807 262.052C238.033 261.212 238.197 260.361 238.4 259.517C238.483 259.181 238.619 258.857 238.69 258.521C238.83 257.825 238.928 257.118 239.068 256.419C239.186 255.845 239.342 255.279 239.467 254.704C239.572 254.216 239.67 253.724 239.748 253.232C239.85 252.599 239.904 251.962 240.025 251.333C240.248 250.142 240.432 248.946 240.525 247.739C240.58 247.044 240.662 246.349 240.717 245.654C240.74 245.361 240.721 245.064 240.721 244.712C240.494 244.837 240.498 244.982 240.483 245.111C240.369 246.04 240.275 246.97 240.158 247.9C240.088 248.439 239.986 248.974 239.893 249.509C239.791 250.071 239.721 250.642 239.565 251.193C239.283 252.204 238.943 253.2 238.647 254.208C238.514 254.65 238.381 255.099 238.326 255.552C238.205 256.591 238.17 257.642 238.025 258.677C237.92 259.419 237.865 260.173 237.596 260.896C237.264 261.794 236.986 262.704 236.69 263.611C236.393 264.501 236.041 265.376 235.6 266.212C235.229 266.911 234.818 267.591 234.408 268.267C234.018 268.911 233.584 269.532 233.213 270.185C232.986 270.575 232.772 270.997 232.69 271.427C232.576 272.021 232.326 272.575 232.162 273.15C232.076 273.47 231.94 273.775 231.811 274.118ZM227.025 281.579C226.568 281.72 226.295 281.997 226.053 282.318C225.924 282.486 225.748 282.626 225.592 282.771C225.4 282.95 225.205 283.122 225.01 283.294C224.955 283.341 224.885 283.364 224.822 283.4C224.729 283.458 224.627 283.509 224.545 283.579C224.346 283.751 224.193 284.009 223.959 284.091C223.67 284.193 223.537 284.392 223.354 284.564C223.15 284.751 222.951 284.943 222.729 285.111C222.467 285.314 222.174 285.486 221.912 285.693C221.459 286.06 221.053 286.478 220.572 286.806C219.842 287.298 219.033 287.685 218.307 288.181C217.807 288.521 217.307 288.861 216.803 289.196C216.213 289.591 215.627 289.989 215.029 290.368C214.74 290.548 214.424 290.689 214.123 290.849C213.404 291.232 212.682 291.614 211.963 292.001C211.471 292.271 210.982 292.552 210.494 292.829C210.365 292.904 210.221 292.962 210.115 293.056C209.713 293.415 209.268 293.575 208.725 293.353C208.709 293.345 208.693 293.341 208.682 293.333C208.471 293.236 208.291 293.282 208.08 293.376C207.635 293.571 207.236 293.861 206.721 293.919C206.537 293.943 206.463 294.095 206.49 294.314C207.014 294.271 207.533 294.267 208.037 294.177C208.869 294.032 209.69 293.829 210.518 293.661C211.002 293.564 211.42 293.294 211.916 293.232C212.104 293.208 212.287 293.13 212.455 293.052C212.94 292.829 213.416 292.599 213.893 292.364C214.443 292.095 214.986 291.821 215.533 291.552C215.92 291.364 216.33 291.208 216.697 290.993C217.295 290.642 217.869 290.259 218.443 289.88C219.158 289.4 219.881 288.923 220.572 288.411C220.982 288.111 221.334 287.747 221.721 287.419C222.107 287.091 222.518 286.786 222.893 286.446C223.233 286.142 223.533 285.802 223.861 285.489C223.994 285.361 224.174 285.271 224.295 285.134C224.877 284.482 225.459 283.825 226.025 283.161C226.311 282.825 226.584 282.474 226.83 282.111C226.936 281.954 226.963 281.759 227.025 281.579ZM149.842 287.357C149.943 287.458 150.041 287.564 150.15 287.657C150.791 288.196 151.494 288.657 152.252 289.044C153.248 289.552 154.256 290.044 155.279 290.505C156.053 290.857 156.834 291.196 157.647 291.458C158.377 291.696 159.088 291.97 159.807 292.239C160.057 292.337 160.315 292.419 160.565 292.521C160.967 292.685 161.354 292.884 161.764 293.021C162.682 293.325 163.607 293.599 164.533 293.884C164.69 293.931 164.854 293.97 165.014 294.001C165.553 294.103 166.096 294.185 166.627 294.298C167.475 294.478 168.311 294.704 169.162 294.853C170.268 295.052 171.385 295.212 172.502 295.361C173.303 295.47 174.111 295.536 174.916 295.611C175.822 295.696 176.732 295.798 177.643 295.841C178.065 295.861 178.494 295.759 178.92 295.716C178.865 295.587 178.799 295.509 178.736 295.509C178.463 295.529 178.232 295.443 177.994 295.345C177.705 295.232 177.404 295.122 177.096 295.087C176.514 295.013 175.979 294.759 175.385 294.743C175.084 294.736 174.783 294.681 174.49 294.626C174.283 294.591 174.088 294.493 173.881 294.462C173.373 294.392 172.889 294.243 172.373 294.2C172.049 294.173 171.748 294.044 171.416 294.001C170.721 293.907 170.029 293.763 169.342 293.614C168.647 293.47 167.959 293.294 167.264 293.138C167.131 293.111 166.994 293.095 166.857 293.099C166.49 293.111 166.182 292.966 165.865 292.833C165.729 292.779 165.588 292.7 165.447 292.7C164.822 292.693 164.24 292.482 163.623 292.407C163.131 292.349 162.69 291.989 162.131 292.126C162.084 292.138 162.022 292.079 161.963 292.06C161.588 291.958 161.213 291.857 160.834 291.759C160.506 291.681 160.166 291.63 159.846 291.532C159.135 291.318 158.44 291.068 157.729 290.861C157.326 290.743 156.916 290.665 156.557 290.454C156.432 290.376 156.283 290.333 156.147 290.275C155.588 290.032 155.025 289.802 154.479 289.54C154.158 289.388 153.846 289.208 153.565 288.997C153.272 288.775 152.822 288.829 152.596 288.509C152.295 288.509 152.248 288.236 152.072 288.103C151.436 287.618 150.654 287.474 149.842 287.357ZM175.01 195.595C174.389 195.271 174.389 195.275 173.936 195.259C173.873 195.259 173.818 195.236 173.76 195.232C173.58 195.224 173.404 195.212 173.229 195.216C173.065 195.216 172.897 195.243 172.732 195.251C172.174 195.279 171.611 195.279 171.057 195.333C169.861 195.45 168.67 195.591 167.482 195.79C166.467 195.958 165.424 195.989 164.412 196.22C163.592 196.411 162.768 196.595 161.947 196.782C161.932 196.786 161.916 196.79 161.904 196.794C161.389 197.001 160.881 197.212 160.361 197.407C160.041 197.529 159.705 197.622 159.377 197.732C159.229 197.786 159.072 197.837 158.928 197.9C158.635 198.036 158.357 198.251 158.045 198.298C157.654 198.357 157.338 198.548 157.002 198.685C156.397 198.931 155.838 199.275 155.244 199.552C154.963 199.685 154.639 199.736 154.35 199.857C153.342 200.286 152.408 200.821 151.51 201.419C151.295 201.564 151.307 201.7 151.4 201.904C151.611 201.829 151.807 201.759 152.002 201.685C152.381 201.54 152.756 201.38 153.139 201.247C153.877 200.989 154.619 200.743 155.365 200.497C155.877 200.325 156.389 200.111 156.92 200.013C157.447 199.923 157.92 199.704 158.42 199.56C159.111 199.357 159.772 199.06 160.459 198.845C161.107 198.646 161.779 198.505 162.44 198.333C163.006 198.185 163.572 198.021 164.143 197.876C164.522 197.779 164.908 197.704 165.291 197.611C165.541 197.552 165.787 197.489 166.029 197.419C166.385 197.314 166.764 197.353 167.119 197.212C167.447 197.079 167.822 197.048 168.182 196.978C168.268 196.958 168.365 196.97 168.451 196.946C168.947 196.821 169.436 196.681 169.932 196.564C170.572 196.411 171.26 196.431 171.865 196.134C171.904 196.118 171.955 196.13 172.002 196.122C172.971 195.954 173.94 195.782 175.01 195.595ZM128.354 231.743H128.244C128.061 232.341 127.842 232.927 127.693 233.532C127.51 234.279 127.373 235.04 127.229 235.794C127.104 236.45 126.979 237.111 126.877 237.771C126.803 238.267 126.783 238.771 126.721 239.267C126.639 239.919 126.541 240.564 126.443 241.216C126.342 241.888 126.162 242.552 126.193 243.239C126.197 243.267 126.182 243.294 126.178 243.325C126.092 244.083 125.998 244.845 125.932 245.607C125.912 245.864 126.045 246.146 125.979 246.388C125.873 246.771 125.951 247.138 125.967 247.505C125.994 248.341 126.107 249.169 126.19 250.001C126.232 250.4 126.287 250.802 126.338 251.2C126.369 251.435 126.416 251.665 126.451 251.9C126.471 252.036 126.479 252.173 126.51 252.306C126.584 252.614 126.697 252.919 126.744 253.228C126.85 253.904 126.986 254.568 127.26 255.204C127.35 255.411 127.428 255.622 127.479 255.841C127.65 256.556 128.088 257.173 128.361 257.853C128.42 258.005 128.545 258.114 128.799 258.017C128.799 257.896 128.807 257.763 128.799 257.626C128.783 257.294 128.787 256.962 128.744 256.634C128.67 256.075 128.787 255.489 128.475 254.958C128.42 254.861 128.451 254.716 128.451 254.591C128.451 253.954 128.576 253.318 128.432 252.677C128.373 252.423 128.377 252.157 128.346 251.896C128.311 251.595 128.315 251.282 128.213 251.001C128.092 250.65 128.088 250.321 128.205 249.978C128.244 249.864 128.295 249.724 128.264 249.618C128.123 249.154 128.15 248.689 128.162 248.216C128.182 247.333 128.19 246.446 128.139 245.564C128.092 244.724 128.123 243.892 128.178 243.06C128.193 242.853 128.182 242.642 128.182 242.435C128.186 242.142 128.186 241.853 128.193 241.56C128.201 241.407 128.26 241.247 128.225 241.103C128.104 240.603 128.178 240.103 128.209 239.603C128.221 239.443 128.174 239.275 128.17 239.111C128.166 238.497 128.135 237.884 128.19 237.275C128.229 236.814 128.252 236.361 128.182 235.904C128.15 235.712 128.119 235.489 128.201 235.329C128.334 235.068 128.303 234.814 128.303 234.552C128.303 234.458 128.299 234.361 128.311 234.267C128.346 233.927 128.4 233.583 128.432 233.239C128.455 232.923 128.479 232.603 128.467 232.282C128.463 232.103 128.393 231.923 128.354 231.743ZM140.533 281.775C140.272 281.966 140.256 282.021 140.393 282.216C140.51 282.376 140.635 282.532 140.752 282.696C140.94 282.966 141.104 283.251 141.315 283.501C141.678 283.931 142.065 284.341 142.447 284.759C142.682 285.013 142.92 285.263 143.166 285.513C143.307 285.657 143.455 285.79 143.596 285.935C143.963 286.302 144.283 286.728 144.709 287.029C145.147 287.337 145.525 287.693 145.943 288.013C146.354 288.321 146.736 288.665 147.15 288.966C147.658 289.341 148.19 289.685 148.709 290.044C148.752 290.079 148.803 290.126 148.818 290.173C148.893 290.396 149.115 290.45 149.307 290.501C149.576 290.568 149.842 290.603 149.955 290.892C149.986 290.97 150.107 291.025 150.201 291.071C150.76 291.368 151.334 291.63 151.873 291.958C152.275 292.204 152.74 292.357 153.182 292.548C154.139 292.966 155.092 293.392 156.061 293.794C156.619 294.025 157.186 294.271 157.779 294.411C158.635 294.611 159.416 295.044 160.322 295.068C160.35 295.068 160.377 295.091 160.404 295.099C160.666 295.157 160.943 295.298 161.186 295.255C161.545 295.196 161.662 295.556 161.963 295.54C162.053 295.532 162.147 295.536 162.236 295.548C162.822 295.63 163.412 295.7 163.994 295.802C164.471 295.888 164.932 296.071 165.412 296.114C166.244 296.189 167.045 296.404 167.865 296.529C168.014 296.552 168.154 296.618 168.303 296.646C168.443 296.673 168.592 296.696 168.732 296.677C169.623 296.556 170.51 296.587 171.404 296.689C171.838 296.743 172.252 297.044 172.725 296.81C172.772 296.786 172.861 296.853 172.936 296.864C173.455 296.943 173.975 297.021 174.494 297.087C174.58 297.099 174.674 297.068 174.764 297.052C175.264 296.974 175.74 296.755 176.272 296.857C176.33 296.868 176.408 296.782 176.475 296.743C176.463 296.712 176.455 296.685 176.443 296.654C175.596 296.544 174.744 296.435 173.897 296.325C173.854 296.321 173.803 296.329 173.76 296.341C173.326 296.443 172.916 296.333 172.498 296.243C172.373 296.22 172.213 296.189 172.104 296.232C171.635 296.419 171.197 296.193 170.748 296.161C170.557 296.15 170.369 296.103 170.178 296.075C169.955 296.044 169.709 296.068 169.514 295.986C169.287 295.888 169.057 295.868 168.822 295.825C168.619 295.79 168.424 295.708 168.221 295.669C168.045 295.638 167.865 295.646 167.69 295.626C167.498 295.603 167.303 295.595 167.123 295.536C166.658 295.384 166.221 295.134 165.74 295.052C165.268 294.97 164.826 294.888 164.404 294.646C164.123 294.482 163.748 294.45 163.412 294.361C163.037 294.259 162.654 294.181 162.287 294.056C161.967 293.946 161.666 293.786 161.357 293.642C161.279 293.603 161.209 293.548 161.131 293.509C160.904 293.4 160.686 293.279 160.447 293.2C160.096 293.075 159.69 293.048 159.381 292.868C158.623 292.431 157.756 292.275 156.947 291.97C156.529 291.814 156.119 291.642 155.713 291.47C155.44 291.353 155.178 291.208 154.897 291.103C154.568 290.974 154.225 290.876 153.889 290.759C153.553 290.642 153.221 290.509 152.885 290.396C152.045 290.103 151.248 289.743 150.463 289.349C150.123 289.181 149.85 288.9 149.432 288.868C149.361 288.864 149.299 288.806 149.232 288.771C148.69 288.486 148.229 288.06 147.58 287.954C147.549 287.95 147.522 287.935 147.498 287.919C147.006 287.575 146.506 287.243 145.982 286.935C145.58 286.7 145.248 286.361 144.885 286.071C144.748 285.962 144.619 285.814 144.459 285.771C144.213 285.704 144.068 285.56 143.955 285.376C143.729 285.001 143.482 284.642 143.029 284.458C142.99 284.443 142.936 284.396 142.94 284.372C142.967 284.173 142.76 284.146 142.662 284.04C142.522 283.88 142.393 283.712 142.268 283.54C142.08 283.29 141.963 282.95 141.709 282.794C141.256 282.517 140.92 282.146 140.533 281.775ZM230.576 214.798L230.455 214.864C230.58 215.157 230.49 215.509 230.822 215.751C230.9 215.806 230.916 215.946 230.947 216.052C230.971 216.114 230.943 216.212 230.986 216.251C231.346 216.579 231.416 217.04 231.627 217.435C231.838 217.818 231.983 218.232 232.15 218.634C232.287 218.962 232.225 219.357 232.561 219.614C232.596 219.646 232.584 219.724 232.608 219.775C232.959 220.65 233.311 221.525 233.666 222.396C233.768 222.642 233.908 222.88 233.99 223.13C234.201 223.798 234.393 224.47 234.596 225.138C234.635 225.259 234.67 225.38 234.729 225.493C235.088 226.185 235.322 226.919 235.518 227.665C235.615 228.029 235.682 228.4 235.799 228.759C236.08 229.626 236.358 230.489 236.545 231.376C236.768 232.431 236.963 233.486 237.209 234.536C237.4 235.353 237.463 236.185 237.717 236.997C237.959 237.79 237.951 238.626 238.193 239.439C238.49 240.458 238.662 241.517 238.678 242.583C238.682 242.841 238.803 243.056 238.932 243.286C239.049 243.493 239.158 243.798 239.08 243.993C238.916 244.38 239.084 244.732 239.092 245.095C239.092 245.185 239.182 245.275 239.279 245.446C239.377 245.134 239.49 244.927 239.506 244.708C239.568 243.876 239.608 243.04 239.635 242.208C239.67 241.189 239.717 240.169 239.693 239.154C239.666 238.208 239.553 237.263 239.483 236.314C239.408 235.286 239.322 234.259 239.135 233.239C239.076 232.911 239.131 232.536 238.975 232.259C238.619 231.638 238.557 230.958 238.361 230.302C238.178 229.7 238.092 229.075 237.912 228.474C237.557 227.267 237.19 226.064 236.783 224.876C236.42 223.814 236.029 222.763 235.471 221.771C235.354 221.564 235.193 221.38 235.072 221.173C234.924 220.915 234.83 220.63 234.654 220.392C234.268 219.88 234.025 219.282 233.541 218.829C233.455 218.751 233.4 218.646 233.334 218.552C233.072 218.185 232.807 217.818 232.561 217.439C232.065 216.661 231.498 215.923 230.951 215.173C230.846 215.036 230.701 214.923 230.576 214.798ZM129.35 263.806C129.334 263.564 129.361 263.321 129.295 263.107C129.197 262.802 129.201 262.509 129.217 262.204C129.229 261.974 129.209 261.736 129.162 261.509C129.08 261.114 128.963 260.724 128.861 260.333C128.803 260.087 128.779 259.829 128.678 259.599C128.471 259.138 128.217 258.696 127.994 258.239C127.701 257.634 127.397 257.029 127.135 256.407C126.9 255.853 126.709 255.282 126.514 254.716C126.451 254.544 126.4 254.361 126.404 254.181C126.408 253.536 126.248 252.919 126.041 252.306C126.002 252.189 125.99 252.064 125.979 251.943C125.955 251.708 125.963 251.47 125.928 251.236C125.85 250.728 125.686 250.232 125.748 249.708C125.772 249.505 125.725 249.29 125.686 249.087C125.533 248.306 125.494 247.517 125.49 246.728C125.486 246.036 125.506 245.341 125.541 244.65C125.561 244.279 125.627 243.907 125.674 243.536C125.705 243.29 125.752 243.048 125.768 242.798C125.807 242.286 125.822 241.775 125.854 241.263C125.857 241.181 125.885 241.099 125.904 241.017C126.033 240.427 126.147 239.833 126.209 239.232C126.272 238.654 126.33 238.075 126.416 237.497C126.502 236.892 126.611 236.294 126.721 235.693C126.775 235.396 126.807 235.083 126.924 234.806C127.053 234.513 127.065 234.22 127.065 233.915C127.065 233.845 127.057 233.771 127.076 233.708C127.264 233.056 127.455 232.404 127.654 231.759C127.709 231.587 127.799 231.427 127.854 231.255C127.99 230.818 128.104 230.372 128.244 229.931C128.44 229.329 128.729 228.747 128.713 228.103C128.713 228.048 128.69 227.993 128.658 227.876C128.565 228.013 128.502 228.091 128.455 228.177C128.08 228.904 127.678 229.622 127.342 230.364C126.912 231.325 126.377 232.243 126.053 233.239C125.928 233.622 125.725 233.982 125.592 234.361C125.268 235.302 124.94 236.239 124.654 237.189C124.432 237.923 124.248 238.673 124.1 239.423C123.916 240.337 123.779 241.263 123.635 242.185C123.568 242.607 123.533 243.036 123.49 243.462C123.416 244.138 123.322 244.818 123.283 245.501C123.244 246.204 123.264 246.915 123.248 247.622C123.244 247.9 123.178 248.181 123.201 248.454C123.283 249.31 123.447 250.161 123.475 251.021C123.494 251.673 123.693 252.279 123.83 252.9C123.998 253.673 124.236 254.431 124.549 255.169C124.791 255.739 124.959 256.333 125.225 256.892C125.522 257.529 125.865 258.146 126.221 258.759C126.576 259.368 126.811 260.036 127.264 260.607C127.451 260.849 127.533 261.161 127.658 261.446C127.74 261.622 127.775 261.833 127.904 261.978C128.338 262.47 128.611 263.044 128.92 263.603C128.99 263.728 129.053 263.857 129.35 263.806ZM197.311 293.357C197.607 293.411 197.834 293.345 198.065 293.196C198.201 293.103 198.404 293.095 198.58 293.052C198.9 292.974 199.225 292.911 199.545 292.825C199.764 292.767 199.971 292.665 200.19 292.622C200.815 292.497 201.455 292.443 202.057 292.232C202.299 292.15 202.549 292.068 202.803 292.036C203.397 291.966 203.963 291.853 204.471 291.54C204.654 291.423 204.869 291.341 205.084 291.275C205.686 291.091 206.291 290.927 206.897 290.747C207.154 290.673 207.443 290.622 207.654 290.478C207.971 290.263 208.326 290.173 208.682 290.052C208.838 289.997 208.986 289.927 209.135 289.861C209.635 289.63 210.147 289.423 210.627 289.165C210.951 288.993 211.221 288.739 211.611 288.689C211.623 288.689 211.635 288.669 211.647 288.661C211.963 288.419 212.318 288.243 212.705 288.107C213.127 287.958 213.525 287.771 213.873 287.489C214.1 287.306 214.361 287.161 214.619 287.013C214.994 286.802 215.377 286.611 215.756 286.411C215.92 286.321 216.076 286.208 216.256 286.15C216.893 285.943 217.373 285.517 217.92 285.185C218.24 284.989 218.502 284.716 218.795 284.482C219.092 284.243 219.412 284.029 219.682 283.767C220.025 283.435 220.393 283.146 220.787 282.868C221.436 282.407 222.123 281.986 222.6 281.329C223.24 280.443 224.068 279.689 224.869 278.919C224.9 278.892 224.94 278.857 224.979 278.849C225.229 278.802 225.299 278.611 225.4 278.439C225.721 277.892 226.291 277.505 226.561 276.919C226.608 276.814 226.764 276.751 226.861 276.665C226.936 276.599 227.041 276.529 227.057 276.45C227.119 276.087 227.369 275.829 227.604 275.556C227.94 275.173 228.26 274.771 228.584 274.38C228.83 274.083 229.108 273.802 229.318 273.486C229.713 272.9 230.076 272.298 230.443 271.693C230.725 271.232 231.006 270.767 231.264 270.294C231.584 269.708 231.9 269.122 232.182 268.521C232.44 267.97 232.662 267.411 232.873 266.845C233.033 266.411 233.158 265.97 233.272 265.521C233.381 265.075 233.377 264.591 233.568 264.177C233.756 263.767 233.791 263.345 233.9 262.927C233.967 262.669 234.029 262.411 234.1 262.154C234.299 261.4 234.525 260.646 234.697 259.888C234.881 259.071 235.092 258.263 235.178 257.427C235.26 256.626 235.459 255.837 235.568 255.036C235.783 253.431 235.971 251.821 236.166 250.212C236.201 249.935 236.225 249.657 236.256 249.38C236.326 248.771 236.416 248.161 236.467 247.552C236.553 246.521 236.608 245.489 236.682 244.458C236.725 243.872 236.795 243.29 236.815 242.704C236.842 241.712 236.854 240.724 236.846 239.732C236.838 239.021 236.818 238.314 236.76 237.607C236.693 236.872 236.561 236.142 236.475 235.404C236.373 234.532 236.221 233.665 236.029 232.806C235.795 231.771 235.619 230.724 235.209 229.728C234.994 229.208 234.803 228.673 234.666 228.134C234.443 227.251 234.268 226.364 233.924 225.509C233.67 224.88 233.533 224.216 233.279 223.591C232.932 222.72 232.647 221.818 232.111 221.017C232.08 220.97 232.065 220.915 232.041 220.861C231.709 220.13 231.389 219.396 231.041 218.669C230.596 217.739 230.166 216.802 229.658 215.904C229.217 215.126 228.69 214.392 228.178 213.654C227.951 213.325 227.662 213.036 227.424 212.716C226.893 212.013 226.404 211.279 225.846 210.595C225.299 209.931 224.693 209.306 224.108 208.673C223.971 208.525 223.803 208.407 223.647 208.279C223.229 207.939 222.818 207.587 222.389 207.263C221.861 206.864 221.318 206.486 220.779 206.099C219.764 205.372 218.787 204.591 217.631 204.04C217.432 203.943 217.264 203.759 217.057 203.704C216.506 203.56 216.037 203.282 215.545 203.036C215.346 202.935 215.135 202.857 214.924 202.775C214.201 202.486 213.475 202.2 212.748 201.919C211.971 201.614 211.205 201.271 210.404 201.036C209.986 200.915 209.568 200.814 209.162 200.657C208.76 200.501 208.326 200.427 207.912 200.29C207.029 199.997 206.17 199.622 205.264 199.407C203.986 199.107 202.744 198.696 201.463 198.407C200.287 198.138 199.104 197.896 197.92 197.634C197.568 197.556 197.225 197.45 196.873 197.361C196.365 197.232 195.857 197.068 195.338 196.986C193.994 196.782 192.639 196.626 191.291 196.431C190.764 196.353 190.248 196.216 189.713 196.361C189.67 196.372 189.619 196.361 189.576 196.353C188.346 196.083 187.076 196.161 185.826 196.052C184.854 195.966 183.869 195.978 182.893 195.95C182.35 195.935 181.815 195.849 181.268 195.833C180.436 195.81 179.611 195.833 178.783 195.845C178.33 195.853 177.873 195.892 177.42 195.927C176.514 195.997 175.604 196.056 174.701 196.161C173.967 196.247 173.24 196.396 172.514 196.517C172.068 196.591 171.623 196.661 171.178 196.736C170.818 196.798 170.447 196.829 170.107 196.935C169.572 197.103 169.045 197.259 168.479 197.318C168.104 197.357 167.705 197.392 167.365 197.529C166.818 197.755 166.236 197.821 165.674 197.974C165.092 198.13 164.49 198.216 163.904 198.357C163.213 198.521 162.529 198.708 161.846 198.892C161.436 199.001 161.029 199.118 160.631 199.247C159.955 199.462 159.283 199.689 158.607 199.907C158.42 199.97 158.225 200.001 158.041 200.056C157.67 200.173 157.307 200.302 156.936 200.419C156.248 200.63 155.533 200.786 154.873 201.056C154.139 201.353 153.408 201.661 152.647 201.904C152.264 202.029 151.924 202.263 151.494 202.275C151.467 202.279 151.44 202.298 151.412 202.31C150.92 202.548 150.424 202.779 149.873 202.892C149.756 202.915 149.643 202.966 149.537 203.013C149.065 203.232 148.607 203.486 148.115 203.665C147.615 203.845 147.135 204.029 146.701 204.333C145.881 204.907 145.018 205.435 144.197 206.013C143.44 206.552 142.709 207.126 142.072 207.79C141.779 208.095 141.428 208.357 141.178 208.685C140.576 209.489 139.779 210.154 139.205 210.982C138.768 211.618 138.236 212.2 137.76 212.81C137.432 213.232 137.1 213.65 136.807 214.091C136.338 214.802 135.9 215.532 135.44 216.247C135.123 216.736 134.791 217.216 134.471 217.7C134.315 217.935 134.15 218.173 134.018 218.419C133.885 218.665 133.811 218.939 133.666 219.181C133.232 219.915 132.775 220.638 132.33 221.368C132.275 221.45 132.232 221.544 132.201 221.634C132.123 221.9 132.065 222.173 131.975 222.435C131.885 222.7 131.768 222.958 131.674 223.224C131.451 223.857 131.279 224.505 131.002 225.114C130.9 225.345 130.982 225.54 130.94 225.751C130.721 226.771 130.545 227.802 130.369 228.829C130.26 229.486 130.182 230.146 130.068 230.802C129.885 231.864 129.908 232.95 129.592 233.989C129.502 234.282 129.436 234.583 129.322 234.868C129.26 235.017 129.217 235.118 129.311 235.286C129.412 235.474 129.459 235.716 129.447 235.931C129.4 236.751 129.322 237.571 129.244 238.388C129.232 238.552 129.115 238.724 129.143 238.876C129.232 239.368 129.107 239.841 129.068 240.325C128.959 241.681 128.873 243.044 128.791 244.4C128.752 244.997 128.713 245.595 128.736 246.193C128.775 247.318 128.857 248.446 128.916 249.575C128.92 249.657 128.916 249.751 128.877 249.818C128.772 250.009 128.775 250.185 128.869 250.38C128.916 250.482 128.932 250.595 128.94 250.708C128.975 251.236 129.006 251.767 129.033 252.298C129.053 252.724 129.041 253.154 129.084 253.583C129.107 253.825 129.221 254.06 129.264 254.306C129.315 254.622 129.303 254.95 129.373 255.263C129.553 256.052 129.764 256.833 129.963 257.618C130.072 258.064 130.162 258.517 130.295 258.958C130.463 259.521 130.67 260.071 130.854 260.626C131.221 261.767 131.307 262.954 131.561 264.111C131.662 264.587 131.822 265.052 132.002 265.505C132.275 266.189 132.811 266.767 132.982 267.493C132.99 267.525 133.049 267.548 133.076 267.579C133.174 267.681 133.291 267.771 133.357 267.888C133.725 268.497 134.049 269.126 134.436 269.724C135.061 270.677 135.701 271.622 136.369 272.552C136.686 272.986 136.897 273.47 137.256 273.888C137.643 274.329 137.932 274.845 138.291 275.31C138.904 276.107 139.58 276.864 140.154 277.685C140.779 278.579 141.486 279.411 142.205 280.239C142.666 280.771 143.17 281.275 143.686 281.767C144.225 282.286 144.748 282.802 145.424 283.177C146.166 283.587 146.897 284.021 147.639 284.427C148.318 284.798 149.014 285.15 149.701 285.509C149.779 285.548 149.865 285.575 149.951 285.607C150.725 285.9 151.498 286.189 152.272 286.489C152.447 286.56 152.6 286.689 152.783 286.743C153.49 286.958 154.201 287.169 154.846 287.525C154.947 287.579 155.072 287.611 155.186 287.638C155.51 287.724 155.838 287.79 156.15 287.892C156.611 288.044 157.053 288.232 157.51 288.384C158.068 288.571 158.643 288.72 159.197 288.919C160.076 289.232 160.928 289.626 161.826 289.884C162.818 290.165 163.779 290.501 164.74 290.853C165.022 290.954 165.303 291.068 165.58 291.177C166.15 291.404 166.709 291.654 167.291 291.857C168.428 292.247 169.572 292.634 170.725 292.986C171.373 293.181 172.041 293.341 172.713 293.45C173.494 293.575 174.287 293.65 175.08 293.7C176.436 293.782 177.791 293.829 179.147 293.884C179.967 293.919 180.787 293.958 181.607 293.974C182.92 293.997 184.221 294.169 185.525 294.271C186.51 294.353 187.498 294.415 188.49 294.462C189.006 294.489 189.522 294.47 190.037 294.458C190.201 294.458 190.365 294.411 190.529 294.384C191.248 294.267 191.967 294.15 192.686 294.029C193.084 293.962 193.482 293.9 193.881 293.825C194.221 293.759 194.596 293.747 194.889 293.599C195.209 293.435 195.525 293.45 195.854 293.45C195.959 293.446 196.068 293.458 196.174 293.45C196.561 293.423 196.947 293.388 197.311 293.357ZM241.713 244.622C241.701 244.634 241.682 244.642 241.682 244.654C241.604 245.173 241.506 245.693 241.451 246.216C241.369 247.029 241.361 247.845 241.139 248.65C241.057 248.931 241.135 249.251 241.135 249.552C241.139 249.646 241.166 249.767 241.119 249.837C240.791 250.325 240.834 250.884 240.729 251.415C240.502 252.556 240.315 253.7 240.088 254.837C239.881 255.896 239.647 256.946 239.428 258.001C239.33 258.482 239.248 258.962 239.139 259.439C238.889 260.517 238.67 261.603 238.354 262.665C238.1 263.521 237.928 264.407 237.479 265.216C237.44 265.286 237.432 265.376 237.404 265.454C237.272 265.876 237.096 266.286 236.936 266.7C236.725 267.232 236.428 267.72 236.186 268.232C235.94 268.755 235.643 269.255 235.369 269.767C235.197 270.095 235.041 270.427 234.854 270.743C234.576 271.212 234.279 271.669 233.994 272.13C233.775 272.478 233.565 272.837 233.334 273.181C232.975 273.732 232.654 274.314 232.225 274.814C231.768 275.345 231.49 275.966 231.053 276.497C230.752 276.864 230.619 277.286 230.412 277.685C230.01 278.466 229.647 279.263 229.209 280.029C228.764 280.802 228.295 281.575 227.752 282.294C227.108 283.154 226.373 283.954 225.686 284.782C225.471 285.036 225.307 285.325 224.979 285.482C224.955 285.493 224.932 285.517 224.916 285.54C224.377 286.384 223.475 286.923 222.772 287.626C221.986 288.411 221.033 289.052 220.147 289.747C219.799 290.017 219.44 290.271 219.068 290.509C218.662 290.775 218.244 291.021 217.822 291.263C217.291 291.56 216.768 291.872 216.213 292.122C215.822 292.302 215.486 292.556 215.1 292.732C213.662 293.38 212.272 294.13 210.693 294.47C210.268 294.564 209.834 294.63 209.428 294.763C208.736 294.993 207.998 294.962 207.295 295.114C206.943 295.189 206.565 295.157 206.201 295.204C205.209 295.325 204.209 295.427 203.225 295.599C202.354 295.755 201.475 295.779 200.6 295.825C200.037 295.853 199.479 295.919 198.92 295.986C198.518 296.032 198.127 296.134 197.729 296.161C197.443 296.181 197.178 296.177 196.897 296.282C196.678 296.364 196.393 296.321 196.139 296.302C195.893 296.282 195.67 296.271 195.447 296.419C195.311 296.509 195.115 296.529 194.947 296.575C194.904 296.583 194.854 296.564 194.811 296.575C193.951 296.798 193.072 296.724 192.197 296.716C191.834 296.712 191.471 296.751 191.107 296.767C190.897 296.775 190.682 296.779 190.471 296.779C189.955 296.775 189.44 296.759 188.928 296.763C188.291 296.771 187.658 296.786 187.025 296.814C185.873 296.864 184.717 296.915 183.565 296.986C183.068 297.017 182.572 297.114 182.076 297.161C181.623 297.204 181.166 297.22 180.713 297.247C180.455 297.259 180.193 297.275 179.936 297.294C179.611 297.321 179.283 297.357 178.955 297.38C178.295 297.427 177.631 297.529 176.975 297.497C176.408 297.47 175.861 297.552 175.303 297.556C175.022 297.556 174.748 297.548 174.467 297.595C174.213 297.638 173.943 297.685 173.686 297.552C173.6 297.513 173.479 297.532 173.373 297.521C172.482 297.427 171.596 297.325 170.709 297.239C170.408 297.208 170.084 297.165 169.803 297.228C169.268 297.353 168.791 297.15 168.291 297.095C168.201 297.083 168.111 297.06 168.022 297.064C167.463 297.107 166.959 296.9 166.432 296.786C166.287 296.751 166.127 296.759 165.982 296.728C165.807 296.693 165.639 296.634 165.467 296.595C165.338 296.568 165.209 296.552 165.08 296.544C164.83 296.529 164.596 296.544 164.342 296.435C164.068 296.318 163.725 296.329 163.412 296.286C163.143 296.247 162.869 296.228 162.647 296.044C162.584 295.993 162.447 295.989 162.35 296.005C161.889 296.083 161.463 296.044 161.041 295.821C160.787 295.689 160.475 295.638 160.182 295.583C159.588 295.47 159.01 295.325 158.463 295.079C158.397 295.052 158.315 295.056 158.24 295.044C157.92 294.993 157.6 294.989 157.315 294.775C157.131 294.638 156.826 294.642 156.596 294.552C156.205 294.4 155.838 294.208 155.447 294.056C155.201 293.962 154.94 293.9 154.678 293.841C154.275 293.747 153.897 293.626 153.611 293.333C153.576 293.294 153.51 293.275 153.451 293.259C152.869 293.122 152.408 292.767 151.885 292.521C151.643 292.411 151.432 292.251 151.209 292.111C151.197 292.103 151.193 292.083 151.182 292.079C150.428 291.95 149.998 291.337 149.354 291.056C148.947 290.88 148.639 290.618 148.322 290.341C148.147 290.181 147.924 290.04 147.693 289.958C147.244 289.802 146.975 289.466 146.647 289.181C146.459 289.021 146.248 288.884 146.049 288.736C145.928 288.65 145.775 288.587 145.693 288.482C145.397 288.103 144.959 287.872 144.607 287.552C144.174 287.154 143.752 286.739 143.303 286.353C142.643 285.786 142.15 285.083 141.51 284.505C141.104 284.138 140.74 283.743 140.44 283.306C140.404 283.259 140.357 283.212 140.346 283.161C140.264 282.763 139.943 282.505 139.701 282.196C139.545 281.993 139.467 281.747 139.408 281.493C139.326 281.122 139.193 280.759 138.857 280.482C138.65 280.314 138.51 280.075 138.35 279.864C138.107 279.548 137.865 279.236 137.643 278.907C137.365 278.493 137.107 278.071 136.842 277.65C136.635 277.321 136.408 277.017 136.068 276.782C135.67 276.501 135.377 276.134 135.147 275.728C135.229 275.673 135.291 275.634 135.342 275.603C135.342 275.564 135.354 275.529 135.338 275.513C135.244 275.388 135.158 275.247 135.037 275.15C134.615 274.829 134.322 274.415 134.08 273.982C133.705 273.302 133.295 272.646 132.865 271.993C132.623 271.63 132.346 271.29 132.111 270.919C132.068 270.853 132.053 270.767 132.022 270.693C131.951 270.525 131.908 270.337 131.803 270.193C131.553 269.864 131.381 269.521 131.365 269.114C131.361 269.017 131.268 268.919 131.197 268.829C130.869 268.396 130.537 267.966 130.428 267.423C130.389 267.228 130.244 267.044 130.123 266.864C129.627 266.111 129.209 265.325 128.83 264.517C128.654 264.138 128.397 263.794 128.182 263.431C128.107 263.31 128.041 263.177 128.002 263.044C127.9 262.665 127.647 262.361 127.393 262.06C127.357 262.017 127.322 261.966 127.311 261.915C127.147 261.275 126.658 260.79 126.361 260.216C126.131 259.763 125.967 259.282 125.729 258.833C125.557 258.509 125.287 258.22 125.26 257.837C124.885 257.583 124.9 257.142 124.654 256.825C124.502 256.63 124.42 256.411 124.522 256.161C124.545 256.107 124.518 256.021 124.482 255.97C124.065 255.318 123.818 254.618 123.67 253.876C123.6 253.497 123.451 253.126 123.279 252.779C123.1 252.411 122.99 252.056 123.065 251.657C123.092 251.509 123.061 251.353 123.037 251.2C123.014 251.025 122.959 250.857 122.94 250.681C122.865 249.993 122.783 249.302 122.732 248.614C122.709 248.314 122.775 248.009 122.779 247.708C122.783 247.474 122.736 247.239 122.744 247.009C122.764 246.204 122.787 245.4 122.83 244.599C122.877 243.751 122.947 242.904 123.014 242.056C123.025 241.931 123.049 241.802 123.104 241.689C123.307 241.243 123.389 240.79 123.318 240.31C123.315 240.271 123.338 240.228 123.35 240.189C123.506 239.556 123.658 238.923 123.818 238.29C123.932 237.857 124.041 237.427 124.17 236.997C124.244 236.759 124.35 236.532 124.443 236.302C124.459 236.259 124.486 236.224 124.498 236.185C124.65 235.622 124.74 235.036 124.971 234.501C125.205 233.939 125.412 233.361 125.74 232.829C125.889 232.599 125.916 232.302 125.986 232.036C126.107 231.575 126.338 231.161 126.565 230.743C126.732 230.435 126.916 230.122 127.002 229.794C127.178 229.138 127.623 228.599 127.85 227.966C128.037 227.446 128.275 226.939 128.51 226.431C128.67 226.075 128.889 225.743 129.029 225.384C129.291 224.704 129.506 224.013 129.768 223.337C130.033 222.65 130.104 221.927 130.268 221.22C130.315 221.021 130.373 220.818 130.463 220.626C130.709 220.111 130.904 219.568 131.272 219.107C131.393 218.954 131.475 218.775 131.568 218.607C132.041 217.755 132.522 216.911 132.975 216.052C133.174 215.677 133.307 215.275 133.494 214.9C133.787 214.31 134.088 213.72 134.42 213.15C134.623 212.794 134.916 212.482 135.127 212.13C135.471 211.556 135.998 211.111 136.4 210.575C136.682 210.196 137.115 209.911 137.447 209.56C138.197 208.767 139.096 208.122 139.959 207.446C140.397 207.107 140.889 206.829 141.369 206.536C142.436 205.892 143.494 205.247 144.354 204.353C144.779 203.907 145.232 203.454 145.768 203.126C146.162 202.884 146.432 202.54 146.799 202.275C147.232 201.966 147.643 201.595 148.029 201.216C148.19 201.056 148.4 200.935 148.592 200.806C148.787 200.673 148.986 200.552 149.186 200.427C149.701 200.091 150.209 199.739 150.74 199.427C151.002 199.271 151.311 199.177 151.596 199.06C152.217 198.806 152.842 198.564 153.451 198.294C154.053 198.029 154.635 197.732 155.229 197.45C155.498 197.325 155.775 197.212 156.045 197.083C156.709 196.775 157.357 196.443 158.033 196.157C158.943 195.767 159.869 195.411 160.791 195.04C160.959 194.974 161.127 194.907 161.303 194.861C161.756 194.739 162.209 194.622 162.666 194.513C162.936 194.45 163.244 194.505 163.451 194.255C163.498 194.2 163.619 194.189 163.705 194.173C165.072 193.868 166.455 193.654 167.854 193.521C168.553 193.454 169.24 193.333 169.936 193.255C170.315 193.212 170.697 193.189 171.08 193.185C171.537 193.177 171.994 193.228 172.432 193.048C172.525 193.009 172.643 193.021 172.752 193.017C173.471 193.001 174.186 192.993 174.904 192.978C175.209 192.97 175.533 192.876 175.815 192.943C176.272 193.048 176.709 192.919 177.158 192.95C177.815 192.989 178.467 193.013 179.123 193.048C179.565 193.068 180.002 193.091 180.44 193.114C181.463 193.169 182.49 193.189 183.506 193.294C185.729 193.513 187.963 193.493 190.19 193.626C191.346 193.696 192.494 193.872 193.65 193.978C194.42 194.048 195.166 194.286 195.951 194.212C196.041 194.204 196.158 194.2 196.221 194.243C196.568 194.474 196.982 194.415 197.369 194.474C197.908 194.56 198.44 194.689 198.979 194.782C199.572 194.888 200.174 194.974 200.768 195.083C201.486 195.212 202.197 195.361 202.912 195.505C203.686 195.657 204.455 195.81 205.229 195.97C205.467 196.017 205.701 196.075 205.94 196.13C206.397 196.232 206.857 196.329 207.315 196.446C207.619 196.525 207.912 196.646 208.217 196.732C208.522 196.821 208.826 196.896 209.135 196.97C209.279 197.009 209.436 197.021 209.58 197.068C209.951 197.189 210.318 197.321 210.69 197.45C211.154 197.614 211.615 197.786 212.084 197.946C213.068 198.282 214.084 198.556 215.025 198.97C215.647 199.243 216.365 199.38 216.877 199.853C216.947 199.919 217.065 199.946 217.162 199.986C217.764 200.232 218.342 200.505 218.865 200.88C219.225 201.134 219.619 201.341 219.994 201.571C220.022 201.587 220.049 201.603 220.068 201.626C220.545 202.13 221.229 202.372 221.791 202.767C222.268 203.107 222.697 203.509 223.131 203.896C223.561 204.271 223.975 204.661 224.385 205.052C224.869 205.513 225.365 205.962 225.822 206.443C226.479 207.138 227.108 207.857 227.744 208.568C228.061 208.923 228.365 209.286 228.686 209.642C228.877 209.857 229.119 210.036 229.272 210.271C229.65 210.857 230.135 211.368 230.619 211.88C230.916 212.196 231.158 212.552 231.432 212.884C231.713 213.228 232.002 213.564 232.283 213.904C232.494 214.157 232.705 214.415 232.912 214.673C233.303 215.15 233.697 215.622 234.08 216.107C234.186 216.239 234.24 216.404 234.342 216.544C234.76 217.134 235.186 217.72 235.608 218.306C235.623 218.329 235.643 218.353 235.65 218.38C235.947 219.142 236.568 219.743 236.889 220.497C236.928 220.583 236.998 220.665 237.068 220.736C237.404 221.071 237.647 221.446 237.775 221.888C237.826 222.056 237.971 222.2 238.053 222.364C238.393 223.032 238.729 223.7 239.065 224.368C239.35 224.939 239.576 225.521 239.67 226.15C239.709 226.38 239.787 226.614 239.908 226.821C240.143 227.228 240.213 227.661 240.26 228.107C240.334 228.798 240.44 229.486 240.525 230.177C240.58 230.646 240.627 231.118 240.678 231.587C240.76 232.321 240.85 233.056 240.92 233.79C240.951 234.095 240.92 234.404 240.947 234.708C241.088 236.239 241.24 237.767 241.393 239.294C241.393 239.31 241.397 239.321 241.397 239.337C241.471 240.364 241.553 241.396 241.619 242.427C241.639 242.72 241.615 243.013 241.627 243.306C241.635 243.439 241.686 243.568 241.713 243.7V244.622Z" fill="#FF0000"/>
</svg>
