<svg width="357" height="490" viewBox="0 0 357 490" fill="none" xmlns="http://www.w3.org/2000/svg">
<path d="M182.123 405.838L177.342 404.979L180.467 388.213L164.467 394.292L162.779 389.51L178.951 383.917L165.748 373.026L168.951 369.276L181.873 380.417L184.779 363.588L189.56 364.448L186.435 381.229L202.435 375.151L204.123 379.917L187.842 385.51L201.154 396.401L197.951 400.182L185.029 389.026L182.123 405.838Z" fill="#FF0000"/>
<path d="M99.6794 475.788C82.6559 479.03 67.4137 477.132 53.945 470.1C40.445 462.905 31.9684 450.272 28.5231 432.21L35.82 430.819C37.9333 441.905 42.4489 450.721 49.3669 457.272C62.1169 468.858 78.5231 472.733 98.5856 468.897C112.711 466.202 123.09 460.991 129.726 453.272C136.371 445.554 138.711 436.53 136.742 426.194C135.136 417.831 131.086 411.475 124.586 407.132C118.093 402.788 107.933 399.491 94.1012 397.241L68.4919 392.929C52.0544 390.085 40.4958 386.468 33.82 382.069C26.945 377.405 22.5348 369.975 20.5856 359.788C18.2966 347.788 21.0505 337.268 28.8512 328.225C36.6637 319.186 48.3864 313.171 64.0231 310.179C81.0427 306.929 95.4333 308.905 107.195 316.1C118.965 323.3 126.531 335.71 129.898 353.335L122.601 354.725C119.496 338.475 112.605 327.514 101.929 321.835C91.1989 316.003 78.9958 314.393 65.32 317.007C52.1012 319.53 42.0739 324.554 35.2419 332.085C28.4177 339.608 25.9411 348.225 27.8044 357.944C29.4294 366.456 33.0466 372.612 38.6637 376.413C43.902 379.987 53.0309 382.889 66.0544 385.116L90.945 389.335C107.371 392.046 119.84 395.889 128.351 400.866C136.828 405.702 142.117 413.585 144.211 424.522C146.586 436.983 143.89 447.85 136.132 457.132C128.382 466.405 116.23 472.624 99.6794 475.788Z" fill="#FF0000"/>
<path d="M166.79 471.304L159.274 472.164L155.883 442.335L163.399 441.476L166.79 471.304ZM160.727 417.96L153.461 418.789L140.258 302.429L147.524 301.601L160.727 417.96Z" fill="#FF0000"/>
<path d="M132.024 339.746L88.8989 267.996L206.493 197.309L209.727 202.699L97.1646 270.355L137.055 336.715L132.024 339.746Z" fill="#FF0000"/>
<path d="M51.5638 306.924L46.5638 305.158L47.345 302.939L68.6419 279.689L62.8919 175.814L63.8138 173.236L68.9857 175.064L74.095 273.705L139.595 199.971L144.783 201.799L143.861 204.377L51.5638 306.924Z" fill="#FF0000"/>
<path d="M189.134 197.429C183.298 202.609 177.329 205.128 171.228 204.992C165.134 204.859 159.771 202.179 155.134 196.96L142.493 182.726C137.849 177.488 135.806 171.82 136.368 165.726C136.931 159.624 140.13 153.984 145.962 148.804C151.743 143.671 157.65 141.195 163.681 141.382C169.712 141.562 175.056 144.269 179.712 149.507L187.556 158.351L155.181 187.101L159.962 192.492C163.423 196.378 167.392 198.374 171.884 198.476C176.372 198.57 180.775 196.703 185.087 192.867C188.982 189.41 191.243 185.769 191.868 181.945C192.501 178.124 191.603 174.406 189.165 170.788L194.087 166.429C197.825 171.378 199.29 176.581 198.478 182.038C197.665 187.488 194.548 192.617 189.134 197.429ZM147.337 178.257L151.306 182.726L178.775 158.351L174.806 153.882C171.4 150.05 167.482 148.062 163.056 147.913C158.618 147.757 154.212 149.628 149.837 153.523C145.579 157.304 143.243 161.413 142.837 165.851C142.431 170.288 143.931 174.425 147.337 178.257Z" fill="#FF0000"/>
<path d="M202.261 240.179C205.968 246.355 206.597 253.448 204.152 261.46L211.98 258.835L213.824 261.898L153.636 298.085L150.714 293.226L171.761 280.569C163.937 279.233 158.152 275.448 154.402 269.21C151.41 264.23 150.558 259.37 151.839 254.632C153.121 249.901 156.371 245.968 161.589 242.835L175.714 234.335C180.933 231.202 185.933 230.179 190.714 231.273C195.496 232.358 199.343 235.327 202.261 240.179ZM159.23 267.038C162.363 272.265 168.25 275.749 176.886 277.491L199.121 264.116C201.64 255.667 201.312 248.796 198.136 243.507C195.968 239.913 193.078 237.757 189.464 237.038C185.847 236.312 182.121 237.101 178.277 239.413L164.871 247.476C160.972 249.819 158.5 252.733 157.449 256.226C156.394 259.714 156.988 263.319 159.23 267.038Z" fill="#FF0000"/>
<path d="M178.211 350.003C183.731 351.605 188.403 351.394 192.227 349.363C196.059 347.331 198.68 343.894 200.086 339.05L205.071 321.941C206.477 317.12 206.11 312.816 203.977 309.034C201.84 305.253 198.012 302.562 192.493 300.956C187.125 299.394 182.493 299.64 178.586 301.691C174.68 303.745 172.032 307.152 170.649 311.909L165.665 329.019C164.258 333.863 164.653 338.183 166.852 341.972C169.059 345.761 172.844 348.441 178.211 350.003ZM176.571 355.675C169.247 353.538 164.09 349.929 161.102 344.847C158.122 339.753 157.579 333.956 159.477 327.456L164.586 309.909C166.45 303.495 170.012 298.921 175.274 296.191C180.532 293.452 186.825 293.152 194.149 295.284C201.555 297.441 206.719 301.081 209.649 306.206C212.586 311.323 213.122 317.089 211.258 323.503L206.149 341.05C204.25 347.55 200.7 352.148 195.493 354.847C190.282 357.554 183.977 357.831 176.571 355.675Z" fill="#FF0000"/>
<path d="M181.073 467.526L175.745 465.963L189.026 420.37L180.401 417.87L181.776 413.135L190.401 415.635L191.323 412.463C192.83 407.256 195.323 403.6 198.791 401.495C202.268 399.393 206.545 399.08 211.62 400.557C212.284 400.756 213.385 401.151 214.916 401.745L213.51 406.588L212.526 406.307C212.088 406.112 211.502 405.901 210.776 405.682C207.088 404.612 204.108 404.709 201.838 405.979C199.565 407.252 197.838 409.932 196.651 414.026L195.729 417.198L208.979 421.041L207.604 425.776L194.354 421.932L181.073 467.526Z" fill="#FF0000"/>
<path d="M132.38 305.101L128.005 302.913L136.896 285.101L141.271 287.288L132.38 305.101Z" fill="#FF0000"/>
<path d="M29.5202 309.733L48.9733 290.327L51.9265 291.514L32.5671 313.014L28.8015 311.499L29.5202 309.733Z" fill="#FF0000"/>
<path d="M59.3435 160.096C53.406 155.541 50.0661 150.318 49.3279 144.424C48.5974 138.541 50.4919 132.65 55.0154 126.752C57.0036 124.15 59.2888 122.025 61.8747 120.377C64.4568 118.732 67.9763 117.064 72.4372 115.377L107.422 102.361L111.593 105.549L110.312 107.205L76.4685 119.627C80.7263 119.463 85.0505 121.061 89.4372 124.424C94.7263 128.479 97.6638 133.291 98.2497 138.861C98.8318 144.424 96.9763 150.006 92.6872 155.611C88.2068 161.443 82.988 164.768 77.031 165.58C71.0818 166.4 65.1872 164.572 59.3435 160.096ZM62.531 155.924C67.0935 159.412 71.613 160.822 76.0935 160.158C80.57 159.49 84.5349 156.908 87.9841 152.408C91.4841 147.846 92.9997 143.361 92.531 138.955C92.07 134.549 89.5388 130.588 84.9372 127.064C80.5388 123.701 76.031 122.299 71.406 122.861C66.7888 123.416 62.7575 125.939 59.3122 130.439C55.863 134.939 54.3825 139.432 54.8747 143.908C55.3747 148.385 57.9255 152.393 62.531 155.924Z" fill="#FF0000"/>
<path d="M197.205 141.595C193.338 143.669 189.662 144.353 186.173 143.642C182.681 142.923 179.97 140.763 178.033 137.158C175.838 133.076 175.572 129.189 177.236 125.501C178.904 121.814 182.423 118.529 187.798 115.642L198.939 109.642L196.439 105.017C194.927 102.197 192.802 100.462 190.064 99.8139C187.322 99.1694 184.228 99.7748 180.783 101.626C177.431 103.431 175.248 105.65 174.236 108.283C173.228 110.908 173.439 113.556 174.877 116.22L170.72 118.455C168.638 114.58 168.267 110.79 169.611 107.08C170.947 103.361 173.966 100.236 178.673 97.7045C183.423 95.1537 187.72 94.3256 191.564 95.2201C195.416 96.1186 198.412 98.5483 200.548 102.517L215.595 130.501L212.845 131.97L208.455 127.173C207.705 129.923 206.345 132.638 204.377 135.314C202.416 137.982 200.025 140.076 197.205 141.595ZM195.892 137.267C200.642 134.705 204.099 130.044 206.267 123.283L200.955 113.408L189.814 119.408C181.615 123.814 179.025 128.814 182.033 134.408C183.408 136.97 185.338 138.478 187.83 138.923C190.33 139.361 193.017 138.81 195.892 137.267ZM165.455 90.0639C164.33 87.9701 164.091 85.8061 164.736 83.5639C165.384 81.3256 166.732 79.6576 168.783 78.5639C170.869 77.4389 173.033 77.2162 175.283 77.892C177.533 78.5717 179.22 79.9545 180.345 82.0483C181.439 84.0795 181.634 86.2123 180.939 88.4389C180.252 90.6576 178.869 92.3295 176.783 93.4545C174.732 94.5483 172.607 94.767 170.408 94.1108C168.201 93.4467 166.548 92.0951 165.455 90.0639ZM168.127 88.6264C168.806 89.8764 169.857 90.7123 171.283 91.1264C172.713 91.5326 174.056 91.3998 175.314 90.7201C176.619 90.0248 177.498 88.9662 177.955 87.5483C178.404 86.1225 178.291 84.7826 177.611 83.5326C176.904 82.2201 175.826 81.3451 174.377 80.9076C172.931 80.4701 171.556 80.6029 170.252 81.2983C168.994 81.9779 168.15 83.0404 167.72 84.4858C167.283 85.935 167.42 87.3139 168.127 88.6264Z" fill="#FF0000"/>
<path d="M116.416 144.667L113.369 143.151L109.088 124.667L126.431 116.979L129.478 118.495L128.791 119.901L113.213 126.729L117.103 143.276L116.416 144.667ZM129.244 151.073L126.181 149.557L121.916 131.088L139.244 123.385L142.306 124.901L141.619 126.307L126.041 133.135L129.931 149.682L129.244 151.073Z" fill="#FF0000"/>
<path d="M36.7231 130.043L34.2543 126.434L77.0043 97.2305L74.0825 92.9492L75.9418 91.6836L81.0825 94.4492L83.5512 98.0586L36.7231 130.043Z" fill="#FF0000"/>
<path d="M204.49 91.7778L200.74 94.0278L181.505 62.0278L175.458 65.6685L173.443 62.3247L179.49 58.6841L178.162 56.4653C175.966 52.8091 175.189 49.4263 175.833 46.3091C176.482 43.1841 178.583 40.5513 182.146 38.4028C182.607 38.1216 183.412 37.6919 184.568 37.106L186.615 40.5122L185.927 40.9341C185.576 41.0903 185.142 41.3208 184.63 41.6216C182.048 43.1841 180.521 44.9614 180.052 46.9497C179.576 48.9302 180.193 51.3521 181.912 54.2153L183.24 56.4341L204.193 43.8403L225.443 79.1841L221.693 81.4341L202.458 49.4341L185.255 59.7778L204.49 91.7778ZM200.615 37.8872L196.865 40.1372L192.271 32.481L196.021 30.231L200.615 37.8872Z" fill="#FF0000"/>
<path d="M166.237 133.459L164.55 135.366L157.268 128.913L150.925 136.069L149.143 134.491L155.487 127.334L148.315 120.991L150.003 119.084L157.175 125.428L163.518 118.272L165.3 119.85L158.956 127.006L166.237 133.459Z" fill="#FF0000"/>
<path d="M127.984 32.9914C125.722 30.6555 124.488 28.2141 124.281 25.6633C124.07 23.1086 125.023 20.8117 127.14 18.757C129.523 16.4367 132.16 15.5031 135.046 15.9602C137.941 16.4094 140.945 18.2375 144.062 21.4445L150.484 28.0695L153.468 25.1789C155.144 23.5422 155.937 21.7102 155.843 19.6789C155.749 17.6477 154.691 15.5969 152.671 13.5227C150.734 11.5227 148.753 10.425 146.734 10.2258C144.722 10.0187 142.925 10.6789 141.343 12.2102L138.937 9.72578C141.238 7.49921 143.827 6.48359 146.702 6.6789C149.577 6.87812 152.374 8.37812 155.093 11.1789C159.05 15.2531 160.128 19.2805 158.327 23.257C162.628 21.8508 166.734 23.1516 170.64 27.1633C173.503 30.1203 174.956 33.2023 174.999 36.4133C175.05 39.632 173.738 42.5422 171.062 45.1477L166.827 49.257L150.734 32.6945L147.749 35.6008C145.757 37.5383 144.8 39.6945 144.874 42.0695C144.945 44.4445 146.062 46.7336 148.218 48.9445C150.175 50.9641 152.16 52.1047 154.171 52.3664C156.179 52.6242 158.109 52.0617 159.952 50.6789L162.39 53.1789C159.796 55.2922 157.05 56.1984 154.156 55.8977C151.257 55.6047 148.472 54.0734 145.796 51.3039C143.585 49.0305 142.195 46.7023 141.624 44.3195C141.062 41.9445 141.265 39.6516 142.234 37.4445C139.648 37.9016 137.101 37.7609 134.593 37.0227C132.093 36.2922 129.89 34.9484 127.984 32.9914ZM130.859 31.0852C132.671 32.9484 134.769 34.1398 137.156 34.6633C139.476 35.1945 141.671 35.1867 143.734 34.6477L148.296 30.1945L141.874 23.5695C137.132 18.6867 133.148 17.8156 129.921 20.9602C128.39 22.4367 127.738 24.0578 127.968 25.8195C128.195 27.5891 129.16 29.343 130.859 31.0852ZM154.89 28.6633L152.921 30.5695L166.562 44.6008L168.531 42.6945C170.488 40.7961 171.452 38.6672 171.421 36.3039C171.39 33.9484 170.285 31.6516 168.109 29.4133C165.992 27.2336 163.749 26.0891 161.374 25.9758C159.007 25.8703 156.847 26.7648 154.89 28.6633Z" fill="#FF0000"/>
<path d="M127.072 49.6578C124.033 49.0563 120.775 49.7984 117.306 51.8922C113.838 53.9781 111.674 56.5484 110.806 59.6109C109.931 62.6734 110.392 65.7008 112.181 68.6891C114.017 71.7438 116.334 73.5758 119.134 74.1891C121.939 74.7945 125.099 74.0328 128.619 71.9078L130.759 70.6266L132.978 74.3297L130.525 75.8141C126.42 78.275 123.814 81.2203 122.697 84.6578C121.572 88.0875 122.099 91.6109 124.275 95.2359C126.763 99.3922 130.088 101.955 134.244 102.923C138.408 103.892 142.705 103.048 147.134 100.392C151.498 97.7672 154.236 94.3883 155.353 90.2516C156.467 86.107 155.779 81.9547 153.291 77.7984L151.681 75.1266L143.556 80.0016L141.275 76.2047L161.791 63.8922L164.072 67.6891L155.931 72.5641L157.4 75.0016C160.681 80.4703 161.541 85.9391 159.978 91.4078C158.361 96.8141 154.744 101.205 149.119 104.58C143.588 107.904 138.166 109.009 132.853 107.892C127.642 106.736 123.463 103.529 120.306 98.2672C118.068 94.5406 117.197 90.8922 117.697 87.3297C118.197 83.7672 119.818 80.6266 122.556 77.9078C119.568 78.65 116.744 78.4195 114.088 77.2203C111.431 76.025 109.252 74.0094 107.541 71.1734C105.209 67.2789 104.646 63.1734 105.853 58.8609C107.021 54.5172 110.021 50.8883 114.853 47.9703C119.646 45.0953 124.15 44.0758 128.369 44.9078C132.588 45.7437 136.076 48.3297 138.838 52.6734L134.65 55.1734C132.65 52.1031 130.123 50.2633 127.072 49.6578Z" fill="#FF0000"/>
<path d="M98.1457 81.8931C96.341 83.9243 94.3801 85.5493 92.2551 86.7681L95.6614 93.3931L93.6926 95.6274L92.677 94.7368L89.2239 88.0649C83.7629 89.7759 78.5442 88.4204 73.552 84.0024L61.8332 73.6431C57.8645 70.1235 55.8098 66.1743 55.6613 61.7993C55.5051 57.4243 57.2785 53.1548 60.9738 48.9868C62.6848 47.0493 64.591 45.4712 66.6926 44.2524L63.302 37.6118L65.302 35.3774L66.3176 36.2837L69.6926 42.9087C75.2043 41.0649 80.4856 42.3853 85.5363 46.8618L97.2551 57.2212C101.193 60.7134 103.232 64.6704 103.38 69.0962C103.525 73.5142 101.779 77.7798 98.1457 81.8931ZM95.3957 79.4556C98.2785 76.1978 99.6653 72.8696 99.552 69.4712C99.4348 66.0767 97.8528 63.0298 94.802 60.3306L82.7863 49.6899C79.216 46.5337 75.4504 45.4478 71.4895 46.4243L90.5207 83.4087C92.2082 82.5337 93.8332 81.2173 95.3957 79.4556ZM64.302 70.5493L76.3176 81.1899C79.7785 84.2524 83.4738 85.3774 87.4113 84.5649L68.3801 47.5806C66.6613 48.5728 65.1106 49.854 63.7238 51.4243C60.841 54.6743 59.4543 58.0024 59.5676 61.4087C59.6731 64.8071 61.2512 67.854 64.302 70.5493Z" fill="#FF0000"/>
<path d="M44.8267 83.2349L45.2017 80.2192C48.2017 80.3755 50.4048 80.6958 51.811 81.1724C53.2251 81.6411 54.2798 82.4536 54.9673 83.6099C55.811 85.0083 56.1079 86.7583 55.8579 88.8599L55.6235 91.0161C55.4556 92.8599 55.6782 94.2974 56.2954 95.3286C56.6899 95.9849 57.3501 96.4536 58.2798 96.7349C59.2056 97.0161 60.8618 97.2856 63.2485 97.5474L62.9048 100.579C59.9868 100.485 57.811 100.196 56.3735 99.7192C54.936 99.2505 53.8462 98.395 53.1079 97.1567C52.2954 95.8013 51.9868 94.1138 52.186 92.0942L52.4048 89.8442C52.6001 87.9302 52.4517 86.563 51.9517 85.7505C51.4595 84.9302 50.7993 84.3872 49.9673 84.1255C49.1431 83.8677 47.4282 83.5708 44.8267 83.2349ZM33.4829 90.063L33.8579 87.0474C36.8579 87.2036 39.061 87.5239 40.4673 88.0005C41.8735 88.4692 42.9204 89.2817 43.6079 90.438C44.4517 91.8325 44.7485 93.5825 44.4985 95.688L44.2798 97.8442C44.1118 99.6763 44.3345 101.11 44.9517 102.141C45.3462 102.797 46.0024 103.266 46.9204 103.547C47.8462 103.836 49.5063 104.11 51.9048 104.36L51.5454 107.407C48.6274 107.313 46.4517 107.024 45.0142 106.547C43.5767 106.079 42.4868 105.223 41.7485 103.985C40.936 102.629 40.6274 100.942 40.8267 98.9224L41.0454 96.6724C41.2407 94.7544 41.0923 93.3833 40.5923 92.563C40.1001 91.7505 39.4399 91.2114 38.6079 90.9536C37.7837 90.6958 36.0767 90.3989 33.4829 90.063Z" fill="#FF0000"/>
<path d="M113.483 39.6145C110.94 38.8254 108.815 37.0129 107.108 34.177C105.397 31.3333 104.788 28.5989 105.28 25.9739C105.78 23.3411 107.327 21.2395 109.921 19.677L110.671 19.2395L112.483 22.2708L111.796 22.677C109.952 23.7942 108.862 25.22 108.53 26.9583C108.206 28.6887 108.639 30.5442 109.827 32.5208C111.014 34.5012 112.452 35.7512 114.139 36.2708C115.827 36.7942 117.593 36.4973 119.436 35.3801L120.124 34.9739L121.952 38.0051L121.202 38.4426C118.608 40.0051 116.034 40.3958 113.483 39.6145Z" fill="#FF0000"/>
<path d="M89.4935 219.876C83.388 217.145 79.181 213.735 76.8685 209.642C74.5638 205.548 74.3763 201.345 76.306 197.032C77.4622 194.45 79.1653 192.462 81.4153 191.063L73.7747 187.642L75.806 183.126L126.212 205.673L124.181 210.188L87.4622 193.751C85.1693 194.806 83.4974 196.513 82.4466 198.876C81.1849 201.681 81.4036 204.517 83.1028 207.392C84.7982 210.267 87.8724 212.696 92.3216 214.688C96.5482 216.571 100.368 217.224 103.775 216.642C107.189 216.056 109.861 214.087 111.79 210.735L117.509 213.298C114.861 218.224 110.939 221.204 105.743 222.235C100.501 223.173 95.0872 222.384 89.4935 219.876ZM129.009 199.423L78.6028 176.876L80.6185 172.36L117.556 188.876C119.939 187.782 121.665 186.056 122.728 183.688C123.947 180.962 123.736 178.153 122.103 175.267C120.466 172.384 117.564 170.009 113.4 168.142C109.087 166.216 105.279 165.571 101.978 166.204C98.6732 166.841 96.095 168.856 94.2435 172.251L88.5403 169.688C91.0716 164.782 94.8294 161.767 99.8216 160.642C104.81 159.509 110.247 160.259 116.134 162.892C121.954 165.497 125.997 168.884 128.259 173.048C130.529 177.216 130.736 181.384 128.884 185.548C127.654 188.278 125.857 190.274 123.493 191.532L131.025 194.907L129.009 199.423Z" fill="#FF0000"/>
<path d="M188.869 270.029C187.377 270.962 186.158 272.158 185.229 273.642C186.768 272.771 187.912 271.494 188.869 270.029ZM183.236 190.4C184.006 192.408 184.65 193.599 186.705 192.638C185.799 191.701 184.748 191.259 183.236 190.4ZM186.58 275.728C188.869 275.669 189.936 274.634 189.975 272.24C188.83 273.56 187.463 274.322 186.58 275.728ZM186.936 286.841L187.447 286.392C185.709 284.423 183.967 282.451 182.229 280.478C183.479 282.853 184.717 285.232 186.936 286.841ZM312.002 107.724C314.072 110.849 316.006 114.068 318.014 117.232C316.404 113.81 314.779 110.396 312.002 107.724ZM182.182 201.498C182.24 200.072 182.232 198.884 181.049 198.279C180.002 197.744 178.99 198.091 178.002 199.099C179.412 199.908 180.693 200.642 182.182 201.498ZM195.158 269.017C194.514 269.173 194.463 269.556 194.822 269.958C196.295 271.626 197.795 273.267 199.291 274.919C199.643 275.306 199.994 275.333 200.381 274.947C200.83 274.498 200.783 274.138 200.361 273.666C199.213 272.384 198.104 271.08 196.623 270.146C196.1 269.814 195.639 269.392 195.158 269.017ZM185.521 205.712C185.658 205.505 185.795 205.302 185.932 205.095C181.639 202.474 177.342 199.853 173.049 197.228C176.795 200.705 181.307 202.97 185.521 205.712ZM9.15819 290.595C10.8027 294.517 13.0879 297.994 15.9043 301.13C13.9512 297.419 12.1777 293.603 9.15819 290.595ZM194.037 197.353C194.076 196.873 193.635 196.595 193.17 196.4C192.545 196.142 192.479 196.681 192.354 197.072C191.514 199.689 190.283 202.123 188.826 204.443C188.451 205.044 188.439 205.513 189.127 205.853C189.967 206.267 189.818 205.392 190.072 205.084C190.576 204.478 191.064 203.849 191.475 203.173C192.557 201.392 193.58 199.572 194.037 197.353ZM190.842 208.298C196.986 212.669 203.428 216.552 210.041 220.166C203.865 215.845 197.541 211.767 190.842 208.298ZM177.236 187.478C177.213 186.501 176.389 186.345 175.838 185.947C175.412 185.642 174.994 185.771 174.771 186.236C173.545 188.833 172.338 191.435 171.119 194.037C170.834 194.642 171.158 194.982 171.627 195.263C172.197 195.603 172.568 195.318 172.869 194.841C173.787 193.384 174.729 191.939 175.615 190.462C176.205 189.478 176.713 188.447 177.236 187.478ZM49.8457 149.876C46.5293 150.697 45.0683 152.787 45.7598 155.904C46.0683 157.302 47.5254 157.248 48.5762 157.455C49.584 157.654 49.3144 156.619 49.4316 156.068C49.8535 154.029 50.0058 151.97 49.8457 149.876ZM44.1894 172.697C45.9668 172.791 46.3183 172.025 45.5488 170.275C44.4785 167.853 44.9082 165.81 46.9394 164.173C47.4785 163.744 47.8379 163.259 48.041 162.638C48.3066 161.833 49.1426 160.923 47.4629 160.552C46.3262 160.298 45.3574 159.939 45.0996 161.583C44.5918 164.814 43.5488 167.931 43.1152 171.189C42.9473 172.455 43.3887 172.72 44.1894 172.697ZM16.291 295.978C14.4941 291.982 12.8769 287.912 10.0605 284.49C9.27538 283.533 8.59569 282.181 7.09178 282.353C6.41991 282.431 6.93553 285.634 7.82225 286.771C7.86522 286.83 7.91991 286.88 7.97069 286.927C11.0137 289.685 13.7715 292.701 16.291 295.978ZM250.904 413.166C248.529 412.345 246.158 411.521 243.783 410.709C236.725 408.298 229.463 406.834 222.041 406.201C221.322 406.138 220.193 405.521 220.174 407.115C220.158 408.419 220.748 408.966 222.025 408.834C222.24 408.81 222.459 408.822 222.678 408.818C225.932 408.748 229.166 409.056 232.381 409.466C238.666 410.263 244.799 411.787 250.904 413.166ZM40.0176 179.146C40.7871 175.197 42.2949 171.404 41.9394 167.275C41.8301 166.044 42.0566 164.541 42.7051 163.533C44.8105 160.248 44.2676 156.466 45.0488 152.947C45.1426 152.521 45.2402 151.697 44.4551 151.892C42.9941 152.263 41.5723 152.81 40.166 153.369C39.7246 153.544 39.9824 153.974 40.1816 154.279C42.4902 157.876 41.7402 161.802 41.3027 165.65C40.791 170.15 40.0488 174.619 40.0176 179.146ZM242.771 442.556C242.311 442.474 242.15 442.861 242.064 443.201C241.236 446.482 240.416 449.759 239.611 453.044C239.475 453.611 239.643 454.021 240.314 454.123C241.381 454.279 242.439 454.47 243.502 454.658C244.096 454.763 244.533 454.619 244.525 453.943C244.475 450.509 245.482 447.291 246.443 444.052C246.607 443.494 247.143 442.431 245.854 442.498C245.049 442.541 243.412 442.666 242.771 442.556ZM15.7168 304.74C15.4316 303.111 14.0371 302.162 13.0098 301.033C8.86522 296.474 5.40038 291.595 4.62303 285.259C4.56444 284.787 4.55272 284.173 3.81835 284.201C3.23632 284.22 2.68163 284.283 2.42382 284.974C1.77147 286.724 1.68553 288.431 2.31835 290.244C4.4746 296.388 8.30272 301.392 12.834 305.927C13.3691 306.462 13.8066 307.435 14.7129 307.115C15.6973 306.767 15.2324 305.58 15.7168 304.74ZM186.549 276.701C184.775 276.419 184.357 277.572 183.6 278.13C183.158 278.455 183.33 278.853 183.666 279.228C185.201 280.947 186.744 282.662 188.229 284.423C188.873 285.185 189.447 285.13 189.963 284.408C190.596 283.517 191.4 282.896 192.326 282.337C192.971 281.947 194.002 281.384 192.455 280.58C191.537 280.103 191.787 279.197 192.439 278.58C193.588 277.49 194.928 276.806 196.549 277.435C197.025 277.619 197.396 277.994 197.842 277.427C198.271 276.892 197.896 276.466 197.643 276.064C196.686 274.541 195.639 273.072 194.736 271.517C193.975 270.201 193.303 270.205 192.322 271.302C191.807 271.876 191.604 272.498 191.373 273.185C190.463 275.896 188.936 276.865 186.549 276.701ZM209.096 254.642C205.795 258.084 202.873 261.158 199.912 264.193C199.221 264.9 199.225 265.439 199.771 266.24C200.943 267.955 202.182 269.662 202.107 271.974C203.104 271.474 203.346 270.435 204.6 270.521C205.748 270.599 209.061 266.623 209.08 265.419C209.131 261.982 209.096 258.541 209.096 254.642ZM178.322 187.56C177.65 187.615 177.635 188.228 177.404 188.646C176.346 190.529 175.271 192.404 174.283 194.326C173.967 194.939 172.756 195.689 173.709 196.275C174.979 197.056 175.947 198.959 177.951 197.994C181.299 196.38 182.58 197.013 183.408 200.705C183.486 201.052 183.545 201.423 183.701 201.74C184.959 204.251 186.635 204.482 188.537 202.439C189.85 201.033 190.568 199.302 191.197 197.537C191.436 196.869 192.385 196.033 191.4 195.462C190.232 194.787 189.318 193.334 187.627 193.861C184.205 194.923 183.26 194.4 182.424 190.99C182.186 190.017 179.154 187.482 178.322 187.56ZM122.213 294.58C121.354 297.001 117.557 305.001 116.295 306.841C115.83 307.521 115.619 308.044 116.436 308.642C118.471 310.126 120.463 311.677 122.479 313.189C123.35 313.841 124.002 313.654 124.615 312.732C126.85 309.357 128.76 305.814 130.326 302.083C130.619 301.384 130.791 300.751 129.998 300.185C127.475 298.404 124.979 296.58 122.213 294.58ZM210.084 218.802C210.51 214.99 210.604 211.423 210.592 207.845C210.588 206.994 210.084 206.521 209.455 206.142C205.814 203.955 202.154 201.794 198.521 199.591C197.721 199.103 197.322 199.166 196.928 200.095C196.334 201.482 195.627 202.83 194.85 204.123C194.045 205.459 193.396 204.998 192.986 203.642C192.252 204.798 191.604 205.822 190.885 206.959C197.197 210.853 203.537 214.763 210.084 218.802ZM79.7168 467.041C68.041 471.216 56.3535 473.318 44.2246 475.533C47.2949 477.853 50.1816 479.369 53.3262 480.486C58.9785 482.501 64.9043 482.837 70.7637 483.623C71.6074 483.736 72.1504 483.431 72.5215 482.705C75.0293 477.787 77.6894 472.935 79.7168 467.041ZM100.389 115.888C91.9394 118.533 37.6426 145.49 35.9316 146.103C35.5098 146.255 34.9199 146.287 34.916 147.021C34.9082 149.337 38.5723 151.9 40.7519 151.072C48.4668 148.142 55.7754 144.361 63.0449 140.498C74.3183 134.505 85.4941 128.318 97.1504 123.072C97.7012 122.826 98.1816 122.513 98.3808 121.927C99.0215 120.044 99.6387 118.15 100.389 115.888ZM221.475 105.271C231.439 96.9351 242.201 91.0444 254.322 87.3413C244.279 83.7866 235.908 77.8921 228.799 69.9936C228.713 71.1811 228.826 72.2241 229.006 73.2515C229.807 77.771 230.314 82.2124 227.459 86.3374C226.4 87.8686 225.768 89.689 224.838 91.3179C222.432 95.5132 221.705 100.095 221.475 105.271ZM37.248 253.533C38.1387 236.947 40.3379 220.501 42.6387 204.064C43.8066 195.705 44.8848 187.337 46.0332 178.978C46.1582 178.076 46.1816 177.201 45.0176 177.431C43.9824 177.634 42.3535 176.103 41.9316 178.353C41.5058 180.619 41.0449 182.88 40.6504 185.154C38.1738 199.509 36.5918 214.005 33.7793 228.314C32.2871 235.884 31.9824 243.638 31.0488 251.298C30.6269 254.751 37.0918 256.466 37.248 253.533ZM168.033 193.064C169.986 190.955 170.865 188.158 172.428 185.802C173.209 184.623 172.846 184.103 171.752 183.486C167.291 180.966 162.861 178.388 158.436 175.806C137.682 163.701 116.803 151.802 95.9082 139.931C94.5254 139.146 94.1699 139.47 93.6152 140.732C92.5957 143.041 91.5254 145.345 90.2051 147.486C89.1308 149.224 89.3574 150.048 91.166 151.08C101.139 156.755 167.818 192.947 168.033 193.064ZM17.4355 311.748C17.1894 312.556 16.9941 313.021 16.9082 313.505C15.6152 320.533 14.2871 327.556 13.3652 334.642C13.0762 336.833 15.8848 339.841 15.9394 339.884C18.4863 341.814 20.8418 343.978 22.6191 346.623C26.8144 352.849 30.3574 359.474 33.4902 366.287C36.3144 372.427 38.7168 378.767 41.3144 385.017C42.6348 388.197 43.8418 391.412 45.2793 394.552C46.4785 397.185 46.9473 400.185 48.0566 402.927C50.4082 408.763 53.041 414.513 54.998 420.478C57.6894 428.681 59.8848 437.044 62.248 445.353C64.3769 452.841 66.4824 460.341 68.5137 467.861C68.9199 469.361 69.7754 469.095 70.791 468.857C71.9238 468.591 71.9629 468.037 71.6269 466.97C69.2988 459.529 67.4433 451.962 65.6191 444.388C62.2676 430.498 57.916 416.876 54.3144 403.052C49.9785 386.431 45.0527 369.99 38.9121 353.939C35.1074 343.982 31.3926 333.966 25.9199 324.751C23.3496 320.423 20.6894 316.146 17.4355 311.748ZM205.236 465.923C206.748 466.119 207.666 466.283 208.588 466.353C213.557 466.74 218.525 467.072 223.49 467.49C232.408 468.244 241.287 469.49 250.236 469.841C261.639 470.287 273.049 470.58 284.459 470.884C290.666 471.048 296.877 471.119 303.076 471.556C304.42 471.65 306.029 471.916 307.002 470.81C309.779 467.65 311.979 464.084 313.74 460.259C314.064 459.56 313.947 459.08 313.014 458.884C308.33 457.927 303.686 457.498 299.287 459.923C294.279 462.689 289.217 461.673 284.154 460.228C282.619 459.787 281.314 458.814 280.037 457.873C279.607 457.556 278.893 457.181 279.26 456.513C279.701 455.705 280.229 456.435 280.701 456.638C281.295 456.9 281.893 457.162 282.467 457.459C287.615 460.13 293.139 460.548 298.385 458.56C303.369 456.673 308.146 456.209 313.186 457.572C314.209 457.849 314.818 457.681 315.123 456.576C315.955 453.584 316.861 450.619 317.322 447.533C317.592 445.712 316.74 444.931 315.1 444.908C309.588 444.837 304.127 445.173 298.889 447.142C294.893 448.642 290.799 449.224 286.568 448.24C284.979 447.869 283.463 447.423 282.76 445.748C282.471 445.064 281.908 445.037 281.334 445.021C280.576 444.998 280.697 445.634 280.564 446.095C279.791 448.794 279.521 451.623 278.244 454.189C276.756 455.837 275.271 455.626 272.838 456.806C266.822 460.794 260.311 461.72 253.365 460.626C251.35 460.31 249.217 459.771 248.006 458.08C246.787 456.373 245.201 455.853 243.369 455.404C239.842 454.541 232.482 457.892 224.229 458.087C222.455 457.904 220.689 457.357 218.998 456.759C217.338 456.173 217.115 455.619 217.275 454.095C220.779 456.619 224.658 458.205 228.924 456.611C231.717 455.564 234.459 454.56 237.42 454.22C238.193 454.13 238.822 454.017 238.904 453.037C239.166 449.923 239.971 446.927 240.943 443.97C241.303 442.884 240.986 442.482 239.814 442.822C237.455 443.498 235.025 443.966 232.729 444.798C228.303 446.404 224.08 446.091 219.982 443.888C219.01 443.365 218.76 443.724 218.568 444.599C218.115 446.662 217.342 448.611 216.326 450.451C213.33 455.884 210.107 461.166 205.236 465.923ZM209.014 268.775C207.729 269.869 169.354 306.861 161.041 314.462C160.111 315.31 160.432 315.662 161.279 316.177C166.518 319.361 171.592 322.837 176.99 325.712C187.85 331.498 199.459 335.443 211.225 338.955C212.607 339.365 212.998 339.185 212.904 337.685C212.584 332.712 212.244 327.74 212.162 322.763C212.021 314.037 210.338 305.447 210.111 296.728C209.869 287.361 209.389 278.001 209.014 268.775ZM96.8262 126.041C96.0957 126.287 95.8105 126.349 95.5488 126.47C81.6269 132.837 68.166 140.123 54.623 147.244C53.9043 147.619 53.5371 148.123 53.3926 148.876C52.8183 151.822 51.7871 154.755 51.7519 157.701C51.6973 161.65 50.8457 165.419 50.1465 169.232C49.709 171.619 50.2324 174.49 48.5605 176.279C46.3613 178.63 46.7949 181.38 46.3926 184.005C45.9902 186.642 46.0254 189.341 45.6621 191.986C42.9512 211.572 40.1308 231.142 38.9902 250.908C38.7324 255.384 38.6387 255.322 43.0371 255.986C44.666 256.232 45.1582 255.755 45.2676 254.13C45.7051 247.494 46.7324 240.931 47.9394 234.392C50.123 222.544 54.1973 211.33 59.1074 200.357C62.291 193.248 64.6933 185.759 68.6113 179.005C75.8535 166.513 83.1074 154.033 89.8691 141.271C92.4238 136.451 94.8418 131.556 96.8262 126.041ZM248.584 441.931C253.225 444.935 258.01 447.072 263.623 444.693C268.928 442.443 274.42 442.283 279.986 443.306C282.631 443.794 284.561 446.72 286.975 447.224C289.611 447.943 292.131 447.423 294.576 446.408C300.619 443.888 306.986 443.209 313.439 443.181C318.115 443.166 318.127 443.255 317.736 438.466C317.658 437.482 317.764 436.33 316.682 435.783C314.889 434.869 303.357 433.248 299.74 432.13C290.99 429.435 282.314 426.498 273.658 423.513C261.369 419.279 249.604 413.47 236.646 411.24C231.846 410.412 227.033 409.681 222.15 409.521C221.229 409.494 220.482 409.4 220.557 410.798C218.568 444.599 229.346 442.673 234.354 441.681C237.771 441.001 241.197 440.025 244.721 441.068C246.49 441.595 247.463 441.205 248.584 441.931ZM216.682 125.97C217.811 124.912 218.678 124.091 219.553 123.279C220.455 122.443 221.322 121.572 222.271 120.791C237.529 108.216 255.131 102.599 274.752 104.005C284.943 104.736 293.908 109.06 301.494 116.044C309.459 123.38 312.99 133.021 315.482 143.142C317.889 152.916 317.865 162.888 317.322 172.869C316.9 180.654 316.287 188.373 313.994 195.931C310.143 208.65 305.479 221.08 301.072 233.599C297.74 243.072 293.506 252.169 289.084 261.181C286.885 265.662 285.525 270.47 284.779 275.423C284.553 276.908 285.416 277.853 286.568 278.31C287.717 278.763 288.615 277.935 289.221 276.966C289.65 276.283 290.107 275.63 290.799 275.216C292.85 273.982 294.236 272.134 295.455 270.162C299.975 262.845 303.537 255.013 307.275 247.298C310.775 240.087 313.541 232.548 315.295 224.634C316.697 218.306 319.018 212.189 320.654 205.908C325.193 188.537 328.896 171.052 326.822 152.9C325.307 139.587 322.111 126.74 315.416 115.044C310.248 106.017 303.795 98.1186 293.619 94.228C291.869 93.5561 290.154 92.8022 288.412 92.1069C276.627 87.4038 264.654 87.2046 252.525 90.5913C241.924 93.5483 232.635 98.9976 223.951 105.595C222.611 106.619 218.631 110.607 218.49 111.369C218.318 112.291 218.24 113.228 218.104 114.154C217.541 117.974 216.936 121.787 216.682 125.97ZM11.2832 389.349C13.7012 405.365 17.0644 421.173 22.9824 436.322C27.5605 448.048 31.5644 460.037 38.873 470.521C41.2754 473.97 43.8496 475.209 47.8652 473.955C48.4824 473.763 49.0918 473.494 49.7246 473.423C55.2558 472.791 60.5762 471.115 66.0254 470.095C67.5058 469.822 67.8262 469.298 67.3379 467.759C60.2949 445.47 54.3926 422.834 46.1777 400.9C40.7363 386.365 35.4551 371.791 28.2285 358.017C24.8574 351.591 21.0176 345.509 15.2051 340.923C14.5137 340.376 13.7402 339.626 12.9707 339.826C12.041 340.064 12.2676 341.267 12.1543 342.048C10.834 351.064 10.2832 382.705 11.2832 389.349ZM107.225 485.439C107.225 485.255 117.186 485.048 122.154 484.853C126.838 484.669 131.525 484.302 136.166 483.552C150.771 481.189 165.299 478.396 179.783 475.38C183.838 474.533 187.799 473.525 191.17 470.935C196.205 467.068 200.92 462.869 205.186 458.142C212.85 449.646 216.475 439.494 217.639 428.322C217.928 425.529 217.736 425.47 214.893 425.572C211.432 425.697 183.834 429.123 178.174 429.791C160.357 431.9 143.705 437.88 127.365 444.896C121.572 447.38 94.1074 462.525 85.1582 465.584C84.2715 465.884 83.3691 466.099 82.9551 467.126C80.7676 472.548 78.4863 477.923 75.4512 482.947C74.8652 483.919 75.1387 484.677 76.5019 484.427C77.7324 484.201 78.9473 484.341 80.1738 484.423C89.1816 484.998 98.1855 485.623 107.225 485.439ZM161.916 57.7827C149.33 59.1499 137.412 63.1811 125.244 66.2007C119.357 67.6616 114.229 71.1694 108.74 73.7085C107.557 74.2554 107.564 75.0952 107.654 76.189C108.432 85.439 108.252 94.6655 106.693 103.837C106.182 106.837 105.607 109.822 105.025 112.994C108.975 111.716 112.529 110.103 116.416 109.634C113.154 110.939 109.838 112.083 106.537 113.271C105.748 113.556 104.771 113.708 104.471 114.673C103.92 116.439 103.447 118.228 102.807 120.486C104.111 119.939 104.947 119.599 105.779 119.24C112.299 116.419 119.1 114.517 126.029 113.029C139.861 110.052 153.889 108.138 167.666 104.775C187.264 99.9897 206.373 94.2397 223.455 83.0796C226.354 81.1811 227.154 79.3101 226.119 75.7827C205.029 86.9468 182.877 95.2007 159.545 100.244C160.459 99.8022 161.412 99.478 162.377 99.1968C169.236 97.1968 176.072 95.0835 182.975 93.2358C189.904 91.3804 195.979 87.4233 202.959 85.5913C207.865 84.3061 212.482 81.853 217.15 79.7515C219.838 78.5405 222.381 77.0015 224.979 75.5835C225.596 75.2476 226.205 74.9429 226.061 73.9585C225.119 67.603 223.006 61.5601 221.139 55.4546C220.697 54.0171 219.795 53.5405 218.236 53.6226C210.451 54.021 178.252 56.0093 161.916 57.7827ZM107.021 71.0522C107.252 72.8179 107.482 73.4272 109.416 72.3921C120.268 66.5679 131.58 61.8101 143.525 58.771C159.545 54.6968 175.939 53.1733 192.396 52.1968C200.682 51.7046 209.014 52.0483 217.252 50.6968C218.881 50.4272 219.186 50.064 218.482 48.5601C214.6 40.2163 209.896 32.5249 202.213 27.0444C198.451 24.3608 194.885 21.4077 191.111 18.7475C171.963 5.22801 150.561 1.32567 127.639 4.00145C113.377 5.66551 100.971 12.1382 88.7207 19.0327C87.6269 19.646 87.6504 20.0991 88.4316 20.9507C91.5254 23.8452 105.818 53.4311 107.021 71.0522ZM71.7832 463.865C73.1465 468.158 73.0879 468.041 77.5488 466.876C79.7168 466.31 80.8223 465.138 81.4433 463.095C82.4863 459.642 83.7558 456.259 84.8027 452.806C88.1348 441.845 90.2637 430.716 90.3144 419.177C90.3652 407.974 88.7285 397.052 86.2285 386.177C83.5527 374.548 80.3613 363.103 75.209 352.298C71.6426 344.81 68.0332 337.341 64.3691 329.9C56.791 314.513 50.416 298.689 46.3691 281.97C44.6621 274.9 43.9512 267.744 44.0723 260.509C44.0918 259.13 43.8574 258.716 42.5957 258.607C38.8691 258.279 35.123 258.048 31.4277 257.486C29.0801 257.13 28.373 258.162 28.0293 260.162C27.2871 264.494 26.5215 268.826 25.6348 273.134C23.2051 284.935 20.2051 296.619 17.9902 308.466C17.8223 309.373 17.4394 310.251 18.084 311.169C19.5918 313.326 21.1387 315.544 22.7871 317.505C25.4785 320.701 27.5215 324.201 29.3262 327.837C34.5723 338.38 38.4668 349.494 42.4394 360.548C48.416 377.189 53.6894 394.056 58.1113 411.189C61.9121 425.931 69.9941 458.232 71.7832 463.865ZM220.506 88.5561C219.584 89.0913 218.904 89.4741 218.232 89.8726C213.189 92.8569 207.924 95.3726 202.424 97.4038C190.686 101.74 178.549 104.642 166.357 107.337C157.561 109.287 148.881 111.728 139.943 113.087C127.58 114.966 115.369 117.572 103.85 122.681C102.943 123.08 101.939 123.322 101.354 124.283C98.9121 128.287 97.3262 132.685 95.3887 136.919C94.9355 137.912 95.1035 138.326 96.1777 138.826C99.9707 140.591 103.807 142.322 107.396 144.455C121.959 153.099 137.334 160.322 151.354 169.947C157.822 174.384 164.818 178.068 171.615 182.025C172.455 182.513 173.209 183.943 174.588 182.669C174.959 182.326 174.92 183.037 175.068 183.291C175.693 184.341 176.307 185.376 177.889 185.068C178.459 184.958 179.201 185.236 179.74 185.548C185.744 189.056 192.674 191.166 197.15 197.005C197.248 197.13 197.545 197.111 197.748 197.146C199.514 197.447 200.916 198.501 202.381 199.4C205.061 201.048 207.697 202.763 210.783 204.72C207.643 165.279 213.791 127.037 220.506 88.5561ZM209.818 227.81C209.818 226.681 209.666 225.919 209.846 225.244C210.436 223.017 209.346 221.861 207.564 220.771C202.018 217.392 196.561 213.869 191.061 210.408C190.635 210.142 190.193 209.845 189.717 209.72C183.311 208.048 177.85 204.537 172.506 200.826C171.459 200.099 170.068 199.88 169.4 198.529C169.021 197.763 167.451 197.673 168.193 196.166C168.275 195.99 166.881 195.001 166.1 194.505C161.119 191.376 103.369 159.115 90.2715 151.498C88.7519 150.611 88.3066 150.919 87.5762 152.212C83.8105 158.873 69.4629 182.587 66.9941 188.314C57.7988 209.638 51.3379 231.736 48.1035 254.755C47.8926 256.259 48.2871 256.751 49.7441 257.033C53.498 257.755 57.2207 258.642 60.9433 259.513C69.5918 261.544 78.1426 263.978 86.2129 267.701C99.9629 274.044 112.381 282.646 124.846 291.142C132.119 296.099 139.318 301.169 146.486 306.275C147.588 307.056 148.107 306.857 148.982 306.029C154.6 300.724 160.256 295.47 166.115 290.423C171.549 285.74 177.674 281.857 181.893 275.724C184.268 272.271 187.791 269.615 190.799 266.595C191.26 266.13 191.701 265.978 192.459 265.986C193.662 265.994 195.182 265.798 196.025 265.064C200.229 261.431 204.209 257.544 207.998 253.47C208.811 252.599 209.178 251.619 209.209 250.357C209.404 242.709 209.193 235.044 209.818 227.81ZM314.92 164.791C314.947 154.634 314.33 144.623 310.494 134.982C307.018 126.24 302.338 118.58 294.166 113.494C287.061 109.072 279.439 105.962 270.967 106.185C262.877 106.4 254.889 107.619 247.166 110.326C236.232 114.158 226.506 119.908 218.229 128.048C216.904 129.353 216.033 130.787 215.932 132.751C215.771 135.705 215.408 138.65 215.045 141.583C213.592 153.349 212.912 165.169 212.439 177.005C212.025 187.333 212.857 197.65 213.061 207.97C213.256 217.873 212.678 227.759 212.752 237.65C212.814 246.521 213.377 255.388 213.463 264.259C213.58 276.533 213.389 288.794 214.018 301.076C214.9 318.275 215.494 335.494 216.338 352.701C217.154 369.298 218.088 385.88 220.076 402.388C220.186 403.298 219.975 404.263 221.486 404.251C226.213 404.209 230.799 405.349 235.396 406.244C236.818 406.517 237.127 406.259 237.146 404.865C237.209 400.603 237.447 396.334 238.201 392.138C240.658 378.513 244.982 365.419 249.932 352.533C256.283 335.978 264.639 320.275 270.729 303.583C273.521 295.935 277.842 288.919 281.709 281.736C282.068 281.072 282.744 280.451 282.455 279.56C280.85 274.576 282.596 270.009 284.307 265.486C286.709 259.123 290.357 253.345 293.033 247.103C298.189 235.076 302.123 222.607 306.713 210.376C312.24 195.638 314.877 180.47 314.92 164.791ZM117.514 447.849C129.525 441.064 142.377 436.294 155.592 432.552C175.092 427.037 195.154 425.158 215.295 424.021C217.236 423.912 217.775 423.435 217.564 421.525C217.08 417.228 216.713 412.912 216.443 408.595C215.158 388.193 214.061 367.779 213.342 347.349C213.197 343.173 213.193 343.13 208.986 342.505C202.576 341.544 196.596 339.212 190.646 336.802C181.361 333.041 171.967 329.462 163.623 323.763C160.049 321.322 156.037 319.654 152.588 316.978C146.424 312.201 140.08 307.662 133.85 302.974C132.982 302.322 132.744 302.513 132.361 303.4C130.744 307.146 126.271 315.818 125.533 316.13C124.791 316.443 117.729 311.435 114.338 308.779C113.646 308.236 113.857 307.494 114.135 306.791C115.783 302.638 116.947 298.259 119.838 294.705C120.498 293.888 120.393 293.333 119.518 292.791C117.924 291.802 116.326 290.818 114.783 289.751C108.006 285.072 101.049 280.65 93.6543 277.048C79.5215 270.154 64.7168 265.193 49.1582 262.595C47.3418 262.294 46.4941 262.716 46.709 264.541C47.1855 268.619 47.6308 272.708 48.3223 276.751C51.7637 296.912 59.9238 315.396 68.7012 333.646C73.4512 343.521 78.584 353.212 82.0332 363.681C86.6933 377.822 90.8808 392.056 92.334 406.959C94.1933 426.068 91.6191 444.56 84.8027 462.49C84.5762 463.084 83.9394 463.677 84.4785 464.505C89.1816 462.806 116.268 448.552 117.514 447.849ZM43.8926 64.2905C32.373 85.189 25.6504 107.056 28.4512 131.201C29.0293 136.177 30.9277 140.654 33.3105 144.986C33.9746 146.197 34.7324 145.83 35.6308 145.435C41.0527 143.064 82.8887 121.876 99.248 115.443C100.42 114.982 100.725 114.06 101.057 112.974C104.842 100.666 105.65 88.1069 104.596 75.3257C102.041 49.9663 93.0644 34.185 89.2246 26.6186C88.3144 25.4116 84.748 21.4546 83.3262 22.3686C71.6543 29.8413 61.6308 39.0952 53.1699 50.0561C52.3223 51.1538 47.3301 58.0483 43.8926 64.2905ZM149.928 308.146C151.881 310.529 154.705 311.65 157.252 313.166C157.752 313.462 158.131 312.814 158.482 312.474C166.408 304.783 174.732 297.533 183.1 290.337C184.143 289.443 183.846 289.15 183.041 288.271C181.361 286.443 178.408 285.072 180.146 281.72C179.326 281.576 179.072 282.103 178.721 282.423C172.689 287.904 149.404 307.974 149.928 308.146ZM92.6933 274.294C81.2871 268.572 69.334 264.384 56.8887 261.591C54.2129 260.994 51.5683 260.263 48.9004 259.623C48.1035 259.431 47.3262 259.294 47.1816 260.537C47.0605 261.58 47.5957 261.775 48.416 261.833C48.8457 261.865 49.2715 261.986 49.7012 262.041C62.4668 263.654 74.5371 267.705 86.4316 272.423C88.9355 273.419 94.0683 276.322 94.4785 276.56C97.6387 278.384 100.811 280.189 103.951 282.044C108.33 284.634 122.67 293.56 124.678 295.06C127.803 297.404 149.311 313.966 157.549 319.013C167.889 325.345 178.85 330.525 189.986 335.31C196.955 338.306 204.029 341.001 211.607 342.048C212.049 342.107 212.697 342.634 212.861 341.857C212.998 341.201 212.26 341.173 211.799 341.08C208.545 340.404 205.412 339.322 202.221 338.431C187.838 334.423 174.658 327.83 162.111 319.873C148.514 311.251 135.678 301.525 122.439 292.38C121.307 291.599 93.3457 274.623 92.6933 274.294ZM278.08 452.642C279.115 451.115 279.053 448.892 279.529 447.017C279.654 446.529 279.861 445.927 279.338 445.642C278.689 445.291 272.115 444.755 269.564 445.209C266.42 445.767 263.584 447.232 260.623 448.33C256.611 449.814 248.947 443.169 248.182 442.931C247.779 442.806 247.572 443.228 247.537 443.607C247.186 447.209 246.264 450.681 245.271 454.142C245.041 454.947 247.139 456.177 250.982 458.642C255.912 460.529 260.916 460.263 265.752 458.513C269.1 457.306 277.049 454.169 278.08 452.642ZM263.193 330.58C271.432 315.24 277.646 298.931 285.744 283.529C286.35 282.38 286.963 281.24 287.623 280.126C287.869 279.712 288.24 279.181 288.822 279.576C289.268 279.876 289.002 280.38 288.826 280.755C287.604 283.373 286.377 285.986 285.123 288.587C283.807 291.318 282.127 293.923 281.189 296.779C278.979 303.505 275.994 309.904 273.295 316.423C266.83 332.033 259.971 347.482 254.232 363.384C249.213 377.291 246.342 391.584 246.389 406.427C246.396 408.474 247.025 409.365 249.029 410.056C265.822 415.837 282.545 421.826 299.33 427.634C304.717 429.498 310.365 430.662 315.643 432.779C320.9 434.892 322.291 434.962 322.381 441.263C322.393 442.185 322.447 442.689 323.639 442.673C332.252 442.572 340.787 441.705 349.248 440.087C349.67 440.005 350.072 439.806 350.498 439.751C351.139 439.666 351.736 438.724 352.4 439.533C352.979 440.232 352.166 440.626 351.932 441.173C351.689 441.74 332.104 447.08 321.318 447.134C321.396 445.88 319.791 448.084 319.623 448.849C318.99 451.677 318.299 454.494 317.092 457.126C316.311 458.826 316.893 459.033 318.463 458.916C323.373 458.552 328.201 457.646 333.064 456.955C340.842 455.841 348.314 453.744 355.385 450.287C355.736 450.115 356.135 449.615 356.506 450.123C356.99 450.787 356.389 451.162 355.955 451.525C351.6 455.162 346.939 458.126 341.119 458.873C333.252 459.888 325.451 461.556 317.451 461.041C316.506 460.978 316.186 461.521 315.807 462.134C314.861 463.673 313.725 465.126 313.002 466.763C310.627 472.15 306.162 473.716 300.752 474.232C295.842 474.701 263.908 473.302 255.244 473.037C245.041 472.716 204.85 469.341 203.689 468.103C203.322 467.712 203.092 468.029 202.818 468.251C196.018 473.634 188.479 477.427 179.857 478.892C176.002 479.548 172.357 480.998 168.584 481.955C160.307 484.048 151.826 485.009 143.432 486.455C126.475 489.373 109.338 489.896 92.2402 489.271C78.5488 488.771 64.9355 486.673 51.5293 483.626C50.0801 483.298 39.2754 476.384 37.7715 475.009C32.4785 470.169 29.8418 463.587 26.9785 457.275C18.3769 438.314 12.166 418.544 9.06835 397.947C6.2246 379.052 6.43163 360.091 9.291 341.154C10.7715 331.373 12.2793 321.599 14.2715 311.908C14.5293 310.654 14.2637 309.888 13.2988 309.119C9.52928 306.115 6.68163 302.259 3.85741 298.431C0.818346 294.314 0.564441 289.462 0.931628 284.583C1.11132 282.189 3.43163 281.759 5.00585 280.611C6.98241 279.166 8.17772 280.029 9.58006 281.47C12.2793 284.244 14.4316 287.373 16.2832 290.748C16.7558 291.611 17.0449 292.615 18.0644 293.392C19.0996 289.24 20.1621 285.228 21.0918 281.185C23.5488 270.494 24.9199 259.607 26.9238 248.834C30.3769 230.294 31.7793 211.466 35.0566 192.904C37.0644 181.513 38.3496 170.033 37.5605 158.416C37.4785 157.162 37.2676 155.998 36.4355 154.994C27.3691 143.994 24.4941 131.037 25.3223 117.251C26.3379 100.205 30.4824 83.8022 38.6621 68.7476C44.1348 58.6733 50.7441 49.2319 58.3691 40.5991C65.9551 32.0132 74.3574 24.2515 83.9473 17.9741C95.9512 10.1225 108.955 4.45067 123.205 2.0327C136.064 -0.14699 148.951 -0.432146 161.717 2.57567C170.748 4.70457 179.377 7.94286 187.373 12.8061C196.045 18.0757 204.498 23.5796 211.201 31.3491C216.916 37.9819 221.193 45.4546 224.232 53.6655C226.545 59.9155 230.385 65.2007 235.744 69.0679C245.4 76.0405 256.162 81.021 267.365 84.9194C272.322 86.646 277.799 86.3452 282.869 87.8374C294.979 91.4077 306.029 96.7437 314.131 106.916C318.287 112.13 320.967 118.099 323.131 124.337C327.83 137.908 329.795 151.931 330.189 166.228C330.311 170.529 329.596 174.72 328.842 178.912C326.939 189.509 324.314 199.947 321.971 210.447C318.939 224.025 314.744 237.216 309.201 249.943C305.482 258.478 301.104 266.72 295.334 274.115C293.947 275.888 292.115 276.943 289.986 277.888C287.045 279.197 284.072 280.599 282.572 284.138C276.799 297.759 270.768 311.271 264.771 324.798C262.963 328.888 260.955 332.888 259.057 336.935C258.822 337.431 258.424 337.892 258.592 338.72C259.705 336.978 260.729 335.38 261.744 333.787C261.342 334.794 261.037 335.845 260.533 336.787C259.029 339.583 257.205 342.228 255.939 345.126C250.471 357.658 239.221 396.775 238.834 404.869C238.756 406.447 239.197 407.103 240.807 407.494C244.264 408.326 244.213 408.451 244.232 404.857C244.365 381.119 251.232 359.064 261.049 337.755C262.045 335.591 263.037 333.427 263.99 331.248C264.123 330.951 264.643 330.494 263.959 330.244C263.768 330.177 263.451 330.458 263.193 330.58Z" fill="#68686D"/>
</svg>
